<svg width="24" height="24" viewBox="0 0 24 24" fill="none" xmlns="http://www.w3.org/2000/svg">
<g clip-path="url(#clip0_3372_394)">
<path d="M1.5 16.5C1.086 16.5 0.75 16.164 0.75 15.75V9.75C0.75 8.509 1.759 7.5 3 7.5H4.5C4.914 7.5 5.25 7.836 5.25 8.25C5.25 8.664 4.914 9 4.5 9H3C2.586 9 2.25 9.336 2.25 9.75V12H3.75C4.164 12 4.5 12.336 4.5 12.75C4.5 13.164 4.164 13.5 3.75 13.5H2.25V15.75C2.25 16.164 1.914 16.5 1.5 16.5Z" fill="#252525"/>
<path d="M10.5 16.5C10.238 16.5 9.991 16.36 9.857 16.136L8.25 13.458V15.75C8.25 16.164 7.914 16.5 7.5 16.5C7.086 16.5 6.75 16.164 6.75 15.75V8.25C6.75 7.836 7.086 7.5 7.5 7.5H8.625C10.072 7.5 11.25 8.678 11.25 10.125C11.25 11.259 10.522 12.244 9.487 12.603L11.143 15.364C11.246 15.536 11.276 15.737 11.227 15.932C11.178 16.127 11.057 16.29 10.885 16.393C10.77 16.463 10.636 16.5 10.5 16.5ZM8.625 11.25C9.245 11.25 9.75 10.745 9.75 10.125C9.75 9.505 9.245 9 8.625 9H8.25V11.25H8.625Z" fill="#252525"/>
<path d="M15 16.5C13.759 16.5 12.75 15.491 12.75 14.25V9.75C12.75 8.509 13.759 7.5 15 7.5H16.5C16.914 7.5 17.25 7.836 17.25 8.25C17.25 8.664 16.914 9 16.5 9H15C14.586 9 14.25 9.336 14.25 9.75V12H16.5C16.914 12 17.25 12.336 17.25 12.75C17.25 13.164 16.914 13.5 16.5 13.5H14.25V14.25C14.25 14.664 14.586 15 15 15H16.5C16.914 15 17.25 15.336 17.25 15.75C17.25 16.164 16.914 16.5 16.5 16.5H15Z" fill="#252525"/>
<path d="M21 16.5C19.759 16.5 18.75 15.491 18.75 14.25V9.75C18.75 8.509 19.759 7.5 21 7.5H22.5C22.914 7.5 23.25 7.836 23.25 8.25C23.25 8.664 22.914 9 22.5 9H21C20.586 9 20.25 9.336 20.25 9.75V12H22.5C22.914 12 23.25 12.336 23.25 12.75C23.25 13.164 22.914 13.5 22.5 13.5H20.25V14.25C20.25 14.664 20.586 15 21 15H22.5C22.914 15 23.25 15.336 23.25 15.75C23.25 16.164 22.914 16.5 22.5 16.5H21Z" fill="#252525"/>
<path d="M2.25 24C1.009 24 0 22.991 0 21.75V18.75C0 18.336 0.336 18 0.75 18C1.164 18 1.5 18.336 1.5 18.75V21.75C1.5 22.164 1.836 22.5 2.25 22.5H21.75C22.164 22.5 22.5 22.164 22.5 21.75V18.75C22.5 18.336 22.836 18 23.25 18C23.664 18 24 18.336 24 18.75V21.75C24 22.991 22.991 24 21.75 24H2.25Z" fill="#252525"/>
<path d="M23.25 6C22.836 6 22.5 5.664 22.5 5.25V2.25C22.5 1.836 22.164 1.5 21.75 1.5H2.25C1.836 1.5 1.5 1.836 1.5 2.25V5.25C1.5 5.664 1.164 6 0.75 6C0.336 6 0 5.664 0 5.25V2.25C0 1.009 1.009 0 2.25 0H21.75C22.991 0 24 1.009 24 2.25V5.25C24 5.664 23.664 6 23.25 6Z" fill="#252525"/>
</g>
<defs>
<clipPath id="clip0_3372_394">
<rect width="24" height="24" fill="white"/>
</clipPath>
</defs>
</svg>
