<svg width="24" height="24" viewBox="0 0 24 24" fill="none" xmlns="http://www.w3.org/2000/svg">
<path d="M9.87992 9.985C9.67992 9.985 9.49192 9.907 9.34992 9.766C9.05692 9.473 9.05692 8.998 9.34992 8.705C10.2269 7.828 10.2269 6.401 9.34992 5.523C7.88792 4.061 7.88792 1.681 9.34992 0.219C9.49092 0.078 9.67992 0 9.87992 0C10.0799 0 10.2689 0.078 10.4099 0.22C10.5519 0.362 10.6299 0.55 10.6299 0.75C10.6299 0.95 10.5519 1.139 10.4099 1.28C9.53292 2.157 9.53292 3.585 10.4099 4.462C11.8719 5.924 11.8719 8.303 10.4099 9.765C10.2689 9.907 10.0799 9.985 9.87992 9.985Z" fill="#252525"/>
<path d="M13.887 9.985C13.687 9.985 13.499 9.907 13.357 9.766C13.064 9.473 13.064 8.997 13.357 8.705C14.234 7.828 14.234 6.401 13.357 5.524C11.895 4.062 11.895 1.682 13.357 0.22C13.498 0.078 13.687 0 13.887 0C14.087 0 14.276 0.078 14.417 0.22C14.559 0.362 14.637 0.55 14.637 0.75C14.637 0.95 14.559 1.139 14.417 1.28C13.992 1.705 13.758 2.27 13.758 2.871C13.758 3.472 13.992 4.037 14.417 4.462C15.879 5.924 15.879 8.303 14.417 9.765C14.276 9.907 14.087 9.985 13.887 9.985Z" fill="#252525"/>
<path d="M17.8941 9.985C17.6941 9.985 17.5061 9.907 17.3641 9.766C17.2221 9.624 17.1441 9.436 17.1441 9.235C17.1441 9.035 17.2221 8.846 17.3641 8.705C18.2411 7.828 18.2411 6.401 17.3641 5.524C15.9021 4.062 15.9021 1.682 17.3641 0.22C17.5051 0.078 17.6941 0 17.8941 0C18.0941 0 18.2831 0.078 18.4241 0.22C18.5661 0.362 18.6441 0.55 18.6441 0.75C18.6441 0.95 18.5661 1.139 18.4241 1.28C17.5471 2.157 17.5471 3.585 18.4241 4.462C19.8861 5.924 19.8861 8.303 18.4241 9.765C18.2831 9.907 18.0941 9.985 17.8941 9.985Z" fill="#252525"/>
<path d="M18.75 19.5C18.336 19.5 18 19.164 18 18.75V12.75C18 12.336 18.336 12 18.75 12C19.164 12 19.5 12.336 19.5 12.75V18.75C19.5 19.164 19.164 19.5 18.75 19.5Z" fill="#252525"/>
<path d="M12.75 19.5C12.336 19.5 12 19.164 12 18.75V12.75C12 12.336 12.336 12 12.75 12C13.164 12 13.5 12.336 13.5 12.75V18.75C13.5 19.164 13.164 19.5 12.75 19.5Z" fill="#252525"/>
<path d="M15.75 19.5C15.336 19.5 15 19.164 15 18.75V12.75C15 12.336 15.336 12 15.75 12C16.164 12 16.5 12.336 16.5 12.75V18.75C16.5 19.164 16.164 19.5 15.75 19.5Z" fill="#252525"/>
<path d="M9.75 19.5C9.336 19.5 9 19.164 9 18.75V12.75C9 12.336 9.336 12 9.75 12C10.164 12 10.5 12.336 10.5 12.75V18.75C10.5 19.164 10.164 19.5 9.75 19.5Z" fill="#252525"/>
<path d="M4.5 10.125C5.12132 10.125 5.625 9.62132 5.625 9C5.625 8.37868 5.12132 7.875 4.5 7.875C3.87868 7.875 3.375 8.37868 3.375 9C3.375 9.62132 3.87868 10.125 4.5 10.125Z" fill="#252525"/>
<path d="M4.5 14.625C5.12132 14.625 5.625 14.1213 5.625 13.5C5.625 12.8787 5.12132 12.375 4.5 12.375C3.87868 12.375 3.375 12.8787 3.375 13.5C3.375 14.1213 3.87868 14.625 4.5 14.625Z" fill="#252525"/>
<path d="M20.25 24C19.836 24 19.5 23.664 19.5 23.25V22.5H4.5V23.25C4.5 23.664 4.164 24 3.75 24C3.336 24 3 23.664 3 23.25V22.5H2.25C1.009 22.5 0 21.491 0 20.25V6.75C0 5.509 1.009 4.5 2.25 4.5H5.25C5.664 4.5 6 4.836 6 5.25C6 5.664 5.664 6 5.25 6H2.25C1.836 6 1.5 6.336 1.5 6.75V20.25C1.5 20.664 1.836 21 2.25 21H21.75C22.164 21 22.5 20.664 22.5 20.25V6.75C22.5 6.336 22.164 6 21.75 6C21.336 6 21 5.664 21 5.25C21 4.836 21.336 4.5 21.75 4.5C22.991 4.5 24 5.509 24 6.75V20.25C24 21.491 22.991 22.5 21.75 22.5H21V23.25C21 23.664 20.664 24 20.25 24Z" fill="#252525"/>
</svg>
