<svg width="24" height="24" viewBox="0 0 24 24" fill="none" xmlns="http://www.w3.org/2000/svg">
<g clip-path="url(#clip0_2779_715)">
<path d="M0.721924 21.004C0.307924 21.004 -0.0280762 20.668 -0.0280762 20.254C-0.0280762 19.84 0.307924 19.504 0.721924 19.504H8.22192C8.63592 19.504 8.97192 19.84 8.97192 20.254C8.97192 20.668 8.63592 21.004 8.22192 21.004H0.721924Z" fill="#252525"/>
<path d="M19.269 24.0169C19.078 24.0169 18.886 23.9919 18.699 23.9439C18.117 23.7929 17.629 23.4239 17.325 22.9049L14.972 18.9039V21.7539C14.972 22.9949 13.963 24.0039 12.722 24.0039C11.481 24.0039 10.472 22.9949 10.472 21.7539V18.0039H9.72202C8.86402 18.0039 8.09302 17.5269 7.70902 16.7599L6.33802 14.0199L4.02202 17.1039C3.60002 17.6669 2.92602 18.0029 2.22002 18.0029C1.73102 18.0029 1.26502 17.8479 0.873021 17.5549C0.393021 17.1949 0.0810214 16.6689 -0.00397863 16.0729C-0.0889786 15.4779 0.0620213 14.8849 0.422021 14.4049L4.92202 8.40493C5.33802 7.84093 6.00902 7.50293 6.71502 7.50293C6.78602 7.50293 6.85802 7.50593 6.93002 7.51293C7.70802 7.58293 8.38402 8.04393 8.73502 8.74693L11.113 13.5029H15.722C16.508 13.5029 17.247 13.9209 17.651 14.5949C17.651 14.5949 21.193 20.6049 21.194 20.6069C21.194 20.6069 21.202 20.6199 21.206 20.6269C21.51 21.1449 21.594 21.7509 21.443 22.3329C21.292 22.9149 20.923 23.4029 20.404 23.7069C20.059 23.9099 19.666 24.0169 19.269 24.0169ZM14.872 16.5039C15.137 16.5039 15.384 16.6459 15.518 16.8739L18.618 22.1459C18.72 22.3189 18.882 22.4419 19.076 22.4929C19.139 22.5089 19.203 22.5179 19.267 22.5179C19.399 22.5179 19.529 22.4819 19.644 22.4139C19.817 22.3119 19.94 22.1499 19.991 21.9559C20.041 21.7619 20.013 21.5599 19.912 21.3879C19.91 21.3839 16.361 15.3629 16.361 15.3629C16.229 15.1429 15.983 15.0039 15.721 15.0039H10.648C10.362 15.0039 10.105 14.8449 9.97702 14.5899L7.39302 9.41793C7.27602 9.18393 7.05102 9.02993 6.79002 9.00693C6.76402 9.00393 6.74102 9.00293 6.71802 9.00293C6.48402 9.00293 6.26302 9.11393 6.12602 9.29993L1.62202 15.3049C1.50202 15.4649 1.45202 15.6619 1.48002 15.8599C1.50902 16.0589 1.61202 16.2339 1.77202 16.3539C1.90202 16.4519 2.05702 16.5029 2.22002 16.5029C2.46002 16.5029 2.67902 16.3939 2.82102 16.2039L5.86502 12.1499C6.00602 11.9619 6.23002 11.8499 6.46602 11.8499C6.48802 11.8499 6.51002 11.8509 6.53102 11.8529C6.79302 11.8769 7.01802 12.0299 7.13602 12.2639L9.05002 16.0879C9.17802 16.3439 9.43502 16.5029 9.72102 16.5029H11.222C11.636 16.5029 11.972 16.8389 11.972 17.2529V21.7529C11.972 22.1669 12.309 22.5029 12.722 22.5029C13.135 22.5029 13.472 22.1669 13.472 21.7529V17.2529C13.472 16.8389 13.808 16.5029 14.222 16.5029L14.872 16.5039Z" fill="#252525"/>
<path d="M7.47192 7.12793C5.61092 7.12793 4.09692 5.61393 4.09692 3.75293C4.09692 1.89193 5.61092 0.37793 7.47192 0.37793C9.33292 0.37793 10.8469 1.89193 10.8469 3.75293C10.8469 5.61393 9.33292 7.12793 7.47192 7.12793ZM7.47192 1.87793C6.43792 1.87793 5.59692 2.71893 5.59692 3.75293C5.59692 4.78693 6.43792 5.62793 7.47192 5.62793C8.50592 5.62793 9.34692 4.78693 9.34692 3.75293C9.34692 2.71893 8.50592 1.87793 7.47192 1.87793Z" fill="#252525"/>
<path d="M22.428 6.75098C22.193 6.75098 21.969 6.63898 21.828 6.45098C20.365 4.49898 21.122 3.50298 21.624 2.84398C22.018 2.32598 22.235 2.04098 21.757 1.08698C21.667 0.907977 21.653 0.703977 21.716 0.513977C21.779 0.323977 21.913 0.169977 22.092 0.0799766C22.195 0.0279766 22.311 0.000976562 22.427 0.000976562C22.713 0.000976562 22.97 0.159977 23.098 0.415977C23.993 2.20598 23.285 3.13598 22.817 3.75198C22.411 4.28498 22.244 4.50598 23.027 5.55098C23.147 5.71098 23.198 5.90898 23.169 6.10698C23.141 6.30498 23.037 6.48098 22.876 6.60098C22.747 6.69898 22.592 6.75098 22.428 6.75098Z" fill="#252525"/>
<path d="M18.678 6.75098C18.443 6.75098 18.219 6.63898 18.078 6.45098C16.615 4.49898 17.372 3.50298 17.874 2.84398C18.268 2.32598 18.485 2.04098 18.007 1.08698C17.917 0.907977 17.903 0.703977 17.966 0.513977C18.029 0.323977 18.163 0.169977 18.342 0.0799766C18.445 0.0279766 18.561 0.000976562 18.677 0.000976562C18.963 0.000976562 19.221 0.159977 19.348 0.415977C20.243 2.20598 19.535 3.13598 19.067 3.75198C18.661 4.28498 18.494 4.50598 19.277 5.55098C19.397 5.71098 19.448 5.90898 19.419 6.10698C19.391 6.30498 19.287 6.48098 19.126 6.60098C18.997 6.69898 18.842 6.75098 18.678 6.75098Z" fill="#252525"/>
<path d="M14.928 6.75098C14.693 6.75098 14.469 6.63898 14.328 6.45098C12.865 4.49898 13.622 3.50298 14.124 2.84398C14.518 2.32598 14.735 2.04098 14.257 1.08698C14.167 0.907977 14.153 0.703977 14.216 0.513977C14.279 0.323977 14.413 0.169977 14.592 0.0799766C14.695 0.0279766 14.811 0.000976562 14.927 0.000976562C15.214 0.000976562 15.471 0.159977 15.598 0.415977C16.493 2.20598 15.785 3.13598 15.317 3.75198C14.911 4.28498 14.744 4.50598 15.527 5.55098C15.647 5.71098 15.698 5.90898 15.669 6.10698C15.641 6.30498 15.537 6.48098 15.376 6.60098C15.247 6.69898 15.092 6.75098 14.928 6.75098Z" fill="#252525"/>
</g>
<defs>
<clipPath id="clip0_2779_715">
<rect width="24" height="24" fill="white"/>
</clipPath>
</defs>
</svg>
