<svg width="26" height="26" viewBox="0 0 26 26" fill="none" xmlns="http://www.w3.org/2000/svg">
<path d="M21.5 16.5H24C24.2761 16.5 24.5 16.2761 24.5 16C24.433 8.2 22.853 1.5 21.5 1.5V24.5" stroke="#252525" stroke-width="1.2" stroke-linecap="round" stroke-linejoin="round"/>
<path d="M1.5 1.5V6.5C1.5 8.15685 2.84315 9.5 4.5 9.5C6.15685 9.5 7.5 8.15685 7.5 6.5V1.5" stroke="#252525" stroke-width="1.2" stroke-linecap="round" stroke-linejoin="round"/>
<path d="M4.50098 1.5V24.5" stroke="#252525" stroke-width="1.2" stroke-linecap="round" stroke-linejoin="round"/>
<path d="M18.751 17C18.751 20.1756 16.1766 22.75 13.001 22.75C9.82534 22.75 7.25098 20.1756 7.25098 17C7.25098 13.8244 9.82534 11.25 13.001 11.25C16.1766 11.25 18.751 13.8244 18.751 17Z" stroke="#252525" stroke-width="1.5" stroke-linecap="round" stroke-linejoin="round"/>
</svg>
