<svg width="24" height="24" viewBox="0 0 24 24" fill="none" xmlns="http://www.w3.org/2000/svg">
<g clip-path="url(#clip0_2779_712)">
<path d="M20.25 24C19.009 24 18 22.991 18 21.75V21H6V21.75C6 22.991 4.991 24 3.75 24C2.509 24 1.5 22.991 1.5 21.75V20.871C0.615 20.558 0 19.71 0 18.75C0 18.138 0.127 17.542 0.377 16.979C0.389 16.949 0.402 16.921 0.417 16.893C0.635 16.429 0.925 16.014 1.28 15.659L3.104 13.835L4.747 9.447C5.184 8.282 6.313 7.5 7.556 7.5H8.25C8.664 7.5 9 7.836 9 8.25C9 8.664 8.664 9 8.25 9H7.559C6.935 9 6.37 9.391 6.152 9.973L4.832 13.5H12.75C13.164 13.5 13.5 13.836 13.5 14.25C13.5 14.664 13.164 15 12.75 15H4.061L2.561 16.5H5.25C5.664 16.5 6 16.836 6 17.25C6 17.664 5.664 18 5.25 18H1.602C1.534 18.246 1.5 18.498 1.5 18.75C1.5 19.164 1.836 19.5 2.25 19.5H21.75C22.164 19.5 22.5 19.164 22.5 18.75C22.5 18.498 22.466 18.247 22.398 18H18.75C18.336 18 18 17.664 18 17.25C18 16.836 18.336 16.5 18.75 16.5H21.439L20.469 15.53C20.327 15.388 20.249 15.2 20.249 15C20.249 14.8 20.327 14.611 20.469 14.47C20.611 14.329 20.799 14.25 20.999 14.25C21.199 14.25 21.388 14.328 21.529 14.47L22.718 15.659C23.072 16.014 23.363 16.429 23.581 16.892C23.596 16.92 23.61 16.949 23.622 16.979C23.873 17.542 24 18.138 24 18.75C24 19.71 23.385 20.558 22.5 20.872V21.751C22.5 22.991 21.491 24 20.25 24ZM19.5 21.75C19.5 22.164 19.836 22.5 20.25 22.5C20.664 22.5 21 22.164 21 21.75V21H19.5V21.75ZM3 21.75C3 22.164 3.336 22.5 3.75 22.5C4.164 22.5 4.5 22.164 4.5 21.75V21H3V21.75Z" fill="#252525"/>
<path d="M17.25 13.5C13.528 13.5 10.5 10.472 10.5 6.75C10.5 3.028 13.528 0 17.25 0C20.972 0 24 3.028 24 6.75C24 10.472 20.972 13.5 17.25 13.5ZM17.25 1.5C14.355 1.5 12 3.855 12 6.75C12 9.645 14.355 12 17.25 12C20.145 12 22.5 9.645 22.5 6.75C22.5 3.855 20.145 1.5 17.25 1.5Z" fill="#252525"/>
<path d="M15.75 10.5C15.336 10.5 15 10.164 15 9.75V3.75C15 3.336 15.336 3 15.75 3H17.25C18.491 3 19.5 4.009 19.5 5.25C19.5 6.491 18.491 7.5 17.25 7.5H16.5V9.75C16.5 10.164 16.164 10.5 15.75 10.5ZM17.25 6C17.664 6 18 5.664 18 5.25C18 4.836 17.664 4.5 17.25 4.5H16.5V6H17.25Z" fill="#252525"/>
</g>
<defs>
<clipPath id="clip0_2779_712">
<rect width="24" height="24" fill="white"/>
</clipPath>
</defs>
</svg>
