<svg width="24" height="24" viewBox="0 0 24 24" fill="none" xmlns="http://www.w3.org/2000/svg">
<g clip-path="url(#clip0_2779_716)">
<path d="M3 16.5C1.318 16.5 0 14.523 0 12C0 9.477 1.318 7.5 3 7.5C4.682 7.5 6 9.477 6 12C6 14.523 4.682 16.5 3 16.5ZM3 9C2.292 9 1.5 10.283 1.5 12C1.5 13.717 2.292 15 3 15C3.708 15 4.5 13.717 4.5 12C4.5 10.283 3.708 9 3 9Z" fill="#252525"/>
<path d="M8.25 9C6.568 9 5.25 7.023 5.25 4.5C5.25 1.977 6.568 0 8.25 0C9.932 0 11.25 1.977 11.25 4.5C11.25 7.023 9.932 9 8.25 9ZM8.25 1.5C7.542 1.5 6.75 2.783 6.75 4.5C6.75 6.217 7.542 7.5 8.25 7.5C8.958 7.5 9.75 6.217 9.75 4.5C9.75 2.783 8.958 1.5 8.25 1.5Z" fill="#252525"/>
<path d="M21 15.75C19.318 15.75 18 13.773 18 11.25C18 8.727 19.318 6.75 21 6.75C22.682 6.75 24 8.727 24 11.25C24 13.773 22.682 15.75 21 15.75ZM21 8.25C20.292 8.25 19.5 9.533 19.5 11.25C19.5 12.967 20.292 14.25 21 14.25C21.708 14.25 22.5 12.967 22.5 11.25C22.5 9.533 21.708 8.25 21 8.25Z" fill="#252525"/>
<path d="M15.75 9C14.068 9 12.75 7.023 12.75 4.5C12.75 1.977 14.068 0 15.75 0C17.432 0 18.75 1.977 18.75 4.5C18.75 7.023 17.432 9 15.75 9ZM15.75 1.5C15.042 1.5 14.25 2.783 14.25 4.5C14.25 6.217 15.042 7.5 15.75 7.5C16.458 7.5 17.25 6.217 17.25 4.5C17.25 2.783 16.458 1.5 15.75 1.5Z" fill="#252525"/>
<path d="M12 24C8.278 24 5.25 21.645 5.25 18.75C5.3 17.268 6.042 15.887 7.234 15.041C7.403 14.909 7.508 14.672 7.497 14.432L7.496 14.251C7.496 11.768 9.515 9.75 11.996 9.75C14.477 9.75 16.496 11.769 16.496 14.25V14.396C16.484 14.67 16.588 14.906 16.781 15.058C17.956 15.89 18.698 17.265 18.75 18.723C18.75 20.162 18.034 21.495 16.734 22.491C15.464 23.464 13.783 24 12 24ZM11.996 11.25C10.342 11.25 8.996 12.596 8.996 14.25V14.396C9.031 15.098 8.707 15.796 8.128 16.245C7.294 16.837 6.784 17.779 6.75 18.775C6.75 20.823 9.106 22.499 12 22.499C14.894 22.499 17.25 20.817 17.25 18.749C17.215 17.773 16.707 16.84 15.892 16.265C15.886 16.261 15.866 16.246 15.861 16.242C15.287 15.794 14.963 15.09 14.997 14.36L14.996 14.25C14.996 12.596 13.65 11.25 11.996 11.25Z" fill="#252525"/>
</g>
<defs>
<clipPath id="clip0_2779_716">
<rect width="24" height="24" fill="white"/>
</clipPath>
</defs>
</svg>
