<svg width="24" height="24" viewBox="0 0 24 24" fill="none" xmlns="http://www.w3.org/2000/svg">
<g clip-path="url(#clip0_3372_438)">
<path d="M3.75 6C2.509 6 1.5 4.991 1.5 3.75C1.5 2.509 2.509 1.5 3.75 1.5C3.88 1.504 4.006 1.517 4.128 1.54C4.655 0.595 5.65 0 6.747 0C8.405 0 9.75 1.346 9.75 3C9.75 4.654 8.404 6 6.75 6H3.75ZM3.734 3C3.329 3.003 3 3.338 3 3.75C3 4.164 3.336 4.5 3.75 4.5H6.75C7.577 4.5 8.25 3.827 8.25 3C8.25 2.174 7.579 1.502 6.754 1.5C6.752 1.5 6.747 1.5 6.747 1.5C6.048 1.5 5.433 1.995 5.283 2.678C5.229 2.924 5.056 3.125 4.821 3.216C4.735 3.25 4.644 3.267 4.55 3.267C4.394 3.267 4.244 3.22 4.117 3.13C4.004 3.05 3.872 3.005 3.734 3Z" fill="#252525"/>
<path d="M12.75 24C12.336 24 12 23.664 12 23.25C12 18.701 9.645 15 6.75 15C3.855 15 1.5 18.701 1.5 23.25C1.5 23.664 1.164 24 0.75 24C0.336 24 0 23.664 0 23.25C0 17.874 3.028 13.5 6.75 13.5C10.472 13.5 13.5 17.874 13.5 23.25C13.5 23.664 13.164 24 12.75 24Z" fill="#252525"/>
<path d="M23.2499 24C22.8359 24 22.4999 23.664 22.4999 23.25C22.4999 17.521 21.1989 12.225 19.0089 8.979L16.9159 10.374C16.7919 10.456 16.6479 10.5 16.4999 10.5C16.3519 10.5 16.2079 10.456 16.0839 10.374L14.2499 9.151L12.4159 10.374C12.2919 10.456 12.1489 10.5 11.9999 10.5C11.8509 10.5 11.7079 10.456 11.5839 10.374L10.0309 9.339C9.61195 10.006 9.22395 10.753 8.87695 11.565C8.75895 11.842 8.48795 12.02 8.18695 12.02C8.08495 12.02 7.98695 12 7.89295 11.96C7.70895 11.881 7.56595 11.735 7.49095 11.549C7.41595 11.363 7.41895 11.159 7.49695 10.975C7.98095 9.846 8.53995 8.828 9.15895 7.95C9.16995 7.927 9.18295 7.904 9.19795 7.882C9.21995 7.849 9.24595 7.816 9.27495 7.786C10.8399 5.636 12.6899 4.5 14.6249 4.5C16.4799 4.5 18.2589 5.537 19.7679 7.499C19.7779 7.509 19.7929 7.529 19.8079 7.551C19.8079 7.551 19.8089 7.553 19.8099 7.555C20.3899 8.319 20.9249 9.208 21.3999 10.199C23.0769 13.698 23.9999 18.334 23.9999 23.251C23.9999 23.664 23.6639 24 23.2499 24ZM14.2499 7.5C14.3979 7.5 14.5419 7.544 14.6659 7.626L16.4999 8.849L18.0829 7.794C17.0019 6.618 15.8129 6 14.6249 6C13.3469 6 12.0689 6.732 10.9099 8.122L11.9999 8.849L13.8339 7.626C13.9579 7.544 14.1019 7.5 14.2499 7.5Z" fill="#252525"/>
</g>
<defs>
<clipPath id="clip0_3372_438">
<rect width="24" height="24" fill="white"/>
</clipPath>
</defs>
</svg>
