<svg width="24" height="24" viewBox="0 0 24 24" fill="none" xmlns="http://www.w3.org/2000/svg">
<g clip-path="url(#clip0_3372_612)">
<path d="M6.09227 6.83079C7.72364 6.83079 9.04612 5.50831 9.04612 3.87694C9.04612 2.24558 7.72364 0.923096 6.09227 0.923096C4.46091 0.923096 3.13843 2.24558 3.13843 3.87694C3.13843 5.50831 4.46091 6.83079 6.09227 6.83079Z" stroke="#252525" stroke-width="1.3" stroke-linecap="round" stroke-linejoin="round"/>
<path fill-rule="evenodd" clip-rule="evenodd" d="M11.2616 13.4768C11.2616 10.622 8.94721 8.30762 6.09233 8.30762C3.23744 8.30762 0.923096 10.622 0.923096 13.4768V15.6922H3.13848L3.87694 23.0768H8.30771L9.04617 15.6922H11.2616V13.4768Z" stroke="#252525" stroke-width="1.3" stroke-linecap="round" stroke-linejoin="round"/>
<path d="M12.7385 18.6461H14.2154L14.9539 23.0768H19.3847L20.1231 18.6461H23.077L20.8616 11.9999C20.1231 9.78454 19.2084 8.30762 17.1693 8.30762C15.7674 8.30899 14.5202 9.19815 14.0618 10.523" stroke="#252525" stroke-width="1.3" stroke-linecap="round" stroke-linejoin="round"/>
<path d="M17.1693 6.83079C18.8007 6.83079 20.1231 5.50831 20.1231 3.87694C20.1231 2.24558 18.8007 0.923096 17.1693 0.923096C15.5379 0.923096 14.2155 2.24558 14.2155 3.87694C14.2155 5.50831 15.5379 6.83079 17.1693 6.83079Z" stroke="#252525" stroke-width="1.3" stroke-linecap="round" stroke-linejoin="round"/>
</g>
<defs>
<clipPath id="clip0_3372_612">
<rect width="24" height="24" fill="white"/>
</clipPath>
</defs>
</svg>
