<svg width="24" height="24" viewBox="0 0 24 24" fill="none" xmlns="http://www.w3.org/2000/svg">
<path d="M21.19 13.4541C20.819 13.4541 20.5 13.1761 20.448 12.8081C20.145 10.6501 18.965 8.67305 17.209 7.38305C16.876 7.13805 16.803 6.66805 17.048 6.33505C17.189 6.14305 17.415 6.02905 17.653 6.02905C17.814 6.02905 17.967 6.07905 18.096 6.17405C20.176 7.70205 21.575 10.0441 21.933 12.6001C21.961 12.7981 21.91 12.9961 21.789 13.1561C21.668 13.3161 21.493 13.4191 21.295 13.4471C21.259 13.4511 21.224 13.4541 21.19 13.4541Z" fill="#252525"/>
<path d="M3.58297 13.454C3.54897 13.454 3.51397 13.452 3.47897 13.447C3.06897 13.389 2.78197 13.009 2.83997 12.6C3.19897 10.045 4.59697 7.70303 6.67697 6.17503C6.80697 6.08003 6.95997 6.03003 7.12097 6.03003C7.35897 6.03003 7.58497 6.14403 7.72597 6.33603C7.97097 6.66903 7.89897 7.14003 7.56597 7.38503C5.80997 8.67503 4.62997 10.652 4.32597 12.81C4.27297 13.176 3.95397 13.454 3.58297 13.454Z" fill="#252525"/>
<path d="M12.389 23.578C10.826 23.578 9.27497 23.197 7.90497 22.478C7.53897 22.285 7.39797 21.831 7.58997 21.465C7.71997 21.217 7.97497 21.063 8.25397 21.063C8.37497 21.063 8.49597 21.093 8.60297 21.149C9.75897 21.757 11.068 22.078 12.389 22.078C13.598 22.078 14.808 21.806 15.888 21.291C15.99 21.242 16.098 21.218 16.21 21.218C16.498 21.218 16.764 21.385 16.888 21.645C16.974 21.826 16.985 22.03 16.918 22.219C16.851 22.408 16.715 22.559 16.534 22.646C15.253 23.256 13.82 23.578 12.389 23.578Z" fill="#252525"/>
<path d="M22.124 22.327C21.746 22.327 21.383 22.215 21.072 22.004L13.13 16.561C12.886 16.631 12.636 16.667 12.386 16.667C12.141 16.667 11.901 16.634 11.667 16.569L11.566 17.105C11.28 18.637 10.052 19.817 8.50901 20.041L2.17601 20.97C2.08201 20.987 1.97501 20.996 1.86901 20.996C1.48601 20.996 1.11501 20.878 0.797012 20.655C0.388012 20.368 0.114012 19.938 0.0280119 19.445C-0.115988 18.623 0.308012 17.796 1.06001 17.434L9.74401 13.278C9.86501 12.798 10.119 12.356 10.469 12.007L10.056 11.654C8.87701 10.64 8.46801 8.98705 9.04001 7.54205L11.405 1.58805C11.665 0.866047 12.371 0.373047 13.158 0.373047C13.374 0.373047 13.588 0.410047 13.792 0.484047C14.585 0.770047 15.091 1.55505 15.023 2.39505L14.279 11.982C14.643 12.333 14.898 12.771 15.023 13.254L15.536 13.073C15.926 12.935 16.333 12.865 16.746 12.865C17.867 12.865 18.909 13.369 19.605 14.249L23.576 19.271C23.887 19.644 24.037 20.128 23.991 20.626C23.945 21.124 23.709 21.574 23.326 21.894C22.991 22.174 22.564 22.327 22.124 22.327ZM21.918 20.766C21.978 20.807 22.05 20.828 22.126 20.828C22.214 20.828 22.299 20.797 22.366 20.742C22.442 20.678 22.489 20.589 22.498 20.489C22.507 20.39 22.477 20.293 22.413 20.217L18.429 15.18C18.02 14.662 17.407 14.366 16.747 14.366C16.504 14.366 16.264 14.407 16.035 14.488L14.947 14.871C14.841 15.164 14.686 15.435 14.488 15.674L21.918 20.766ZM1.71001 18.786C1.56101 18.857 1.47701 19.022 1.50601 19.185C1.52301 19.283 1.57801 19.369 1.65901 19.426C1.72201 19.47 1.79601 19.494 1.87201 19.494C1.89401 19.494 1.91601 19.492 1.93801 19.488L8.29201 18.557C9.20001 18.425 9.92301 17.731 10.091 16.829L10.303 15.697C10.101 15.458 9.94301 15.188 9.83401 14.897L1.71001 18.786ZM12.386 12.715C11.71 12.715 11.16 13.265 11.16 13.941C11.16 14.617 11.71 15.167 12.386 15.167C13.062 15.167 13.612 14.617 13.612 13.941C13.612 13.265 13.062 12.715 12.386 12.715ZM13.157 1.87205C13.103 1.87205 13.049 1.88405 12.999 1.90805C12.909 1.95005 12.841 2.02505 12.807 2.11805L10.434 8.09405C10.098 8.94505 10.338 9.91705 11.033 10.514L11.905 11.26C12.067 11.23 12.228 11.215 12.386 11.215C12.535 11.215 12.683 11.228 12.831 11.253L13.528 2.27605C13.541 2.10805 13.441 1.95105 13.283 1.89405C13.241 1.88005 13.199 1.87205 13.157 1.87205Z" fill="#252525"/>
</svg>
