<svg width="24" height="24" viewBox="0 0 24 24" fill="none" xmlns="http://www.w3.org/2000/svg">
<g clip-path="url(#clip0_3372_410)">
<path d="M0.750025 9C0.499025 9 0.265025 8.875 0.126025 8.666C0.0150253 8.499 -0.0239747 8.299 0.0150253 8.103C0.0540253 7.907 0.168025 7.737 0.334025 7.626L11.584 0.126C11.708 0.044 11.852 0 12 0C12.148 0 12.292 0.044 12.416 0.126L23.666 7.626C23.833 7.737 23.946 7.906 23.986 8.103C24.025 8.299 23.986 8.499 23.874 8.666C23.735 8.875 23.501 9 23.25 9C23.102 9 22.958 8.956 22.834 8.874L12 1.651L1.16603 8.874C1.04203 8.957 0.899025 9 0.750025 9Z" fill="#252525"/>
<path d="M2.25 24C1.836 24 1.5 23.664 1.5 23.25V12.75C1.5 12.336 1.837 12 2.25 12C2.663 12 3 12.336 3 12.75V13.5H5.25C7.261 13.5 8.907 15.091 8.996 17.08L9.335 16.402C10.23 14.612 12.029 13.499 14.031 13.499H18.75C20.818 13.499 22.5 15.181 22.5 17.249V23.249C22.5 23.663 22.164 23.999 21.75 23.999L2.25 24ZM21 22.5V19.5H3V22.5H21ZM21 18V17.25C21 16.009 19.991 15 18.75 15H14.031C12.602 15 11.316 15.794 10.677 17.073L10.214 18H21ZM7.5 18V17.25C7.5 16.009 6.491 15 5.25 15H3V18H7.5Z" fill="#252525"/>
</g>
<defs>
<clipPath id="clip0_3372_410">
<rect width="24" height="24" fill="white"/>
</clipPath>
</defs>
</svg>
