<svg width="24" height="24" viewBox="0 0 24 24" fill="none" xmlns="http://www.w3.org/2000/svg">
<path d="M19.5 9C17.432 9 15.75 7.318 15.75 5.25C15.75 3.182 17.432 1.5 19.5 1.5C21.568 1.5 23.25 3.182 23.25 5.25C23.25 7.318 21.568 9 19.5 9ZM19.5 3C18.259 3 17.25 4.009 17.25 5.25C17.25 6.491 18.259 7.5 19.5 7.5C20.741 7.5 21.75 6.491 21.75 5.25C21.75 4.009 20.741 3 19.5 3Z" fill="#252525"/>
<path d="M18 22.5C17.623 22.5 17.303 22.218 17.256 21.843L17.068 20.343C17.043 20.144 17.097 19.948 17.22 19.789C17.343 19.631 17.52 19.53 17.719 19.505C17.751 19.501 17.781 19.499 17.811 19.499C18.189 19.499 18.509 19.781 18.556 20.156L18.662 21H20.338L21.006 15.657C21.053 15.282 21.373 15 21.75 15H22.5V13.5C22.5 11.846 21.154 10.5 19.5 10.5C18.855 10.5 18.216 10.713 17.7 11.1C17.569 11.198 17.413 11.25 17.25 11.25C17.015 11.25 16.791 11.138 16.65 10.95C16.402 10.619 16.469 10.148 16.8 9.9C17.574 9.32 18.533 9 19.5 9C21.981 9 24 11.019 24 13.5V15.75C24 16.164 23.664 16.5 23.25 16.5H22.412L21.744 21.843C21.697 22.218 21.377 22.5 21 22.5H18Z" fill="#252525"/>
<path d="M4.5 9C2.432 9 0.75 7.318 0.75 5.25C0.75 3.182 2.432 1.5 4.5 1.5C6.568 1.5 8.25 3.182 8.25 5.25C8.25 7.318 6.568 9 4.5 9ZM4.5 3C3.259 3 2.25 4.009 2.25 5.25C2.25 6.491 3.259 7.5 4.5 7.5C5.741 7.5 6.75 6.491 6.75 5.25C6.75 4.009 5.741 3 4.5 3Z" fill="#252525"/>
<path d="M3 22.5C2.623 22.5 2.303 22.218 2.256 21.843L1.588 16.5H0.75C0.336 16.5 0 16.164 0 15.75V13.5C0 11.019 2.019 9 4.5 9C5.467 9 6.426 9.32 7.2 9.9C7.531 10.148 7.598 10.619 7.35 10.95C7.209 11.138 6.985 11.25 6.75 11.25C6.587 11.25 6.431 11.198 6.3 11.1C5.784 10.713 5.144 10.5 4.5 10.5C2.846 10.5 1.5 11.846 1.5 13.5V15H2.25C2.627 15 2.947 15.282 2.994 15.657L3.662 21H5.338L5.444 20.157C5.491 19.782 5.811 19.5 6.189 19.5C6.219 19.5 6.249 19.502 6.279 19.505C6.48 19.53 6.657 19.631 6.78 19.789C6.903 19.947 6.957 20.144 6.932 20.343L6.744 21.843C6.697 22.218 6.377 22.5 6 22.5H3Z" fill="#252525"/>
<path d="M12 12C10.346 12 9 10.654 9 9C9 7.346 10.346 6 12 6C13.654 6 15 7.346 15 9C15 10.654 13.654 12 12 12ZM12 7.5C11.173 7.5 10.5 8.173 10.5 9C10.5 9.827 11.173 10.5 12 10.5C12.827 10.5 13.5 9.827 13.5 9C13.5 8.173 12.827 7.5 12 7.5Z" fill="#252525"/>
<path d="M10.5 22.5C10.132 22.5 9.821 22.237 9.76 21.874L9.115 18H8.25C7.836 18 7.5 17.664 7.5 17.25V16.5C7.5 14.019 9.519 12 12 12C14.481 12 16.5 14.019 16.5 16.5V17.25C16.5 17.664 16.164 18 15.75 18H14.885L14.239 21.873C14.179 22.236 13.868 22.5 13.499 22.5H10.5ZM12.865 21L13.511 17.127C13.571 16.764 13.882 16.5 14.251 16.5H15C15 14.846 13.654 13.5 12 13.5C10.346 13.5 9 14.846 9 16.5H9.75C10.118 16.5 10.429 16.763 10.49 17.126L11.135 21H12.865Z" fill="#252525"/>
</svg>
