<svg width="24" height="24" viewBox="0 0 24 24" fill="none" xmlns="http://www.w3.org/2000/svg">
<path d="M21 16.25C20.586 16.25 20.25 15.914 20.25 15.5V8C20.25 7.586 20.586 7.25 21 7.25C21.414 7.25 21.75 7.586 21.75 8V15.5C21.75 15.914 21.414 16.25 21 16.25Z" fill="#252525"/>
<path d="M4.5 16.25C4.086 16.25 3.75 15.914 3.75 15.5V8.75H3C2.586 8.75 2.25 8.414 2.25 8C2.25 7.586 2.586 7.25 3 7.25H6C6.414 7.25 6.75 7.586 6.75 8C6.75 8.414 6.414 8.75 6 8.75H5.25V15.5C5.25 15.914 4.914 16.25 4.5 16.25Z" fill="#252525"/>
<path d="M12 16.25C11.586 16.25 11.25 15.914 11.25 15.5V13.25H9.75V15.5C9.75 15.914 9.414 16.25 9 16.25C8.586 16.25 8.25 15.914 8.25 15.5V9.5C8.25 8.259 9.259 7.25 10.5 7.25C11.741 7.25 12.75 8.259 12.75 9.5V15.5C12.75 15.914 12.414 16.25 12 16.25ZM11.25 11.75V9.5C11.25 9.086 10.914 8.75 10.5 8.75C10.086 8.75 9.75 9.086 9.75 9.5V11.75H11.25Z" fill="#252525"/>
<path d="M18.0001 16.25C17.6911 16.25 17.4181 16.065 17.3041 15.778L16.5001 13.769L15.6961 15.778C15.5821 16.065 15.3091 16.25 15.0001 16.25C14.9041 16.25 14.8101 16.232 14.7211 16.196C14.5351 16.122 14.3891 15.979 14.3111 15.795C14.2321 15.611 14.2291 15.407 14.3041 15.221L15.6931 11.75L14.3041 8.279C14.2301 8.093 14.2321 7.889 14.3111 7.705C14.3901 7.521 14.5361 7.378 14.7221 7.304C14.8111 7.268 14.9041 7.25 15.0001 7.25C15.3091 7.25 15.5821 7.435 15.6971 7.721L16.5001 9.731L17.3041 7.722C17.4191 7.435 17.6921 7.25 18.0001 7.25C18.0951 7.25 18.1891 7.268 18.2781 7.304C18.4641 7.378 18.6101 7.521 18.6891 7.705C18.7681 7.889 18.7711 8.093 18.6961 8.279L17.3071 11.75L18.6961 15.222C18.7701 15.408 18.7681 15.612 18.6891 15.796C18.6101 15.98 18.4641 16.123 18.2781 16.197C18.1901 16.232 18.0961 16.25 18.0001 16.25Z" fill="#252525"/>
<path d="M0.75 5C0.336 5 0 4.664 0 4.25C0 3.836 0.336 3.5 0.75 3.5H23.25C23.664 3.5 24 3.836 24 4.25C24 4.664 23.664 5 23.25 5H0.75Z" fill="#252525"/>
<path d="M0.75 20C0.336 20 0 19.664 0 19.25C0 18.836 0.336 18.5 0.75 18.5H23.25C23.664 18.5 24 18.836 24 19.25C24 19.664 23.664 20 23.25 20H0.75Z" fill="#252525"/>
</svg>
