<svg width="37" height="36" viewBox="0 0 37 36" fill="none" xmlns="http://www.w3.org/2000/svg">
<path d="M13.0856 6.46849C13.3443 6.14504 13.2919 5.67307 12.9684 5.41432C12.645 5.15556 12.1731 5.208 11.9142 5.53144L11.7462 5.74162C10.7484 6.98885 10.7484 8.76111 11.7462 10.0083L11.7723 10.0409C11.8982 10.1983 12.0396 10.3426 12.1944 10.4717C12.9147 11.0719 12.9147 12.178 12.1944 12.7783L12.0198 12.9238C11.7016 13.189 11.6586 13.6619 11.9238 13.9801C12.189 14.2983 12.6618 14.3413 12.9801 14.0761L13.1547 13.9306C14.5946 12.7307 14.5946 10.5193 13.1547 9.31933C13.0773 9.25483 13.0065 9.18261 12.9435 9.10386L12.9174 9.07123C12.3579 8.37186 12.3579 7.37806 12.9174 6.67867L13.0856 6.46849Z" fill="#6B6B6B"/>
<path fill-rule="evenodd" clip-rule="evenodd" d="M29 8.25C29 9.90683 27.6568 11.25 26 11.25C24.3432 11.25 23 9.90683 23 8.25C23 6.59314 24.3432 5.25 26 5.25C27.6568 5.25 29 6.59314 29 8.25ZM27.5 8.25C27.5 9.07845 26.8284 9.75 26 9.75C25.1716 9.75 24.5 9.07845 24.5 8.25C24.5 7.42157 25.1716 6.75 26 6.75C26.8284 6.75 27.5 7.42157 27.5 8.25Z" fill="#6B6B6B"/>
<path d="M28.372 24.287C27.9574 25.288 27.3497 26.1974 26.5836 26.9636C25.8175 27.7296 24.9081 28.3373 23.9071 28.7519C22.9062 29.1665 21.8334 29.3799 20.75 29.3799C20.3358 29.3799 20 29.0441 20 28.6299C20 28.2157 20.3358 27.8799 20.75 27.8799C21.6364 27.8799 22.5141 27.7053 23.3331 27.3661C24.1521 27.0269 24.8961 26.5297 25.523 25.9028C26.1498 25.2761 26.6469 24.532 26.9862 23.713C27.1447 23.3303 27.5834 23.1486 27.9661 23.3071C28.3488 23.4656 28.5305 23.9044 28.372 24.287Z" fill="#6B6B6B"/>
<path fill-rule="evenodd" clip-rule="evenodd" d="M33.5 18H30.5V16.5C30.5 14.0147 28.4853 12 26 12C23.5147 12 21.5 14.0147 21.5 16.5V18H3.5C3.08578 18 2.74813 18.336 2.76785 18.7497C2.85421 20.5619 3.25316 22.3476 3.9489 24.0273C4.6446 25.7069 5.62509 27.2516 6.84538 28.594L2.96967 32.4697C2.67678 32.7626 2.67678 33.2375 2.96967 33.5303C3.26257 33.8233 3.73743 33.8233 4.03033 33.5303L7.90604 29.6546C9.24852 30.875 10.7931 31.8554 12.4727 32.5511C14.3836 33.3426 16.4317 33.75 18.5 33.75C20.5683 33.75 22.6164 33.3426 24.5272 32.5511C26.2069 31.8554 27.7515 30.875 29.094 29.6546L32.9697 33.5303C33.2626 33.8233 33.7374 33.8233 34.0303 33.5303C34.3232 33.2375 34.3232 32.7626 34.0303 32.4697L30.1546 28.594C31.3749 27.2516 32.3554 25.7069 33.0511 24.0273C33.7468 22.3476 34.1458 20.5619 34.2322 18.7497C34.2519 18.336 33.9142 18 33.5 18ZM32.6708 19.5H4.32916C4.47276 20.8566 4.81069 22.1882 5.33471 23.4533C6.05084 25.1822 7.10049 26.753 8.42375 28.0763C9.74697 29.3995 11.3179 30.4492 13.0468 31.1653C14.7757 31.8815 16.6287 32.25 18.5 32.25C20.3713 32.25 22.2243 31.8815 23.9533 31.1653C25.6821 30.4492 27.253 29.3995 28.5763 28.0763C29.8995 26.753 30.9492 25.1822 31.6653 23.4533C32.1893 22.1882 32.5273 20.8566 32.6708 19.5ZM29 16.5V18H23V16.5C23 14.8432 24.3432 13.5 26 13.5C27.6568 13.5 29 14.8432 29 16.5Z" fill="#6B6B6B"/>
<path d="M8.46845 6.91432C8.79192 7.17307 8.84435 7.64503 8.5856 7.96851L8.41745 8.17866C7.85792 8.87803 7.85792 9.87186 8.41745 10.5712L8.44355 10.6039C8.50655 10.6826 8.57727 10.7548 8.65475 10.8193C10.0946 12.0193 10.0946 14.2307 8.65475 15.4306L8.48007 15.5761C8.16185 15.8413 7.68894 15.7983 7.42377 15.4801C7.1586 15.1619 7.20159 14.689 7.5198 14.4238L7.69447 14.2783C8.41467 13.678 8.41467 12.5719 7.69447 11.9717C7.53962 11.8426 7.39816 11.6983 7.27224 11.5409L7.24614 11.5083C6.24836 10.2611 6.24836 8.48886 7.24614 7.24162L7.41428 7.03144C7.67304 6.708 8.14497 6.65556 8.46845 6.91432Z" fill="#6B6B6B"/>
<path d="M17.5856 7.96851C17.8443 7.64503 17.7919 7.17307 17.4684 6.91432C17.145 6.65556 16.6731 6.708 16.4142 7.03144L16.2462 7.24162C15.2484 8.48886 15.2484 10.2611 16.2462 11.5083L16.2723 11.5409C16.3982 11.6983 16.5396 11.8426 16.6944 11.9717C17.4147 12.5719 17.4147 13.678 16.6944 14.2783L16.5198 14.4238C16.2016 14.689 16.1586 15.1619 16.4238 15.4801C16.689 15.7983 17.1618 15.8413 17.4801 15.5761L17.6547 15.4306C19.0946 14.2307 19.0946 12.0193 17.6547 10.8193C17.5773 10.7548 17.5065 10.6826 17.4435 10.6039L17.4174 10.5712C16.8579 9.87186 16.8579 8.87803 17.4174 8.17866L17.5856 7.96851Z" fill="#6B6B6B"/>
</svg>
