<svg width="37" height="36" viewBox="0 0 37 36" fill="none" xmlns="http://www.w3.org/2000/svg">
<path fill-rule="evenodd" clip-rule="evenodd" d="M11.3415 2.72102C10.7494 2.09291 9.75065 2.09291 9.15852 2.72102L3.15852 9.08578C2.89614 9.36411 2.75 9.73221 2.75 10.1147V19.9066H33.5C33.9142 19.9066 34.25 19.5708 34.25 19.1566C34.25 18.7423 33.9142 18.4066 33.5 18.4066H31.25V12.75H33.5C33.9142 12.75 34.25 12.4142 34.25 12C34.25 11.5858 33.9142 11.25 33.5 11.25H31.25V10.5C31.25 10.0858 30.9142 9.74998 30.5 9.74998C30.0858 9.74998 29.75 10.0858 29.75 10.5V11.25H26.75V10.5C26.75 10.0858 26.4142 9.74998 26 9.74998C25.5858 9.74998 25.25 10.0858 25.25 10.5V11.25H22.25V10.5C22.25 10.0858 21.9142 9.74998 21.5 9.74998C21.0858 9.74998 20.75 10.0858 20.75 10.5V11.25H17.75V10.1147C17.75 9.73221 17.6039 9.36411 17.3415 9.08578L11.3415 2.72102ZM17.75 12.75V18.4066H20.75V12.75H17.75ZM22.25 18.4066H25.25V12.75H22.25V18.4066ZM26.75 18.4066H29.75V12.75H26.75V18.4066ZM13.25 18.4066H16.25V10.1566H4.25V18.4066H7.25V13.9066C7.25 13.4923 7.58579 13.1566 8 13.1566H12.5C12.9142 13.1566 13.25 13.4923 13.25 13.9066V18.4066ZM11.75 18.4066H8.75V14.6566H11.75V18.4066ZM5.62458 8.65656H14.8754L10.25 3.74994L5.62458 8.65656Z" fill="#6B6B6B"/>
<path fill-rule="evenodd" clip-rule="evenodd" d="M29 8.25C30.6568 8.25 32 6.90686 32 5.25C32 3.59314 30.6568 2.25 29 2.25C27.3432 2.25 26 3.59314 26 5.25C26 6.90686 27.3432 8.25 29 8.25ZM29 6.75C29.8284 6.75 30.5 6.07843 30.5 5.25C30.5 4.42157 29.8284 3.75 29 3.75C28.1716 3.75 27.5 4.42157 27.5 5.25C27.5 6.07843 28.1716 6.75 29 6.75Z" fill="#6B6B6B"/>
<path d="M31.338 23.9809C30.5145 23.3221 29.3153 23.4432 28.6402 24.2533L28.4512 24.4802C27.1755 26.0109 24.8245 26.0109 23.5488 24.4802C22.8729 23.669 21.6271 23.669 20.9512 24.4802C19.6755 26.0109 17.3245 26.0109 16.0488 24.4802C15.3729 23.669 14.1271 23.669 13.4512 24.4802C12.1755 26.0109 9.82452 26.0109 8.54885 24.4802L8.35985 24.2533C7.68472 23.4432 6.48555 23.3221 5.66208 23.9809L3.96855 25.3357C3.6451 25.5944 3.17313 25.542 2.91438 25.2185C2.65562 24.8951 2.70806 24.4232 3.0315 24.1643L4.72503 22.8095C6.18627 21.6406 8.31417 21.8554 9.51215 23.293L9.70122 23.5198C10.3771 24.331 11.6229 24.331 12.2988 23.5198C13.5745 21.9891 15.9255 21.9891 17.2012 23.5198C17.8771 24.331 19.1229 24.331 19.7988 23.5198C21.0745 21.9891 23.4255 21.9891 24.7012 23.5198C25.3771 24.331 26.6229 24.331 27.2989 23.5198L27.4879 23.293C28.6859 21.8554 30.8138 21.6406 32.275 22.8095L33.9685 24.1643C34.292 24.4232 34.3444 24.8951 34.0857 25.2185C33.8269 25.542 33.355 25.5944 33.0315 25.3357L31.338 23.9809Z" fill="#6B6B6B"/>
<path d="M28.6402 30.2533C29.3153 29.4432 30.5145 29.3221 31.338 29.9809L33.0315 31.3357C33.355 31.5944 33.8269 31.542 34.0857 31.2185C34.3444 30.8951 34.292 30.4232 33.9685 30.1643L32.275 28.8095C30.8138 27.6406 28.6859 27.8554 27.4879 29.293L27.2989 29.5198C26.6229 30.331 25.3771 30.331 24.7012 29.5198C23.4255 27.9891 21.0745 27.9891 19.7988 29.5198C19.1229 30.331 17.8771 30.331 17.2012 29.5198C15.9255 27.9891 13.5745 27.9891 12.2988 29.5198C11.6229 30.331 10.3771 30.331 9.70122 29.5198L9.51215 29.293C8.31417 27.8554 6.18627 27.6406 4.72503 28.8095L3.0315 30.1643C2.70806 30.4232 2.65562 30.8951 2.91438 31.2185C3.17313 31.542 3.6451 31.5944 3.96855 31.3357L5.66208 29.9809C6.48555 29.3221 7.68472 29.4432 8.35985 30.2533L8.54885 30.4802C9.82452 32.0109 12.1755 32.0109 13.4512 30.4802C14.1271 29.669 15.3729 29.669 16.0488 30.4802C17.3245 32.0109 19.6755 32.0109 20.9512 30.4802C21.6271 29.669 22.8729 29.669 23.5488 30.4802C24.8245 32.0109 27.1755 32.0109 28.4512 30.4802L28.6402 30.2533Z" fill="#6B6B6B"/>
</svg>
