<svg width="37" height="36" viewBox="0 0 37 36" fill="none" xmlns="http://www.w3.org/2000/svg">
<path fill-rule="evenodd" clip-rule="evenodd" d="M29 10.5C30.6568 10.5 32 9.15683 32 7.5C32 5.84314 30.6568 4.5 29 4.5C27.3432 4.5 26 5.84314 26 7.5C26 9.15683 27.3432 10.5 29 10.5ZM29 9C29.8284 9 30.5 8.32845 30.5 7.5C30.5 6.67157 29.8284 6 29 6C28.1716 6 27.5 6.67157 27.5 7.5C27.5 8.32845 28.1716 9 29 9Z" fill="#6B6B6B"/>
<path fill-rule="evenodd" clip-rule="evenodd" d="M22.2643 18.6325L16.8824 5.85065C16.3671 4.62677 14.6329 4.62676 14.1175 5.85065L3.24706 31.6679C2.83076 32.6567 3.55675 33.75 4.62951 33.75H26.3704C26.3732 33.75 26.3761 33.75 26.3789 33.75H32.3684C33.4422 33.75 34.1682 32.6546 33.7498 31.6655L26.6315 14.8404C26.1151 13.6197 24.385 13.6197 23.8686 14.8404L22.2643 18.6325ZM11.4217 16.1186L4.62951 32.25H16.6301C16.6303 32.0571 16.6683 31.8593 16.7503 31.6655L21.4486 20.5606L19.5783 16.1186C17.0233 17.4438 13.9766 17.4438 11.4217 16.1186ZM18.9939 14.7308C16.8149 15.9064 14.185 15.9064 12.0061 14.7308L15.4999 6.43273L18.9939 14.7308ZM18.1318 32.25L22.0909 22.8921C24.1073 23.7542 26.3928 23.7542 28.4092 22.8921L32.3684 32.25H18.1318ZM27.8247 21.5106C26.1817 22.2148 24.3184 22.2147 22.6753 21.5106L25.2501 15.4249L27.8247 21.5106Z" fill="#6B6B6B"/>
</svg>
