<svg width="36" height="36" viewBox="0 0 36 36" fill="none" xmlns="http://www.w3.org/2000/svg">
<path fill-rule="evenodd" clip-rule="evenodd" d="M9 10.5C9 10.0858 9.33578 9.75 9.75 9.75H15C15.4142 9.75 15.75 10.0858 15.75 10.5V15C15.75 15.4142 15.4142 15.75 15 15.75H9.75C9.33578 15.75 9 15.4142 9 15V10.5ZM10.5 14.25V11.25H14.25V14.25H10.5Z" fill="#6B6B6B"/>
<path fill-rule="evenodd" clip-rule="evenodd" d="M9.75 18C9.33578 18 9 18.3358 9 18.75V23.25C9 23.6642 9.33578 24 9.75 24H15C15.4142 24 15.75 23.6642 15.75 23.25V18.75C15.75 18.3358 15.4142 18 15 18H9.75ZM10.5 19.5V22.5H14.25V19.5H10.5Z" fill="#6B6B6B"/>
<path fill-rule="evenodd" clip-rule="evenodd" d="M20.25 10.5C20.25 10.0858 20.5858 9.75 21 9.75H26.25C26.6642 9.75 27 10.0858 27 10.5V15C27 15.4142 26.6642 15.75 26.25 15.75H21C20.5858 15.75 20.25 15.4142 20.25 15V10.5ZM21.75 14.25V11.25H25.5V14.25H21.75Z" fill="#6B6B6B"/>
<path fill-rule="evenodd" clip-rule="evenodd" d="M21 18C20.5858 18 20.25 18.3358 20.25 18.75V23.25C20.25 23.6642 20.5858 24 21 24H26.25C26.6642 24 27 23.6642 27 23.25V18.75C27 18.3358 26.6642 18 26.25 18H21ZM21.75 19.5V22.5H25.5V19.5H21.75Z" fill="#6B6B6B"/>
<path fill-rule="evenodd" clip-rule="evenodd" d="M2.25 3.75C2.25 2.92157 2.92157 2.25 3.75 2.25H32.25C33.0784 2.25 33.75 2.92157 33.75 3.75V6C33.75 6.82843 33.0784 7.5 32.25 7.5V32.25C32.25 33.0784 31.5784 33.75 30.75 33.75H5.25C4.42157 33.75 3.75 33.0784 3.75 32.25V7.5C2.92157 7.5 2.25 6.82843 2.25 6V3.75ZM5.25 7.5V32.25H12.75V27C12.75 26.5858 13.0858 26.25 13.5 26.25H22.5C22.9142 26.25 23.25 26.5858 23.25 27V32.25H30.75V7.5H5.25ZM21.75 32.25V27.75H14.25V32.25H21.75ZM32.25 3.75H3.75V6H32.25V3.75Z" fill="#6B6B6B"/>
</svg>
