<svg width="37" height="36" viewBox="0 0 37 36" fill="none" xmlns="http://www.w3.org/2000/svg">
<path fill-rule="evenodd" clip-rule="evenodd" d="M25.2799 3.07235C25.8727 2.43918 26.8773 2.43918 27.4701 3.07235L31.5951 7.47874C31.8552 7.75668 32 8.12313 32 8.50383V13.5H33.5C33.9142 13.5 34.25 13.8358 34.25 14.25C34.25 14.6643 33.9142 15 33.5 15H17.75V18.75H33.5C33.9142 18.75 34.25 19.0858 34.25 19.5C34.25 19.9143 33.9142 20.25 33.5 20.25H17.75V21.4065C17.75 21.4372 17.7491 21.4677 17.7473 21.4978C17.9785 21.5533 18.2098 21.611 18.441 21.6709C20.6059 22.2314 22.7849 22.9911 24.8389 24H33.5C33.9142 24 34.25 24.3358 34.25 24.75C34.25 25.1643 33.9142 25.5 33.5 25.5H27.4954C30.241 27.2788 32.6018 29.6154 34.1669 32.6568C34.3564 33.0252 34.2115 33.4774 33.8432 33.6669C33.4749 33.8565 33.0226 33.7116 32.8331 33.3432C29.9758 27.7906 24.1222 24.6913 18.0651 23.123C14.6616 22.2417 11.248 21.8586 8.36773 21.7839C14.4616 23.4351 20.5959 26.6891 23.6669 32.6569C23.8564 33.0252 23.7115 33.4775 23.3432 33.667C22.9749 33.8565 22.5226 33.7116 22.3331 33.3433C19.4758 27.7906 13.6221 24.6914 7.56505 23.1231C5.94276 22.703 4.3181 22.3961 2.75 22.1818V13.1148C2.75 12.7322 2.89614 12.3642 3.15852 12.0858L9.15852 5.72102C9.75065 5.09291 10.7494 5.09291 11.3415 5.72102L17.3415 12.0858C17.6039 12.3642 17.75 12.7322 17.75 13.1148V13.5H20.75V8.50383C20.75 8.12313 20.8948 7.75668 21.1549 7.47874L25.2799 3.07235ZM30.5 13.5V9.00003H22.25V13.5H30.5ZM26.375 4.09748L29.5603 7.50003H23.1898L26.375 4.09748ZM7.25 20.2701C6.15 20.2717 5.13954 20.3176 4.25 20.3972V13.1566H16.25V21.1674C15.2374 20.9631 14.233 20.7983 13.25 20.6684V16.9066C13.25 16.4924 12.9142 16.1566 12.5 16.1566H8C7.58579 16.1566 7.25 16.4924 7.25 16.9066V20.2701ZM11.75 17.6566V20.4949C10.711 20.3917 9.70543 20.3269 8.75 20.2947V17.6566H11.75ZM10.25 6.74994L14.8755 11.6566H5.62453L10.25 6.74994Z" fill="#6B6B6B"/>
<path d="M11.8331 33.3432C9.8942 29.5754 6.57562 26.9372 2.75 25.1405V23.4931C7.04992 25.3894 10.9248 28.2999 13.1669 32.6569C13.3564 33.0252 13.2114 33.4774 12.8432 33.6669C12.4749 33.8565 12.0226 33.7116 11.8331 33.3432Z" fill="#6B6B6B"/>
</svg>
