<svg width="40" height="40" viewBox="0 0 40 40" fill="none" xmlns="http://www.w3.org/2000/svg">
<g clip-path="url(#clip0_3611_475)">
<rect width="40" height="40" rx="20" fill="url(#paint0_radial_3611_475)"/>
<rect width="40" height="40" rx="20" fill="url(#paint1_radial_3611_475)"/>
<path d="M20.0008 9C17.0134 9 16.6384 9.01306 15.4651 9.06646C14.294 9.12008 13.4947 9.30548 12.7953 9.5775C12.0718 9.85846 11.4581 10.2343 10.8466 10.8459C10.2348 11.4574 9.85893 12.0711 9.57705 12.7943C9.30434 13.494 9.11871 14.2935 9.066 15.4641C9.01375 16.6374 9 17.0126 9 20C9 22.9874 9.01329 23.3612 9.06646 24.5345C9.12031 25.7056 9.30571 26.5049 9.57751 27.2043C9.8587 27.9278 10.2345 28.5415 10.8462 29.1529C11.4574 29.7648 12.0711 30.1415 12.7941 30.4225C13.494 30.6945 14.2936 30.8799 15.4644 30.9335C16.6377 30.9869 17.0124 31 19.9997 31C22.9873 31 23.3611 30.9869 24.5345 30.9335C25.7055 30.8799 26.5058 30.6945 27.2057 30.4225C27.9289 30.1415 28.5417 29.7648 29.1529 29.1529C29.7648 28.5415 30.1406 27.9278 30.4225 27.2045C30.6929 26.5049 30.8785 25.7053 30.9335 24.5348C30.9863 23.3614 31 22.9874 31 20C31 17.0126 30.9863 16.6377 30.9335 15.4643C30.8785 14.2933 30.6929 13.494 30.4225 12.7945C30.1406 12.0711 29.7648 11.4574 29.1529 10.8459C28.541 10.2341 27.9291 9.85823 27.205 9.5775C26.5037 9.30548 25.7039 9.12008 24.5329 9.06646C23.3595 9.01306 22.986 9 19.9976 9H20.0008ZM19.014 10.9823C19.3069 10.9818 19.6337 10.9823 20.0008 10.9823C22.9378 10.9823 23.2859 10.9928 24.4458 11.0455C25.5183 11.0946 26.1004 11.2738 26.4881 11.4244C27.0015 11.6237 27.3674 11.8621 27.7522 12.2471C28.1372 12.6321 28.3756 12.9987 28.5754 13.5121C28.726 13.8994 28.9054 14.4814 28.9542 15.5539C29.0069 16.7135 29.0184 17.0619 29.0184 19.9975C29.0184 22.9331 29.0069 23.2814 28.9542 24.441C28.9052 25.5135 28.726 26.0956 28.5754 26.4829C28.376 26.9962 28.1372 27.3618 27.7522 27.7465C27.3672 28.1315 27.0017 28.3699 26.4881 28.5692C26.1008 28.7205 25.5183 28.8992 24.4458 28.9483C23.2862 29.001 22.9378 29.0124 20.0008 29.0124C17.0635 29.0124 16.7154 29.001 15.5558 28.9483C14.4833 28.8988 13.9012 28.7196 13.5133 28.569C12.9999 28.3696 12.6332 28.1313 12.2482 27.7463C11.8632 27.3613 11.6249 26.9955 11.4251 26.482C11.2745 26.0947 11.0951 25.5126 11.0463 24.4401C10.9935 23.2805 10.983 22.9322 10.983 19.9947C10.983 17.0573 10.9935 16.7108 11.0463 15.5512C11.0953 14.4787 11.2745 13.8966 11.4251 13.5089C11.6244 12.9955 11.8632 12.6289 12.2482 12.2439C12.6332 11.8589 12.9999 11.6205 13.5133 11.4207C13.901 11.2694 14.4833 11.0907 15.5558 11.0414C16.5706 10.9956 16.9639 10.9818 19.014 10.9795V10.9823Z" fill="white"/>
<path d="M25.8489 12.7817C25.5878 12.7817 25.3326 12.8592 25.1155 13.0042C24.8984 13.1493 24.7292 13.3555 24.6293 13.5967C24.5294 13.8379 24.5033 14.1033 24.5543 14.3594C24.6053 14.6155 24.731 14.8507 24.9157 15.0353C25.1003 15.2199 25.3356 15.3455 25.5917 15.3964C25.8478 15.4473 26.1132 15.4211 26.3544 15.3211C26.5956 15.2211 26.8017 15.0519 26.9467 14.8347C27.0917 14.6176 27.169 14.3624 27.1689 14.1013C27.1689 13.3725 26.5777 12.7813 25.8489 12.7813V12.7817Z" fill="white"/>
<path fill-rule="evenodd" clip-rule="evenodd" d="M19.9771 14.324C16.8575 14.324 14.3281 16.8533 14.3281 19.973C14.3281 23.0926 16.8575 25.6208 19.9771 25.6208C23.0968 25.6208 25.6255 23.0926 25.6255 19.973C25.6255 16.8533 23.0968 14.324 19.9771 14.324ZM20 23.6094C21.9934 23.6094 23.6094 21.9934 23.6094 20C23.6094 18.0066 21.9934 16.3906 20 16.3906C18.0066 16.3906 16.3906 18.0066 16.3906 20C16.3906 21.9934 18.0066 23.6094 20 23.6094Z" fill="white"/>
<path d="M20.0008 9C17.0134 9 16.6384 9.01306 15.4651 9.06646C14.294 9.12008 13.4947 9.30548 12.7953 9.5775C12.0718 9.85846 11.4581 10.2343 10.8466 10.8459C10.2348 11.4574 9.85893 12.0711 9.57705 12.7943C9.30434 13.494 9.11871 14.2935 9.066 15.4641C9.01375 16.6374 9 17.0126 9 20C9 22.9874 9.01329 23.3612 9.06646 24.5345C9.12031 25.7056 9.30571 26.5049 9.57751 27.2043C9.8587 27.9278 10.2345 28.5415 10.8462 29.1529C11.4574 29.7648 12.0711 30.1415 12.7941 30.4225C13.494 30.6945 14.2936 30.8799 15.4644 30.9335C16.6377 30.9869 17.0124 31 19.9997 31C22.9873 31 23.3611 30.9869 24.5345 30.9335C25.7055 30.8799 26.5058 30.6945 27.2057 30.4225C27.9289 30.1415 28.5417 29.7648 29.1529 29.1529C29.7648 28.5415 30.1406 27.9278 30.4225 27.2045C30.6929 26.5049 30.8785 25.7053 30.9335 24.5348C30.9863 23.3614 31 22.9874 31 20C31 17.0126 30.9863 16.6377 30.9335 15.4643C30.8785 14.2933 30.6929 13.494 30.4225 12.7945C30.1406 12.0711 29.7648 11.4574 29.1529 10.8459C28.541 10.2341 27.9291 9.85823 27.205 9.5775C26.5037 9.30548 25.7039 9.12008 24.5329 9.06646C23.3595 9.01306 22.986 9 19.9976 9H20.0008ZM19.014 10.9823C19.3069 10.9818 19.6337 10.9823 20.0008 10.9823C22.9378 10.9823 23.2859 10.9928 24.4458 11.0455C25.5183 11.0946 26.1004 11.2738 26.4881 11.4244C27.0015 11.6237 27.3674 11.8621 27.7522 12.2471C28.1372 12.6321 28.3756 12.9987 28.5754 13.5121C28.726 13.8994 28.9054 14.4814 28.9542 15.5539C29.0069 16.7135 29.0184 17.0619 29.0184 19.9975C29.0184 22.9331 29.0069 23.2814 28.9542 24.441C28.9052 25.5135 28.726 26.0956 28.5754 26.4829C28.376 26.9962 28.1372 27.3618 27.7522 27.7465C27.3672 28.1315 27.0017 28.3699 26.4881 28.5692C26.1008 28.7205 25.5183 28.8992 24.4458 28.9483C23.2862 29.001 22.9378 29.0124 20.0008 29.0124C17.0635 29.0124 16.7154 29.001 15.5558 28.9483C14.4833 28.8988 13.9012 28.7196 13.5133 28.569C12.9999 28.3696 12.6332 28.1313 12.2482 27.7463C11.8632 27.3613 11.6249 26.9955 11.4251 26.482C11.2745 26.0947 11.0951 25.5126 11.0463 24.4401C10.9935 23.2805 10.983 22.9322 10.983 19.9947C10.983 17.0573 10.9935 16.7108 11.0463 15.5512C11.0953 14.4787 11.2745 13.8966 11.4251 13.5089C11.6244 12.9955 11.8632 12.6289 12.2482 12.2439C12.6332 11.8589 12.9999 11.6205 13.5133 11.4207C13.901 11.2694 14.4833 11.0907 15.5558 11.0414C16.5706 10.9956 16.9639 10.9818 19.014 10.9795V10.9823Z" fill="white"/>
<path d="M25.8489 12.7817C25.5878 12.7817 25.3326 12.8592 25.1155 13.0042C24.8984 13.1493 24.7292 13.3555 24.6293 13.5967C24.5294 13.8379 24.5033 14.1033 24.5543 14.3594C24.6053 14.6155 24.731 14.8507 24.9157 15.0353C25.1003 15.2199 25.3356 15.3455 25.5917 15.3964C25.8478 15.4473 26.1132 15.4211 26.3544 15.3211C26.5956 15.2211 26.8017 15.0519 26.9467 14.8347C27.0917 14.6176 27.169 14.3624 27.1689 14.1013C27.1689 13.3725 26.5777 12.7813 25.8489 12.7813V12.7817Z" fill="white"/>
<path fill-rule="evenodd" clip-rule="evenodd" d="M19.9771 14.324C16.8575 14.324 14.3281 16.8533 14.3281 19.973C14.3281 23.0926 16.8575 25.6208 19.9771 25.6208C23.0968 25.6208 25.6255 23.0926 25.6255 19.973C25.6255 16.8533 23.0968 14.324 19.9771 14.324ZM20 23.6094C21.9934 23.6094 23.6094 21.9934 23.6094 20C23.6094 18.0066 21.9934 16.3906 20 16.3906C18.0066 16.3906 16.3906 18.0066 16.3906 20C16.3906 21.9934 18.0066 23.6094 20 23.6094Z" fill="white"/>
</g>
<defs>
<radialGradient id="paint0_radial_3611_475" cx="0" cy="0" r="1" gradientUnits="userSpaceOnUse" gradientTransform="translate(33.8 45.4) rotate(-115.776) scale(54.5473 81.133)">
<stop offset="0.24392" stop-color="#FF1B90"/>
<stop offset="0.436673" stop-color="#F80261"/>
<stop offset="0.688476" stop-color="#ED00C0"/>
<stop offset="0.776787" stop-color="#C500E9"/>
<stop offset="0.893155" stop-color="#7017FF"/>
</radialGradient>
<radialGradient id="paint1_radial_3611_475" cx="0" cy="0" r="1" gradientUnits="userSpaceOnUse" gradientTransform="translate(14.5 38.62) rotate(-57.4396) scale(23.6348 24.5836)">
<stop stop-color="#FFD600"/>
<stop offset="0.484375" stop-color="#FF6930"/>
<stop offset="0.734375" stop-color="#FE3B36"/>
<stop offset="1" stop-color="#FE3B36" stop-opacity="0"/>
</radialGradient>
<clipPath id="clip0_3611_475">
<rect width="40" height="40" fill="white"/>
</clipPath>
</defs>
</svg>
