<svg width="40" height="40" viewBox="0 0 40 40" fill="none" xmlns="http://www.w3.org/2000/svg">
<path d="M20 40C31.0457 40 40 31.0457 40 20C40 8.95433 31.0457 0 20 0C8.95433 0 0 8.95433 0 20C0 31.0457 8.95433 40 20 40Z" fill="url(#paint0_linear_3887_1853)"/>
<path d="M7.4485 20.9782C9.78649 19.6904 12.3963 18.6156 14.8348 17.5352C19.03 15.7657 23.2418 14.0269 27.4962 12.4081C28.3239 12.1322 29.8112 11.8625 29.957 13.0891C29.8772 14.8255 29.5487 16.5516 29.3233 18.2778C28.7514 22.0738 28.0904 25.8568 27.4458 29.6403C27.2237 30.9006 25.645 31.553 24.6348 30.7465C22.2072 29.1066 19.7608 27.4828 17.3642 25.805C16.5791 25.0072 17.3071 23.8616 18.0082 23.292C20.0077 21.3215 22.1282 19.6473 24.0232 17.575C24.5344 16.3406 23.0241 17.3809 22.5259 17.6996C19.7886 19.586 17.1182 21.5875 14.2322 23.2453C12.7581 24.0568 11.0399 23.3633 9.5664 22.9105C8.24522 22.3635 6.3092 21.8124 7.44837 20.9783L7.4485 20.9782Z" fill="white"/>
<defs>
<linearGradient id="paint0_linear_3887_1853" x1="15.0023" y1="1.668" x2="5.00233" y2="25" gradientUnits="userSpaceOnUse">
<stop stop-color="#37AEE2"/>
<stop offset="1" stop-color="#1E96C8"/>
</linearGradient>
</defs>
</svg>
