<svg width="26" height="24" viewBox="0 0 26 24" fill="none" xmlns="http://www.w3.org/2000/svg">
<path d="M2.43897 11.537C8.54586 8.82048 12.618 7.02953 14.6556 6.16415C20.4732 3.69359 21.6821 3.2644 22.47 3.25014C22.6432 3.24716 23.0307 3.291 23.2817 3.4989C23.4937 3.67451 23.5519 3.91173 23.5798 4.07815C23.6078 4.24466 23.6425 4.62389 23.6148 4.92016C23.2996 8.30221 21.9355 16.5096 21.2415 20.2976C20.9478 21.9004 20.3696 22.4378 19.8099 22.4904C18.5934 22.6047 17.6696 21.6696 16.4914 20.8809C14.6476 19.647 13.6061 18.8788 11.8163 17.6747C9.74811 16.2831 11.0889 15.5183 12.2676 14.2682C12.576 13.9412 17.936 8.96327 18.0398 8.51178C18.0527 8.45525 18.0648 8.24473 17.9423 8.1336C17.8198 8.02248 17.639 8.06045 17.5086 8.09064C17.3237 8.13351 14.3783 10.1213 8.67239 14.0538C7.83632 14.64 7.0791 14.9255 6.40062 14.9106C5.65267 14.8941 4.21391 14.4788 3.14431 14.1238C1.83242 13.6884 0.789721 13.4582 0.880511 12.7188C0.927805 12.3336 1.44727 11.9397 2.43897 11.537Z" fill="#DD6A24"/>
</svg>
