<svg width="26" height="27" viewBox="0 0 26 27" fill="none" xmlns="http://www.w3.org/2000/svg">
<path d="M22.3049 3.64541C21.6764 3.06765 19.132 1.21762 13.4604 1.19228C13.4604 1.19228 6.77498 0.786799 3.51592 3.77722C1.70138 5.59172 1.06275 8.24262 0.996856 11.5371C0.930966 14.8266 0.844801 20.995 6.79018 22.6676H6.79524L6.79018 25.2171C6.79018 25.2171 6.75471 26.2511 7.43388 26.4589C8.255 26.7123 8.74156 25.9266 9.52721 25.0802C9.95803 24.6139 10.551 23.9347 11.0021 23.4127C15.0671 23.7522 18.1944 22.9717 18.5491 22.8551C19.3702 22.5865 24.0181 21.9935 24.7733 15.8251C25.5539 9.47928 24.3931 5.45999 22.3049 3.64541ZM22.9942 15.3791C22.3556 20.5287 18.5897 20.8531 17.8953 21.0761C17.6013 21.1724 14.8542 21.8567 11.3974 21.6285C11.3974 21.6285 8.82262 24.7356 8.02185 25.5415C7.89511 25.6682 7.74809 25.7188 7.65183 25.6935C7.51495 25.658 7.47441 25.4958 7.47948 25.2576C7.47948 24.913 7.49975 21.0153 7.49975 21.0153C7.49468 21.0153 7.49468 21.0153 7.49975 21.0153C2.46673 19.6214 2.76067 14.3704 2.81649 11.6233C2.87222 8.87619 3.38918 6.62065 4.92493 5.10517C7.67716 2.6115 13.359 2.98144 13.359 2.98144C18.1538 3.00171 20.4498 4.44626 20.9821 4.92775C22.751 6.44831 23.6532 10.0723 22.9942 15.3791Z" fill="#DD6A24"/>
<path d="M15.7963 11.7198C15.6291 11.7198 15.4871 11.5879 15.477 11.4156C15.4213 10.3259 14.9094 9.79372 13.8652 9.73798C13.6878 9.72785 13.5509 9.57577 13.5611 9.39836C13.5712 9.22095 13.7233 9.08415 13.9007 9.09428C15.2793 9.17028 16.0498 9.96099 16.1207 11.3801C16.1308 11.5575 15.994 11.7096 15.8166 11.7147C15.8065 11.7198 15.8014 11.7198 15.7963 11.7198Z" fill="#DD6A24"/>
<path d="M17.4394 12.2673H17.4343C17.2569 12.2622 17.1151 12.1153 17.1201 11.9379C17.1455 10.8431 16.8312 9.95608 16.1621 9.22616C15.4982 8.49632 14.5808 8.10097 13.3694 8.01483C13.1919 7.99963 13.0602 7.84755 13.0754 7.67014C13.0906 7.49273 13.2427 7.36099 13.4201 7.37619C14.7886 7.47753 15.8682 7.95395 16.6385 8.79534C17.4141 9.64179 17.7892 10.7011 17.7638 11.9531C17.7588 12.1305 17.6117 12.2673 17.4394 12.2673Z" fill="#DD6A24"/>
<path d="M19.1222 12.9258C18.9448 12.9258 18.8028 12.7839 18.8028 12.6065C18.7876 10.6449 18.225 9.14972 17.0795 8.0296C15.9493 6.92467 14.5148 6.36203 12.8271 6.34683C12.6497 6.34683 12.5077 6.1999 12.5077 6.02248C12.5077 5.84507 12.6547 5.70312 12.8271 5.70312C14.6872 5.71832 16.2685 6.34176 17.5205 7.56837C18.7775 8.79498 19.4212 10.4878 19.4415 12.5963C19.4465 12.7788 19.3046 12.9258 19.1222 12.9258C19.1273 12.9258 19.1273 12.9258 19.1222 12.9258ZM13.9422 15.688C13.9422 15.688 14.3932 15.7286 14.6365 15.4295L15.1079 14.8366C15.336 14.5426 15.8885 14.355 16.4257 14.6541C16.7248 14.8213 17.2671 15.1559 17.6016 15.4042C17.9614 15.6678 18.6914 16.276 18.6964 16.2811C19.0461 16.5751 19.1273 17.0059 18.889 17.4671C18.889 17.4671 18.889 17.4722 18.889 17.4773C18.6457 17.9081 18.3163 18.3136 17.9057 18.6886C17.9006 18.6886 17.9006 18.6937 17.8956 18.6937C17.556 18.9776 17.2215 19.1397 16.897 19.1752C16.8565 19.1854 16.8109 19.1854 16.7501 19.1854C16.6082 19.1854 16.4662 19.1651 16.3244 19.1194L16.3142 19.1042C15.8073 18.9624 14.9659 18.6075 13.5671 17.832C12.6547 17.3303 11.8995 16.8184 11.2558 16.3064C10.9162 16.0378 10.5716 15.7388 10.2168 15.3839C10.2066 15.3738 10.1914 15.3586 10.1813 15.3485C10.1711 15.3383 10.1559 15.3231 10.1458 15.313C10.1357 15.3029 10.1205 15.2877 10.1103 15.2775C10.1002 15.2674 10.085 15.2521 10.0749 15.242C9.72511 14.8872 9.42103 14.5426 9.15241 14.203C8.64044 13.5644 8.12855 12.8041 7.62679 11.8917C6.85128 10.4877 6.49645 9.64642 6.35458 9.14458L6.33938 9.13445C6.2937 8.99258 6.27344 8.85063 6.27344 8.70869C6.27344 8.64789 6.27344 8.60229 6.28357 8.56175C6.32418 8.23226 6.48632 7.90277 6.76514 7.56322C6.76514 7.55816 6.77021 7.55816 6.77021 7.55309C7.14522 7.13747 7.55071 6.81304 7.98154 6.56976C7.98154 6.56976 7.9866 6.56976 7.99167 6.56976C8.44783 6.33155 8.87865 6.4127 9.17775 6.76238C9.17775 6.76238 9.79105 7.49736 10.0546 7.85717C10.3029 8.1968 10.6374 8.73402 10.8047 9.03311C11.1038 9.57034 10.9162 10.1228 10.6222 10.3509L10.0293 10.8223C9.73017 11.0656 9.7707 11.5166 9.7707 11.5166C9.7707 11.5166 10.6476 14.8518 13.9422 15.688Z" fill="#DD6A24"/>
</svg>
