<svg width="40" height="40" viewBox="0 0 40 40" fill="none" xmlns="http://www.w3.org/2000/svg">
<path d="M40 20C40 8.95431 31.0457 0 20 0C8.95431 0 0 8.95431 0 20C0 31.0457 8.95431 40 20 40C31.0457 40 40 31.0457 40 20Z" fill="#FF0000"/>
<path d="M19.9923 11.667C19.9923 11.667 12.1787 11.667 10.2176 12.1524C9.1676 12.4319 8.30298 13.2556 8.00959 14.2706C7.50001 16.1388 7.5 20.0077 7.5 20.0077C7.5 20.0077 7.50001 23.8912 8.00959 25.73C8.30298 26.745 9.15216 27.554 10.2176 27.8335C12.1942 28.3336 19.9923 28.3337 19.9923 28.3337C19.9923 28.3337 27.8213 28.3337 29.7823 27.8482C30.8478 27.5687 31.697 26.7745 31.9749 25.7448C32.4999 23.8913 32.5 20.0224 32.5 20.0224C32.5 20.0224 32.5154 16.1388 31.9749 14.2706C31.697 13.2556 30.8478 12.4467 29.7823 12.1819C27.8213 11.667 19.9923 11.667 19.9923 11.667ZM17.5061 16.4332L24.0072 20.0077L17.5061 23.5675V16.4332Z" fill="white"/>
</svg>
