<svg width="100" height="64" viewBox="0 0 100 64" fill="none" xmlns="http://www.w3.org/2000/svg">
<path fill-rule="evenodd" clip-rule="evenodd" d="M61.25 11.25C61.25 12.9068 59.9068 14.25 58.25 14.25C56.5932 14.25 55.25 12.9068 55.25 11.25C55.25 9.59317 56.5932 8.25 58.25 8.25C59.9068 8.25 61.25 9.59317 61.25 11.25ZM59.75 11.25C59.75 12.0784 59.0784 12.75 58.25 12.75C57.4216 12.75 56.75 12.0784 56.75 11.25C56.75 10.4216 57.4216 9.75 58.25 9.75C59.0784 9.75 59.75 10.4216 59.75 11.25Z" fill="#6B6B6B"/>
<path fill-rule="evenodd" clip-rule="evenodd" d="M35.75 2.25C34.9216 2.25 34.25 2.92157 34.25 3.75V17.9248C34.25 17.9472 34.2509 17.9693 34.2526 17.9912C34.2509 18.0128 34.25 18.0347 34.25 18.0569V32.25C34.25 33.0784 34.9216 33.75 35.75 33.75H41.3787C41.998 33.75 42.5 33.248 42.5 32.6287V32.25H51.3101H51.3175H62.9324H62.9398H64.25C65.0784 32.25 65.75 31.5784 65.75 30.75V5.25C65.75 4.42157 65.0784 3.75 64.25 3.75H44.75V3.23364C44.75 2.69039 44.3096 2.25 43.7664 2.25H35.75ZM43.25 3.75H35.75V17.2163C37.582 17.0327 39.2718 16.1075 40.4141 14.6388L40.7829 14.1646C42.382 12.1088 43.25 9.5787 43.25 6.97434V3.75ZM44.75 5.25H64.25V30.0329C64.2411 30.0166 64.2319 30.0004 64.2223 29.9842L58.4148 20.2033C57.8335 19.2243 56.4165 19.2243 55.8352 20.2033L54.5124 22.4312L50.5414 15.7112C49.9608 14.7286 48.5392 14.7286 47.9587 15.7112L42.241 25.3873C41.9875 23.9036 41.5499 22.4531 40.9354 21.0704C40.3704 19.7991 39.4246 18.7751 38.2675 18.1085C39.5621 17.5662 40.7142 16.6961 41.5981 15.5597L41.9671 15.0854C43.7707 12.7664 44.75 9.9123 44.75 6.97434V5.25ZM49.25 16.4742L53.6391 23.902L50.0278 29.9842C49.8813 30.2309 49.8148 30.4939 49.8153 30.7499L42.5 30.75V28.4433C42.5 28.2656 42.4974 28.0879 42.4922 27.9106L49.25 16.4742ZM62.9324 30.75L57.125 20.969L51.3176 30.7499L62.9324 30.75ZM41 32.25H35.75V18.7988C37.4166 19.0349 38.868 20.1122 39.5646 21.6796C40.511 23.8089 41 26.1131 41 28.4433V32.25Z" fill="#6B6B6B"/>
<path d="M8.304 49.248C8.304 50.0267 8.05867 50.6453 7.568 51.104C7.07733 51.552 6.42133 51.84 5.6 51.968V52.032C6.56 52.16 7.29067 52.4587 7.792 52.928C8.29333 53.3973 8.544 54.0107 8.544 54.768C8.544 55.7707 8.16 56.5867 7.392 57.216C6.624 57.8453 5.472 58.16 3.936 58.16C3.31733 58.16 2.72533 58.112 2.16 58.016C1.60533 57.9307 1.088 57.7707 0.608 57.536V56.224C1.10933 56.4587 1.65333 56.6453 2.24 56.784C2.83733 56.912 3.39733 56.976 3.92 56.976C4.944 56.976 5.71733 56.784 6.24 56.4C6.77333 56.016 7.04 55.472 7.04 54.768C7.04 54.0427 6.73067 53.5147 6.112 53.184C5.49333 52.8533 4.62933 52.688 3.52 52.688H1.888V51.488H3.44C4.57067 51.488 5.41333 51.3013 5.968 50.928C6.53333 50.544 6.816 50.032 6.816 49.392C6.816 48.816 6.60267 48.3733 6.176 48.064C5.74933 47.7547 5.19467 47.6 4.512 47.6C3.79733 47.6 3.2 47.6907 2.72 47.872C2.25067 48.0533 1.792 48.288 1.344 48.576L0.656 47.6C1.104 47.2693 1.65333 46.992 2.304 46.768C2.96533 46.5333 3.70667 46.416 4.528 46.416C5.76533 46.416 6.704 46.6827 7.344 47.216C7.984 47.7493 8.304 48.4267 8.304 49.248ZM20.1039 49.424H21.6399L17.9759 53.552L21.9439 58H20.3119L16.4399 53.648V58H15.0319V49.424H16.4399V53.584L20.1039 49.424ZM27.5806 49.264C28.6366 49.264 29.4846 49.632 30.1246 50.368C30.7753 51.104 31.1006 52.2133 31.1006 53.696C31.1006 55.1573 30.7753 56.2667 30.1246 57.024C29.4846 57.7813 28.6313 58.16 27.5646 58.16C26.9033 58.16 26.354 58.0373 25.9166 57.792C25.49 57.536 25.154 57.2427 24.9086 56.912H24.8126C24.834 57.0933 24.8553 57.3227 24.8766 57.6C24.898 57.8773 24.9086 58.1173 24.9086 58.32V61.84H23.5006V49.424H24.6526L24.8446 50.592H24.9086C25.1646 50.2187 25.5006 49.904 25.9166 49.648C26.3326 49.392 26.8873 49.264 27.5806 49.264ZM27.3246 50.448C26.45 50.448 25.8313 50.6933 25.4686 51.184C25.1166 51.6747 24.93 52.4213 24.9086 53.424V53.696C24.9086 54.752 25.0793 55.568 25.4206 56.144C25.7726 56.7093 26.418 56.992 27.3566 56.992C27.8793 56.992 28.306 56.848 28.6366 56.56C28.978 56.272 29.2286 55.8827 29.3886 55.392C29.5593 54.8907 29.6446 54.32 29.6446 53.68C29.6446 52.6987 29.4526 51.9147 29.0686 51.328C28.6953 50.7413 28.114 50.448 27.3246 50.448ZM36.5924 49.28C37.6377 49.28 38.411 49.5093 38.9124 49.968C39.4137 50.4267 39.6644 51.1573 39.6644 52.16V58H38.6404L38.3684 56.784H38.3044C37.931 57.2533 37.5364 57.6 37.1204 57.824C36.715 58.048 36.1497 58.16 35.4244 58.16C34.6457 58.16 34.0004 57.9573 33.4884 57.552C32.9764 57.136 32.7204 56.4907 32.7204 55.616C32.7204 54.7627 33.0564 54.1067 33.7284 53.648C34.4004 53.1787 35.435 52.9227 36.8324 52.88L38.2884 52.832V52.32C38.2884 51.6053 38.1337 51.1093 37.8244 50.832C37.515 50.5547 37.0777 50.416 36.5124 50.416C36.0644 50.416 35.6377 50.4853 35.2324 50.624C34.827 50.752 34.4484 50.9013 34.0964 51.072L33.6644 50.016C34.0377 49.8133 34.4804 49.6427 34.9924 49.504C35.5044 49.3547 36.0377 49.28 36.5924 49.28ZM37.0084 53.856C35.9417 53.8987 35.2004 54.0693 34.7844 54.368C34.379 54.6667 34.1764 55.088 34.1764 55.632C34.1764 56.112 34.3204 56.464 34.6084 56.688C34.907 56.912 35.2857 57.024 35.7444 57.024C36.4697 57.024 37.0724 56.8267 37.5524 56.432C38.0324 56.0267 38.2724 55.408 38.2724 54.576V53.808L37.0084 53.856ZM45.9131 58.16C45.1238 58.16 44.4198 58.0107 43.8011 57.712C43.1931 57.4027 42.7131 56.9227 42.3611 56.272C42.0091 55.6213 41.8331 54.784 41.8331 53.76C41.8331 52.6933 42.0145 51.8293 42.3771 51.168C42.7398 50.5067 43.2305 50.0267 43.8491 49.728C44.4785 49.4187 45.1825 49.264 45.9611 49.264C46.3985 49.264 46.8251 49.3067 47.2411 49.392C47.6678 49.4773 48.0305 49.5893 48.3291 49.728L47.9131 50.88C47.6145 50.7627 47.2838 50.6667 46.9211 50.592C46.5691 50.5173 46.2385 50.48 45.9291 50.48C45.1078 50.48 44.4838 50.688 44.0571 51.104C43.6305 51.52 43.3745 52.1547 43.2891 53.008H47.4971V54.16H43.2731C43.3265 55.1093 43.5665 55.8133 43.9931 56.272C44.4198 56.7307 45.0491 56.96 45.8811 56.96C46.3611 56.96 46.7878 56.912 47.1611 56.816C47.5345 56.72 47.8811 56.608 48.2011 56.48V57.696C47.9025 57.8453 47.5718 57.9573 47.2091 58.032C46.8465 58.1173 46.4145 58.16 45.9131 58.16ZM57.131 51.584C57.131 52.1173 56.971 52.5333 56.651 52.832C56.331 53.1307 55.9203 53.3333 55.419 53.44V53.504C55.9523 53.5787 56.4163 53.7707 56.811 54.08C57.2057 54.3787 57.403 54.848 57.403 55.488C57.403 56.2133 57.131 56.816 56.587 57.296C56.0537 57.7653 55.1683 58 53.931 58H50.235V49.424H53.915C54.523 49.424 55.067 49.4933 55.547 49.632C56.0377 49.76 56.4217 49.984 56.699 50.304C56.987 50.6133 57.131 51.04 57.131 51.584ZM55.707 51.76C55.707 51.3547 55.5577 51.0613 55.259 50.88C54.971 50.688 54.4963 50.592 53.835 50.592H51.643V52.944H53.579C54.9977 52.944 55.707 52.5493 55.707 51.76ZM55.947 55.488C55.947 54.9973 55.7603 54.6453 55.387 54.432C55.0137 54.2187 54.4643 54.112 53.739 54.112H51.643V56.864H53.771C54.475 56.864 55.0137 56.7627 55.387 56.56C55.7603 56.3467 55.947 55.9893 55.947 55.488ZM60.7818 54.656C60.7818 54.784 60.7764 54.976 60.7658 55.232C60.7551 55.488 60.7391 55.744 60.7178 56C60.7071 56.256 60.6964 56.4587 60.6858 56.608L65.2778 49.424H67.0058V58H65.6938V52.944C65.6938 52.7733 65.6938 52.5493 65.6938 52.272C65.7044 51.9947 65.7151 51.7227 65.7258 51.456C65.7364 51.1787 65.7471 50.9707 65.7578 50.832L61.1978 58H59.4538V49.424H60.7818V54.656ZM76.103 49.424V56.816H77.351V60.976H75.991V58H70.023V60.976H68.679V56.816H69.367C70.103 55.8027 70.6523 54.6507 71.015 53.36C71.3883 52.0587 71.5803 50.7467 71.591 49.424H76.103ZM72.839 50.528C72.7963 51.2533 72.6843 52.0053 72.503 52.784C72.3217 53.552 72.087 54.288 71.799 54.992C71.5217 55.696 71.1963 56.304 70.823 56.816H74.743V50.528H72.839ZM86.4879 53.696C86.4879 55.1147 86.1252 56.2133 85.3999 56.992C84.6852 57.7707 83.7145 58.16 82.4879 58.16C81.7305 58.16 81.0532 57.9893 80.4559 57.648C79.8692 57.296 79.4052 56.7893 79.0639 56.128C78.7225 55.456 78.5519 54.6453 78.5519 53.696C78.5519 52.2773 78.9092 51.184 79.6239 50.416C80.3385 49.648 81.3092 49.264 82.5359 49.264C83.3145 49.264 83.9972 49.44 84.5839 49.792C85.1812 50.1333 85.6452 50.6347 85.9759 51.296C86.3172 51.9467 86.4879 52.7467 86.4879 53.696ZM80.0079 53.696C80.0079 54.7093 80.2052 55.5147 80.5999 56.112C81.0052 56.6987 81.6452 56.992 82.5199 56.992C83.3839 56.992 84.0185 56.6987 84.4239 56.112C84.8292 55.5147 85.0319 54.7093 85.0319 53.696C85.0319 52.6827 84.8292 51.888 84.4239 51.312C84.0185 50.736 83.3785 50.448 82.5039 50.448C81.6292 50.448 80.9945 50.736 80.5999 51.312C80.2052 51.888 80.0079 52.6827 80.0079 53.696ZM97.9194 49.424V58H96.6554V52.528C96.6554 52.304 96.6607 52.0693 96.6714 51.824C96.6927 51.5787 96.714 51.3387 96.7354 51.104H96.6874L93.8874 58H92.7034L89.9834 51.104H89.9354C89.9674 51.584 89.9834 52.0747 89.9834 52.576V58H88.7194V49.424H90.5914L93.2954 56.32L96.0474 49.424H97.9194Z" fill="#6B6B6B"/>
</svg>
