<svg width="79" height="64" viewBox="0 0 79 64" fill="none" xmlns="http://www.w3.org/2000/svg">
<path fill-rule="evenodd" clip-rule="evenodd" d="M32.3415 2.72102C31.7494 2.09291 30.7506 2.09291 30.1585 2.72102L24.1585 9.08578C23.8961 9.36411 23.75 9.73221 23.75 10.1147V19.9066H54.5C54.9142 19.9066 55.25 19.5708 55.25 19.1566C55.25 18.7423 54.9142 18.4066 54.5 18.4066H52.25V12.75H54.5C54.9142 12.75 55.25 12.4142 55.25 12C55.25 11.5858 54.9142 11.25 54.5 11.25H52.25V10.5C52.25 10.0858 51.9142 9.74998 51.5 9.74998C51.0858 9.74998 50.75 10.0858 50.75 10.5V11.25H47.75V10.5C47.75 10.0858 47.4142 9.74998 47 9.74998C46.5858 9.74998 46.25 10.0858 46.25 10.5V11.25H43.25V10.5C43.25 10.0858 42.9142 9.74998 42.5 9.74998C42.0858 9.74998 41.75 10.0858 41.75 10.5V11.25H38.75V10.1147C38.75 9.73221 38.6039 9.36411 38.3415 9.08578L32.3415 2.72102ZM38.75 12.75V18.4066H41.75V12.75H38.75ZM43.25 18.4066H46.25V12.75H43.25V18.4066ZM47.75 18.4066H50.75V12.75H47.75V18.4066ZM34.25 18.4066H37.25V10.1566H25.25V18.4066H28.25V13.9066C28.25 13.4923 28.5858 13.1566 29 13.1566H33.5C33.9142 13.1566 34.25 13.4923 34.25 13.9066V18.4066ZM32.75 18.4066H29.75V14.6566H32.75V18.4066ZM26.6246 8.65656H35.8754L31.25 3.74994L26.6246 8.65656Z" fill="#6B6B6B"/>
<path fill-rule="evenodd" clip-rule="evenodd" d="M50 8.25C51.6568 8.25 53 6.90686 53 5.25C53 3.59314 51.6568 2.25 50 2.25C48.3432 2.25 47 3.59314 47 5.25C47 6.90686 48.3432 8.25 50 8.25ZM50 6.75C50.8284 6.75 51.5 6.07843 51.5 5.25C51.5 4.42157 50.8284 3.75 50 3.75C49.1716 3.75 48.5 4.42157 48.5 5.25C48.5 6.07843 49.1716 6.75 50 6.75Z" fill="#6B6B6B"/>
<path d="M52.338 23.9809C51.5145 23.3221 50.3153 23.4432 49.6402 24.2533L49.4512 24.4802C48.1755 26.0109 45.8245 26.0109 44.5488 24.4802C43.8729 23.669 42.6271 23.669 41.9512 24.4802C40.6755 26.0109 38.3245 26.0109 37.0488 24.4802C36.3729 23.669 35.1271 23.669 34.4512 24.4802C33.1755 26.0109 30.8245 26.0109 29.5488 24.4802L29.3598 24.2533C28.6847 23.4432 27.4855 23.3221 26.6621 23.9809L24.9685 25.3357C24.6451 25.5944 24.1731 25.542 23.9144 25.2185C23.6556 24.8951 23.7081 24.4232 24.0315 24.1643L25.725 22.8095C27.1863 21.6406 29.3142 21.8554 30.5121 23.293L30.7012 23.5198C31.3771 24.331 32.6229 24.331 33.2988 23.5198C34.5745 21.9891 36.9255 21.9891 38.2012 23.5198C38.8771 24.331 40.1229 24.331 40.7988 23.5198C42.0745 21.9891 44.4255 21.9891 45.7012 23.5198C46.3771 24.331 47.6229 24.331 48.2989 23.5198L48.4879 23.293C49.6859 21.8554 51.8138 21.6406 53.275 22.8095L54.9685 24.1643C55.292 24.4232 55.3444 24.8951 55.0857 25.2185C54.8269 25.542 54.355 25.5944 54.0315 25.3357L52.338 23.9809Z" fill="#6B6B6B"/>
<path d="M49.6402 30.2533C50.3153 29.4432 51.5145 29.3221 52.338 29.9809L54.0315 31.3357C54.355 31.5944 54.8269 31.542 55.0857 31.2185C55.3444 30.8951 55.292 30.4232 54.9685 30.1643L53.275 28.8095C51.8138 27.6406 49.6859 27.8554 48.4879 29.293L48.2989 29.5198C47.6229 30.331 46.3771 30.331 45.7012 29.5198C44.4255 27.9891 42.0745 27.9891 40.7988 29.5198C40.1229 30.331 38.8771 30.331 38.2012 29.5198C36.9255 27.9891 34.5745 27.9891 33.2988 29.5198C32.6229 30.331 31.3771 30.331 30.7012 29.5198L30.5121 29.293C29.3142 27.8554 27.1863 27.6406 25.725 28.8095L24.0315 30.1643C23.7081 30.4232 23.6556 30.8951 23.9144 31.2185C24.1731 31.542 24.6451 31.5944 24.9685 31.3357L26.6621 29.9809C27.4855 29.3221 28.6847 29.4432 29.3598 30.2533L29.5488 30.4802C30.8245 32.0109 33.1755 32.0109 34.4512 30.4802C35.1271 29.669 36.3729 29.669 37.0488 30.4802C38.3245 32.0109 40.6755 32.0109 41.9512 30.4802C42.6271 29.669 43.8729 29.669 44.5488 30.4802C45.8245 32.0109 48.1755 32.0109 49.4512 30.4802L49.6402 30.2533Z" fill="#6B6B6B"/>
<path d="M1.552 58V46.576H8.336V47.84H2.992V51.408H4.688C5.82933 51.408 6.71467 51.552 7.344 51.84C7.97333 52.1173 8.41067 52.5013 8.656 52.992C8.90133 53.472 9.024 54.0267 9.024 54.656C9.024 55.7013 8.70933 56.5227 8.08 57.12C7.45067 57.7067 6.38933 58 4.896 58H1.552ZM4.752 56.768C5.776 56.768 6.496 56.5973 6.912 56.256C7.328 55.904 7.536 55.3707 7.536 54.656C7.536 53.92 7.30667 53.4027 6.848 53.104C6.38933 52.8053 5.61067 52.656 4.512 52.656H2.992V56.768H4.752ZM11.9238 46.208C12.1371 46.208 12.3238 46.2827 12.4838 46.432C12.6544 46.5707 12.7398 46.7947 12.7398 47.104C12.7398 47.4027 12.6544 47.6267 12.4838 47.776C12.3238 47.9253 12.1371 48 11.9238 48C11.6891 48 11.4918 47.9253 11.3318 47.776C11.1718 47.6267 11.0918 47.4027 11.0918 47.104C11.0918 46.7947 11.1718 46.5707 11.3318 46.432C11.4918 46.2827 11.6891 46.208 11.9238 46.208ZM12.6118 49.424V58H11.2038V49.424H12.6118ZM21.8568 58H20.4328V50.592H17.9048C17.7661 52.3947 17.5741 53.8507 17.3288 54.96C17.0834 56.0587 16.7581 56.8587 16.3528 57.36C15.9474 57.8613 15.4354 58.112 14.8168 58.112C14.6781 58.112 14.5394 58.1013 14.4008 58.08C14.2728 58.0693 14.1661 58.0427 14.0808 58V56.944C14.1448 56.9653 14.2141 56.9813 14.2888 56.992C14.3634 57.0027 14.4381 57.008 14.5128 57.008C15.0888 57.008 15.5474 56.3947 15.8888 55.168C16.2408 53.9413 16.5074 52.0267 16.6888 49.424H21.8568V58ZM25.1068 58H23.4748L25.9228 54.4C25.5921 54.3147 25.2721 54.1813 24.9628 54C24.6534 53.808 24.4028 53.5467 24.2108 53.216C24.0188 52.8747 23.9228 52.4533 23.9228 51.952C23.9228 51.1307 24.2001 50.5067 24.7548 50.08C25.3094 49.6427 26.0454 49.424 26.9628 49.424H30.8028V58H29.3948V54.592H27.3148L25.1068 58ZM25.2828 51.968C25.2828 52.4587 25.4641 52.8267 25.8268 53.072C26.2001 53.3067 26.7174 53.424 27.3788 53.424H29.3948V50.592H27.1068C26.4561 50.592 25.9868 50.72 25.6988 50.976C25.4214 51.232 25.2828 51.5627 25.2828 51.968ZM41.8619 49.264C42.9179 49.264 43.7659 49.632 44.4059 50.368C45.0565 51.104 45.3819 52.2133 45.3819 53.696C45.3819 55.1573 45.0565 56.2667 44.4059 57.024C43.7659 57.7813 42.9125 58.16 41.8459 58.16C41.1845 58.16 40.6352 58.0373 40.1979 57.792C39.7712 57.536 39.4352 57.2427 39.1899 56.912H39.0939C39.1152 57.0933 39.1365 57.3227 39.1579 57.6C39.1792 57.8773 39.1899 58.1173 39.1899 58.32V61.84H37.7819V49.424H38.9339L39.1259 50.592H39.1899C39.4459 50.2187 39.7819 49.904 40.1979 49.648C40.6139 49.392 41.1685 49.264 41.8619 49.264ZM41.6059 50.448C40.7312 50.448 40.1125 50.6933 39.7499 51.184C39.3979 51.6747 39.2112 52.4213 39.1899 53.424V53.696C39.1899 54.752 39.3605 55.568 39.7019 56.144C40.0539 56.7093 40.6992 56.992 41.6379 56.992C42.1605 56.992 42.5872 56.848 42.9179 56.56C43.2592 56.272 43.5099 55.8827 43.6699 55.392C43.8405 54.8907 43.9259 54.32 43.9259 53.68C43.9259 52.6987 43.7339 51.9147 43.3499 51.328C42.9765 50.7413 42.3952 50.448 41.6059 50.448ZM48.3456 46.208C48.559 46.208 48.7456 46.2827 48.9056 46.432C49.0763 46.5707 49.1616 46.7947 49.1616 47.104C49.1616 47.4027 49.0763 47.6267 48.9056 47.776C48.7456 47.9253 48.559 48 48.3456 48C48.111 48 47.9136 47.9253 47.7536 47.776C47.5936 47.6267 47.5136 47.4027 47.5136 47.104C47.5136 46.7947 47.5936 46.5707 47.7536 46.432C47.9136 46.2827 48.111 46.208 48.3456 46.208ZM49.0336 49.424V58H47.6256V49.424H49.0336ZM52.9826 52.544C52.9826 53.5253 53.532 54.016 54.6306 54.016C55.164 54.016 55.6493 53.936 56.0866 53.776C56.524 53.6053 56.972 53.3813 57.4306 53.104V49.424H58.8386V58H57.4306V54.176C56.9506 54.4853 56.476 54.7307 56.0066 54.912C55.548 55.0827 54.9933 55.168 54.3426 55.168C53.468 55.168 52.7853 54.9387 52.2946 54.48C51.8146 54.0213 51.5746 53.408 51.5746 52.64V49.424H52.9826V52.544ZM66.6351 49.424H68.1711L64.5071 53.552L68.4751 58H66.8431L62.9711 53.648V58H61.5631V49.424H62.9711V53.584L66.6351 49.424ZM71.3599 54.656C71.3599 54.784 71.3545 54.976 71.3439 55.232C71.3332 55.488 71.3172 55.744 71.2959 56C71.2852 56.256 71.2745 56.4587 71.2639 56.608L75.8559 49.424H77.5839V58H76.2719V52.944C76.2719 52.7733 76.2719 52.5493 76.2719 52.272C76.2825 51.9947 76.2932 51.7227 76.3039 51.456C76.3145 51.1787 76.3252 50.9707 76.3359 50.832L71.7759 58H70.0319V49.424H71.3599V54.656Z" fill="#6B6B6B"/>
</svg>
