<svg width="65" height="64" viewBox="0 0 65 64" fill="none" xmlns="http://www.w3.org/2000/svg">
<path d="M27.0856 6.46849C27.3443 6.14504 27.2919 5.67307 26.9684 5.41432C26.645 5.15556 26.1731 5.208 25.9142 5.53144L25.7462 5.74162C24.7484 6.98885 24.7484 8.76111 25.7462 10.0083L25.7723 10.0409C25.8982 10.1983 26.0396 10.3426 26.1944 10.4717C26.9147 11.0719 26.9147 12.178 26.1944 12.7783L26.0198 12.9238C25.7016 13.189 25.6586 13.6619 25.9238 13.9801C26.189 14.2983 26.6618 14.3413 26.9801 14.0761L27.1547 13.9306C28.5946 12.7307 28.5946 10.5193 27.1547 9.31933C27.0773 9.25483 27.0065 9.18261 26.9435 9.10386L26.9174 9.07123C26.3579 8.37186 26.3579 7.37806 26.9174 6.67867L27.0856 6.46849Z" fill="#6B6B6B"/>
<path fill-rule="evenodd" clip-rule="evenodd" d="M43 8.25C43 9.90683 41.6568 11.25 40 11.25C38.3432 11.25 37 9.90683 37 8.25C37 6.59314 38.3432 5.25 40 5.25C41.6568 5.25 43 6.59314 43 8.25ZM41.5 8.25C41.5 9.07845 40.8284 9.75 40 9.75C39.1716 9.75 38.5 9.07845 38.5 8.25C38.5 7.42157 39.1716 6.75 40 6.75C40.8284 6.75 41.5 7.42157 41.5 8.25Z" fill="#6B6B6B"/>
<path d="M42.372 24.287C41.9574 25.288 41.3497 26.1974 40.5836 26.9636C39.8175 27.7296 38.9081 28.3373 37.9071 28.7519C36.9062 29.1665 35.8334 29.3799 34.75 29.3799C34.3358 29.3799 34 29.0441 34 28.6299C34 28.2157 34.3358 27.8799 34.75 27.8799C35.6364 27.8799 36.5141 27.7053 37.3331 27.3661C38.1521 27.0269 38.8961 26.5297 39.523 25.9028C40.1498 25.2761 40.6469 24.532 40.9862 23.713C41.1447 23.3303 41.5834 23.1486 41.9661 23.3071C42.3488 23.4656 42.5305 23.9044 42.372 24.287Z" fill="#6B6B6B"/>
<path fill-rule="evenodd" clip-rule="evenodd" d="M47.5 18H44.5V16.5C44.5 14.0147 42.4853 12 40 12C37.5147 12 35.5 14.0147 35.5 16.5V18H17.5C17.0858 18 16.7481 18.336 16.7678 18.7497C16.8542 20.5619 17.2532 22.3476 17.9489 24.0273C18.6446 25.7069 19.6251 27.2516 20.8454 28.594L16.9697 32.4697C16.6768 32.7626 16.6768 33.2375 16.9697 33.5303C17.2626 33.8233 17.7374 33.8233 18.0303 33.5303L21.906 29.6546C23.2485 30.875 24.7931 31.8554 26.4727 32.5511C28.3836 33.3426 30.4317 33.75 32.5 33.75C34.5683 33.75 36.6164 33.3426 38.5272 32.5511C40.2069 31.8554 41.7515 30.875 43.094 29.6546L46.9697 33.5303C47.2626 33.8233 47.7374 33.8233 48.0303 33.5303C48.3232 33.2375 48.3232 32.7626 48.0303 32.4697L44.1546 28.594C45.3749 27.2516 46.3554 25.7069 47.0511 24.0273C47.7468 22.3476 48.1458 20.5619 48.2322 18.7497C48.2519 18.336 47.9142 18 47.5 18ZM46.6708 19.5H18.3292C18.4728 20.8566 18.8107 22.1882 19.3347 23.4533C20.0508 25.1822 21.1005 26.753 22.4237 28.0763C23.747 29.3995 25.3179 30.4492 27.0468 31.1653C28.7757 31.8815 30.6287 32.25 32.5 32.25C34.3713 32.25 36.2243 31.8815 37.9533 31.1653C39.6821 30.4492 41.253 29.3995 42.5763 28.0763C43.8995 26.753 44.9492 25.1822 45.6653 23.4533C46.1893 22.1882 46.5273 20.8566 46.6708 19.5ZM43 16.5V18H37V16.5C37 14.8432 38.3432 13.5 40 13.5C41.6568 13.5 43 14.8432 43 16.5Z" fill="#6B6B6B"/>
<path d="M22.4684 6.91432C22.7919 7.17307 22.8443 7.64503 22.5856 7.96851L22.4174 8.17866C21.8579 8.87803 21.8579 9.87186 22.4174 10.5712L22.4435 10.6039C22.5065 10.6826 22.5773 10.7548 22.6547 10.8193C24.0946 12.0193 24.0946 14.2307 22.6547 15.4306L22.4801 15.5761C22.1618 15.8413 21.6889 15.7983 21.4238 15.4801C21.1586 15.1619 21.2016 14.689 21.5198 14.4238L21.6945 14.2783C22.4147 13.678 22.4147 12.5719 21.6945 11.9717C21.5396 11.8426 21.3982 11.6983 21.2722 11.5409L21.2461 11.5083C20.2484 10.2611 20.2484 8.48886 21.2461 7.24162L21.4143 7.03144C21.673 6.708 22.145 6.65556 22.4684 6.91432Z" fill="#6B6B6B"/>
<path d="M31.5856 7.96851C31.8443 7.64503 31.7919 7.17307 31.4684 6.91432C31.145 6.65556 30.6731 6.708 30.4142 7.03144L30.2462 7.24162C29.2484 8.48886 29.2484 10.2611 30.2462 11.5083L30.2723 11.5409C30.3982 11.6983 30.5396 11.8426 30.6944 11.9717C31.4147 12.5719 31.4147 13.678 30.6944 14.2783L30.5198 14.4238C30.2016 14.689 30.1586 15.1619 30.4238 15.4801C30.689 15.7983 31.1618 15.8413 31.4801 15.5761L31.6547 15.4306C33.0946 14.2307 33.0946 12.0193 31.6547 10.8193C31.5773 10.7548 31.5065 10.6826 31.4435 10.6039L31.4174 10.5712C30.8579 9.87186 30.8579 8.87803 31.4174 8.17866L31.5856 7.96851Z" fill="#6B6B6B"/>
<path d="M8.304 49.248C8.304 50.0267 8.05867 50.6453 7.568 51.104C7.07733 51.552 6.42133 51.84 5.6 51.968V52.032C6.56 52.16 7.29067 52.4587 7.792 52.928C8.29333 53.3973 8.544 54.0107 8.544 54.768C8.544 55.7707 8.16 56.5867 7.392 57.216C6.624 57.8453 5.472 58.16 3.936 58.16C3.31733 58.16 2.72533 58.112 2.16 58.016C1.60533 57.9307 1.088 57.7707 0.608 57.536V56.224C1.10933 56.4587 1.65333 56.6453 2.24 56.784C2.83733 56.912 3.39733 56.976 3.92 56.976C4.944 56.976 5.71733 56.784 6.24 56.4C6.77333 56.016 7.04 55.472 7.04 54.768C7.04 54.0427 6.73067 53.5147 6.112 53.184C5.49333 52.8533 4.62933 52.688 3.52 52.688H1.888V51.488H3.44C4.57067 51.488 5.41333 51.3013 5.968 50.928C6.53333 50.544 6.816 50.032 6.816 49.392C6.816 48.816 6.60267 48.3733 6.176 48.064C5.74933 47.7547 5.19467 47.6 4.512 47.6C3.79733 47.6 3.2 47.6907 2.72 47.872C2.25067 48.0533 1.792 48.288 1.344 48.576L0.656 47.6C1.104 47.2693 1.65333 46.992 2.304 46.768C2.96533 46.5333 3.70667 46.416 4.528 46.416C5.76533 46.416 6.704 46.6827 7.344 47.216C7.984 47.7493 8.304 48.4267 8.304 49.248ZM16.2639 52.544C16.2639 53.5253 16.8132 54.016 17.9119 54.016C18.4452 54.016 18.9305 53.936 19.3679 53.776C19.8052 53.6053 20.2532 53.3813 20.7119 53.104V49.424H22.1199V58H20.7119V54.176C20.2319 54.4853 19.7572 54.7307 19.2879 54.912C18.8292 55.0827 18.2745 55.168 17.6239 55.168C16.7492 55.168 16.0665 54.9387 15.5759 54.48C15.0959 54.0213 14.8559 53.408 14.8559 52.64V49.424H16.2639V52.544ZM28.0924 49.28C29.1377 49.28 29.911 49.5093 30.4124 49.968C30.9137 50.4267 31.1644 51.1573 31.1644 52.16V58H30.1404L29.8684 56.784H29.8044C29.431 57.2533 29.0364 57.6 28.6204 57.824C28.215 58.048 27.6497 58.16 26.9244 58.16C26.1457 58.16 25.5004 57.9573 24.9884 57.552C24.4764 57.136 24.2204 56.4907 24.2204 55.616C24.2204 54.7627 24.5564 54.1067 25.2284 53.648C25.9004 53.1787 26.935 52.9227 28.3324 52.88L29.7884 52.832V52.32C29.7884 51.6053 29.6337 51.1093 29.3244 50.832C29.015 50.5547 28.5777 50.416 28.0124 50.416C27.5644 50.416 27.1377 50.4853 26.7324 50.624C26.327 50.752 25.9484 50.9013 25.5964 51.072L25.1644 50.016C25.5377 49.8133 25.9804 49.6427 26.4924 49.504C27.0044 49.3547 27.5377 49.28 28.0924 49.28ZM28.5084 53.856C27.4417 53.8987 26.7004 54.0693 26.2844 54.368C25.879 54.6667 25.6764 55.088 25.6764 55.632C25.6764 56.112 25.8204 56.464 26.1084 56.688C26.407 56.912 26.7857 57.024 27.2444 57.024C27.9697 57.024 28.5724 56.8267 29.0524 56.432C29.5324 56.0267 29.7724 55.408 29.7724 54.576V53.808L28.5084 53.856ZM35.2211 49.424V52.992H39.8771V49.424H41.2851V58H39.8771V54.176H35.2211V58H33.8131V49.424H35.2211ZM51.4566 53.696C51.4566 55.1147 51.094 56.2133 50.3686 56.992C49.654 57.7707 48.6833 58.16 47.4566 58.16C46.6993 58.16 46.022 57.9893 45.4246 57.648C44.838 57.296 44.374 56.7893 44.0326 56.128C43.6913 55.456 43.5206 54.6453 43.5206 53.696C43.5206 52.2773 43.878 51.184 44.5926 50.416C45.3073 49.648 46.278 49.264 47.5046 49.264C48.2833 49.264 48.966 49.44 49.5526 49.792C50.15 50.1333 50.614 50.6347 50.9446 51.296C51.286 51.9467 51.4566 52.7467 51.4566 53.696ZM44.9766 53.696C44.9766 54.7093 45.174 55.5147 45.5686 56.112C45.974 56.6987 46.614 56.992 47.4886 56.992C48.3526 56.992 48.9873 56.6987 49.3926 56.112C49.798 55.5147 50.0006 54.7093 50.0006 53.696C50.0006 52.6827 49.798 51.888 49.3926 51.312C48.9873 50.736 48.3473 50.448 47.4726 50.448C46.598 50.448 45.9633 50.736 45.5686 51.312C45.174 51.888 44.9766 52.6827 44.9766 53.696ZM62.8881 49.424V58H61.6241V52.528C61.6241 52.304 61.6295 52.0693 61.6401 51.824C61.6615 51.5787 61.6828 51.3387 61.7041 51.104H61.6561L58.8561 58H57.6721L54.9521 51.104H54.9041C54.9361 51.584 54.9521 52.0747 54.9521 52.576V58H53.6881V49.424H55.5601L58.2641 56.32L61.0161 49.424H62.8881Z" fill="#6B6B6B"/>
</svg>
