<svg width="82" height="64" viewBox="0 0 82 64" fill="none" xmlns="http://www.w3.org/2000/svg">
<path fill-rule="evenodd" clip-rule="evenodd" d="M31.0397 2.47919C30.7521 2.18113 30.2772 2.17268 29.9792 2.46032C29.6811 2.74795 29.6727 3.22276 29.9603 3.52081C30.2424 3.81311 30.6345 4.26306 31.0898 4.89497C30.1325 5.82729 29.798 7.28874 30.3602 8.5881L31.7186 11.7279C32.2989 13.0692 33.6593 13.8324 35.0394 13.7164C35.5411 15.544 35.9792 17.6468 36.2975 20.0539L35.0361 18.4322C33.3497 16.2638 30.8267 14.9075 28.0878 14.6968L27.069 14.6185C25.3636 14.4873 24.8029 16.8547 26.386 17.5024L27.7114 18.0445C29.1681 18.6405 30.3708 19.7268 31.1115 21.1156L31.4043 21.6645C30.281 21.1048 28.8822 21.2239 27.8568 22.0875L26.75 23.0195V21.75C26.75 21.3358 26.4142 21 26 21C25.5858 21 25.25 21.3358 25.25 21.75V28.5C25.25 31.3995 27.6005 33.75 30.5 33.75H51.5C54.3995 33.75 56.75 31.3995 56.75 28.5V21.75C56.75 21.3358 56.4142 21 56 21C55.5858 21 55.25 21.3358 55.25 21.75V23.0194L54.1433 22.0875C52.74 20.9057 50.6375 21.118 49.4987 22.5565L49.3182 22.7845C48.709 23.5541 47.5411 23.5541 46.9318 22.7845C45.7219 21.2562 43.4031 21.2562 42.1932 22.7845C42.0147 23.0101 41.7881 23.1695 41.5417 23.2628C42.4963 20.5463 43.7482 17.9429 45.275 15.5001L48.1214 10.9457C48.5812 10.21 47.878 9.29925 47.0499 9.558L43.9942 10.5129C42.2415 11.0606 40.6979 12.131 39.5705 13.5805C38.8237 14.5407 38.2792 15.6421 37.9696 16.8185L37.5652 18.3553C37.2627 16.4677 36.8873 14.7725 36.468 13.2548C37.8744 12.4134 38.4734 10.6395 37.805 9.09465L36.4466 5.95483C35.7611 4.3705 33.9873 3.59275 32.3783 4.11787C31.8528 3.37822 31.3888 2.84102 31.0397 2.47919ZM34.0065 23.356C34.4056 23.3218 34.7937 23.1313 35.0682 22.7845C35.3175 22.4696 35.6137 22.2196 35.9377 22.0345L33.8521 19.3531C32.4251 17.5183 30.2903 16.3707 27.9727 16.1924L26.954 16.114L28.2793 16.6562C30.0598 17.3846 31.5297 18.7123 32.435 20.4097L34.0065 23.356ZM38.2251 21.7417C38.8247 21.9023 39.3836 22.2499 39.8068 22.7845C39.877 22.8732 39.9546 22.9516 40.038 23.0199C41.04 20.1073 42.3701 17.3177 44.003 14.7051L46.0405 11.445L44.4416 11.9446C42.9808 12.4012 41.6942 13.2933 40.7545 14.5015C40.1321 15.3017 39.6782 16.2198 39.4202 17.2003L38.2251 21.7417ZM31.7369 7.99245C31.3387 7.07208 31.762 6.00315 32.6824 5.60494C33.6027 5.20674 34.6717 5.63006 35.0699 6.55045L36.4284 9.69022C36.8265 10.6106 36.4033 11.6796 35.4829 12.0778C34.5625 12.476 33.4935 12.0526 33.0953 11.1322L31.7369 7.99245ZM26.75 24.75V28.2695L27.8568 27.3375C29.2601 26.1557 31.3626 26.368 32.5013 27.8065L32.6818 28.0345C33.2911 28.8041 34.459 28.8041 35.0682 28.0345C36.2781 26.5062 38.5969 26.5062 39.8068 28.0345C40.4161 28.8041 41.584 28.8041 42.1932 28.0345C43.4031 26.5062 45.7219 26.5062 46.9318 28.0345C47.5411 28.8041 48.709 28.8041 49.3182 28.0345L49.4987 27.8065C50.6375 26.368 52.74 26.1557 54.1433 27.3375L55.25 28.2694V24.75C55.0793 24.7501 54.9077 24.6922 54.7669 24.5737L53.1771 23.2348C52.421 22.5982 51.2883 22.7125 50.6748 23.4875L50.4943 23.7155C49.2844 25.2438 46.9656 25.2438 45.7557 23.7155C45.1465 22.9459 43.9786 22.9459 43.3693 23.7155C42.1594 25.2438 39.8406 25.2438 38.6307 23.7155C38.0215 22.9459 36.8536 22.9459 36.2443 23.7155C35.0344 25.2438 32.7156 25.2438 31.5057 23.7155L31.3252 23.4875C30.7117 22.7125 29.579 22.5982 28.823 23.2348L27.2331 24.5737C27.0923 24.6922 26.9207 24.7501 26.75 24.75ZM30.5 32.25C28.9402 32.25 27.6029 31.2977 27.0376 29.9428C27.1068 29.9141 27.1728 29.8744 27.2331 29.8237L28.823 28.4848C29.579 27.8482 30.7117 27.9625 31.3252 28.7375L31.5057 28.9655C32.7156 30.4938 35.0344 30.4938 36.2443 28.9655C36.8536 28.1959 38.0215 28.1959 38.6307 28.9655C39.8406 30.4938 42.1594 30.4938 43.3693 28.9655C43.9786 28.1959 45.1465 28.1959 45.7557 28.9655C46.9656 30.4938 49.2844 30.4938 50.4943 28.9655L50.6748 28.7375C51.2883 27.9625 52.421 27.8482 53.1771 28.4848L54.7669 29.8237C54.8272 29.8744 54.8932 29.9141 54.9624 29.9428C54.3971 31.2977 53.0598 32.25 51.5 32.25H30.5Z" fill="#6B6B6B"/>
<path fill-rule="evenodd" clip-rule="evenodd" d="M53 9C54.6568 9 56 7.65683 56 6C56 4.34314 54.6568 3 53 3C51.3432 3 50 4.34314 50 6C50 7.65683 51.3432 9 53 9ZM53 7.5C53.8284 7.5 54.5 6.82843 54.5 6C54.5 5.17157 53.8284 4.5 53 4.5C52.1716 4.5 51.5 5.17157 51.5 6C51.5 6.82843 52.1716 7.5 53 7.5Z" fill="#6B6B6B"/>
<path d="M1.552 58V46.576H8.336V47.84H2.992V51.408H4.688C5.82933 51.408 6.71467 51.552 7.344 51.84C7.97333 52.1173 8.41067 52.5013 8.656 52.992C8.90133 53.472 9.024 54.0267 9.024 54.656C9.024 55.7013 8.70933 56.5227 8.08 57.12C7.45067 57.7067 6.38933 58 4.896 58H1.552ZM4.752 56.768C5.776 56.768 6.496 56.5973 6.912 56.256C7.328 55.904 7.536 55.3707 7.536 54.656C7.536 53.92 7.30667 53.4027 6.848 53.104C6.38933 52.8053 5.61067 52.656 4.512 52.656H2.992V56.768H4.752ZM11.9238 46.208C12.1371 46.208 12.3238 46.2827 12.4838 46.432C12.6544 46.5707 12.7398 46.7947 12.7398 47.104C12.7398 47.4027 12.6544 47.6267 12.4838 47.776C12.3238 47.9253 12.1371 48 11.9238 48C11.6891 48 11.4918 47.9253 11.3318 47.776C11.1718 47.6267 11.0918 47.4027 11.0918 47.104C11.0918 46.7947 11.1718 46.5707 11.3318 46.432C11.4918 46.2827 11.6891 46.208 11.9238 46.208ZM12.6118 49.424V58H11.2038V49.424H12.6118ZM21.8568 58H20.4328V50.592H17.9048C17.7661 52.3947 17.5741 53.8507 17.3288 54.96C17.0834 56.0587 16.7581 56.8587 16.3528 57.36C15.9474 57.8613 15.4354 58.112 14.8168 58.112C14.6781 58.112 14.5394 58.1013 14.4008 58.08C14.2728 58.0693 14.1661 58.0427 14.0808 58V56.944C14.1448 56.9653 14.2141 56.9813 14.2888 56.992C14.3634 57.0027 14.4381 57.008 14.5128 57.008C15.0888 57.008 15.5474 56.3947 15.8888 55.168C16.2408 53.9413 16.5074 52.0267 16.6888 49.424H21.8568V58ZM25.1068 58H23.4748L25.9228 54.4C25.5921 54.3147 25.2721 54.1813 24.9628 54C24.6534 53.808 24.4028 53.5467 24.2108 53.216C24.0188 52.8747 23.9228 52.4533 23.9228 51.952C23.9228 51.1307 24.2001 50.5067 24.7548 50.08C25.3094 49.6427 26.0454 49.424 26.9628 49.424H30.8028V58H29.3948V54.592H27.3148L25.1068 58ZM25.2828 51.968C25.2828 52.4587 25.4641 52.8267 25.8268 53.072C26.2001 53.3067 26.7174 53.424 27.3788 53.424H29.3948V50.592H27.1068C26.4561 50.592 25.9868 50.72 25.6988 50.976C25.4214 51.232 25.2828 51.5627 25.2828 51.968ZM45.2379 53.696C45.2379 55.1147 44.8752 56.2133 44.1499 56.992C43.4352 57.7707 42.4645 58.16 41.2379 58.16C40.4805 58.16 39.8032 57.9893 39.2059 57.648C38.6192 57.296 38.1552 56.7893 37.8139 56.128C37.4725 55.456 37.3019 54.6453 37.3019 53.696C37.3019 52.2773 37.6592 51.184 38.3739 50.416C39.0885 49.648 40.0592 49.264 41.2859 49.264C42.0645 49.264 42.7472 49.44 43.3339 49.792C43.9312 50.1333 44.3952 50.6347 44.7259 51.296C45.0672 51.9467 45.2379 52.7467 45.2379 53.696ZM38.7579 53.696C38.7579 54.7093 38.9552 55.5147 39.3499 56.112C39.7552 56.6987 40.3952 56.992 41.2699 56.992C42.1339 56.992 42.7685 56.6987 43.1739 56.112C43.5792 55.5147 43.7819 54.7093 43.7819 53.696C43.7819 52.6827 43.5792 51.888 43.1739 51.312C42.7685 50.736 42.1285 50.448 41.2539 50.448C40.3792 50.448 39.7445 50.736 39.3499 51.312C38.9552 51.888 38.7579 52.6827 38.7579 53.696ZM49.7254 49.264C50.7067 49.264 51.4854 49.4613 52.0614 49.856C52.648 50.24 52.9414 50.7947 52.9414 51.52C52.9414 52.0427 52.7974 52.4587 52.5094 52.768C52.2214 53.0667 51.8267 53.2853 51.3254 53.424V53.488C51.6667 53.584 51.9814 53.7173 52.2694 53.888C52.5574 54.0587 52.7867 54.2827 52.9574 54.56C53.1387 54.8373 53.2294 55.1947 53.2294 55.632C53.2294 56.3467 52.9307 56.9493 52.3334 57.44C51.7467 57.92 50.824 58.16 49.5654 58.16C48.9467 58.16 48.3867 58.1067 47.8854 58C47.384 57.904 46.968 57.7707 46.6374 57.6V56.336C47 56.5067 47.4267 56.6613 47.9174 56.8C48.4187 56.9387 48.9627 57.008 49.5494 57.008C50.1894 57.008 50.728 56.9013 51.1654 56.688C51.6134 56.464 51.8374 56.0853 51.8374 55.552C51.8374 54.592 51.0214 54.112 49.3894 54.112H48.2374V52.96H49.1654C49.9014 52.96 50.488 52.864 50.9254 52.672C51.3734 52.4693 51.5974 52.128 51.5974 51.648C51.5974 51.2427 51.4267 50.9387 51.0854 50.736C50.7547 50.5333 50.2747 50.432 49.6454 50.432C49.176 50.432 48.76 50.48 48.3974 50.576C48.0454 50.6613 47.656 50.7947 47.2294 50.976L46.7334 49.856C47.6294 49.4613 48.6267 49.264 49.7254 49.264ZM58.6251 49.264C59.3611 49.264 59.9905 49.424 60.5131 49.744C61.0465 50.064 61.4518 50.5173 61.7291 51.104C62.0171 51.68 62.1611 52.3573 62.1611 53.136V53.984H56.2891C56.3105 54.9547 56.5558 55.696 57.0251 56.208C57.5051 56.7093 58.1718 56.96 59.0251 56.96C59.5691 56.96 60.0491 56.912 60.4651 56.816C60.8918 56.7093 61.3291 56.56 61.7771 56.368V57.6C61.3398 57.792 60.9078 57.9307 60.4811 58.016C60.0545 58.112 59.5478 58.16 58.9611 58.16C58.1505 58.16 57.4305 57.9947 56.8011 57.664C56.1825 57.3333 55.6971 56.8427 55.3451 56.192C55.0038 55.5307 54.8331 54.7253 54.8331 53.776C54.8331 52.8373 54.9878 52.032 55.2971 51.36C55.6171 50.688 56.0598 50.1707 56.6251 49.808C57.2011 49.4453 57.8678 49.264 58.6251 49.264ZM58.6091 50.416C57.9371 50.416 57.4038 50.6347 57.0091 51.072C56.6251 51.4987 56.3958 52.096 56.3211 52.864H60.6891C60.6785 52.1387 60.5078 51.552 60.1771 51.104C59.8465 50.6453 59.3238 50.416 58.6091 50.416ZM68.4244 49.264C69.4804 49.264 70.3284 49.632 70.9684 50.368C71.619 51.104 71.9444 52.2133 71.9444 53.696C71.9444 55.1573 71.619 56.2667 70.9684 57.024C70.3284 57.7813 69.475 58.16 68.4084 58.16C67.747 58.16 67.1977 58.0373 66.7604 57.792C66.3337 57.536 65.9977 57.2427 65.7524 56.912H65.6564C65.6777 57.0933 65.699 57.3227 65.7204 57.6C65.7417 57.8773 65.7524 58.1173 65.7524 58.32V61.84H64.3444V49.424H65.4964L65.6884 50.592H65.7524C66.0084 50.2187 66.3444 49.904 66.7604 49.648C67.1764 49.392 67.731 49.264 68.4244 49.264ZM68.1684 50.448C67.2937 50.448 66.675 50.6933 66.3124 51.184C65.9604 51.6747 65.7737 52.4213 65.7524 53.424V53.696C65.7524 54.752 65.923 55.568 66.2644 56.144C66.6164 56.7093 67.2617 56.992 68.2004 56.992C68.723 56.992 69.1497 56.848 69.4804 56.56C69.8217 56.272 70.0724 55.8827 70.2324 55.392C70.403 54.8907 70.4884 54.32 70.4884 53.68C70.4884 52.6987 70.2964 51.9147 69.9124 51.328C69.539 50.7413 68.9577 50.448 68.1684 50.448ZM77.4361 49.28C78.4815 49.28 79.2548 49.5093 79.7561 49.968C80.2575 50.4267 80.5081 51.1573 80.5081 52.16V58H79.4841L79.2121 56.784H79.1481C78.7748 57.2533 78.3801 57.6 77.9641 57.824C77.5588 58.048 76.9935 58.16 76.2681 58.16C75.4895 58.16 74.8441 57.9573 74.3321 57.552C73.8201 57.136 73.5641 56.4907 73.5641 55.616C73.5641 54.7627 73.9001 54.1067 74.5721 53.648C75.2441 53.1787 76.2788 52.9227 77.6761 52.88L79.1321 52.832V52.32C79.1321 51.6053 78.9775 51.1093 78.6681 50.832C78.3588 50.5547 77.9215 50.416 77.3561 50.416C76.9081 50.416 76.4815 50.4853 76.0761 50.624C75.6708 50.752 75.2921 50.9013 74.9401 51.072L74.5081 50.016C74.8815 49.8133 75.3241 49.6427 75.8361 49.504C76.3481 49.3547 76.8815 49.28 77.4361 49.28ZM77.8521 53.856C76.7855 53.8987 76.0441 54.0693 75.6281 54.368C75.2228 54.6667 75.0201 55.088 75.0201 55.632C75.0201 56.112 75.1641 56.464 75.4521 56.688C75.7508 56.912 76.1295 57.024 76.5881 57.024C77.3135 57.024 77.9161 56.8267 78.3961 56.432C78.8761 56.0267 79.1161 55.408 79.1161 54.576V53.808L77.8521 53.856Z" fill="#6B6B6B"/>
</svg>
