<svg width="20" height="20" viewBox="0 0 20 20" fill="none" xmlns="http://www.w3.org/2000/svg">
<path fill-rule="evenodd" clip-rule="evenodd" d="M3.68421 3.78947C3.44691 3.78947 3.21933 3.88374 3.05154 4.05154C2.88915 4.21392 2.79563 4.43229 2.78977 4.66128C2.99555 7.92164 4.38353 10.9954 6.69405 13.306C9.00457 15.6165 12.0784 17.0045 15.3387 17.2102C15.5677 17.2044 15.7861 17.1108 15.9485 16.9485C16.1163 16.7807 16.2105 16.5531 16.2105 16.3158V13.3426L13.0068 12.0611L12.0567 13.6445C11.8171 14.0438 11.3113 14.1926 10.8937 13.9867C8.77414 12.9413 7.05867 11.2259 6.01334 9.10628C5.80737 8.68866 5.95616 8.18287 6.35545 7.9433L7.93889 6.99323L6.65739 3.78947H3.68421ZM1.78619 2.78619C2.28957 2.2828 2.97231 2 3.68421 2H7.26316C7.62902 2 7.95802 2.22275 8.0939 2.56244L9.88337 7.03612C10.0465 7.44387 9.88954 7.90971 9.51297 8.13565L8.01518 9.03433C8.75232 10.2365 9.76349 11.2477 10.9657 11.9848L11.8643 10.487C12.0903 10.1105 12.5561 9.95353 12.9639 10.1166L17.4376 11.9061C17.7773 12.042 18 12.371 18 12.7368V16.3158C18 17.0277 17.7172 17.7104 17.2138 18.2138C16.7104 18.7172 16.0277 19 15.3158 19C15.2977 19 15.2796 18.9995 15.2615 18.9984C11.5533 18.773 8.05568 17.1983 5.4287 14.5713C2.80172 11.9443 1.227 8.44675 1.00165 4.73848C1.00055 4.72041 1 4.70231 1 4.68421C1 3.97231 1.2828 3.28957 1.78619 2.78619Z" fill="#252525"/>
</svg>
