<svg width="20" height="20" viewBox="0 0 20 20" fill="none" xmlns="http://www.w3.org/2000/svg">
<path fill-rule="evenodd" clip-rule="evenodd" d="M4.35029 1.39714C6.18383 0.867622 8.41617 0.867622 10.2497 1.39714C11.1696 1.66279 11.9733 2.05686 12.5655 2.5696C13.1573 3.08198 13.6 3.7744 13.6 4.6C13.6 5.4256 13.1573 6.11802 12.5655 6.6304C11.9733 7.14314 11.1696 7.53721 10.2497 7.80286C8.41617 8.33238 6.18383 8.33238 4.35029 7.80286C3.78164 7.63864 3.25736 7.42534 2.8 7.16526V9.1C2.8 9.19302 2.82367 9.29348 2.99642 9.45314C3.1971 9.63862 3.53674 9.84073 4.06788 10.0786C4.52152 10.2818 4.72455 10.8142 4.52138 11.2679C4.3182 11.7215 3.78575 11.9246 3.33212 11.7214C3.15213 11.6408 2.97349 11.5561 2.8 11.4658V13.6C2.8 13.693 2.82367 13.7935 2.99642 13.9531C3.1971 14.1386 3.53674 14.3407 4.06788 14.5786C4.52152 14.7818 4.72455 15.3142 4.52138 15.7679C4.3182 16.2215 3.78575 16.4246 3.33212 16.2214C2.75806 15.9643 2.1977 15.666 1.77468 15.275C1.32373 14.8582 1 14.3062 1 13.6V4.6C1 3.7744 1.44271 3.08198 2.03449 2.5696C2.62668 2.05686 3.43043 1.66279 4.35029 1.39714ZM2.8 4.6C2.8 4.7392 2.87209 4.97467 3.21271 5.2696C3.55292 5.56416 4.09917 5.85678 4.84971 6.07353C6.35697 6.50882 8.24303 6.50882 9.75029 6.07353C10.5008 5.85678 11.0471 5.56416 11.3873 5.2696C11.7279 4.97467 11.8 4.7392 11.8 4.6C11.8 4.4608 11.7279 4.22532 11.3873 3.9304C11.0471 3.63584 10.5008 3.34321 9.75029 3.12646C8.24303 2.69118 6.35697 2.69118 4.84971 3.12646C4.09917 3.34321 3.55292 3.63584 3.21271 3.9304C2.87209 4.22532 2.8 4.4608 2.8 4.6ZM8.47903 9.08578C9.60573 8.52243 11.0993 8.2 12.7 8.2C14.3007 8.2 15.7943 8.52243 16.921 9.08578C17.9939 9.62224 19 10.5299 19 11.8V15.4C19 16.6698 17.9938 17.5774 16.921 18.1138C15.7944 18.6773 14.3008 19 12.7 19C11.0992 19 9.60562 18.6773 8.47896 18.1138C7.40624 17.5774 6.4 16.6698 6.4 15.4V11.8C6.4 10.5299 7.40611 9.62224 8.47903 9.08578ZM8.2 14.3651V15.4C8.2 15.6206 8.40246 16.063 9.28409 16.504C10.1118 16.9179 11.3182 17.2 12.7 17.2C14.0818 17.2 15.2882 16.9179 16.1159 16.504C16.9975 16.063 17.2 15.6206 17.2 15.4V14.3651C17.1079 14.4177 17.0147 14.4674 16.921 14.5142C15.7943 15.0776 14.3007 15.4 12.7 15.4C11.0993 15.4 9.60573 15.0776 8.47903 14.5142C8.3853 14.4674 8.29208 14.4177 8.2 14.3651ZM17.2 11.8C17.2 12.0212 16.9974 12.4635 16.116 12.9043C15.2883 13.3181 14.0819 13.6 12.7 13.6C11.3181 13.6 10.1117 13.3181 9.28402 12.9043C8.40259 12.4635 8.2 12.0212 8.2 11.8C8.2 11.5788 8.40259 11.1365 9.28402 10.6957C10.1117 10.2819 11.3181 10 12.7 10C14.0819 10 15.2883 10.2819 16.116 10.6957C16.9974 11.1365 17.2 11.5788 17.2 11.8Z" fill="#252525"/>
</svg>
