<svg width="40" height="46" fill="none" xmlns="http://www.w3.org/2000/svg"><path d="M16.476 26.882c7.123 0 12.896-5.794 12.896-12.94C29.372 6.793 23.6 1 16.476 1 9.353 1 3.579 6.794 3.579 13.941c0 7.147 5.774 12.941 12.897 12.941Z" stroke="#DD6A24" stroke-width="2" stroke-linecap="round" stroke-linejoin="round"/><path d="M20.345 7.47h-6.448l-1.29 1.295v3.882l1.29 1.294h5.158l1.29 1.294v3.883l-1.29 1.294h-6.448M16.476 7.47V4.883M16.476 20.412V23M38.4 37.235l-6.23-6.25a5.155 5.155 0 0 0-3.649-1.514h-1.728l-2.58 1.294h-5.158a2.591 2.591 0 0 0-2.58 2.588v2.588" stroke="#DD6A24" stroke-width="2" stroke-linecap="round" stroke-linejoin="round"/><path d="m30.662 45-2.58-2.588H12.608L1 30.765l2.025-.505a6.511 6.511 0 0 1 5.661 1.242l5.21 4.44h10.318" stroke="#DD6A24" stroke-width="2" stroke-linecap="round" stroke-linejoin="round"/></svg>