<svg width="40" height="46" viewBox="0 0 40 46" fill="none" xmlns="http://www.w3.org/2000/svg">
<path d="M16.4759 26.8824C23.5985 26.8824 29.3725 21.0884 29.3725 13.9412C29.3725 6.79396 23.5985 1 16.4759 1C9.35333 1 3.57935 6.79396 3.57935 13.9412C3.57935 21.0884 9.35333 26.8824 16.4759 26.8824Z" stroke="#DD6A24" stroke-width="2" stroke-linecap="round" stroke-linejoin="round"></path>
<path d="M20.3449 7.47058H13.8966L12.6069 8.7647V12.6471L13.8966 13.9412H19.0552L20.3449 15.2353V19.1176L19.0552 20.4118H12.6069" stroke="#DD6A24" stroke-width="2" stroke-linecap="round" stroke-linejoin="round"></path>
<path d="M16.476 7.47056V4.88232" stroke="#DD6A24" stroke-width="2" stroke-linecap="round" stroke-linejoin="round"></path>
<path d="M16.476 20.4117V23" stroke="#DD6A24" stroke-width="2" stroke-linecap="round" stroke-linejoin="round"></path>
<path d="M38.4 37.2353L32.1709 30.9847C31.2037 30.0141 29.8882 29.4706 28.5212 29.4706H26.7931L24.2138 30.7647H19.0551C17.6365 30.7647 16.4758 31.9294 16.4758 33.3529V35.9412" stroke="#DD6A24" stroke-width="2" stroke-linecap="round" stroke-linejoin="round"></path>
<path d="M30.6621 45L28.0828 42.4118H12.6069L1 30.7647L3.02477 30.26C4.99794 29.7682 7.10008 30.2212 8.68635 31.5024L13.8966 35.9412H24.2138" stroke="#DD6A24" stroke-width="2" stroke-linecap="round" stroke-linejoin="round"></path>
</svg>
