<svg width="10" height="10" viewBox="0 0 10 10" fill="none" xmlns="http://www.w3.org/2000/svg">
<g clip-path="url('#clip0_909_433')">
<path d="M5 10C7.76142 10 10 7.76142 10 5C10 2.23858 7.76142 0 5 0C2.23858 0 0 2.23858 0 5C0 7.76142 2.23858 10 5 10Z" fill="#F0F0F0"></path>
<path d="M9.689 6.73996C9.89 6.1983 10 5.61244 10 5.00084C10 4.38924 9.89 3.80338 9.689 3.26172H0.310996C0.11002 3.80338 0 4.38924 0 5.00084C0 5.61244 0.11002 6.1983 0.310996 6.73996L5 7.17475L9.689 6.73996Z" fill="#0052B4"></path>
<path d="M5.00004 9.99916C7.14986 9.99916 8.98258 8.64229 9.68904 6.73828H0.311035C1.0175 8.64229 2.85021 9.99916 5.00004 9.99916Z" fill="#D80027"></path>
</g>
<defs>
<clipPath id="clip0_909_433">
<rect width="10" height="10" fill="white"></rect>
</clipPath>
</defs>
</svg>
