<svg version="1.1" id="Layer_1" xmlns="http://www.w3.org/2000/svg" x="0" y="0" style="enable-background:new 0 0 512 512" xml:space="preserve" width="10" height="10"><path style="fill:#f0f0f0" d="M10 5a5 5 0 0 1-5 5 5 5 0 0 1-5-5 5 5 0 0 1 10 0z"/><path style="fill:#0052b4" d="M1.034 1.956a4.969 4.969 0 0 0-.861 1.74h2.601zM9.828 3.696a4.986 4.986 0 0 0-.861-1.74l-1.74 1.74zM.172 6.304c.172.64.469 1.229.861 1.74l1.74-1.74zM8.044 1.034a4.969 4.969 0 0 0-1.74-.861v2.601zM1.956 8.966c.511.393 1.1.689 1.74.861v-2.6zM3.696.172a4.986 4.986 0 0 0-1.74.861l1.74 1.74zM6.304 9.828a4.986 4.986 0 0 0 1.74-.861l-1.74-1.74zM7.227 6.304l1.74 1.74c.393-.511.689-1.1.861-1.74z"/><path style="fill:#d80027" d="M9.958 4.348H5.652V.042A5.059 5.059 0 0 0 5 0c-.221 0-.439.015-.652.042v4.305H.042A5.059 5.059 0 0 0 0 5c0 .221.015.439.042.652h4.305v4.306a5.046 5.046 0 0 0 1.304 0V5.652h4.306A5.059 5.059 0 0 0 10 5c0-.221-.015-.439-.042-.652"/><path style="fill:#d80027" d="m6.304 6.304 2.232 2.232a5.02 5.02 0 0 0 .294-.321l-1.91-1.91h-.615zM3.696 6.304 1.464 8.536a5.02 5.02 0 0 0 .321.294l1.91-1.91zM3.696 3.696 1.464 1.464a5.02 5.02 0 0 0-.294.321l1.91 1.91zM6.304 3.696l2.232-2.232a5 5 0 0 0-.321-.294l-1.91 1.91z"/></svg>