<svg width="10" height="10" viewBox="0 0 10 10" fill="none" xmlns="http://www.w3.org/2000/svg">
<g clip-path="url('#clip0_909_439')">
<path d="M0.311035 6.73945C1.0175 8.64344 2.85021 10.0003 5.00004 10.0003C7.14986 10.0003 8.98258 8.64344 9.68904 6.73945L5.00004 6.30469L0.311035 6.73945Z" fill="#FFDA44"></path>
<path d="M5.00004 0C2.85021 0 1.0175 1.35687 0.311035 3.26088L5.00004 3.69564L9.68904 3.26086C8.98258 1.35687 7.14986 0 5.00004 0Z" fill="black"></path>
<path d="M0.310996 3.26172C0.11002 3.80338 0 4.38924 0 5.00084C0 5.61244 0.11002 6.1983 0.310996 6.73996H9.68902C9.89 6.1983 10 5.61244 10 5.00084C10 4.38924 9.89 3.80338 9.689 3.26172H0.310996Z" fill="#D80027"></path>
</g>
<defs>
<clipPath id="clip0_909_439">
<rect width="10" height="10" fill="white"></rect>
</clipPath>
</defs>
</svg>
