<svg width="10" height="10" fill="none" xmlns="http://www.w3.org/2000/svg"><g clip-path="url('#clip0_909_439')"><path d="M.311 6.74a5.002 5.002 0 0 0 9.378 0L5 6.304l-4.689.434Z" fill="#FFDA44"/><path d="M5 0A5.002 5.002 0 0 0 .311 3.26L5 3.697l4.689-.435A5.002 5.002 0 0 0 5 0Z" fill="#000"/><path d="M.311 3.262A4.99 4.99 0 0 0 0 5c0 .611.11 1.197.311 1.739h9.378A4.99 4.99 0 0 0 10 5c0-.61-.11-1.197-.311-1.738H.311Z" fill="#D80027"/></g><defs><clipPath id="clip0_909_439"><path fill="#fff" d="M0 0h10v10H0z"/></clipPath></defs></svg>