<svg width="10" height="10" fill="none" xmlns="http://www.w3.org/2000/svg"><g clip-path="url('#clip0_909_433')"><path d="M5 10A5 5 0 1 0 5 0a5 5 0 0 0 0 10Z" fill="#F0F0F0"/><path d="M9.689 6.74A4.989 4.989 0 0 0 10 5c0-.61-.11-1.197-.311-1.738H.311A4.99 4.99 0 0 0 0 5c0 .611.11 1.197.311 1.739L5 7.175l4.689-.435Z" fill="#0052B4"/><path d="M5 10a5.002 5.002 0 0 0 4.689-3.262H.311A5.002 5.002 0 0 0 5 10Z" fill="#D80027"/></g><defs><clipPath id="clip0_909_433"><path fill="#fff" d="M0 0h10v10H0z"/></clipPath></defs></svg>