<svg width="24" height="24" fill="none" xmlns="http://www.w3.org/2000/svg"><g clip-path="url('#clip0_2266_1178')" stroke="#DD6A24" stroke-width="1.2" stroke-linecap="round" stroke-linejoin="round"><path d="M3.45.746h-.9a1.8 1.8 0 0 0-1.8 1.8v.9a1.8 1.8 0 0 0 1.8 1.8h.9a1.8 1.8 0 0 0 1.8-1.8v-.9a1.8 1.8 0 0 0-1.8-1.8ZM12.45.746h-.9a1.8 1.8 0 0 0-1.8 1.8v.9a1.8 1.8 0 0 0 1.8 1.8h.9a1.8 1.8 0 0 0 1.8-1.8v-.9a1.8 1.8 0 0 0-1.8-1.8ZM21.45.746h-.9a1.8 1.8 0 0 0-1.8 1.8v.9a1.8 1.8 0 0 0 1.8 1.8h.9a1.8 1.8 0 0 0 1.8-1.8v-.9a1.8 1.8 0 0 0-1.8-1.8ZM3.45 9.746h-.9a1.8 1.8 0 0 0-1.8 1.8v.9a1.8 1.8 0 0 0 1.8 1.8h.9a1.8 1.8 0 0 0 1.8-1.8v-.9a1.8 1.8 0 0 0-1.8-1.8ZM12.45 9.746h-.9a1.8 1.8 0 0 0-1.8 1.8v.9a1.8 1.8 0 0 0 1.8 1.8h.9a1.8 1.8 0 0 0 1.8-1.8v-.9a1.8 1.8 0 0 0-1.8-1.8ZM21.45 9.746h-.9a1.8 1.8 0 0 0-1.8 1.8v.9a1.8 1.8 0 0 0 1.8 1.8h.9a1.8 1.8 0 0 0 1.8-1.8v-.9a1.8 1.8 0 0 0-1.8-1.8ZM3.45 18.746h-.9a1.8 1.8 0 0 0-1.8 1.8v.9a1.8 1.8 0 0 0 1.8 1.8h.9a1.8 1.8 0 0 0 1.8-1.8v-.9a1.8 1.8 0 0 0-1.8-1.8ZM12.45 18.746h-.9a1.8 1.8 0 0 0-1.8 1.8v.9a1.8 1.8 0 0 0 1.8 1.8h.9a1.8 1.8 0 0 0 1.8-1.8v-.9a1.8 1.8 0 0 0-1.8-1.8ZM21.45 18.746h-.9a1.8 1.8 0 0 0-1.8 1.8v.9a1.8 1.8 0 0 0 1.8 1.8h.9a1.8 1.8 0 0 0 1.8-1.8v-.9a1.8 1.8 0 0 0-1.8-1.8Z"/></g><defs><clipPath id="clip0_2266_1178"><path fill="#fff" d="M0 0h24v24H0z"/></clipPath></defs></svg>