<svg width="36" height="36" fill="none" xmlns="http://www.w3.org/2000/svg"><path d="M13.916 27.126a.75.75 0 0 0-.832 1.248 8.869 8.869 0 0 0 9.832 0 .75.75 0 0 0-.832-1.248 7.368 7.368 0 0 1-8.168 0ZM15.126 22.916c-1.128-1.692-3.624-1.692-4.752 0a.75.75 0 1 1-1.248-.832c1.722-2.583 5.526-2.583 7.248 0a.75.75 0 0 1-1.248.832ZM20.874 22.916c1.128-1.692 3.624-1.692 4.752 0a.75.75 0 1 0 1.248-.832c-1.722-2.583-5.526-2.583-7.248 0a.75.75 0 1 0 1.248.832Z" fill="#6B6B6B"/><path fill-rule="evenodd" clip-rule="evenodd" d="M30 10.963V7.5c0-3.317-2.683-6-6-6H12c-3.317 0-6 2.683-6 6v3.463l-4.127 4.594-.014.017C1.07 16.561 1.79 18 3.03 18h1.803c-.164.73-.27 1.481-.312 2.25H4.5c-1.66 0-3 1.34-3 3a2.997 2.997 0 0 0 3.989 2.833C7.493 31.019 12.338 34.5 18 34.5c5.662 0 10.507-3.481 12.511-8.417A2.997 2.997 0 0 0 34.5 23.25c0-1.66-1.34-3-3-3h-.02a13.618 13.618 0 0 0-.312-2.25h1.802c1.24 0 1.96-1.439 1.17-2.426l-.013-.017L30 10.963ZM12 3a4.496 4.496 0 0 0-4.5 4.5v3h21v-3C28.5 5.012 26.488 3 24 3H12Zm19.477 18.75c-.005.07-.01.138-.017.206a12.953 12.953 0 0 1-.463 2.708A1.497 1.497 0 0 0 33 23.25c0-.83-.67-1.5-1.5-1.5h-.023Zm-26.977 0h.023c.005.07.01.138.017.206.059.933.217 1.838.463 2.707A1.5 1.5 0 1 1 4.5 21.75ZM28.915 12H7.085l-4.043 4.5h29.916L28.915 12Zm.71 6H6.376A12.155 12.155 0 0 0 6 21v.135c0 .226.013.458.035.7v.009l.001.01c.063 1.012.26 1.99.57 2.921l.003.009c.057.177.118.354.185.52l.004.01A11.999 11.999 0 0 0 18 33a12 12 0 0 0 11.203-7.687l.003-.009a7.87 7.87 0 0 0 .185-.52l.002-.009c.31-.93.508-1.909.571-2.922v-.01l.001-.009c.022-.241.035-.473.035-.699V21c0-1.036-.13-2.042-.374-3Z" fill="#6B6B6B"/></svg>