<svg width="24" height="24" fill="none" xmlns="http://www.w3.org/2000/svg"><g clip-path="url('#clip0_2779_716')" fill="#252525"><path d="M3 16.5c-1.682 0-3-1.977-3-4.5 0-2.523 1.318-4.5 3-4.5S6 9.477 6 12c0 2.523-1.318 4.5-3 4.5ZM3 9c-.708 0-1.5 1.283-1.5 3s.792 3 1.5 3 1.5-1.283 1.5-3S3.708 9 3 9ZM8.25 9c-1.682 0-3-1.977-3-4.5 0-2.523 1.318-4.5 3-4.5s3 1.977 3 4.5c0 2.523-1.318 4.5-3 4.5Zm0-7.5c-.708 0-1.5 1.283-1.5 3s.792 3 1.5 3 1.5-1.283 1.5-3-.792-3-1.5-3ZM21 15.75c-1.682 0-3-1.977-3-4.5 0-2.523 1.318-4.5 3-4.5s3 1.977 3 4.5c0 2.523-1.318 4.5-3 4.5Zm0-7.5c-.708 0-1.5 1.283-1.5 3s.792 3 1.5 3 1.5-1.283 1.5-3-.792-3-1.5-3ZM15.75 9c-1.682 0-3-1.977-3-4.5 0-2.523 1.318-4.5 3-4.5s3 1.977 3 4.5c0 2.523-1.318 4.5-3 4.5Zm0-7.5c-.708 0-1.5 1.283-1.5 3s.792 3 1.5 3 1.5-1.283 1.5-3-.792-3-1.5-3ZM12 24c-3.722 0-6.75-2.355-6.75-5.25a4.757 4.757 0 0 1 1.984-3.709.743.743 0 0 0 .263-.609l-.001-.181a4.505 4.505 0 0 1 4.5-4.501c2.481 0 4.5 2.019 4.5 4.5v.146a.776.776 0 0 0 .285.662 4.73 4.73 0 0 1 1.969 3.665c0 1.439-.716 2.772-2.016 3.768C15.464 23.464 13.783 24 12 24Zm-.004-12.75c-1.654 0-3 1.346-3 3v.146a2.22 2.22 0 0 1-.868 1.849 3.256 3.256 0 0 0-1.378 2.53c0 2.048 2.356 3.724 5.25 3.724s5.25-1.682 5.25-3.75a3.211 3.211 0 0 0-1.389-2.507 2.259 2.259 0 0 1-.864-1.882l-.001-.11c0-1.654-1.346-3-3-3Z"/></g><defs><clipPath id="clip0_2779_716"><path fill="#fff" d="M0 0h24v24H0z"/></clipPath></defs></svg>