<svg width="36" height="36" fill="none" xmlns="http://www.w3.org/2000/svg"><path fill-rule="evenodd" clip-rule="evenodd" d="M17.25 11.25a.75.75 0 0 0-.75.75v4.5c0 .414.336.75.75.75h4.5a.75.75 0 0 0 .75-.75V12a.75.75 0 0 0-.75-.75h-4.5Zm.75 1.5v3h3v-3h-3ZM24 12a.75.75 0 0 1 .75-.75h4.5A.75.75 0 0 1 30 12v4.5a.75.75 0 0 1-.75.75h-4.5a.75.75 0 0 1-.75-.75V12Zm1.5 3.75v-3h3v3h-3Z" fill="#6B6B6B"/><path fill-rule="evenodd" clip-rule="evenodd" d="M23.345 26.25a3.001 3.001 0 0 0 5.81 0H30a3.75 3.75 0 0 0 3.75-3.75V11.25A3.75 3.75 0 0 0 30 7.5H15c-7.042 0-12.75 5.708-12.75 12.75v2.25A3.75 3.75 0 0 0 6 26.25h.845a3.001 3.001 0 0 0 5.81 0h10.69ZM15 9c-.252 0-.502.008-.75.025v6.725a1.5 1.5 0 0 1-1.5 1.5H4.154a11.261 11.261 0 0 0-.404 3v2.25A2.25 2.25 0 0 0 6 24.75h.845a3.001 3.001 0 0 1 5.81 0h10.69a3.001 3.001 0 0 1 5.81 0H30a2.25 2.25 0 0 0 2.25-2.25V11.25A2.25 2.25 0 0 0 30 9H15ZM4.686 15.75a11.27 11.27 0 0 1 8.064-6.525v6.525H4.686ZM8.25 25.5a1.5 1.5 0 1 0 3 0 1.5 1.5 0 0 0-3 0Zm16.5 0a1.5 1.5 0 1 0 3 0 1.5 1.5 0 0 0-3 0Z" fill="#6B6B6B"/></svg>