<svg width="36" height="36" fill="none" xmlns="http://www.w3.org/2000/svg"><path d="M17.19 18.796a2.766 2.766 0 0 0-.896-.59 2.805 2.805 0 0 0-3.012.59l-.532.523-.533-.523A2.788 2.788 0 0 0 10.263 18c-.733 0-1.435.286-1.954.796-.518.509-.809 1.2-.809 1.92s.291 1.411.81 1.92l.532.524L12.75 27l3.908-3.84.532-.524a2.674 2.674 0 0 0 0-3.84Z" stroke="#6B6B6B" stroke-width="1.5" stroke-linecap="round" stroke-linejoin="round"/><path d="M24.75 9a.75.75 0 0 1 .75-.75H30a.75.75 0 0 1 0 1.5h-4.5a.75.75 0 0 1-.75-.75ZM25.5 14.25a.75.75 0 0 0 0 1.5H30a.75.75 0 0 0 0-1.5h-4.5ZM24.75 21a.75.75 0 0 1 .75-.75H30a.75.75 0 0 1 0 1.5h-4.5a.75.75 0 0 1-.75-.75ZM25.5 26.25a.75.75 0 0 0 0 1.5H30a.75.75 0 0 0 0-1.5h-4.5Z" fill="#6B6B6B"/><path fill-rule="evenodd" clip-rule="evenodd" d="M23.25 2.25a1.5 1.5 0 0 0-1.5 1.5v6.537l-7.982-7.369a1.5 1.5 0 0 0-2.036 0l-9 8.308a1.5 1.5 0 0 0-.482 1.102V32.25a1.5 1.5 0 0 0 1.5 1.5h28.5a1.5 1.5 0 0 0 1.5-1.5V3.75a1.5 1.5 0 0 0-1.5-1.5h-9Zm-2.668 9L12.75 4.02l-7.832 7.23h15.664ZM3.75 12.75v19.5h18v-19.5h-18Zm28.5 19.5h-9V3.75h9v28.5Z" fill="#6B6B6B"/></svg>