<svg width="36" height="36" fill="none" xmlns="http://www.w3.org/2000/svg"><path fill-rule="evenodd" clip-rule="evenodd" d="M9 27.75a3 3 0 1 0 0-6 3 3 0 0 0 0 6Zm0-1.5a1.5 1.5 0 1 0 0-3 1.5 1.5 0 0 0 0 3ZM13.5 20.25v7.5H30v-3a4.5 4.5 0 0 0-4.5-4.5h-12Zm12 1.5H15v4.5h13.5v-1.5a3 3 0 0 0-3-3Z" fill="#6B6B6B"/><path fill-rule="evenodd" clip-rule="evenodd" d="M3 2.25a.75.75 0 0 0-.75.75v30.75h1.5v-3h28.5v3h1.5V6a.75.75 0 0 0-1.5 0v8.25H3.75V3A.75.75 0 0 0 3 2.25Zm.75 13.5v13.5h28.5v-13.5H3.75Z" fill="#6B6B6B"/><path fill-rule="evenodd" clip-rule="evenodd" d="M12 9.75a3 3 0 1 1-6 0 3 3 0 0 1 6 0Zm-1.5 0a1.5 1.5 0 1 1-3 0 1.5 1.5 0 0 1 3 0ZM13.5 12.75v-7.5h12a4.5 4.5 0 0 1 4.5 4.5v3H13.5Zm1.5-6h10.5a3 3 0 0 1 3 3v1.5H15v-4.5Z" fill="#6B6B6B"/></svg>