<svg width="24" height="24" fill="none" xmlns="http://www.w3.org/2000/svg"><path d="M21 16.25a.75.75 0 0 1-.75-.75V8a.75.75 0 0 1 1.5 0v7.5a.75.75 0 0 1-.75.75ZM4.5 16.25a.75.75 0 0 1-.75-.75V8.75H3a.75.75 0 0 1 0-1.5h3a.75.75 0 0 1 0 1.5h-.75v6.75a.75.75 0 0 1-.75.75ZM12 16.25a.75.75 0 0 1-.75-.75v-2.25h-1.5v2.25a.75.75 0 0 1-1.5 0v-6a2.252 2.252 0 0 1 2.25-2.25 2.252 2.252 0 0 1 2.25 2.25v6a.75.75 0 0 1-.75.75Zm-.75-4.5V9.5a.75.75 0 0 0-1.5 0v2.25h1.5ZM18 16.25a.744.744 0 0 1-.696-.472l-.804-2.009-.804 2.009a.744.744 0 0 1-.975.418.74.74 0 0 1-.41-.401.742.742 0 0 1-.007-.574l1.39-3.471-1.39-3.471a.747.747 0 0 1 .418-.975.747.747 0 0 1 .975.417l.803 2.01.804-2.009a.746.746 0 0 1 .974-.418.745.745 0 0 1 .411.401.742.742 0 0 1 .007.574l-1.389 3.471 1.39 3.472a.747.747 0 0 1-.419.975.75.75 0 0 1-.278.053ZM.75 5a.75.75 0 0 1 0-1.5h22.5a.75.75 0 0 1 0 1.5H.75ZM.75 20a.75.75 0 0 1 0-1.5h22.5a.75.75 0 0 1 0 1.5H.75Z" fill="#252525"/></svg>