<svg width="24" height="24" viewBox="0 0 24 24" fill="none" xmlns="http://www.w3.org/2000/svg">
<g clip-path="url('#clip0_2779_710')">
<path d="M21 6C19.346 6 18 4.654 18 3C18 1.346 19.346 0 21 0C22.654 0 24 1.346 24 3C24 4.654 22.654 6 21 6ZM21 1.5C20.173 1.5 19.5 2.173 19.5 3C19.5 3.827 20.173 4.5 21 4.5C21.827 4.5 22.5 3.827 22.5 3C22.5 2.173 21.827 1.5 21 1.5Z" fill="#252525"></path>
<path d="M17.9839 17.997C17.8439 17.997 17.7029 17.984 17.5659 17.958C16.9699 17.839 16.4609 17.499 16.1279 16.999C15.7949 16.499 15.6759 15.899 15.7939 15.31L16.5439 11.56C16.7529 10.512 17.6809 9.751 18.7499 9.751H19.4999V8.251C19.4999 7.009 20.5089 6 21.7499 6C22.9909 6 23.9999 7.009 23.9999 8.25V12C23.9999 13.241 22.9909 14.25 21.7499 14.25H20.5939L20.2059 16.192C19.9859 17.24 19.0509 17.997 17.9839 17.997ZM18.7499 11.25C18.3939 11.25 18.0839 11.504 18.0139 11.853L17.2639 15.603C17.2249 15.8 17.2639 15.999 17.3759 16.166C17.4869 16.332 17.6559 16.446 17.8519 16.485C17.8929 16.493 17.9399 16.497 17.9869 16.497C18.3479 16.497 18.6639 16.242 18.7379 15.89L19.2449 13.352C19.3149 13.003 19.6239 12.749 19.9799 12.749H21.7509C22.1649 12.749 22.5009 12.413 22.5009 11.999V8.25C22.5009 7.836 22.1649 7.5 21.7509 7.5C21.3369 7.5 20.9999 7.836 20.9999 8.25V10.5C20.9999 10.914 20.6639 11.25 20.2499 11.25H18.7499Z" fill="#252525"></path>
<path d="M3 9.75C1.346 9.75 0 8.404 0 6.75C0 5.096 1.346 3.75 3 3.75C4.654 3.75 6 5.096 6 6.75C6 8.404 4.654 9.75 3 9.75ZM3 5.25C2.173 5.25 1.5 5.923 1.5 6.75C1.5 7.577 2.173 8.25 3 8.25C3.827 8.25 4.5 7.577 4.5 6.75C4.5 5.923 3.827 5.25 3 5.25Z" fill="#252525"></path>
<path d="M5.999 21.751C4.952 21.751 4.028 21.009 3.803 19.986C3.803 19.986 3.798 19.968 3.794 19.949L3.405 18H2.25C1.009 18 0 16.991 0 15.75V12C0 10.759 1.009 9.75 2.25 9.75C3.491 9.75 4.5 10.759 4.5 12V13.5H5.25C6.319 13.5 7.247 14.261 7.456 15.309L8.206 19.059C8.324 19.648 8.206 20.248 7.872 20.748C7.539 21.248 7.031 21.588 6.441 21.706C6.295 21.736 6.147 21.751 5.999 21.751ZM5.265 19.652C5.334 19.998 5.643 20.251 5.999 20.251C6.048 20.251 6.098 20.246 6.147 20.236C6.344 20.197 6.513 20.083 6.624 19.916C6.735 19.749 6.775 19.549 6.735 19.353L5.985 15.603C5.915 15.254 5.606 15 5.25 15H3.75C3.336 15 3 14.664 3 14.25V12C3 11.586 2.664 11.25 2.25 11.25C1.836 11.25 1.5 11.586 1.5 12V15.75C1.5 16.164 1.836 16.5 2.25 16.5H4.021C4.377 16.5 4.687 16.754 4.757 17.103L5.259 19.621C5.258 19.622 5.262 19.636 5.265 19.652Z" fill="#252525"></path>
<path d="M0.748938 21C0.394938 21 0.0869376 20.749 0.0149376 20.402C-0.0260624 20.206 0.0129376 20.006 0.122938 19.838C0.232938 19.67 0.401938 19.556 0.597938 19.516L2.03594 19.219C2.08594 19.209 2.13694 19.203 2.18794 19.203C2.54194 19.203 2.84994 19.455 2.92194 19.801C2.96294 19.997 2.92394 20.197 2.81394 20.365C2.70394 20.533 2.53494 20.647 2.33894 20.687L0.900938 20.984C0.851938 20.995 0.800938 21 0.748938 21Z" fill="#252525"></path>
<path d="M9.74988 24C9.33588 24 8.99988 23.664 8.99988 23.25C8.99988 22.836 9.33588 22.5 9.74988 22.5H11.2499V18.844L9.83288 19.137C9.78388 19.147 9.73188 19.153 9.68088 19.153C9.32688 19.153 9.01887 18.902 8.94687 18.555C8.86287 18.15 9.12388 17.752 9.52888 17.669L13.9899 16.745C14.0389 16.735 14.0909 16.729 14.1429 16.729C14.4969 16.729 14.8049 16.98 14.8769 17.327C14.9609 17.732 14.6999 18.129 14.2949 18.213L12.7509 18.533V22.5H14.2509C14.6649 22.5 15.0009 22.836 15.0009 23.25C15.0009 23.664 14.6629 24 14.2499 24H9.74988Z" fill="#252525"></path>
<path d="M21.6308 16.68C21.2768 16.68 20.9688 16.429 20.8968 16.082C20.8128 15.677 21.0738 15.28 21.4788 15.196L23.0658 14.867C23.1158 14.857 23.1668 14.851 23.2178 14.851C23.5718 14.851 23.8808 15.102 23.9518 15.449C24.0358 15.854 23.7748 16.251 23.3698 16.335L21.7828 16.664C21.7348 16.675 21.6828 16.68 21.6308 16.68Z" fill="#252525"></path>
</g>
<defs>
<clipPath id="clip0_2779_710">
<rect width="24" height="24" fill="white"></rect>
</clipPath>
</defs>
</svg>
