<svg width="20" height="20" fill="none" xmlns="http://www.w3.org/2000/svg"><path fill-rule="evenodd" clip-rule="evenodd" d="M4.35 1.397c1.834-.53 4.066-.53 5.9 0 .92.266 1.723.66 2.316 1.173.591.512 1.034 1.204 1.034 2.03 0 .826-.443 1.518-1.034 2.03-.593.513-1.396.907-2.316 1.173-1.834.53-4.066.53-5.9 0a7.169 7.169 0 0 1-1.55-.638V9.1c0 .093.024.193.196.353.201.186.54.388 1.072.626a.9.9 0 0 1-.736 1.642c-.18-.08-.359-.165-.532-.255V13.6c0 .093.024.194.196.353.201.186.54.388 1.072.626a.9.9 0 0 1-.736 1.642c-.574-.257-1.134-.555-1.557-.946C1.324 14.858 1 14.306 1 13.6v-9c0-.826.443-1.518 1.034-2.03.593-.513 1.396-.907 2.316-1.173ZM2.8 4.6c0 .14.072.375.413.67.34.294.886.587 1.637.804 1.507.435 3.393.435 4.9 0 .75-.217 1.297-.51 1.637-.804.34-.295.413-.53.413-.67s-.072-.375-.413-.67c-.34-.294-.886-.587-1.637-.804-1.507-.435-3.393-.435-4.9 0-.75.217-1.297.51-1.637.804-.34.295-.413.53-.413.67Zm5.679 4.486c1.127-.564 2.62-.886 4.221-.886 1.6 0 3.094.322 4.221.886C17.994 9.622 19 10.53 19 11.8v3.6c0 1.27-1.006 2.177-2.079 2.714-1.127.563-2.62.886-4.221.886-1.6 0-3.094-.323-4.221-.886C7.406 17.577 6.4 16.67 6.4 15.4v-3.6c0-1.27 1.006-2.178 2.079-2.714Zm-.279 5.28V15.4c0 .22.202.663 1.084 1.104.828.414 2.034.696 3.416.696 1.382 0 2.588-.282 3.416-.696.881-.441 1.084-.883 1.084-1.104v-1.035a5.684 5.684 0 0 1-.279.15c-1.127.563-2.62.885-4.221.885-1.6 0-3.094-.322-4.221-.886a5.662 5.662 0 0 1-.279-.149Zm9-2.566c0 .221-.203.663-1.084 1.104-.828.414-2.034.696-3.416.696-1.382 0-2.588-.282-3.416-.696-.881-.44-1.084-.883-1.084-1.104 0-.221.203-.664 1.084-1.104.828-.414 2.034-.696 3.416-.696 1.382 0 2.588.282 3.416.696.881.44 1.084.883 1.084 1.104Z" fill="#252525"/></svg>