<svg width="36" height="36" fill="none" xmlns="http://www.w3.org/2000/svg"><path d="M23.25 16.5a1.5 1.5 0 1 1-3 0 1.5 1.5 0 0 1 3 0Z" fill="#6B6B6B"/><path fill-rule="evenodd" clip-rule="evenodd" d="M18.444 3.177a1.306 1.306 0 0 1 2.112 0l.242.332a12.824 12.824 0 0 1 2.452 7.444l9.978 10.644a3.75 3.75 0 0 1 .934 3.337l-.48 2.281a3.75 3.75 0 0 1-4.88 2.777l-10.97-3.74a2.25 2.25 0 0 0-2.67.996l-3.452 5.916a1.5 1.5 0 0 1-2.484.159l-6.407-8.329a1.501 1.501 0 0 1-.18-.299 1.5 1.5 0 0 1-.731-.434c-.264-.287-.383-.643-.425-.984-.081-.655.098-1.448.39-2.252.598-1.643 1.817-3.726 3.343-5.73 1.53-2.008 3.409-3.988 5.36-5.402 1.774-1.286 3.727-2.19 5.583-2.062a12.77 12.77 0 0 1 2.034-4.309l.251-.345Zm-2.578 6.142c-1.284-.02-2.801.622-4.41 1.788-1.799 1.305-3.577 3.168-5.046 5.098-1.474 1.933-2.599 3.881-3.127 5.333-.244.671-.331 1.16-.319 1.465l.014-.014 12.773-12.063c.004-.54.043-1.076.115-1.607ZM19.5 4.275l-.094.13a11.272 11.272 0 0 0-2.156 6.63c0 .343-.142.672-.392.909L4.008 24.08l6.407 8.328 3.45-5.916a3.75 3.75 0 0 1 4.45-1.66l10.971 3.74a2.25 2.25 0 0 0 2.928-1.666l.48-2.281a2.25 2.25 0 0 0-.56-2.002L22.09 11.908a1.253 1.253 0 0 1-.339-.857c0-2.393-.758-4.725-2.166-6.66l-.084-.116Z" fill="#6B6B6B"/></svg>