<svg width="36" height="36" fill="none" xmlns="http://www.w3.org/2000/svg"><path fill-rule="evenodd" clip-rule="evenodd" d="M8.04 2.48a.75.75 0 0 0-1.08 1.04c.282.293.674.743 1.13 1.375a3.317 3.317 0 0 0-.73 3.693l1.359 3.14a3.317 3.317 0 0 0 3.32 1.988c.502 1.828.94 3.93 1.258 6.338l-1.26-1.622a9.75 9.75 0 0 0-6.95-3.735l-1.018-.079c-1.705-.13-2.266 2.237-.683 2.884l1.325.543a6.75 6.75 0 0 1 3.4 3.07l.293.55a3.253 3.253 0 0 0-3.547.422l-1.107.933v-1.27a.75.75 0 0 0-1.5 0v6.75c0 2.9 2.35 5.25 5.25 5.25h21c2.9 0 5.25-2.35 5.25-5.25v-6.75a.75.75 0 0 0-1.5 0v1.27l-1.107-.933a3.252 3.252 0 0 0-4.644.47l-.18.228c-.61.77-1.778.77-2.387 0a3.022 3.022 0 0 0-4.739 0 1.51 1.51 0 0 1-.651.478 39.111 39.111 0 0 1 3.733-7.763l2.846-4.554c.46-.736-.243-1.647-1.071-1.388l-3.056.955a9.008 9.008 0 0 0-6.024 6.306l-.405 1.536a47.185 47.185 0 0 0-1.097-5.1 3.316 3.316 0 0 0 1.337-4.16l-1.358-3.14a3.316 3.316 0 0 0-4.069-1.837c-.525-.74-.99-1.277-1.338-1.639Zm2.967 20.876c.399-.034.787-.225 1.061-.572.25-.314.546-.564.87-.75l-2.086-2.68a8.25 8.25 0 0 0-5.88-3.162l-1.018-.078 1.325.542a8.25 8.25 0 0 1 4.156 3.754l1.572 2.946Zm4.218-1.614c.6.16 1.159.508 1.582 1.043.07.088.148.167.231.235a40.62 40.62 0 0 1 3.965-8.315l2.038-3.26-1.6.5a7.51 7.51 0 0 0-5.02 5.255l-1.196 4.542ZM8.737 7.992A1.816 1.816 0 1 1 12.07 6.55l1.358 3.14a1.816 1.816 0 0 1-3.333 1.442l-1.358-3.14ZM3.75 24.75v3.52l1.107-.933a3.252 3.252 0 0 1 4.644.47l.18.228c.61.77 1.778.77 2.387 0a3.022 3.022 0 0 1 4.739 0c.61.77 1.777.77 2.386 0a3.022 3.022 0 0 1 4.739 0c.61.77 1.777.77 2.386 0l.18-.229a3.252 3.252 0 0 1 4.645-.469l1.107.932V24.75a.747.747 0 0 1-.483-.176l-1.59-1.34a1.752 1.752 0 0 0-2.502.253l-.18.229a3.022 3.022 0 0 1-4.74 0 1.522 1.522 0 0 0-2.386 0 3.022 3.022 0 0 1-4.738 0 1.522 1.522 0 0 0-2.387 0 3.022 3.022 0 0 1-4.738 0l-.18-.229a1.752 1.752 0 0 0-2.503-.252l-1.59 1.339a.747.747 0 0 1-.483.176Zm3.75 7.5a3.751 3.751 0 0 1-3.462-2.307.751.751 0 0 0 .195-.12l1.59-1.338a1.752 1.752 0 0 1 2.502.253l.18.227a3.022 3.022 0 0 0 4.74 0c.609-.77 1.777-.77 2.386 0a3.022 3.022 0 0 0 4.738 0c.61-.77 1.777-.77 2.387 0a3.022 3.022 0 0 0 4.738 0l.18-.227a1.752 1.752 0 0 1 2.503-.253l1.59 1.339c.06.05.126.09.195.119A3.751 3.751 0 0 1 28.5 32.25h-21ZM30 9a3 3 0 1 0 0-6 3 3 0 0 0 0 6Zm0-1.5a1.5 1.5 0 1 0 0-3 1.5 1.5 0 0 0 0 3Z" fill="#6B6B6B"/></svg>