<svg width="37" height="36" fill="none" xmlns="http://www.w3.org/2000/svg"><path fill-rule="evenodd" clip-rule="evenodd" d="M19.104 15.154C20.33 17.027 23 21.298 23 23c0 2.21-2.015 4-4.5 4S14 25.21 14 23c0-1.702 2.67-5.973 3.896-7.846a.717.717 0 0 1 1.207 0Zm2.068 6.726c.26.643.328 1.002.328 1.12 0 .607-.29 1.229-.807 1.7.037-.144.057-.295.057-.45 0-.724-.966-2.539-1.632-3.704a.707.707 0 0 0-1.236 0c-.666 1.165-1.632 2.98-1.632 3.704 0 .155.02.306.057.45-.517-.471-.807-1.093-.807-1.7 0-.118.069-.477.328-1.12.24-.595.582-1.292.979-2.024a51.928 51.928 0 0 1 1.693-2.867c.53.84 1.148 1.862 1.693 2.867.397.732.74 1.429.98 2.024Zm-1.547 2.37-.001-.005c-.005-.026-.024-.133-.098-.345a9.22 9.22 0 0 0-.36-.857c-.2-.424-.436-.876-.666-1.297-.23.421-.466.873-.666 1.297a9.22 9.22 0 0 0-.36.857c-.074.213-.093.32-.098.346 0 .006-.001.008-.001.004 0 .362.375.875 1.125.875s1.125-.513 1.125-.875Z" fill="#6B6B6B"/><path fill-rule="evenodd" clip-rule="evenodd" d="M2.75 3.75a1.5 1.5 0 0 1 1.5-1.5h28.5a1.5 1.5 0 0 1 1.5 1.5v3a1.5 1.5 0 0 1-1.5 1.5v19.5a1.5 1.5 0 0 1 1.5 1.5v3a1.5 1.5 0 0 1-1.5 1.5H4.25a1.5 1.5 0 0 1-1.5-1.5v-3a1.5 1.5 0 0 1 1.5-1.5V8.25a1.5 1.5 0 0 1-1.5-1.5v-3Zm3 4.5h25.5v19.5h-3v-7.5c0-5.385-4.365-9.75-9.75-9.75s-9.75 4.365-9.75 9.75v7.5h-3V8.25Zm21 19.5v-7.5a8.25 8.25 0 0 0-16.5 0v7.5h16.5Zm6-24H4.25v3h28.5v-3Zm0 28.5v-3H4.25v3h28.5Z" fill="#6B6B6B"/></svg>