<svg width="36" height="36" fill="none" xmlns="http://www.w3.org/2000/svg"><path fill-rule="evenodd" clip-rule="evenodd" d="M18 11.25a2 2 0 0 0-2 2v2h-2a2 2 0 1 0 0 4h2v2a2 2 0 1 0 4 0v-2h2a2 2 0 1 0 0-4h-2v-2a2 2 0 0 0-2-2Zm-4 5.125h3.125V13.25a.875.875 0 1 1 1.75 0v3.125H22a.875.875 0 1 1 0 1.75h-3.125v3.125a.875.875 0 1 1-1.75 0v-3.125H14a.875.875 0 1 1 0-1.75Z" fill="#6B6B6B"/><path fill-rule="evenodd" clip-rule="evenodd" d="m18 32.388.098.097L31.79 18.793A9.251 9.251 0 0 0 18.707 5.71L18 6.417l-.707-.707A9.251 9.251 0 0 0 4.21 18.793l13.692 13.693.098-.098ZM16.232 6.77 18 8.538l1.768-1.768A7.751 7.751 0 1 1 30.73 17.732L18.098 30.364 18 30.266l-.098.098L5.27 17.732A7.751 7.751 0 1 1 16.232 6.77Z" fill="#6B6B6B"/></svg>