<svg width="20" height="20" fill="none" xmlns="http://www.w3.org/2000/svg"><path fill-rule="evenodd" clip-rule="evenodd" d="M10 2.757c-1.23 0-2.434.361-3.457 1.037a6.167 6.167 0 0 0-2.292 2.76 6.086 6.086 0 0 0-.354 3.554 6.13 6.13 0 0 0 1.703 3.15l3.772 3.727a.894.894 0 0 0 1.257 0l3.77-3.727a6.13 6.13 0 0 0 1.704-3.15 6.086 6.086 0 0 0-.354-3.554 6.167 6.167 0 0 0-2.292-2.76A6.274 6.274 0 0 0 10 2.757Zm-4.445-.424A8.066 8.066 0 0 1 10 1c1.582 0 3.129.464 4.444 1.333a7.929 7.929 0 0 1 2.947 3.549 7.824 7.824 0 0 1 .455 4.569 7.88 7.88 0 0 1-2.189 4.05l-3.772 3.728c-.5.493-1.178.771-1.885.771a2.682 2.682 0 0 1-1.884-.771L4.343 14.5a7.881 7.881 0 0 1-2.19-4.049 7.824 7.824 0 0 1 .456-4.57 7.929 7.929 0 0 1 2.946-3.548Zm1.93 4.09A3.577 3.577 0 0 1 10 5.393c.943 0 1.847.37 2.514 1.03a3.495 3.495 0 0 1 1.042 2.485c0 .932-.375 1.826-1.042 2.485A3.576 3.576 0 0 1 10 12.423c-.943 0-1.847-.37-2.514-1.03a3.494 3.494 0 0 1-1.042-2.485c0-.932.375-1.826 1.042-2.485ZM10 7.15c-.472 0-.924.185-1.257.514a1.747 1.747 0 0 0 0 2.486 1.789 1.789 0 0 0 2.514 0 1.747 1.747 0 0 0 0-2.486A1.788 1.788 0 0 0 10 7.151Z" fill="#252525"/></svg>