<svg width="36" height="36" viewBox="0 0 36 36" fill="none" xmlns="http://www.w3.org/2000/svg">
<path fill-rule="evenodd" clip-rule="evenodd" d="M12.7763 2.25H23.3043L23.5218 2.61974C24.1795 3.73795 25.0779 5.67519 25.6794 7.91482C26.2791 10.1482 26.6029 12.7533 26.0355 15.1714C25.464 17.6063 24.0541 19.5154 22.5431 20.8576C21.2616 21.996 19.8588 22.769 18.7502 23.1051V32.25H22.5002C22.9144 32.25 23.2502 32.5858 23.2502 33C23.2502 33.4142 22.9144 33.75 22.5002 33.75H13.5002C13.086 33.75 12.7502 33.4142 12.7502 33C12.7502 32.5858 13.086 32.25 13.5002 32.25H17.2502V23.0802C16.1547 22.7317 14.7883 21.9687 13.5375 20.8576C12.0264 19.5154 10.6165 17.6063 10.0451 15.1714C9.47763 12.7533 9.8014 10.1482 10.4012 7.91482C11.0026 5.67519 11.901 3.73795 12.5588 2.61974L12.7763 2.25ZM18.0403 21.7426C18.8807 21.5548 20.2459 20.8918 21.5469 19.7362C22.8855 18.5471 24.0906 16.8937 24.5751 14.8286C24.6959 14.3142 24.7705 13.7845 24.8059 13.2466C22.3974 13.5905 21.0075 13.3654 19.7952 12.8216C19.3138 12.6055 18.8586 12.3363 18.4136 12.0732C18.2798 11.9941 18.1469 11.9155 18.0145 11.8391C17.4242 11.4983 16.7628 11.1488 15.8733 10.8315C14.4438 10.3215 13.5318 10.2945 12.8589 10.4509C12.2969 10.5814 11.8363 10.8517 11.3106 11.2249C11.1959 12.4495 11.2353 13.6774 11.5054 14.8286C11.9901 16.8937 13.195 18.5471 14.5336 19.7362C15.8346 20.8918 17.1999 21.5548 18.0403 21.7426ZM11.6087 9.30405C11.8891 9.17498 12.1906 9.06615 12.5193 8.9898C13.5589 8.74822 14.7753 8.84715 16.3773 9.41865C17.3825 9.7773 18.1299 10.1737 18.7644 10.54C18.9304 10.6358 19.0839 10.7265 19.2294 10.8125C19.6553 11.064 20.0117 11.2745 20.4093 11.453C21.3151 11.8594 22.4415 12.0936 24.8084 11.7298C24.7413 10.5722 24.5271 9.4077 24.2307 8.30393C23.7293 6.43657 23.0076 4.79869 22.4376 3.75H13.643C13.073 4.79869 12.3513 6.43657 11.8499 8.30393C11.7616 8.6325 11.6806 8.96648 11.6087 9.30405Z" fill="#6B6B6B"></path>
</svg>
