<svg width="36" height="36" viewBox="0 0 36 36" fill="none" xmlns="http://www.w3.org/2000/svg">
<path d="M18 18C18 17.5858 18.3358 17.25 18.75 17.25C19.1642 17.25 19.5 17.5858 19.5 18V19.5C19.5 19.9142 19.1642 20.25 18.75 20.25C18.3358 20.25 18 19.9142 18 19.5V18Z" fill="#6B6B6B"></path>
<path d="M18 23.25C18 22.8358 18.3358 22.5 18.75 22.5C19.1642 22.5 19.5 22.8358 19.5 23.25V24.75C19.5 25.1642 19.1642 25.5 18.75 25.5C18.3358 25.5 18 25.1642 18 24.75V23.25Z" fill="#6B6B6B"></path>
<path d="M23.25 17.25C22.8358 17.25 22.5 17.5858 22.5 18V19.5C22.5 19.9142 22.8358 20.25 23.25 20.25C23.6642 20.25 24 19.9142 24 19.5V18C24 17.5858 23.6642 17.25 23.25 17.25Z" fill="#6B6B6B"></path>
<path d="M23.25 22.5C22.8358 22.5 22.5 22.8358 22.5 23.25V24.75C22.5 25.1642 22.8358 25.5 23.25 25.5C23.6642 25.5 24 25.1642 24 24.75V23.25C24 22.8358 23.6642 22.5 23.25 22.5Z" fill="#6B6B6B"></path>
<path d="M27 18C27 17.5858 27.3358 17.25 27.75 17.25C28.1642 17.25 28.5 17.5858 28.5 18V19.5C28.5 19.9142 28.1642 20.25 27.75 20.25C27.3358 20.25 27 19.9142 27 19.5V18Z" fill="#6B6B6B"></path>
<path d="M27.75 22.5C27.3358 22.5 27 22.8358 27 23.25V24.75C27 25.1642 27.3358 25.5 27.75 25.5C28.1642 25.5 28.5 25.1642 28.5 24.75V23.25C28.5 22.8358 28.1642 22.5 27.75 22.5Z" fill="#6B6B6B"></path>
<path d="M8.25 9.75C7.83578 9.75 7.5 10.0858 7.5 10.5V12C7.5 12.4142 7.83578 12.75 8.25 12.75C8.66422 12.75 9 12.4142 9 12V10.5C9 10.0858 8.66422 9.75 8.25 9.75Z" fill="#6B6B6B"></path>
<path d="M8.25 15C7.83578 15 7.5 15.3358 7.5 15.75V17.25C7.5 17.6642 7.83578 18 8.25 18C8.66422 18 9 17.6642 9 17.25V15.75C9 15.3358 8.66422 15 8.25 15Z" fill="#6B6B6B"></path>
<path d="M7.5 21C7.5 20.5858 7.83578 20.25 8.25 20.25C8.66422 20.25 9 20.5858 9 21V22.5C9 22.9142 8.66422 23.25 8.25 23.25C7.83578 23.25 7.5 22.9142 7.5 22.5V21Z" fill="#6B6B6B"></path>
<path d="M12 15.75C12 15.3358 12.3358 15 12.75 15C13.1642 15 13.5 15.3358 13.5 15.75V17.25C13.5 17.6642 13.1642 18 12.75 18C12.3358 18 12 17.6642 12 17.25V15.75Z" fill="#6B6B6B"></path>
<path d="M12.75 20.25C12.3358 20.25 12 20.5858 12 21V22.5C12 22.9142 12.3358 23.25 12.75 23.25C13.1642 23.25 13.5 22.9142 13.5 22.5V21C13.5 20.5858 13.1642 20.25 12.75 20.25Z" fill="#6B6B6B"></path>
<path fill-rule="evenodd" clip-rule="evenodd" d="M3.75 2.25C2.92157 2.25 2.25 2.92157 2.25 3.75V6C2.25 6.82843 2.92157 7.5 3.75 7.5V32.25C3.75 33.0784 4.42157 33.75 5.25 33.75H30.75C31.5784 33.75 32.25 33.0784 32.25 32.25V15C33.0784 15 33.75 14.3285 33.75 13.5V11.25C33.75 10.4215 33.0784 9.75 32.25 9.75H21.75V7.5C22.5784 7.5 23.25 6.82843 23.25 6V3.75C23.25 2.92157 22.5784 2.25 21.75 2.25H3.75ZM19.5 32.25V28.5C19.5 28.0858 19.8358 27.75 20.25 27.75H26.25C26.6642 27.75 27 28.0858 27 28.5V32.25H30.75V15H15.75V32.25H19.5ZM14.25 25.5V15C13.4215 15 12.75 14.3285 12.75 13.5V12.75C12.3358 12.75 12 12.4142 12 12V10.5C12 10.0858 12.3358 9.75 12.75 9.75C12.9953 9.75 13.2131 9.86783 13.35 10.0499C13.6006 9.8616 13.9123 9.75 14.25 9.75H20.25V7.5H5.25V32.25H9V26.25C9 25.8358 9.33577 25.5 9.75 25.5H14.25ZM10.5 32.25H14.25V27H10.5V32.25ZM21 32.25V29.25H25.5V32.25H21ZM3.75 3.75H21.75V6H3.75V3.75ZM14.25 13.5V11.25H32.25V13.5H14.25Z" fill="#6B6B6B"></path>
</svg>
