<svg width="36" height="36" fill="none" xmlns="http://www.w3.org/2000/svg"><path fill-rule="evenodd" clip-rule="evenodd" d="M10.844 21.406c.149-.845.88-1.748 2.118-2.985l.574-.578.002-.002c3.472-3.505 15.79-15.935 17.985-13.74C33.72 6.298 21.29 18.616 17.784 22.089l-.58.575c-1.237 1.237-2.14 1.969-2.985 2.117.398 1.398.108 2.882-.903 3.893-1.204 1.204-6.112 2.336-8.304 2.793a.717.717 0 0 1-.853-.853c.457-2.192 1.59-7.1 2.793-8.303 1.01-1.011 2.495-1.302 3.892-.904Zm3.763-2.514-.089.09c.856.253 1.448.679 1.826 1.268.164.256.276.53.352.804l.037-.036c1.64-1.626 5.173-5.128 8.264-8.628 1.777-2.013 3.355-3.967 4.338-5.528.316-.503.547-.929.703-1.275-.346.156-.772.387-1.275.703-1.56.983-3.515 2.561-5.528 4.338-3.5 3.09-7.002 6.624-8.628 8.264Zm-2.626 3.006c.295-.485.73-1.029 1.29-1.636 1.198.136 1.623.506 1.81.797.213.332.254.73.29 1.288-.61.564-1.157 1-1.644 1.297a5.028 5.028 0 0 0-.765-.98 5.03 5.03 0 0 0-.98-.766Zm-.055 1.85c1.267 1.29 1.186 3.008.329 3.865-.084.084-.386.288-1.024.56-.59.252-1.325.502-2.123.739-1.096.326-2.256.61-3.225.83.22-.969.505-2.129.83-3.224.237-.798.488-1.534.739-2.124.272-.638.477-.94.56-1.024.857-.857 2.575-.938 3.865.33l.024.024.025.024ZM30.818 5.342s-.01.002-.025 0h.025Zm-.535-.51c-.002-.016 0-.025 0-.025v.025Z" fill="#6B6B6B"/></svg>