<svg width="24" height="24" viewBox="0 0 24 24" fill="none" xmlns="http://www.w3.org/2000/svg">
<g clip-path="url('#clip0_2779_722')">
<path d="M13.5 5.99902C13.249 5.99902 13.015 5.87402 12.876 5.66502L12 4.35102L11.124 5.66502C10.984 5.87402 10.751 5.99902 10.499 5.99902C10.351 5.99902 10.207 5.95602 10.084 5.87302C9.73999 5.64402 9.646 5.17702 9.876 4.83302L10.831 3.40002L9.51299 2.96002C9.32299 2.89702 9.169 2.76302 9.079 2.58402C8.989 2.40502 8.975 2.20202 9.038 2.01202C9.141 1.70502 9.427 1.49902 9.75 1.49902C9.831 1.49902 9.911 1.51202 9.988 1.53802L11.25 1.95902V0.749023C11.25 0.335023 11.586 -0.000976562 12 -0.000976562C12.414 -0.000976562 12.75 0.335023 12.75 0.749023V1.95802L14.013 1.53702C14.09 1.51102 14.169 1.49802 14.25 1.49802C14.574 1.49802 14.86 1.70402 14.962 2.01202C15.025 2.20102 15.011 2.40502 14.921 2.58402C14.831 2.76302 14.677 2.89702 14.487 2.96002L13.168 3.40002L14.123 4.83302C14.235 5.00002 14.275 5.20002 14.235 5.39602C14.196 5.59302 14.082 5.76202 13.915 5.87302C13.792 5.95502 13.648 5.99902 13.5 5.99902Z" fill="#252525"></path>
<path d="M6.75 8.99902C6.498 8.99902 6.265 8.87402 6.126 8.66502L5.25 7.35102L4.374 8.66502C4.234 8.87402 4.001 8.99902 3.749 8.99902C3.601 8.99902 3.457 8.95602 3.334 8.87302C2.99 8.64402 2.896 8.17702 3.126 7.83302L4.081 6.40002L2.763 5.96002C2.573 5.89702 2.419 5.76302 2.329 5.58402C2.239 5.40502 2.225 5.20202 2.288 5.01202C2.391 4.70502 2.677 4.49902 3 4.49902C3.08 4.49902 3.16 4.51202 3.237 4.53802L4.5 4.95802V3.74902C4.5 3.33502 4.836 2.99902 5.25 2.99902C5.664 2.99902 6 3.33502 6 3.74902V4.95802L7.263 4.53702C7.339 4.51202 7.419 4.49902 7.5 4.49902C7.823 4.49902 8.10899 4.70502 8.212 5.01202C8.275 5.20202 8.26 5.40502 8.17 5.58402C8.08 5.76302 7.927 5.89702 7.737 5.96102L6.418 6.40002L7.373 7.83302C7.602 8.17702 7.509 8.64402 7.165 8.87302C7.042 8.95502 6.89799 8.99902 6.75 8.99902Z" fill="#252525"></path>
<path d="M20.25 8.99902C19.999 8.99902 19.765 8.87402 19.626 8.66502L18.75 7.35102L17.874 8.66502C17.735 8.87402 17.501 8.99902 17.25 8.99902C17.102 8.99902 16.958 8.95502 16.834 8.87302C16.667 8.76202 16.553 8.59202 16.514 8.39602C16.475 8.20002 16.514 8.00002 16.626 7.83302L17.581 6.40002L16.262 5.96002C16.072 5.89702 15.918 5.76302 15.828 5.58402C15.739 5.40502 15.724 5.20202 15.787 5.01202C15.889 4.70502 16.174 4.49902 16.498 4.49902C16.579 4.49902 16.66 4.51202 16.737 4.53802L18 4.95802V3.74902C18 3.33502 18.336 2.99902 18.75 2.99902C19.164 2.99902 19.5 3.33502 19.5 3.74902V4.95802L20.763 4.53702C20.839 4.51202 20.919 4.49902 21 4.49902C21.324 4.49902 21.61 4.70502 21.712 5.01302C21.775 5.20202 21.761 5.40602 21.671 5.58502C21.581 5.76402 21.427 5.89802 21.237 5.96102L19.918 6.40002L20.873 7.83302C20.985 8.00002 21.025 8.20002 20.985 8.39602C20.946 8.59302 20.832 8.76202 20.665 8.87302C20.542 8.95502 20.398 8.99902 20.25 8.99902Z" fill="#252525"></path>
<path d="M1.499 16.499C1.351 16.499 1.207 16.456 1.083 16.373C0.738995 16.144 0.645995 15.677 0.874995 15.333L1.831 13.9L0.512995 13.46C0.322995 13.397 0.168995 13.263 0.0789954 13.084C-0.0110046 12.905 -0.0250046 12.701 0.0379954 12.511C0.140995 12.204 0.425995 11.998 0.749995 11.998C0.830995 11.998 0.910995 12.011 0.986995 12.037L2.249 12.458V11.249C2.249 10.835 2.585 10.499 2.999 10.499C3.413 10.499 3.749 10.835 3.749 11.249V12.458L5.012 12.037C5.089 12.011 5.169 11.998 5.249 11.998C5.572 11.998 5.858 12.204 5.96 12.511C6.023 12.701 6.009 12.905 5.919 13.084C5.829 13.263 5.675 13.397 5.485 13.46L4.168 13.9L5.123 15.333C5.352 15.677 5.259 16.144 4.915 16.373C4.792 16.455 4.648 16.499 4.499 16.499C4.247 16.499 4.014 16.374 3.875 16.165L3 14.851L2.124 16.165C1.984 16.374 1.751 16.499 1.499 16.499Z" fill="#252525"></path>
<path d="M19.4989 16.499C19.3509 16.499 19.2069 16.456 19.0829 16.373C18.9159 16.262 18.8029 16.092 18.7629 15.896C18.7239 15.699 18.7629 15.499 18.8749 15.333L19.8299 13.9L18.5109 13.461C18.1189 13.33 17.9059 12.905 18.0369 12.513C18.1389 12.206 18.4239 12 18.7479 12C18.8289 12 18.9099 12.013 18.9869 12.039L20.2479 12.46V11.251C20.2479 10.837 20.5839 10.501 20.9979 10.501C21.4119 10.501 21.7479 10.837 21.7479 11.251V12.46L23.0109 12.039C23.0869 12.013 23.1669 12 23.2489 12C23.5719 12 23.8579 12.206 23.9599 12.513C24.0909 12.905 23.8779 13.331 23.4849 13.461L22.1679 13.9L23.1229 15.333C23.2339 15.5 23.2739 15.7 23.2349 15.896C23.1959 16.092 23.0819 16.261 22.9149 16.373C22.7919 16.455 22.6479 16.499 22.4989 16.499C22.2479 16.499 22.0139 16.374 21.8749 16.165L20.9999 14.851L20.1239 16.165C19.9839 16.374 19.7509 16.499 19.4989 16.499Z" fill="#252525"></path>
<path d="M5.25 23.999C4.836 23.999 4.5 23.663 4.5 23.249V18.749C4.5 18.335 4.836 17.999 5.25 17.999H7.5V12.749C7.5 12.551 7.58 12.358 7.72 12.219L11.47 8.46902C11.612 8.32702 11.8 8.24902 12 8.24902C12.2 8.24902 12.389 8.32702 12.53 8.46902L16.28 12.219C16.42 12.359 16.5 12.552 16.5 12.749V17.999H18.75C19.164 17.999 19.5 18.335 19.5 18.749V23.249C19.5 23.663 19.164 23.999 18.75 23.999H5.25ZM18 22.499V19.499H15.75C15.336 19.499 15 19.163 15 18.749V14.999H9V18.749C9 19.163 8.664 19.499 8.25 19.499H6V22.499H11.25V20.999C11.25 20.585 11.586 20.249 12 20.249C12.414 20.249 12.75 20.585 12.75 20.999V22.499H18ZM15 13.499V13.06L12 10.06L9 13.06V13.499H15Z" fill="#252525"></path>
</g>
<defs>
<clipPath id="clip0_2779_722">
<rect width="24" height="24" fill="white"></rect>
</clipPath>
</defs>
</svg>
