<svg width="36" height="36" fill="none" xmlns="http://www.w3.org/2000/svg"><path fill-rule="evenodd" clip-rule="evenodd" d="M17.325 18.431a7.067 7.067 0 1 0 9.994-9.994 7.067 7.067 0 0 0-9.994 9.994Zm1.06-1.06a5.567 5.567 0 1 0 7.873-7.873 5.567 5.567 0 0 0-7.872 7.872Z" fill="#6B6B6B"/><path fill-rule="evenodd" clip-rule="evenodd" d="M17.322 22.738c3.999 2.151 9.091 1.538 12.467-1.837 4.124-4.124 4.124-10.81 0-14.934-4.124-4.124-10.81-4.124-14.934 0-3.464 3.464-4.018 8.737-1.662 12.78L3 28.938a1.5 1.5 0 0 0 0 2.122L4.94 33a1.5 1.5 0 0 0 2.12 0l10.262-10.262Zm-1.406-2.898A9.06 9.06 0 1 0 28.728 7.028a9.06 9.06 0 0 0-12.812 0 9.06 9.06 0 0 0 0 12.812Zm.11 2.073a10.666 10.666 0 0 1-1.971-1.907L4.06 30 6 31.94l10.026-10.027Z" fill="#6B6B6B"/></svg>