<svg width="36" height="36" fill="none" xmlns="http://www.w3.org/2000/svg"><path fill-rule="evenodd" clip-rule="evenodd" d="M12 23.193C6.523 22.63 2.25 18 2.25 12.375 2.25 6.369 7.119 1.5 13.125 1.5c5.9 0 10.703 4.699 10.87 10.559 5.48.58 9.755 5.37 9.755 11.191 0 6.213-4.869 11.25-10.875 11.25S12 29.463 12 23.25v-.057Zm.103-1.498c.715-5.35 5.066-9.498 10.39-9.688a9.375 9.375 0 1 0-10.39 9.688Zm1.397 1.549v.006c0 5.433 4.245 9.75 9.375 9.75s9.375-4.317 9.375-9.75c0-5.054-3.672-9.141-8.314-9.688-.578 5.326-5.001 9.498-10.436 9.682Zm3.996-7.979c-.426.311-.827.658-1.198 1.037l2.485 3.55c.46-.35.888-.741 1.277-1.168l-2.564-3.419Zm.95-.608 2.341 3.122a9.35 9.35 0 0 0 .77-1.303L19.908 14a9.17 9.17 0 0 0-1.461.657ZM14.5 18.86a9.78 9.78 0 0 1 1.038-1.683l2.308 3.298a9.323 9.323 0 0 1-1.742.79L14.5 18.862Zm6.55-5.175 1.014 1.522a9.327 9.327 0 0 0 .368-1.697c-.47.023-.932.082-1.382.175Zm-7.438 8.052a9.99 9.99 0 0 1 .379-1.613l.964 1.447a9.401 9.401 0 0 1-1.343.166Z" fill="#6B6B6B"/></svg>