<svg width="24" height="24" viewBox="0 0 24 24" fill="none" xmlns="http://www.w3.org/2000/svg">
<path d="M3.75 22.5C3.336 22.5 3 22.164 3 21.75V15.75C3 15.336 3.336 15 3.75 15H21.75C22.991 15 24 16.009 24 17.25V20.25C24 21.491 22.991 22.5 21.75 22.5H3.75ZM21.75 21C22.164 21 22.5 20.664 22.5 20.25V17.25C22.5 16.836 22.164 16.5 21.75 16.5H16.5V21H21.75ZM15 21V16.5H4.5V21H15Z" fill="#252525"></path>
<path d="M0.75 22.5C0.336 22.5 0 22.164 0 21.75V15.75C0 15.336 0.336 15 0.75 15C1.164 15 1.5 15.336 1.5 15.75V21.75C1.5 22.164 1.164 22.5 0.75 22.5Z" fill="#252525"></path>
<path d="M0.75 10.5C0.336 10.5 0 10.164 0 9.75C0 7.682 1.682 6 3.75 6C5.818 6 7.5 4.318 7.5 2.25C7.5 1.836 7.836 1.5 8.25 1.5C8.664 1.5 9 1.836 9 2.25C9 5.145 6.645 7.5 3.75 7.5C2.509 7.5 1.5 8.509 1.5 9.75C1.5 10.164 1.164 10.5 0.75 10.5Z" fill="#252525"></path>
<path d="M3.75 12C3.336 12 3 11.664 3 11.25C3 10.836 3.336 10.5 3.75 10.5C8.299 10.5 12 6.799 12 2.25C12 1.836 12.336 1.5 12.75 1.5C13.164 1.5 13.5 1.836 13.5 2.25C13.5 7.626 9.126 12 3.75 12Z" fill="#252525"></path>
</svg>
