<svg width="36" height="36" viewBox="0 0 36 36" fill="none" xmlns="http://www.w3.org/2000/svg">
<path fill-rule="evenodd" clip-rule="evenodd" d="M9.75 9.75C9.75 9.33578 10.0858 9 10.5 9H16.5C16.9142 9 17.25 9.33578 17.25 9.75V14.25C17.25 14.6642 16.9142 15 16.5 15H10.5C10.0858 15 9.75 14.6642 9.75 14.25V9.75ZM11.25 13.5V10.5H15.75V13.5H11.25Z" fill="#6B6B6B"></path>
<path fill-rule="evenodd" clip-rule="evenodd" d="M8.25 6C7.00736 6 6 7.00736 6 8.25V10.0026C5.65903 9.8406 5.2776 9.75 4.875 9.75C3.42525 9.75 2.25 10.9253 2.25 12.375V19.125C2.25 20.5747 3.42525 21.75 4.875 21.75C5.2776 21.75 5.65903 21.6594 6 21.4974V24.75C6 25.9927 7.00736 27 8.25 27H9.825C10.1725 28.7117 11.6858 30 13.5 30C15.571 30 17.25 28.3211 17.25 26.25H22.5C22.5 28.3211 24.1789 30 26.25 30C28.0642 30 29.5775 28.7117 29.925 27H31.5C32.7427 27 33.75 25.9927 33.75 24.75V17.25C33.75 15.179 32.0711 13.5 30 13.5H27.4635L24.3354 7.24377C23.9543 6.48151 23.1751 6 22.3229 6H8.25ZM22.812 24.75H16.938C16.3593 23.4256 15.0377 22.5 13.5 22.5C11.6858 22.5 10.1725 23.7883 9.825 25.5H8.25C7.83577 25.5 7.5 25.1642 7.5 24.75V19.5H32.25V24.75C32.25 25.1642 31.9142 25.5 31.5 25.5H29.925C29.5775 23.7883 28.0642 22.5 26.25 22.5C24.7123 22.5 23.3907 23.4256 22.812 24.75ZM7.5 18H32.25V17.25C32.25 16.0073 31.2427 15 30 15H20.25C19.4216 15 18.75 14.3285 18.75 13.5V10.5C18.75 9.67155 19.4216 9 20.25 9H23.5365L22.9938 7.9146C22.8667 7.6605 22.607 7.5 22.3229 7.5H8.25C7.83577 7.5 7.5 7.83578 7.5 8.25V18ZM25.7865 13.5L24.2865 10.5H20.25V13.5H25.7865ZM11.25 26.25C11.25 27.4927 12.2573 28.5 13.5 28.5C14.7427 28.5 15.75 27.4927 15.75 26.25C15.75 25.0073 14.7427 24 13.5 24C12.2573 24 11.25 25.0073 11.25 26.25ZM6 19.125V12.375C6 11.7537 5.49632 11.25 4.875 11.25C4.25368 11.25 3.75 11.7537 3.75 12.375V19.125C3.75 19.7463 4.25368 20.25 4.875 20.25C5.49632 20.25 6 19.7463 6 19.125ZM24 26.25C24 27.4927 25.0073 28.5 26.25 28.5C27.4927 28.5 28.5 27.4927 28.5 26.25C28.5 25.0073 27.4927 24 26.25 24C25.0073 24 24 25.0073 24 26.25Z" fill="#6B6B6B"></path>
</svg>
