<svg width="36" height="36" viewBox="0 0 36 36" fill="none" xmlns="http://www.w3.org/2000/svg">
<path fill-rule="evenodd" clip-rule="evenodd" d="M23.25 6.75C23.25 6.49536 23.2318 6.24495 23.1968 6C22.8329 3.45578 20.6449 1.5 18 1.5C15.3551 1.5 13.1671 3.45578 12.8032 6C12.7681 6.24495 12.75 6.49536 12.75 6.75V7.5H23.25V6.75ZM18 3C16.1858 3 14.6725 4.28832 14.325 6H21.675C21.3275 4.28832 19.8142 3 18 3Z" fill="#6B6B6B"></path>
<path fill-rule="evenodd" clip-rule="evenodd" d="M24.75 7.5H11.25C9.59317 7.5 8.25 8.84317 8.25 10.5V32.25C8.25 32.6642 8.58578 33 9 33H27C27.4142 33 27.75 32.6642 27.75 32.25V10.5C27.75 8.84317 26.4068 7.5 24.75 7.5ZM11.25 6C8.76472 6 6.75 8.01472 6.75 10.5V32.25C6.75 33.4927 7.75732 34.5 9 34.5H27C28.2427 34.5 29.25 33.4927 29.25 32.25V10.5C29.25 8.01472 27.2353 6 24.75 6H11.25Z" fill="#6B6B6B"></path>
<path fill-rule="evenodd" clip-rule="evenodd" d="M24 22.5H12V27C12 27.8285 12.6716 28.5 13.5 28.5H22.5C23.3285 28.5 24 27.8285 24 27V22.5ZM12 21C11.1716 21 10.5 21.6716 10.5 22.5V27C10.5 28.6568 11.8432 30 13.5 30H22.5C24.1568 30 25.5 28.6568 25.5 27V22.5C25.5 21.6716 24.8285 21 24 21H12Z" fill="#6B6B6B"></path>
<path fill-rule="evenodd" clip-rule="evenodd" d="M29.25 29.811C28.7706 29.9344 28.2679 30 27.75 30V18H31.75C32.8546 18 33.75 18.8954 33.75 20V24C33.75 26.7958 31.8379 29.1449 29.25 29.811ZM29.25 28.2439C30.9978 27.6262 32.25 25.9593 32.25 24V20C32.25 19.7239 32.0261 19.5 31.75 19.5H29.25V28.2439Z" fill="#6B6B6B"></path>
<path fill-rule="evenodd" clip-rule="evenodd" d="M8.25 30V18H4.25C3.14543 18 2.25 18.8954 2.25 20V24C2.25 26.7958 4.16216 29.1449 6.75 29.811C7.22943 29.9344 7.73205 30 8.25 30ZM6.75 28.2439V19.5H4.25C3.97386 19.5 3.75 19.7239 3.75 20V24C3.75 25.9593 5.00221 27.6262 6.75 28.2439Z" fill="#6B6B6B"></path>
<path d="M8.25 12.75C14.603 14.7048 21.397 14.7048 27.75 12.75V14.25C21.397 16.2048 14.603 16.2048 8.25 14.25V12.75Z" fill="#6B6B6B"></path>
</svg>
