<svg width="36" height="36" fill="none" xmlns="http://www.w3.org/2000/svg"><path fill-rule="evenodd" clip-rule="evenodd" d="M23.25 6.75a5.251 5.251 0 0 0-10.5 0v.75h10.5v-.75ZM18 3a3.751 3.751 0 0 0-3.675 3h7.35A3.751 3.751 0 0 0 18 3Z" fill="#6B6B6B"/><path fill-rule="evenodd" clip-rule="evenodd" d="M24.75 7.5h-13.5a3 3 0 0 0-3 3v21.75c0 .414.336.75.75.75h18a.75.75 0 0 0 .75-.75V10.5a3 3 0 0 0-3-3ZM11.25 6a4.5 4.5 0 0 0-4.5 4.5v21.75A2.25 2.25 0 0 0 9 34.5h18a2.25 2.25 0 0 0 2.25-2.25V10.5a4.5 4.5 0 0 0-4.5-4.5h-13.5Z" fill="#6B6B6B"/><path fill-rule="evenodd" clip-rule="evenodd" d="M24 22.5H12V27a1.5 1.5 0 0 0 1.5 1.5h9A1.5 1.5 0 0 0 24 27v-4.5ZM12 21a1.5 1.5 0 0 0-1.5 1.5V27a3 3 0 0 0 3 3h9a3 3 0 0 0 3-3v-4.5A1.5 1.5 0 0 0 24 21H12ZM29.25 29.811a6.01 6.01 0 0 1-1.5.189V18h4a2 2 0 0 1 2 2v4a6.002 6.002 0 0 1-4.5 5.811Zm0-1.567a4.502 4.502 0 0 0 3-4.244v-4a.5.5 0 0 0-.5-.5h-2.5v8.744ZM8.25 30V18h-4a2 2 0 0 0-2 2v4a6.003 6.003 0 0 0 6 6Zm-1.5-1.756V19.5h-2.5a.5.5 0 0 0-.5.5v4a4.502 4.502 0 0 0 3 4.244Z" fill="#6B6B6B"/><path d="M8.25 12.75a33.153 33.153 0 0 0 19.5 0v1.5a33.153 33.153 0 0 1-19.5 0v-1.5Z" fill="#6B6B6B"/></svg>