<svg width="36" height="36" fill="none" xmlns="http://www.w3.org/2000/svg"><path fill-rule="evenodd" clip-rule="evenodd" d="M23.25 1.5a4.5 4.5 0 0 0-4.5 4.5v2.25a.75.75 0 1 0 1.5 0V6a3 3 0 0 1 6 0v6.75h-10.5V6a4.5 4.5 0 1 0-9 0v2.25a.75.75 0 1 0 1.5 0V6a3 3 0 0 1 6 0v13.394c-.818.05-1.62.43-2.182 1.14-.609.77-1.777.77-2.386 0l-.18-.227a3.252 3.252 0 0 0-4.645-.47l-1.59 1.34a.75.75 0 0 0 .966 1.147l1.59-1.34a1.752 1.752 0 0 1 2.502.253l.18.229a3.022 3.022 0 0 0 4.74 0c.609-.77 1.777-.77 2.386 0a3.022 3.022 0 0 0 4.738 0c.61-.77 1.777-.77 2.387 0a3.022 3.022 0 0 0 4.738 0l.18-.229a1.752 1.752 0 0 1 2.503-.252l1.59 1.339a.75.75 0 0 0 .966-1.148l-1.59-1.338a3.252 3.252 0 0 0-3.393-.495V6a4.5 4.5 0 0 0-4.5-4.5Zm-7.5 12.75v5.436c.397.191.76.474 1.057.849.61.77 1.777.77 2.386 0a3.022 3.022 0 0 1 4.739 0 1.522 1.522 0 0 0 2.318.08V14.25h-10.5Z" fill="#6B6B6B"/><path d="M27.675 27.238a1.752 1.752 0 0 1 2.502-.253l1.59 1.339a.75.75 0 0 0 .966-1.148l-1.59-1.338a3.252 3.252 0 0 0-4.644.468l-.18.229c-.61.77-1.778.77-2.387 0a3.022 3.022 0 0 0-4.739 0c-.609.77-1.777.77-2.386 0a3.022 3.022 0 0 0-4.739 0c-.609.77-1.777.77-2.386 0l-.18-.229a3.252 3.252 0 0 0-4.645-.469l-1.59 1.34a.75.75 0 1 0 .966 1.147l1.59-1.34a1.752 1.752 0 0 1 2.502.254l.18.228a3.022 3.022 0 0 0 4.74 0c.609-.77 1.777-.77 2.386 0a3.022 3.022 0 0 0 4.738 0c.61-.77 1.777-.77 2.387 0a3.022 3.022 0 0 0 4.738 0l.18-.228ZM30.177 32.985a1.752 1.752 0 0 0-2.502.253l-.18.228a3.022 3.022 0 0 1-4.74 0 1.522 1.522 0 0 0-2.386 0 3.022 3.022 0 0 1-4.738 0 1.522 1.522 0 0 0-2.387 0 3.022 3.022 0 0 1-4.738 0l-.18-.228a1.752 1.752 0 0 0-2.503-.253l-1.59 1.339a.75.75 0 1 1-.966-1.148l1.59-1.339a3.252 3.252 0 0 1 4.644.47l.18.227c.61.77 1.778.77 2.387 0a3.022 3.022 0 0 1 4.739 0c.61.77 1.777.77 2.386 0a3.022 3.022 0 0 1 4.739 0c.61.77 1.777.77 2.386 0l.18-.227a3.252 3.252 0 0 1 4.645-.47l1.59 1.34a.75.75 0 0 1-.966 1.147l-1.59-1.34Z" fill="#6B6B6B"/></svg>