<svg width="36" height="36" fill="none" xmlns="http://www.w3.org/2000/svg"><path d="M20.227 2.364a.746.746 0 0 1 .817.014.745.745 0 0 1 .281.353c.05.12.097.238.143.353.255.635.47 1.172.809 1.602.347.442.826.764 1.723.764a.75.75 0 0 1 0 1.5c-1.18 0-2.017-.403-2.625-1.02v1.123l.093.23c.255.636.47 1.173.809 1.603.347.442.826.764 1.723.764a.75.75 0 0 1 0 1.5c-1.18 0-2.017-.403-2.625-1.02V15a.75.75 0 0 1-1.5 0v-4.87c-.608.617-1.445 1.02-2.625 1.02a.75.75 0 0 1 0-1.5c.898 0 1.376-.322 1.723-.764.338-.43.554-.966.809-1.602v-.002l.002-.002.091-.227V5.929c-.608.618-1.445 1.021-2.625 1.021a.75.75 0 0 1 0-1.5c.898 0 1.376-.322 1.723-.764.338-.43.554-.966.809-1.602l.143-.353a.742.742 0 0 1 .302-.367ZM9.13 9.761a.743.743 0 0 1 .575.483c.085.219.167.435.249.65.452 1.19.874 2.301 1.536 3.189.73.98 1.746 1.667 3.51 1.667a.75.75 0 0 1 0 1.5c-2.27 0-3.719-.938-4.713-2.27a8.016 8.016 0 0 1-.537-.829v2.959c.07.18.137.358.204.534.452 1.19.874 2.302 1.536 3.189.73.98 1.746 1.667 3.51 1.667a.75.75 0 0 1 0 1.5c-2.27 0-3.719-.938-4.713-2.27a8.016 8.016 0 0 1-.537-.829V33a.75.75 0 1 1-1.5 0V20.901a7.996 7.996 0 0 1-.537.829C6.719 23.062 5.27 24 3 24a.75.75 0 1 1 0-1.5c1.764 0 2.78-.687 3.51-1.667.662-.887 1.084-1.998 1.536-3.189l.204-.534V14.15a7.996 7.996 0 0 1-.537.829C6.719 16.312 5.27 17.25 3 17.25a.75.75 0 1 1 0-1.5c1.764 0 2.78-.687 3.51-1.667.662-.888 1.084-1.998 1.536-3.189.081-.214.164-.431.249-.65A.747.747 0 0 1 9 9.75a.74.74 0 0 1 .13.011Z" fill="#6B6B6B"/><path fill-rule="evenodd" clip-rule="evenodd" d="M20.25 33.75a1.5 1.5 0 0 1-1.5-1.5v-8.292c0-.382.146-.75.409-1.029l6-6.364a1.5 1.5 0 0 1 2.183 0l4.908 5.206v-4.896a.75.75 0 0 1 1.5 0V32.25a1.5 1.5 0 0 1-1.5 1.5h-12Zm0-1.5V24h12v8.25h-3v-4.5a.75.75 0 0 0-.75-.75H24a.75.75 0 0 0-.75.75v4.5h-3Zm7.5 0V28.5h-3v3.75h3Zm-1.5-14.657L21.625 22.5h9.25l-4.625-4.907Z" fill="#6B6B6B"/></svg>