<svg width="36" height="36" fill="none" xmlns="http://www.w3.org/2000/svg"><path fill-rule="evenodd" clip-rule="evenodd" d="M9.75 9.75A.75.75 0 0 1 10.5 9h6a.75.75 0 0 1 .75.75v4.5a.75.75 0 0 1-.75.75h-6a.75.75 0 0 1-.75-.75v-4.5Zm1.5 3.75v-3h4.5v3h-4.5Z" fill="#6B6B6B"/><path fill-rule="evenodd" clip-rule="evenodd" d="M8.25 6A2.25 2.25 0 0 0 6 8.25v1.753a2.625 2.625 0 0 0-3.75 2.372v6.75A2.625 2.625 0 0 0 6 21.497v3.253A2.25 2.25 0 0 0 8.25 27h1.575a3.751 3.751 0 0 0 7.425-.75h5.25a3.75 3.75 0 0 0 7.425.75H31.5a2.25 2.25 0 0 0 2.25-2.25v-7.5A3.75 3.75 0 0 0 30 13.5h-2.537l-3.128-6.256A2.25 2.25 0 0 0 22.323 6H8.25Zm14.562 18.75h-5.874a3.751 3.751 0 0 0-7.113.75H8.25a.75.75 0 0 1-.75-.75V19.5h24.75v5.25a.75.75 0 0 1-.75.75h-1.575a3.751 3.751 0 0 0-7.113-.75ZM7.5 18h24.75v-.75A2.25 2.25 0 0 0 30 15h-9.75a1.5 1.5 0 0 1-1.5-1.5v-3a1.5 1.5 0 0 1 1.5-1.5h3.287l-.543-1.085a.75.75 0 0 0-.671-.415H8.25a.75.75 0 0 0-.75.75V18Zm18.287-4.5-1.5-3H20.25v3h5.537ZM11.25 26.25a2.25 2.25 0 1 0 4.5 0 2.25 2.25 0 0 0-4.5 0ZM6 19.125v-6.75a1.125 1.125 0 0 0-2.25 0v6.75a1.125 1.125 0 0 0 2.25 0Zm18 7.125a2.25 2.25 0 1 0 4.5 0 2.25 2.25 0 0 0-4.5 0Z" fill="#6B6B6B"/></svg>