<svg width="24" height="24" fill="none" xmlns="http://www.w3.org/2000/svg"><g clip-path="url('#clip0_3372_410')" fill="#252525"><path d="M.75 9a.749.749 0 0 1-.416-1.374l11.25-7.5a.753.753 0 0 1 .832 0l11.25 7.5a.746.746 0 0 1 .208 1.04.749.749 0 0 1-1.04.208L12 1.651 1.166 8.874A.743.743 0 0 1 .75 9ZM2.25 24a.75.75 0 0 1-.75-.75v-10.5a.75.75 0 0 1 1.5 0v.75h2.25a3.754 3.754 0 0 1 3.746 3.58l.339-.678a5.222 5.222 0 0 1 4.696-2.903h4.719a3.754 3.754 0 0 1 3.75 3.75v6a.75.75 0 0 1-.75.75L2.25 24ZM21 22.5v-3H3v3h18Zm0-4.5v-.75A2.252 2.252 0 0 0 18.75 15h-4.719a3.73 3.73 0 0 0-3.354 2.073l-.463.927H21ZM7.5 18v-.75A2.252 2.252 0 0 0 5.25 15H3v3h4.5Z"/></g><defs><clipPath id="clip0_3372_410"><path fill="#fff" d="M0 0h24v24H0z"/></clipPath></defs></svg>