<svg width="36" height="36" viewBox="0 0 36 36" fill="none" xmlns="http://www.w3.org/2000/svg">
<path d="M22.3753 24.8195C22.7877 24.2035 23.1386 23.539 23.4078 22.8218L22.0034 22.2948C21.7782 22.8949 21.4824 23.4569 21.1289 23.985L22.3753 24.8195Z" fill="#6B6B6B"></path>
<path d="M19.3223 27.9725C19.8993 27.5324 20.4539 27.0543 20.967 26.5336L19.8986 25.4808C19.4422 25.944 18.9422 26.3759 18.4126 26.7798L19.3223 27.9725Z" fill="#6B6B6B"></path>
<path d="M15.6763 30.2309C16.2921 29.9123 16.9194 29.5657 17.5389 29.1865L16.7559 27.9071C16.1731 28.2637 15.5781 28.5928 14.9871 28.8986L15.6763 30.2309Z" fill="#6B6B6B"></path>
<path d="M11.8746 32.0186C12.0807 31.9248 12.2995 31.8263 12.5275 31.7236C12.9218 31.5459 13.3436 31.3559 13.7749 31.1564L13.1449 29.795C12.7186 29.9924 12.3126 30.1752 11.9246 30.35L11.9233 30.3506C11.6937 30.4539 11.4704 30.5545 11.2529 30.6536L11.8746 32.0186Z" fill="#6B6B6B"></path>
<path fill-rule="evenodd" clip-rule="evenodd" d="M23.25 12C24.9068 12 26.25 10.6568 26.25 9C26.25 7.34314 24.9068 6 23.25 6C21.5932 6 20.25 7.34314 20.25 9C20.25 10.6568 21.5932 12 23.25 12ZM23.25 10.5C24.0784 10.5 24.75 9.82845 24.75 9C24.75 8.17155 24.0784 7.5 23.25 7.5C22.4216 7.5 21.75 8.17155 21.75 9C21.75 9.82845 22.4216 10.5 23.25 10.5Z" fill="#6B6B6B"></path>
<path fill-rule="evenodd" clip-rule="evenodd" d="M6.75 2.25C8.7093 2.25 10.3762 3.50222 10.9939 5.25H17.6366C18.8476 3.44102 20.9097 2.25 23.25 2.25C25.5903 2.25 27.6524 3.44102 28.8634 5.25H32.25C33.0784 5.25 33.75 5.92157 33.75 6.75V32.25C33.75 33.0784 33.0784 33.75 32.25 33.75H6.75C4.26472 33.75 2.25 31.7353 2.25 29.25V6.75C2.25 4.26472 4.26472 2.25 6.75 2.25ZM6.75 26.25C8.40683 26.25 9.75 27.5932 9.75 29.25C9.75 30.9068 8.40683 32.25 6.75 32.25C5.09314 32.25 3.75 30.9068 3.75 29.25C3.75 27.5932 5.09314 26.25 6.75 26.25ZM10.1042 32.25C10.8167 31.4539 11.25 30.4025 11.25 29.25V6.75H16.8841C16.6354 7.45375 16.5 8.21107 16.5 9C16.5 12.3385 20.1267 18.72 22.4846 20.0167C22.4755 20.1652 22.4627 20.3113 22.4461 20.4553L23.9363 20.6269C23.9587 20.4316 23.9754 20.2335 23.986 20.0326C26.343 18.7732 30 12.3524 30 9C30 8.21107 29.8646 7.45375 29.6159 6.75H32.25V32.25H10.1042ZM9.75 25.8959V6.75C9.75 5.09314 8.40683 3.75 6.75 3.75C5.09314 3.75 3.75 5.09314 3.75 6.75V25.8959C4.54613 25.1833 5.59747 24.75 6.75 24.75C7.90252 24.75 8.95388 25.1833 9.75 25.8959ZM28.5 9C28.5 9.6726 28.2856 10.6477 27.8533 11.8061C27.4303 12.9397 26.8374 14.1469 26.1745 15.2508C25.5079 16.361 24.8002 17.3174 24.1656 17.9744C23.8473 18.3041 23.5805 18.5237 23.3782 18.6516C23.3243 18.6856 23.2818 18.709 23.25 18.7247C23.2182 18.709 23.1757 18.6856 23.1218 18.6516C22.9195 18.5237 22.6527 18.3041 22.3344 17.9744C21.6998 17.3174 20.9921 16.361 20.3255 15.2508C19.6626 14.1469 19.0697 12.9397 18.6467 11.8061C18.2144 10.6477 18 9.6726 18 9C18 6.10051 20.3505 3.75 23.25 3.75C26.1495 3.75 28.5 6.10051 28.5 9Z" fill="#6B6B6B"></path>
</svg>
