<svg width="36" height="36" fill="none" xmlns="http://www.w3.org/2000/svg"><path fill-rule="evenodd" clip-rule="evenodd" d="M24.78 3.072a1.5 1.5 0 0 1 2.19 0l4.125 4.407a1.5 1.5 0 0 1 .405 1.025V13.5H33a.75.75 0 0 1 0 1.5H17.25v3.75H33a.75.75 0 0 1 0 1.5H17.25v1.157c0 .03 0 .06-.003.09.232.056.463.114.694.174 2.165.56 4.344 1.32 6.398 2.329H33a.75.75 0 0 1 0 1.5h-6.005c2.746 1.779 5.107 4.115 6.672 7.157a.75.75 0 0 1-1.334.686c-2.857-5.552-8.71-8.652-14.768-10.22-3.403-.881-6.817-1.264-9.697-1.34 6.094 1.652 12.228 4.906 15.299 10.874a.75.75 0 0 1-1.334.686c-2.857-5.552-8.71-8.652-14.768-10.22a41.909 41.909 0 0 0-4.815-.941v-9.067c0-.383.146-.75.409-1.03l6-6.364a1.5 1.5 0 0 1 2.182 0l6 6.365a1.5 1.5 0 0 1 .409 1.029v.385h3V8.504c0-.38.145-.747.405-1.025l4.125-4.407ZM30 13.5V9h-8.25v4.5H30Zm-4.125-9.403L29.06 7.5h-6.37l3.185-3.403ZM6.75 20.27c-1.1.002-2.11.048-3 .127v-7.24h12v8.01a44.993 44.993 0 0 0-3-.499v-3.761a.75.75 0 0 0-.75-.75H7.5a.75.75 0 0 0-.75.75v3.363Zm4.5-2.613v2.838a46.152 46.152 0 0 0-3-.2v-2.638h3ZM9.75 6.75l4.626 4.907H5.125L9.75 6.75Z" fill="#6B6B6B"/><path d="M11.333 33.343c-1.939-3.768-5.257-6.406-9.083-8.203v-1.647c4.3 1.896 8.175 4.807 10.417 9.164a.75.75 0 0 1-1.334.686Z" fill="#6B6B6B"/></svg>