<svg width="36" height="36" viewBox="0 0 36 36" fill="none" xmlns="http://www.w3.org/2000/svg">
<path fill-rule="evenodd" clip-rule="evenodd" d="M18.9654 26.2082C21.053 26.3672 23.5454 26.0997 25.5849 25.1487C27.8372 24.0984 29.6375 22.3551 30.7915 20.7036C31.3677 19.8791 31.7525 19.1202 31.954 18.5352C32.0326 18.3069 32.0757 18.127 32.0963 17.9957C31.9757 17.9289 31.8005 17.8488 31.5622 17.7657C30.947 17.5509 30.0724 17.3709 29.0348 17.2919C26.9471 17.1329 24.4548 17.4003 22.4153 18.3514C20.3758 19.3024 18.5688 21.0397 17.3487 22.7412C16.7423 23.5869 16.318 24.3726 16.087 24.9819C16.0026 25.2045 15.9521 25.3826 15.9246 25.5157C16.0442 25.5802 16.2131 25.656 16.438 25.7345C17.0531 25.9492 17.9278 26.1292 18.9654 26.2082ZM14.4839 26.1876C15.1545 27.6258 21.5486 28.686 26.2188 26.5082C31.2908 24.1431 34.187 18.7509 33.5163 17.3126C32.8457 15.8742 26.4516 14.8141 21.7814 16.992C17.1111 19.1697 13.8131 24.7492 14.4839 26.1876Z" fill="#6B6B6B"></path>
<path fill-rule="evenodd" clip-rule="evenodd" d="M18.6515 22.7411C17.4313 21.0396 15.6244 19.3023 13.5849 18.3513C11.3326 17.301 8.83993 17.0425 6.83306 17.22C5.83104 17.3087 5.00234 17.5017 4.42467 17.7234C4.19933 17.8098 4.0338 17.8925 3.91994 17.9611C3.94625 18.0965 3.99759 18.2823 4.08701 18.5181C4.31796 19.1274 4.74227 19.9131 5.34872 20.7588C6.56884 22.4603 8.37576 24.1976 10.4153 25.1486C12.4548 26.0997 14.9471 26.3671 17.0347 26.2081C18.0724 26.1291 18.947 25.9491 19.5622 25.7343C19.7872 25.6559 19.9559 25.5801 20.0756 25.5156C20.0481 25.3824 19.9976 25.2045 19.9132 24.9818C19.6822 24.3725 19.258 23.5868 18.6515 22.7411ZM21.5164 26.1874C22.187 24.7491 18.8891 19.1696 14.2189 16.9918C9.14691 14.6268 3.15456 15.8742 2.48386 17.3124C1.81317 18.7508 5.11109 24.3303 9.78133 26.508C14.4516 28.6858 20.8456 27.6258 21.5164 26.1874Z" fill="#6B6B6B"></path>
<path d="M27.0465 20.625C24.4699 25.0877 18.6242 27.8868 17.2498 27.0933C15.8754 26.2998 15.3766 19.8377 17.9532 15.375C20.5297 10.9123 26.3754 8.11325 27.7498 8.90675C29.1242 9.70025 29.8446 15.7785 27.0465 20.625Z" fill="white"></path>
<path fill-rule="evenodd" clip-rule="evenodd" d="M20.9328 24.5397C22.734 23.4725 24.6222 21.8239 25.7474 19.875C26.99 17.7228 27.4647 15.2622 27.4628 13.2475C27.4618 12.2415 27.3418 11.3992 27.1713 10.8043C27.1047 10.5724 27.0369 10.4002 26.9784 10.2808C26.8413 10.2952 26.6518 10.3302 26.409 10.3987C25.7819 10.5757 24.9622 10.9299 24.0669 11.4603C22.2656 12.5275 20.3774 14.1761 19.2522 16.125C18.127 18.0739 17.6433 20.5334 17.6198 22.627C17.6081 23.6676 17.7111 24.5545 17.8715 25.1861C17.9301 25.417 17.9908 25.5917 18.0447 25.7166C18.1797 25.7008 18.3614 25.666 18.5906 25.6013C19.2177 25.4243 20.0374 25.0702 20.9328 24.5397ZM17.2498 27.0933C18.6242 27.8868 24.4699 25.0877 27.0465 20.625C29.8446 15.7785 29.1242 9.70025 27.7498 8.90675C26.3754 8.11325 20.5297 10.9123 17.9532 15.375C15.3766 19.8377 15.8754 26.2998 17.2498 27.0933Z" fill="#6B6B6B"></path>
<path d="M18.0465 15.375C20.6229 19.8377 20.1242 26.2998 18.7498 27.0933C17.3754 27.8868 11.5297 25.0877 8.95317 20.625C6.37664 16.1623 6.87542 9.70023 8.24982 8.90673C9.62419 8.11323 15.2483 10.5285 18.0465 15.375Z" fill="white"></path>
<path fill-rule="evenodd" clip-rule="evenodd" d="M18.3798 22.6269C18.3562 20.5334 17.8725 18.0738 16.7474 16.125C15.5048 13.9728 13.6112 12.3313 11.8655 11.3256C10.9938 10.8235 10.2043 10.5063 9.60394 10.3565C9.36972 10.2981 9.18672 10.2708 9.05412 10.2618C8.99802 10.3878 8.93352 10.5693 8.87149 10.8139C8.71114 11.4455 8.60809 12.3324 8.61979 13.3731C8.64334 15.4666 9.12702 17.9261 10.2522 19.875C11.3774 21.8238 13.2656 23.4725 15.0669 24.5397C15.9622 25.0701 16.7819 25.4243 17.409 25.6013C17.6382 25.666 17.82 25.7007 17.955 25.7166C18.0088 25.5917 18.0696 25.4169 18.1281 25.1861C18.2884 24.5545 18.3915 23.6676 18.3798 22.6269ZM18.7498 27.0933C20.1242 26.2998 20.6229 19.8377 18.0465 15.375C15.2483 10.5285 9.62419 8.11323 8.24982 8.90673C6.87542 9.70023 6.37664 16.1623 8.95317 20.625C11.5297 25.0877 17.3754 27.8868 18.7498 27.0933Z" fill="#6B6B6B"></path>
<path d="M23.25 16.5C23.25 21.653 19.587 27 18 27C16.413 27 12.75 21.653 12.75 16.5C12.75 11.347 16.413 6 18 6C19.587 6 23.25 10.9037 23.25 16.5Z" fill="white"></path>
<path fill-rule="evenodd" clip-rule="evenodd" d="M19.9127 22.9471C20.9391 21.1222 21.75 18.7504 21.75 16.5C21.75 14.0149 20.9309 11.6465 19.9218 9.90262C19.418 9.03195 18.8929 8.3625 18.4478 7.9326C18.2742 7.76498 18.1293 7.64985 18.0191 7.57567C17.9075 7.65675 17.7608 7.7817 17.5848 7.96253C17.1302 8.42933 16.5974 9.14587 16.0873 10.0529C15.0609 11.8778 14.25 14.2496 14.25 16.5C14.25 18.7504 15.0609 21.1222 16.0873 22.9471C16.5974 23.8541 17.1302 24.5707 17.5848 25.0375C17.751 25.2082 17.891 25.3292 18 25.4103C18.109 25.3292 18.249 25.2082 18.4152 25.0375C18.8698 24.5707 19.4026 23.8541 19.9127 22.9471ZM18 27C19.587 27 23.25 21.653 23.25 16.5C23.25 10.9037 19.587 6 18 6C16.413 6 12.75 11.347 12.75 16.5C12.75 21.653 16.413 27 18 27Z" fill="#6B6B6B"></path>
</svg>
