<svg width="36" height="36" viewBox="0 0 36 36" fill="none" xmlns="http://www.w3.org/2000/svg">
<path d="M22.1714 15.8795C21.8287 15.6468 21.3623 15.736 21.1296 16.0786C20.8969 16.4213 20.9861 16.8877 21.3287 17.1205C22.3012 17.7807 23.8086 18.982 25.1313 20.4123C26.4743 21.8645 27.5269 23.447 27.7599 24.8711C27.8268 25.2799 28.2125 25.557 28.6212 25.4902C29.03 25.4233 29.3072 25.0376 29.2403 24.6289C28.9333 22.7529 27.6234 20.8979 26.2326 19.3939C24.8216 17.868 23.224 16.5942 22.1714 15.8795Z" fill="#6B6B6B"></path>
<path fill-rule="evenodd" clip-rule="evenodd" d="M21 10.5C21 11.1193 20.8123 11.6947 20.4908 12.1726C24.9097 12.8104 27.8146 15.1429 29.6982 17.9579C31.705 20.957 32.5386 24.4764 32.9059 27H34.5C34.9142 27 35.25 27.3358 35.25 27.75C35.25 28.1642 34.9142 28.5 34.5 28.5H1.5C1.08579 28.5 0.75 28.1642 0.75 27.75C0.75 27.3358 1.08579 27 1.5 27H3.09442C3.46174 24.4764 4.29533 20.957 6.30211 17.9579C8.18565 15.1429 11.0906 12.8104 15.5093 12.1726C15.1877 11.6947 15 11.1193 15 10.5C15 8.84317 16.3432 7.5 18 7.5C19.6568 7.5 21 8.84317 21 10.5ZM18 12C18.8284 12 19.5 11.3284 19.5 10.5C19.5 9.67155 18.8284 9 18 9C17.1716 9 16.5 9.67155 16.5 10.5C16.5 11.3284 17.1716 12 18 12ZM4.61111 27C4.97839 24.6047 5.77186 21.4476 7.54875 18.7921C9.5139 15.8552 12.6974 13.5 18.0002 13.5C23.3029 13.5 26.4864 15.8552 28.4515 18.7921C30.2284 21.4476 31.0219 24.6047 31.3892 27H4.61111Z" fill="#6B6B6B"></path>
</svg>
