<svg width="20" height="20" viewBox="0 0 20 20" fill="none" xmlns="http://www.w3.org/2000/svg">
<path fill-rule="evenodd" clip-rule="evenodd" d="M10 2.7574C8.76938 2.7574 7.56639 3.11814 6.54315 3.79399C5.51992 4.46985 4.7224 5.43047 4.25145 6.55439C3.7805 7.6783 3.65726 8.91502 3.89732 10.1082C4.13737 11.3013 4.72991 12.3972 5.60002 13.2575C5.59999 13.2574 5.60005 13.2575 5.60002 13.2575L9.37222 16.9855C9.5389 17.1501 9.76485 17.2426 10.0004 17.2426C10.236 17.2426 10.462 17.1501 10.6287 16.9855L14.3999 13.2575C14.3999 13.2576 14.3999 13.2575 14.3999 13.2575C15.27 12.3973 15.8626 11.3013 16.1027 10.1082C16.3427 8.91502 16.2195 7.6783 15.7486 6.55439C15.2776 5.43047 14.4801 4.46985 13.4568 3.79399C12.4336 3.11814 11.2306 2.7574 10 2.7574ZM5.55548 2.33276C6.87107 1.4638 8.41777 1 10 1C11.5822 1 13.1289 1.4638 14.4445 2.33276C15.7601 3.20172 16.7855 4.43681 17.391 5.88184C17.9965 7.32687 18.155 8.91694 17.8463 10.451C17.5377 11.985 16.7758 13.3942 15.657 14.5002L11.8854 18.2285C11.3854 18.7223 10.7072 19 10.0004 19C9.29367 19 8.6158 18.7226 8.11578 18.2288L4.34309 14.5003C3.22431 13.3943 2.46234 11.985 2.15369 10.451C1.84504 8.91694 2.00349 7.32687 2.60901 5.88184C3.21452 4.43681 4.2399 3.20172 5.55548 2.33276ZM7.48584 6.42275C8.15264 5.7636 9.05701 5.39329 10 5.39329C10.943 5.39329 11.8474 5.7636 12.5142 6.42275C13.181 7.08191 13.5556 7.97591 13.5556 8.9081C13.5556 9.84028 13.181 10.7343 12.5142 11.3934C11.8474 12.0526 10.943 12.4229 10 12.4229C9.05701 12.4229 8.15264 12.0526 7.48584 11.3934C6.81905 10.7343 6.44445 9.84028 6.44445 8.9081C6.44445 7.97591 6.81905 7.08191 7.48584 6.42275ZM10 7.15069C9.5285 7.15069 9.07632 7.33585 8.74292 7.66542C8.40952 7.995 8.22222 8.442 8.22222 8.9081C8.22222 9.37419 8.40952 9.82119 8.74292 10.1508C9.07632 10.4803 9.5285 10.6655 10 10.6655C10.4715 10.6655 10.9237 10.4803 11.2571 10.1508C11.5905 9.82119 11.7778 9.37419 11.7778 8.9081C11.7778 8.442 11.5905 7.995 11.2571 7.66542C10.9237 7.33585 10.4715 7.15069 10 7.15069Z" fill="#252525"></path>
</svg>
