<svg width="24" height="24" fill="none" xmlns="http://www.w3.org/2000/svg"><g clip-path="url('#clip0_3372_612')" stroke="#252525" stroke-width="1.3" stroke-linecap="round" stroke-linejoin="round"><path d="M6.092 6.83a2.954 2.954 0 1 0 0-5.907 2.954 2.954 0 0 0 0 5.908Z"/><path clip-rule="evenodd" d="M11.262 13.477a5.17 5.17 0 0 0-10.339 0v2.215h2.215l.739 7.385h4.43l.74-7.385h2.215v-2.215Z"/><path d="M12.739 18.646h1.476l.739 4.43h4.43l.74-4.43h2.953L20.862 12c-.739-2.215-1.654-3.692-3.693-3.692a3.292 3.292 0 0 0-3.107 2.215M17.17 6.83a2.954 2.954 0 1 0 0-5.907 2.954 2.954 0 0 0 0 5.908Z"/></g><defs><clipPath id="clip0_3372_612"><path fill="#fff" d="M0 0h24v24H0z"/></clipPath></defs></svg>