<svg width="36" height="36" fill="none" xmlns="http://www.w3.org/2000/svg"><path fill-rule="evenodd" clip-rule="evenodd" d="M6 15.75a.75.75 0 0 0-.75.75V21c0 .414.336.75.75.75h4.5a.75.75 0 0 0 .75-.75v-4.5a.75.75 0 0 0-.75-.75H6Zm.75 1.5v3h3v-3h-3ZM12.75 16.5a.75.75 0 0 1 .75-.75H18a.75.75 0 0 1 .75.75V21a.75.75 0 0 1-.75.75h-4.5a.75.75 0 0 1-.75-.75v-4.5Zm1.5 3.75v-3h3v3h-3Z" fill="#6B6B6B"/><path fill-rule="evenodd" clip-rule="evenodd" d="M19.06 3a1.5 1.5 0 0 0-2.12 0L15 4.94 13.06 3a1.5 1.5 0 0 0-2.12 0l-8.25 8.25a1.5 1.5 0 0 0-.44 1.06v19.94a1.5 1.5 0 0 0 1.5 1.5h28.5a1.5 1.5 0 0 0 1.5-1.5V12.31a1.5 1.5 0 0 0-.44-1.06L25.06 3a1.5 1.5 0 0 0-2.12 0L21 4.94 19.06 3Zm-3.31 29.25h4.5v-19.5H3.75v19.5h4.5V25.5a.75.75 0 0 1 .75-.75h6a.75.75 0 0 1 .75.75v6.75Zm-6 0v-6h4.5v6h-4.5ZM22.06 6l5.25 5.25a1.5 1.5 0 0 1 .44 1.06v19.94h4.5V12.31L24 4.06 22.06 6Zm4.19 6.31L18 4.06 16.06 6l5.25 5.25a1.5 1.5 0 0 1 .44 1.06v19.94h4.5V12.31ZM12 4.06l-7.19 7.19h14.38L12 4.06Z" fill="#6B6B6B"/></svg>