<svg width="36" height="36" viewBox="0 0 36 36" fill="none" xmlns="http://www.w3.org/2000/svg">
<path fill-rule="evenodd" clip-rule="evenodd" d="M21.75 19.5C21.75 19.0858 22.0858 18.75 22.5 18.75H28.5C28.9142 18.75 29.25 19.0858 29.25 19.5V25.5C29.25 25.9142 28.9142 26.25 28.5 26.25H22.5C22.0858 26.25 21.75 25.9142 21.75 25.5V19.5ZM27.75 24.75H23.25V20.25H27.75V24.75Z" fill="#6B6B6B"></path>
<path d="M9.75 27C9.75 26.5858 10.0858 26.25 10.5 26.25C10.9142 26.25 11.25 26.5858 11.25 27V28.5C11.25 28.9142 10.9142 29.25 10.5 29.25C10.0858 29.25 9.75 28.9142 9.75 28.5V27Z" fill="#6B6B6B"></path>
<path fill-rule="evenodd" clip-rule="evenodd" d="M33 2.25C32.5858 2.25 32.25 2.58579 32.25 3V13.4395L18.937 2.78917C18.3892 2.35091 17.6108 2.35091 17.063 2.78917L2.81296 14.1892C2.45714 14.4738 2.25 14.9048 2.25 15.3605V32.25C2.25 33.0784 2.92157 33.75 3.75 33.75H32.25C33.0784 33.75 33.75 33.0784 33.75 32.25V3C33.75 2.58579 33.4142 2.25 33 2.25ZM5.1381 14.25L18 3.96048L30.8619 14.25H5.1381ZM3.75 15.75V32.25H6.75V22.5C6.75 22.0858 7.08579 21.75 7.5 21.75H18C18.4142 21.75 18.75 22.0858 18.75 22.5V32.25H32.25V15.75H3.75ZM8.25 23.25V32.25H17.25V23.25H8.25Z" fill="#6B6B6B"></path>
</svg>
