<svg width="36" height="36" fill="none" xmlns="http://www.w3.org/2000/svg"><path d="M18 18a.75.75 0 0 0 0 1.5h3a.75.75 0 0 0 0-1.5h-3Z" fill="#6B6B6B"/><path fill-rule="evenodd" clip-rule="evenodd" d="M12.655 25.5a3.001 3.001 0 0 1-5.81 0H3.75a1.5 1.5 0 0 1-1.5-1.5v-3.768a3.75 3.75 0 0 1 2.672-3.592l5.126-1.538L13.5 10.5a3.75 3.75 0 0 1 3-1.5h8.533a3.75 3.75 0 0 1 3.638 2.84l.852 3.41 2.273 1.239a3.75 3.75 0 0 1 1.954 3.292V24a1.5 1.5 0 0 1-1.5 1.5h-3.095a3.001 3.001 0 0 1-5.81 0h-10.69ZM14.7 11.4a2.25 2.25 0 0 1 1.8-.9h8.533a2.25 2.25 0 0 1 2.182 1.704l.7 2.796H12l2.7-3.6Zm-4.107 5.1h18.102c.035.023.072.045.11.066l2.272 1.24a2.25 2.25 0 0 1 1.173 1.975V24h-3.095a3.001 3.001 0 0 0-5.81 0h-10.69a3.001 3.001 0 0 0-5.81 0H3.75v-3.768c0-.994.652-1.87 1.603-2.155l5.126-1.538a1.49 1.49 0 0 0 .114-.039Zm-.843 9.75a1.5 1.5 0 1 1 0-3 1.5 1.5 0 0 1 0 3Zm15-1.5a1.5 1.5 0 1 0 3 0 1.5 1.5 0 0 0-3 0Z" fill="#6B6B6B"/></svg>