<svg width="24" height="24" fill="none" xmlns="http://www.w3.org/2000/svg"><path d="M3.75 22.5a.75.75 0 0 1-.75-.75v-6a.75.75 0 0 1 .75-.75h18A2.252 2.252 0 0 1 24 17.25v3a2.252 2.252 0 0 1-2.25 2.25h-18Zm18-1.5a.75.75 0 0 0 .75-.75v-3a.75.75 0 0 0-.75-.75H16.5V21h5.25ZM15 21v-4.5H4.5V21H15ZM.75 22.5a.75.75 0 0 1-.75-.75v-6a.75.75 0 0 1 1.5 0v6a.75.75 0 0 1-.75.75ZM.75 10.5A.75.75 0 0 1 0 9.75 3.754 3.754 0 0 1 3.75 6 3.754 3.754 0 0 0 7.5 2.25a.75.75 0 0 1 1.5 0A5.256 5.256 0 0 1 3.75 7.5 2.252 2.252 0 0 0 1.5 9.75a.75.75 0 0 1-.75.75Z" fill="#252525"/><path d="M3.75 12a.75.75 0 0 1 0-1.5C8.299 10.5 12 6.799 12 2.25a.75.75 0 0 1 1.5 0C13.5 7.626 9.126 12 3.75 12Z" fill="#252525"/></svg>