<svg width="36" height="36" viewBox="0 0 36 36" fill="none" xmlns="http://www.w3.org/2000/svg">
<path d="M17.1904 18.7957C16.9338 18.5434 16.6292 18.3433 16.2939 18.2068C15.9587 18.0703 15.5992 18 15.2363 18C14.8734 18 14.5141 18.0703 14.1788 18.2068C13.8435 18.3433 13.5389 18.5434 13.2824 18.7957L12.7498 19.319L12.2174 18.7957C11.6992 18.2863 10.9963 18.0003 10.2634 18.0003C9.53047 18.0003 8.82765 18.2863 8.3094 18.7957C7.79115 19.3049 7.5 19.9957 7.5 20.7159C7.5 21.4362 7.79115 22.127 8.3094 22.6362L8.84182 23.1595L12.7498 27L16.6579 23.1595L17.1904 22.6362C17.447 22.3841 17.6507 22.0847 17.7896 21.7552C17.9285 21.4258 18 21.0726 18 20.7159C18 20.3593 17.9285 20.0061 17.7896 19.6766C17.6507 19.3472 17.447 19.0478 17.1904 18.7957Z" stroke="#6B6B6B" stroke-width="1.5" stroke-linecap="round" stroke-linejoin="round"></path>
<path d="M24.75 9C24.75 8.58578 25.0858 8.25 25.5 8.25H30C30.4142 8.25 30.75 8.58578 30.75 9C30.75 9.41422 30.4142 9.75 30 9.75H25.5C25.0858 9.75 24.75 9.41422 24.75 9Z" fill="#6B6B6B"></path>
<path d="M25.5 14.25C25.0858 14.25 24.75 14.5858 24.75 15C24.75 15.4142 25.0858 15.75 25.5 15.75H30C30.4142 15.75 30.75 15.4142 30.75 15C30.75 14.5858 30.4142 14.25 30 14.25H25.5Z" fill="#6B6B6B"></path>
<path d="M24.75 21C24.75 20.5858 25.0858 20.25 25.5 20.25H30C30.4142 20.25 30.75 20.5858 30.75 21C30.75 21.4142 30.4142 21.75 30 21.75H25.5C25.0858 21.75 24.75 21.4142 24.75 21Z" fill="#6B6B6B"></path>
<path d="M25.5 26.25C25.0858 26.25 24.75 26.5858 24.75 27C24.75 27.4142 25.0858 27.75 25.5 27.75H30C30.4142 27.75 30.75 27.4142 30.75 27C30.75 26.5858 30.4142 26.25 30 26.25H25.5Z" fill="#6B6B6B"></path>
<path fill-rule="evenodd" clip-rule="evenodd" d="M23.25 2.25C22.4216 2.25 21.75 2.92157 21.75 3.75V10.287L13.7675 2.91847C13.1928 2.38808 12.3072 2.38808 11.7325 2.91847L2.73258 11.2261C2.42495 11.5101 2.25 11.9097 2.25 12.3284V32.25C2.25 33.0784 2.92157 33.75 3.75 33.75H32.25C33.0784 33.75 33.75 33.0784 33.75 32.25V3.75C33.75 2.92157 33.0784 2.25 32.25 2.25H23.25ZM20.5817 11.25L12.75 4.02068L4.91824 11.25H20.5817ZM3.75 12.75V32.25H21.75V12.75H3.75ZM32.25 32.25H23.25V3.75H32.25V32.25Z" fill="#6B6B6B"></path>
</svg>
