<svg width="36" height="36" viewBox="0 0 36 36" fill="none" xmlns="http://www.w3.org/2000/svg">
<path fill-rule="evenodd" clip-rule="evenodd" d="M12.0002 23.1926C6.52257 22.6297 2.25 18.0013 2.25 12.375C2.25 6.3689 7.1189 1.5 13.125 1.5C19.0254 1.5 23.8282 6.19904 23.9955 12.059C29.4751 12.6392 33.75 17.4282 33.75 23.25C33.75 29.4632 28.8811 34.5 22.875 34.5C16.8689 34.5 12 29.4632 12 23.25L12.0002 23.1926ZM12.1031 21.695C12.8181 16.3451 17.1695 12.1969 22.4929 12.0068C22.2995 6.9998 18.1794 3 13.125 3C7.9473 3 3.75 7.19733 3.75 12.375C3.75 17.2073 7.40611 21.1858 12.1031 21.695ZM13.5 23.2436V23.25C13.5 28.6831 17.7449 33 22.875 33C28.0051 33 32.25 28.6831 32.25 23.25C32.25 18.1964 28.5775 14.1086 23.936 13.5621C23.3578 18.8878 18.9346 23.0595 13.5 23.2436ZM17.4959 15.2654C17.0695 15.5762 16.6688 15.9233 16.2982 16.3022L18.7825 19.8512C19.2434 19.5019 19.671 19.1108 20.0597 18.6838L17.4959 15.2654ZM18.4457 14.6568L20.787 17.7785C21.0775 17.3675 21.3356 16.9321 21.5578 16.4759L19.9075 14.0002C19.4 14.1765 18.9113 14.3968 18.4457 14.6568ZM14.4998 18.8606C14.7909 18.2612 15.1397 17.698 15.5384 17.1785L17.8465 20.476C17.2987 20.796 16.7153 21.0621 16.1039 21.2668L14.4998 18.8606ZM21.0497 13.6856L22.0645 15.2076C22.2372 14.6619 22.3614 14.0946 22.4319 13.5108C21.9619 13.5337 21.5002 13.5928 21.0497 13.6856ZM13.6116 21.7376C13.6944 21.1825 13.822 20.6436 13.9905 20.1248L14.9549 21.5715C14.5174 21.658 14.0688 21.7142 13.6116 21.7376Z" fill="#6B6B6B"></path>
</svg>
