<svg width="20" height="20" viewBox="0 0 20 20" fill="none" xmlns="http://www.w3.org/2000/svg">
<path d="M8.74222 8.74403C8.40887 9.0775 8.22165 9.52973 8.22173 10.0012C8.22182 10.4727 8.4092 10.9249 8.74267 11.2583C9.07613 11.5916 9.52836 11.7788 9.99987 11.7787C10.4714 11.7787 10.9235 11.5913 11.2569 11.2578M14.1609 14.1538C12.914 14.9339 11.4708 15.3431 10 15.3334C6.8 15.3334 4.13333 13.5556 2 10C3.13067 8.11558 4.41067 6.73069 5.84 5.84536M8.38222 4.82669C8.9147 4.7189 9.45672 4.66529 10 4.66669C13.2 4.66669 15.8667 6.44447 18 10C17.408 10.9867 16.7742 11.8374 16.0996 12.5511M2 2L18 18" stroke="#929292" stroke-width="2" stroke-linecap="round" stroke-linejoin="round"></path>
</svg>
