<svg width="36" height="36" fill="none" xmlns="http://www.w3.org/2000/svg"><path fill-rule="evenodd" clip-rule="evenodd" d="M17.727 9.188c-.815.324-1.234.867-1.425 1.435a2.663 2.663 0 0 0 .033 1.754c.176.45.282 1.287-.38 1.82-.988.793-2.176 1.046-3.197 1.063-1.017.017-1.949-.198-2.51-.432-.454-.191-.68-.592-.77-.914-.54-1.947-1.447-2.368-2.005-2.37-.65-.003-1.336.518-1.543 1.293l-2.136 7.97L29.15 27.6a2.25 2.25 0 0 0 2.756-1.59l.293-1.096a.75.75 0 0 0-.33-.832l-5.59-3.452a1.5 1.5 0 0 1-.42-.387L17.728 9.188Zm-.458-1.431c.645-.241 1.298.04 1.646.514l8.153 11.083 5.589 3.452a2.25 2.25 0 0 1 .99 2.496l-.292 1.096a3.75 3.75 0 0 1-4.593 2.651L3.406 22.255a1.5 1.5 0 0 1-1.06-1.837L4.48 12.45c.362-1.35 1.585-2.411 2.998-2.405 1.496.006 2.797 1.17 3.435 3.434.384.143 1.062.295 1.819.282.794-.013 1.598-.206 2.236-.697a.484.484 0 0 0-.032-.14 4.16 4.16 0 0 1-.057-2.78c.336-.996 1.093-1.903 2.39-2.386Z" fill="#6B6B6B"/><path d="m21.1 13.002.922 1.183-2.959 2.304a.75.75 0 1 1-.921-1.183l2.958-2.304ZM22.943 15.368l.922 1.184-2.959 2.304a.75.75 0 0 1-.921-1.183l2.958-2.304ZM5.826 19.021a.75.75 0 0 1 .918-.53l2.898.776a.75.75 0 0 1-.388 1.45l-2.898-.777a.75.75 0 0 1-.53-.919Z" fill="#6B6B6B"/></svg>