<svg width="24" height="24" fill="none" xmlns="http://www.w3.org/2000/svg"><g clip-path="url('#clip0_2794_1449')" stroke="#252525" stroke-width="1.3" stroke-linecap="round" stroke-linejoin="round"><path d="M19.473 4.5H21.5l2 12H.5l2-12h2.278M23.5 16.5V21a1.5 1.5 0 0 1-1.5 1.5H2A1.5 1.5 0 0 1 .5 21v-4.5M1.833 8.5h20.334"/><path clip-rule="evenodd" d="M10.552 6.01a.5.5 0 0 1-.5.49H5.074a.5.5 0 0 1-.5-.569l.278-2a.5.5 0 0 1 .5-.431h4.742a.5.5 0 0 1 .5.51l-.042 2ZM13.7 6.01a.5.5 0 0 0 .5.49h4.977a.5.5 0 0 0 .5-.569l-.278-2A.5.5 0 0 0 18.9 3.5h-4.743a.5.5 0 0 0-.5.51l.043 2Z"/><path d="M2.5 4.5V2A1.5 1.5 0 0 1 4 .5h16A1.5 1.5 0 0 1 21.5 2v2.5M3.5 22.5v1M20.5 22.5v1M10.605 4.614h3.042"/></g><defs><clipPath id="clip0_2794_1449"><path fill="#fff" d="M0 0h24v24H0z"/></clipPath></defs></svg>