<svg width="24" height="24" fill="none" xmlns="http://www.w3.org/2000/svg"><g clip-path="url('#clip0_2779_722')" fill="#252525"><path d="M13.5 5.999a.749.749 0 0 1-.624-.334L12 4.351l-.876 1.314a.75.75 0 0 1-1.248-.832l.955-1.433-1.318-.44a.746.746 0 0 1-.475-.948.75.75 0 0 1 .95-.474l1.262.421V.749a.75.75 0 0 1 1.5 0v1.209l1.263-.421a.748.748 0 0 1 .908 1.047.746.746 0 0 1-.434.376l-1.319.44.955 1.433a.739.739 0 0 1 .112.563.747.747 0 0 1-.735.603ZM6.75 8.999a.747.747 0 0 1-.624-.334L5.25 7.351l-.876 1.314a.75.75 0 0 1-1.248-.832L4.081 6.4l-1.318-.44a.746.746 0 0 1-.475-.948.75.75 0 0 1 .949-.474l1.263.42V3.749a.75.75 0 0 1 1.5 0v1.209l1.263-.421a.75.75 0 0 1 .474 1.424L6.418 6.4l.955 1.433a.751.751 0 0 1-.623 1.166ZM20.25 8.999a.749.749 0 0 1-.624-.334l-.876-1.314-.876 1.314a.749.749 0 0 1-1.36-.269.743.743 0 0 1 .112-.563l.955-1.433-1.319-.44a.746.746 0 0 1-.475-.948.747.747 0 0 1 .95-.474l1.263.42V3.749a.75.75 0 0 1 1.5 0v1.209l1.263-.421a.748.748 0 0 1 .908 1.048.746.746 0 0 1-.434.376l-1.319.439.955 1.433c.112.167.152.367.112.563a.747.747 0 0 1-.735.603ZM1.499 16.499a.751.751 0 0 1-.624-1.166l.956-1.433-1.318-.44a.746.746 0 0 1-.475-.949.75.75 0 0 1 .949-.474l1.262.421v-1.209a.75.75 0 0 1 1.5 0v1.209l1.263-.421a.748.748 0 0 1 .907 1.047.746.746 0 0 1-.434.376l-1.317.44.955 1.433a.751.751 0 0 1-1.248.832L3 14.851l-.876 1.314a.75.75 0 0 1-.625.334ZM19.499 16.499a.748.748 0 0 1-.624-1.166l.955-1.433-1.32-.439a.75.75 0 1 1 .477-1.422l1.26.421v-1.209a.75.75 0 0 1 1.5 0v1.209l1.264-.421a.748.748 0 1 1 .474 1.422l-1.317.439.955 1.433a.748.748 0 0 1-.624 1.166.749.749 0 0 1-.624-.334L21 14.851l-.876 1.314a.75.75 0 0 1-.625.334ZM5.25 23.999a.75.75 0 0 1-.75-.75v-4.5a.75.75 0 0 1 .75-.75H7.5v-5.25c0-.198.08-.391.22-.53l3.75-3.75a.744.744 0 0 1 1.06 0l3.75 3.75c.14.14.22.333.22.53v5.25h2.25a.75.75 0 0 1 .75.75v4.5a.75.75 0 0 1-.75.75H5.25Zm12.75-1.5v-3h-2.25a.75.75 0 0 1-.75-.75v-3.75H9v3.75a.75.75 0 0 1-.75.75H6v3h5.25v-1.5a.75.75 0 0 1 1.5 0v1.5H18Zm-3-9v-.439l-3-3-3 3v.439h6Z"/></g><defs><clipPath id="clip0_2779_722"><path fill="#fff" d="M0 0h24v24H0z"/></clipPath></defs></svg>