<svg width="36" height="36" fill="none" xmlns="http://www.w3.org/2000/svg"><path fill-rule="evenodd" clip-rule="evenodd" d="M9 10.5a.75.75 0 0 1 .75-.75H15a.75.75 0 0 1 .75.75V15a.75.75 0 0 1-.75.75H9.75A.75.75 0 0 1 9 15v-4.5Zm1.5 3.75v-3h3.75v3H10.5ZM9.75 18a.75.75 0 0 0-.75.75v4.5c0 .414.336.75.75.75H15a.75.75 0 0 0 .75-.75v-4.5A.75.75 0 0 0 15 18H9.75Zm.75 1.5v3h3.75v-3H10.5ZM20.25 10.5a.75.75 0 0 1 .75-.75h5.25a.75.75 0 0 1 .75.75V15a.75.75 0 0 1-.75.75H21a.75.75 0 0 1-.75-.75v-4.5Zm1.5 3.75v-3h3.75v3h-3.75ZM21 18a.75.75 0 0 0-.75.75v4.5c0 .414.336.75.75.75h5.25a.75.75 0 0 0 .75-.75v-4.5a.75.75 0 0 0-.75-.75H21Zm.75 1.5v3h3.75v-3h-3.75Z" fill="#6B6B6B"/><path fill-rule="evenodd" clip-rule="evenodd" d="M2.25 3.75a1.5 1.5 0 0 1 1.5-1.5h28.5a1.5 1.5 0 0 1 1.5 1.5V6a1.5 1.5 0 0 1-1.5 1.5v24.75a1.5 1.5 0 0 1-1.5 1.5H5.25a1.5 1.5 0 0 1-1.5-1.5V7.5A1.5 1.5 0 0 1 2.25 6V3.75Zm3 3.75v24.75h7.5V27a.75.75 0 0 1 .75-.75h9a.75.75 0 0 1 .75.75v5.25h7.5V7.5H5.25Zm16.5 24.75v-4.5h-7.5v4.5h7.5Zm10.5-28.5H3.75V6h28.5V3.75Z" fill="#6B6B6B"/></svg>