<svg width="36" height="36" fill="none" xmlns="http://www.w3.org/2000/svg"><path d="M22.171 15.88a.75.75 0 0 0-.842 1.24c.972.66 2.48 1.862 3.802 3.292 1.343 1.453 2.396 3.035 2.629 4.46a.75.75 0 0 0 1.48-.243c-.307-1.876-1.617-3.731-3.007-5.235a25.131 25.131 0 0 0-4.062-3.514Z" fill="#6B6B6B"/><path fill-rule="evenodd" clip-rule="evenodd" d="M21 10.5c0 .62-.188 1.195-.51 1.673 4.42.637 7.325 2.97 9.208 5.785 2.007 2.999 2.84 6.518 3.208 9.042H34.5a.75.75 0 0 1 0 1.5h-33a.75.75 0 0 1 0-1.5h1.594c.368-2.524 1.201-6.043 3.208-9.042 1.884-2.815 4.789-5.148 9.207-5.785A3 3 0 1 1 21 10.5ZM18 12a1.5 1.5 0 1 0 0-3 1.5 1.5 0 0 0 0 3ZM4.611 27c.367-2.395 1.16-5.552 2.938-8.208C9.514 15.855 12.697 13.5 18 13.5c5.303 0 8.486 2.355 10.451 5.292 1.777 2.656 2.57 5.813 2.938 8.208H4.611Z" fill="#6B6B6B"/></svg>