<svg width="24" height="24" fill="none" xmlns="http://www.w3.org/2000/svg"><g clip-path="url('#clip0_3372_438')" fill="#252525"><path d="M3.75 6A2.252 2.252 0 0 1 1.5 3.75 2.252 2.252 0 0 1 3.75 1.5c.13.004.256.017.378.04A2.995 2.995 0 0 1 6.747 0 3.004 3.004 0 0 1 9.75 3c0 1.654-1.346 3-3 3h-3Zm-.016-3a.75.75 0 0 0 .016 1.5h3c.827 0 1.5-.673 1.5-1.5 0-.826-.671-1.498-1.496-1.5h-.007c-.699 0-1.314.495-1.464 1.178a.748.748 0 0 1-.733.589.745.745 0 0 1-.433-.137.705.705 0 0 0-.383-.13ZM12.75 24a.75.75 0 0 1-.75-.75C12 18.701 9.645 15 6.75 15S1.5 18.701 1.5 23.25a.75.75 0 0 1-1.5 0c0-5.376 3.028-9.75 6.75-9.75s6.75 4.374 6.75 9.75a.75.75 0 0 1-.75.75ZM23.25 24a.75.75 0 0 1-.75-.75c0-5.729-1.301-11.025-3.491-14.271l-2.093 1.395a.753.753 0 0 1-.832 0L14.25 9.151l-1.834 1.223a.75.75 0 0 1-.832 0L10.03 9.339a16.056 16.056 0 0 0-1.154 2.226.748.748 0 0 1-.984.395.75.75 0 0 1-.396-.985A16.628 16.628 0 0 1 9.159 7.95a.69.69 0 0 1 .116-.164C10.84 5.636 12.69 4.5 14.625 4.5c1.855 0 3.634 1.037 5.143 2.999a.42.42 0 0 1 .042.056c.58.764 1.115 1.653 1.59 2.644 1.677 3.499 2.6 8.135 2.6 13.052a.75.75 0 0 1-.75.749Zm-9-16.5c.148 0 .292.044.416.126L16.5 8.849l1.583-1.055C17.002 6.618 15.813 6 14.625 6c-1.278 0-2.556.732-3.715 2.122l1.09.727 1.834-1.223a.753.753 0 0 1 .416-.126Z"/></g><defs><clipPath id="clip0_3372_438"><path fill="#fff" d="M0 0h24v24H0z"/></clipPath></defs></svg>