<svg width="36" height="36" fill="none" xmlns="http://www.w3.org/2000/svg"><path d="M22.375 24.82a9.737 9.737 0 0 0 1.033-1.998l-1.405-.527a8.238 8.238 0 0 1-.874 1.69l1.246.835ZM19.322 27.973c.577-.44 1.132-.919 1.645-1.44l-1.068-1.052c-.457.463-.957.895-1.486 1.299l.91 1.192ZM15.676 30.23a29.782 29.782 0 0 0 1.863-1.044l-.783-1.279c-.583.357-1.178.686-1.769.992l.69 1.332ZM11.875 32.019l.652-.295c.395-.178.817-.368 1.248-.568l-.63-1.361c-.426.197-.832.38-1.22.555h-.002c-.23.104-.453.204-.67.304l.622 1.365Z" fill="#6B6B6B"/><path fill-rule="evenodd" clip-rule="evenodd" d="M23.25 12a3 3 0 1 0 0-6 3 3 0 0 0 0 6Zm0-1.5a1.5 1.5 0 1 0 0-3 1.5 1.5 0 0 0 0 3Z" fill="#6B6B6B"/><path fill-rule="evenodd" clip-rule="evenodd" d="M6.75 2.25a4.502 4.502 0 0 1 4.244 3h6.643a6.744 6.744 0 0 1 5.613-3 6.744 6.744 0 0 1 5.613 3h3.387a1.5 1.5 0 0 1 1.5 1.5v25.5a1.5 1.5 0 0 1-1.5 1.5H6.75a4.5 4.5 0 0 1-4.5-4.5V6.75a4.5 4.5 0 0 1 4.5-4.5Zm0 24a3 3 0 1 1 0 6 3 3 0 0 1 0-6Zm3.354 6a4.484 4.484 0 0 0 1.146-3V6.75h5.634A6.74 6.74 0 0 0 16.5 9c0 3.338 3.627 9.72 5.985 11.017-.01.148-.022.294-.039.438l1.49.172a9.7 9.7 0 0 0 .05-.594C26.343 18.773 30 12.353 30 9a6.74 6.74 0 0 0-.384-2.25h2.634v25.5H10.104Zm-.354-6.354V6.75a3 3 0 0 0-6 0v19.146a4.483 4.483 0 0 1 3-1.146c1.153 0 2.204.433 3 1.146ZM28.5 9c0 .673-.214 1.648-.647 2.806a21.444 21.444 0 0 1-1.679 3.445c-.666 1.11-1.374 2.066-2.008 2.723-.319.33-.585.55-.788.678a1.437 1.437 0 0 1-.128.073 1.437 1.437 0 0 1-.128-.073c-.203-.128-.47-.348-.788-.678-.634-.657-1.342-1.613-2.008-2.723a21.444 21.444 0 0 1-1.68-3.445C18.215 10.648 18 9.673 18 9a5.25 5.25 0 1 1 10.5 0Z" fill="#6B6B6B"/></svg>