<svg width="24" height="24" fill="none" xmlns="http://www.w3.org/2000/svg"><path d="M1.75 24C.785 24 0 23.215 0 22.25v-11.5C0 9.785.785 9 1.75 9H3V5.905A3.018 3.018 0 0 1 .75 3c0-1.654 1.346-3 3-3h13.5c1.654 0 3 1.346 3 3A3.018 3.018 0 0 1 18 5.905V9h2.75c.965 0 1.75.785 1.75 1.75V18h.75a.75.75 0 0 1 0 1.5h-.75v2.75c0 .965-.785 1.75-1.75 1.75h-19Zm-.25-1.75c0 .138.112.25.25.25h19a.25.25 0 0 0 .25-.25V21H1.5v1.25ZM21 19.5v-8.75a.25.25 0 0 0-.25-.25h-19a.25.25 0 0 0-.25.25v8.75H21ZM16.5 9V5.25a.75.75 0 0 1 .75-.75c.827 0 1.5-.673 1.5-1.5s-.673-1.5-1.5-1.5H3.75c-.827 0-1.5.673-1.5 1.5s.673 1.5 1.5 1.5a.75.75 0 0 1 .75.75V9h12Z" fill="#252525"/><path d="M18 17.625a1.125 1.125 0 1 0 0-2.25 1.125 1.125 0 0 0 0 2.25Z" fill="#252525"/></svg>