<svg width="36" height="36" fill="none" xmlns="http://www.w3.org/2000/svg"><path d="M18 18a.75.75 0 0 1 1.5 0v1.5a.75.75 0 0 1-1.5 0V18ZM18 23.25a.75.75 0 0 1 1.5 0v1.5a.75.75 0 0 1-1.5 0v-1.5ZM23.25 17.25a.75.75 0 0 0-.75.75v1.5a.75.75 0 0 0 1.5 0V18a.75.75 0 0 0-.75-.75ZM23.25 22.5a.75.75 0 0 0-.75.75v1.5a.75.75 0 0 0 1.5 0v-1.5a.75.75 0 0 0-.75-.75ZM27 18a.75.75 0 0 1 1.5 0v1.5a.75.75 0 0 1-1.5 0V18ZM27.75 22.5a.75.75 0 0 0-.75.75v1.5a.75.75 0 0 0 1.5 0v-1.5a.75.75 0 0 0-.75-.75ZM8.25 9.75a.75.75 0 0 0-.75.75V12A.75.75 0 0 0 9 12v-1.5a.75.75 0 0 0-.75-.75ZM8.25 15a.75.75 0 0 0-.75.75v1.5a.75.75 0 0 0 1.5 0v-1.5a.75.75 0 0 0-.75-.75ZM7.5 21A.75.75 0 0 1 9 21v1.5a.75.75 0 0 1-1.5 0V21ZM12 15.75a.75.75 0 0 1 1.5 0v1.5a.75.75 0 0 1-1.5 0v-1.5ZM12.75 20.25A.75.75 0 0 0 12 21v1.5a.75.75 0 0 0 1.5 0V21a.75.75 0 0 0-.75-.75Z" fill="#6B6B6B"/><path fill-rule="evenodd" clip-rule="evenodd" d="M3.75 2.25a1.5 1.5 0 0 0-1.5 1.5V6a1.5 1.5 0 0 0 1.5 1.5v24.75a1.5 1.5 0 0 0 1.5 1.5h25.5a1.5 1.5 0 0 0 1.5-1.5V15a1.5 1.5 0 0 0 1.5-1.5v-2.25a1.5 1.5 0 0 0-1.5-1.5h-10.5V7.5a1.5 1.5 0 0 0 1.5-1.5V3.75a1.5 1.5 0 0 0-1.5-1.5h-18Zm15.75 30V28.5a.75.75 0 0 1 .75-.75h6a.75.75 0 0 1 .75.75v3.75h3.75V15h-15v17.25h3.75Zm-5.25-6.75V15a1.5 1.5 0 0 1-1.5-1.5v-.75A.75.75 0 0 1 12 12v-1.5a.75.75 0 0 1 1.35-.45c.25-.188.562-.3.9-.3h6V7.5h-15v24.75H9v-6a.75.75 0 0 1 .75-.75h4.5Zm-3.75 6.75h3.75V27H10.5v5.25Zm10.5 0v-3h4.5v3H21ZM3.75 3.75h18V6h-18V3.75Zm10.5 9.75v-2.25h18v2.25h-18Z" fill="#6B6B6B"/></svg>