<svg width="24" height="24" fill="none" xmlns="http://www.w3.org/2000/svg"><g clip-path="url('#clip0_3372_394')" fill="#252525"><path d="M1.5 16.5a.75.75 0 0 1-.75-.75v-6A2.252 2.252 0 0 1 3 7.5h1.5a.75.75 0 0 1 0 1.5H3a.75.75 0 0 0-.75.75V12h1.5a.75.75 0 0 1 0 1.5h-1.5v2.25a.75.75 0 0 1-.75.75ZM10.5 16.5a.754.754 0 0 1-.643-.364L8.25 13.458v2.292a.75.75 0 0 1-1.5 0v-7.5a.75.75 0 0 1 .75-.75h1.125a2.629 2.629 0 0 1 2.625 2.625 2.627 2.627 0 0 1-1.763 2.478l1.656 2.761a.744.744 0 0 1 .084.568.744.744 0 0 1-.342.461.742.742 0 0 1-.385.107Zm-1.875-5.25c.62 0 1.125-.505 1.125-1.125S9.245 9 8.625 9H8.25v2.25h.375ZM15 16.5a2.252 2.252 0 0 1-2.25-2.25v-4.5A2.252 2.252 0 0 1 15 7.5h1.5a.75.75 0 0 1 0 1.5H15a.75.75 0 0 0-.75.75V12h2.25a.75.75 0 0 1 0 1.5h-2.25v.75c0 .414.336.75.75.75h1.5a.75.75 0 0 1 0 1.5H15ZM21 16.5a2.252 2.252 0 0 1-2.25-2.25v-4.5A2.252 2.252 0 0 1 21 7.5h1.5a.75.75 0 0 1 0 1.5H21a.75.75 0 0 0-.75.75V12h2.25a.75.75 0 0 1 0 1.5h-2.25v.75c0 .414.336.75.75.75h1.5a.75.75 0 0 1 0 1.5H21ZM2.25 24A2.252 2.252 0 0 1 0 21.75v-3a.75.75 0 0 1 1.5 0v3c0 .414.336.75.75.75h19.5a.75.75 0 0 0 .75-.75v-3a.75.75 0 0 1 1.5 0v3A2.252 2.252 0 0 1 21.75 24H2.25ZM23.25 6a.75.75 0 0 1-.75-.75v-3a.75.75 0 0 0-.75-.75H2.25a.75.75 0 0 0-.75.75v3a.75.75 0 0 1-1.5 0v-3A2.252 2.252 0 0 1 2.25 0h19.5A2.252 2.252 0 0 1 24 2.25v3a.75.75 0 0 1-.75.75Z"/></g><defs><clipPath id="clip0_3372_394"><path fill="#fff" d="M0 0h24v24H0z"/></clipPath></defs></svg>