<svg width="24" height="24" fill="none" xmlns="http://www.w3.org/2000/svg"><path d="M19.5 9a3.754 3.754 0 0 1-3.75-3.75A3.754 3.754 0 0 1 19.5 1.5a3.754 3.754 0 0 1 3.75 3.75A3.754 3.754 0 0 1 19.5 9Zm0-6a2.252 2.252 0 0 0-2.25 2.25A2.252 2.252 0 0 0 19.5 7.5a2.252 2.252 0 0 0 2.25-2.25A2.252 2.252 0 0 0 19.5 3Z" fill="#252525"/><path d="M18 22.5a.751.751 0 0 1-.744-.657l-.188-1.5a.746.746 0 0 1 .651-.838.751.751 0 0 1 .837.651l.106.844h1.676l.668-5.343A.751.751 0 0 1 21.75 15h.75v-1.5c0-1.654-1.346-3-3-3-.645 0-1.284.213-1.8.6a.747.747 0 0 1-1.05-.15.75.75 0 0 1 .15-1.05c.774-.58 1.733-.9 2.7-.9 2.481 0 4.5 2.019 4.5 4.5v2.25a.75.75 0 0 1-.75.75h-.838l-.668 5.343A.751.751 0 0 1 21 22.5h-3ZM4.5 9A3.754 3.754 0 0 1 .75 5.25 3.754 3.754 0 0 1 4.5 1.5a3.754 3.754 0 0 1 3.75 3.75A3.754 3.754 0 0 1 4.5 9Zm0-6a2.252 2.252 0 0 0-2.25 2.25A2.252 2.252 0 0 0 4.5 7.5a2.252 2.252 0 0 0 2.25-2.25A2.252 2.252 0 0 0 4.5 3ZM3 22.5a.751.751 0 0 1-.744-.657L1.588 16.5H.75a.75.75 0 0 1-.75-.75V13.5C0 11.019 2.019 9 4.5 9c.967 0 1.926.32 2.7.9a.75.75 0 0 1-.9 1.2 3.02 3.02 0 0 0-1.8-.6c-1.654 0-3 1.346-3 3V15h.75c.377 0 .697.282.744.657L3.662 21h1.676l.106-.843a.751.751 0 0 1 1.336-.368.745.745 0 0 1 .152.554l-.188 1.5A.751.751 0 0 1 6 22.5H3ZM12 12c-1.654 0-3-1.346-3-3s1.346-3 3-3 3 1.346 3 3-1.346 3-3 3Zm0-4.5c-.827 0-1.5.673-1.5 1.5s.673 1.5 1.5 1.5 1.5-.673 1.5-1.5-.673-1.5-1.5-1.5Z" fill="#252525"/><path d="M10.5 22.5a.748.748 0 0 1-.74-.626L9.115 18H8.25a.75.75 0 0 1-.75-.75v-.75c0-2.481 2.019-4.5 4.5-4.5s4.5 2.019 4.5 4.5v.75a.75.75 0 0 1-.75.75h-.865l-.646 3.873a.747.747 0 0 1-.74.627H10.5Zm2.365-1.5.646-3.873a.747.747 0 0 1 .74-.627H15c0-1.654-1.346-3-3-3s-3 1.346-3 3h.75c.368 0 .679.263.74.626L11.135 21h1.73Z" fill="#252525"/></svg>