<svg width="24" height="24" fill="none" xmlns="http://www.w3.org/2000/svg"><path d="M12 22.53a3.754 3.754 0 0 1-3.75-3.75A3.754 3.754 0 0 1 12 15.03a3.754 3.754 0 0 1 3.75 3.75A3.754 3.754 0 0 1 12 22.53Zm0-6a2.252 2.252 0 0 0-2.25 2.25A2.252 2.252 0 0 0 12 21.03a2.252 2.252 0 0 0 2.25-2.25A2.252 2.252 0 0 0 12 16.53ZM17.3 14.227a.743.743 0 0 1-.53-.22 6.706 6.706 0 0 0-4.773-1.973c-1.805 0-3.5.701-4.773 1.973a.744.744 0 0 1-1.06 0 .744.744 0 0 1 0-1.06 8.192 8.192 0 0 1 5.833-2.412c2.206 0 4.278.857 5.833 2.412a.744.744 0 0 1 0 1.06.749.749 0 0 1-.53.22Z" fill="#252525"/><path d="M20.485 11.045a.743.743 0 0 1-.53-.22A11.18 11.18 0 0 0 12 7.537a11.177 11.177 0 0 0-7.955 3.289.744.744 0 0 1-1.06 0 .744.744 0 0 1 0-1.06A12.66 12.66 0 0 1 12 6.037c3.409 0 6.61 1.324 9.015 3.728.142.141.22.33.22.53s-.078.389-.22.53a.743.743 0 0 1-.53.22Z" fill="#252525"/><path d="M.75 7.462a.751.751 0 0 1-.512-1.299A17.19 17.19 0 0 1 12 1.552c4.395 0 8.571 1.638 11.761 4.611a.752.752 0 0 1-.511 1.299.75.75 0 0 1-.511-.201A15.688 15.688 0 0 0 12 3.051 15.692 15.692 0 0 0 1.261 7.26a.747.747 0 0 1-.511.202Z" fill="#252525"/></svg>