<svg width="36" height="36" fill="none" xmlns="http://www.w3.org/2000/svg"><path d="M14.877 19.514c.135.391.459.736.873.736s.758-.34.676-.745a3.751 3.751 0 0 0-7.352 0c-.082.406.262.745.676.745.414 0 .738-.345.873-.736a2.25 2.25 0 0 1 4.254 0ZM26.926 19.505c.082.406-.262.745-.676.745-.414 0-.738-.345-.873-.736a2.25 2.25 0 0 0-4.254 0c-.135.391-.459.736-.873.736s-.758-.34-.676-.745a3.751 3.751 0 0 1 7.352 0ZM12.97 25.72a.75.75 0 0 1 1.06 0 5.614 5.614 0 0 0 7.94 0 .75.75 0 1 1 1.06 1.06 7.114 7.114 0 0 1-10.06 0 .75.75 0 0 1 0-1.06Z" fill="#6B6B6B"/><path fill-rule="evenodd" clip-rule="evenodd" d="M17.913 7.5c.178-1.162.124-2.581-.558-3.77-.456-.796-1.179-1.459-2.227-1.849-1.034-.385-2.347-.491-3.983-.26a.75.75 0 0 0 .21 1.486c1.475-.21 2.52-.092 3.25.18.716.266 1.165.694 1.449 1.189.516.9.53 2.114.318 3.121-5.696.685-10.3 4.916-11.542 10.421a3 3 0 1 0 0 5.964C6.188 30.003 11.57 34.5 18 34.5s11.812-4.497 13.17-10.518a3 3 0 1 0 0-5.964A13.515 13.515 0 0 0 20.277 7.691c-.06-.407-.028-.839.145-1.142a.96.96 0 0 1 .53-.43c.29-.107.745-.168 1.442-.07a.75.75 0 0 0 .21-1.484c-.859-.122-1.582-.072-2.175.15a2.458 2.458 0 0 0-1.308 1.088c-.314.549-.396 1.167-.366 1.718a13.712 13.712 0 0 0-.843-.02Zm13.505 12.002a13.669 13.669 0 0 1 0 2.996l.082.002a1.5 1.5 0 1 0-.082-2.998ZM4.582 22.498a13.649 13.649 0 0 1 0-2.996 1.5 1.5 0 1 0 0 2.996ZM30 21c0 6.628-5.372 12-12 12-6.627 0-12-5.372-12-12 0-6.627 5.373-12 12-12 6.628 0 12 5.373 12 12Z" fill="#6B6B6B"/></svg>