<svg width="36" height="36" fill="none" xmlns="http://www.w3.org/2000/svg"><path fill-rule="evenodd" clip-rule="evenodd" d="M10.841 2.721a1.5 1.5 0 0 0-2.182 0l-6 6.365a1.5 1.5 0 0 0-.409 1.029v9.792H33a.75.75 0 0 0 0-1.5h-2.25V12.75H33a.75.75 0 0 0 0-1.5h-2.25v-.75a.75.75 0 0 0-1.5 0v.75h-3v-.75a.75.75 0 0 0-1.5 0v.75h-3v-.75a.75.75 0 0 0-1.5 0v.75h-3v-1.135a1.5 1.5 0 0 0-.409-1.03l-6-6.364ZM17.25 12.75v5.657h3V12.75h-3Zm4.5 5.657h3V12.75h-3v5.657Zm4.5 0h3V12.75h-3v5.657Zm-13.5 0h3v-8.25h-12v8.25h3v-4.5a.75.75 0 0 1 .75-.75H12a.75.75 0 0 1 .75.75v4.5Zm-1.5 0h-3v-3.75h3v3.75Zm-6.125-9.75h9.25L9.75 3.75 5.125 8.657ZM28.5 8.25a3 3 0 1 0 0-6 3 3 0 0 0 0 6Zm0-1.5a1.5 1.5 0 1 0 0-3 1.5 1.5 0 0 0 0 3Z" fill="#6B6B6B"/><path d="M30.838 23.98a1.937 1.937 0 0 0-2.698.273l-.189.227a3.19 3.19 0 0 1-4.902 0 1.69 1.69 0 0 0-2.598 0 3.19 3.19 0 0 1-4.902 0 1.69 1.69 0 0 0-2.598 0 3.19 3.19 0 0 1-4.902 0l-.19-.227a1.937 1.937 0 0 0-2.697-.272L3.47 25.336a.75.75 0 0 1-.938-1.172l1.694-1.355a3.437 3.437 0 0 1 4.787.484l.19.227a1.69 1.69 0 0 0 2.597 0 3.19 3.19 0 0 1 4.902 0 1.69 1.69 0 0 0 2.598 0 3.19 3.19 0 0 1 4.902 0 1.69 1.69 0 0 0 2.598 0l.189-.227a3.437 3.437 0 0 1 4.787-.483l1.694 1.354a.75.75 0 0 1-.938 1.172l-1.693-1.355ZM28.14 30.253a1.937 1.937 0 0 1 2.698-.272l1.694 1.355a.75.75 0 0 0 .937-1.172l-1.694-1.355a3.437 3.437 0 0 0-4.787.484l-.19.227a1.69 1.69 0 0 1-2.597 0 3.19 3.19 0 0 0-4.902 0 1.69 1.69 0 0 1-2.598 0 3.19 3.19 0 0 0-4.902 0 1.69 1.69 0 0 1-2.598 0l-.189-.227a3.437 3.437 0 0 0-4.787-.483l-1.693 1.354a.75.75 0 0 0 .937 1.172l1.693-1.355a1.937 1.937 0 0 1 2.698.272l.189.227a3.19 3.19 0 0 0 4.902 0 1.69 1.69 0 0 1 2.598 0 3.19 3.19 0 0 0 4.902 0 1.69 1.69 0 0 1 2.598 0 3.19 3.19 0 0 0 4.902 0l.19-.227Z" fill="#6B6B6B"/></svg>