<svg width="36" height="36" fill="none" xmlns="http://www.w3.org/2000/svg"><path fill-rule="evenodd" clip-rule="evenodd" d="M12.776 2.25h10.528l.218.37c.658 1.118 1.556 3.055 2.157 5.295.6 2.233.924 4.838.357 7.256-.572 2.435-1.982 4.344-3.493 5.687-1.281 1.138-2.684 1.911-3.793 2.247v9.145h3.75a.75.75 0 0 1 0 1.5h-9a.75.75 0 0 1 0-1.5h3.75v-9.17c-1.095-.348-2.462-1.111-3.713-2.222-1.51-1.343-2.92-3.252-3.492-5.687-.567-2.418-.244-5.023.356-7.256.602-2.24 1.5-4.177 2.158-5.295l.217-.37Zm5.264 19.493c.84-.188 2.206-.851 3.507-2.007 1.338-1.189 2.544-2.842 3.028-4.907a9.71 9.71 0 0 0 .23-1.582c-2.408.344-3.797.118-5.01-.425-.481-.216-.936-.486-1.381-.749-.134-.079-.267-.158-.4-.234a12.5 12.5 0 0 0-2.14-1.008c-1.43-.51-2.342-.537-3.015-.38-.562.13-1.023.4-1.548.774-.115 1.225-.076 2.452.194 3.604.485 2.065 1.69 3.718 3.029 4.907 1.3 1.156 2.666 1.819 3.506 2.007ZM11.61 9.304c.28-.129.582-.238.91-.314 1.04-.242 2.256-.143 3.858.429 1.006.358 1.753.755 2.387 1.121.166.096.32.187.465.273.426.251.783.461 1.18.64.906.406 2.033.64 4.4.277a17.16 17.16 0 0 0-.578-3.426c-.502-1.867-1.223-3.505-1.793-4.554h-8.795c-.57 1.049-1.292 2.687-1.793 4.554-.088.329-.17.662-.241 1Z" fill="#6B6B6B"/></svg>