<svg width="36" height="36" viewBox="0 0 36 36" fill="none" xmlns="http://www.w3.org/2000/svg">
<path fill-rule="evenodd" clip-rule="evenodd" d="M12 6V8.25H3C2.17157 8.25 1.5 8.92155 1.5 9.75V21C1.5 21.5603 1.80721 22.0489 2.26238 22.3064C2.25422 22.3698 2.25 22.4344 2.25 22.5V29.25C2.25 30.0784 2.92157 30.75 3.75 30.75H32.25C33.0784 30.75 33.75 30.0784 33.75 29.25V22.5C33.75 22.4344 33.7458 22.3698 33.7376 22.3064C34.1928 22.0489 34.5 21.5603 34.5 21V9.75C34.5 8.92155 33.8284 8.25 33 8.25H24V6C24 5.17157 23.3284 4.5 22.5 4.5H13.5C12.6715 4.5 12 5.17157 12 6ZM22.5 6H13.5V8.25H22.5V6ZM33 9.75V21H21V20.25C21 19.4215 20.3284 18.75 19.5 18.75H16.5C15.6715 18.75 15 19.4215 15 20.25V21H3V9.75H33ZM15 22.5H3.75V29.25H32.25V22.5H21V23.25C21 24.0784 20.3284 24.75 19.5 24.75H16.5C15.6715 24.75 15 24.0784 15 23.25V22.5ZM16.5 20.25H19.5V23.25H16.5V20.25Z" fill="#6B6B6B"></path>
</svg>
