<svg width="36" height="36" fill="none" xmlns="http://www.w3.org/2000/svg"><path fill-rule="evenodd" clip-rule="evenodd" d="M29.25 11.25a3 3 0 1 1-6 0 3 3 0 0 1 6 0Zm-1.5 0a1.5 1.5 0 1 1-3 0 1.5 1.5 0 0 1 3 0Z" fill="#6B6B6B"/><path fill-rule="evenodd" clip-rule="evenodd" d="M3.75 2.25a1.5 1.5 0 0 0-1.5 1.5v14.175c0 .022 0 .044.003.066a.813.813 0 0 0-.003.066V32.25a1.5 1.5 0 0 0 1.5 1.5h5.629c.619 0 1.121-.502 1.121-1.121v-.379h21.75a1.5 1.5 0 0 0 1.5-1.5V5.25a1.5 1.5 0 0 0-1.5-1.5h-19.5v-.516a.984.984 0 0 0-.984-.984H3.75Zm7.5 1.5h-7.5v13.466a6.764 6.764 0 0 0 4.664-2.577l.369-.474a11.711 11.711 0 0 0 2.467-7.19V3.75Zm1.5 1.5h19.5v24.783a1.59 1.59 0 0 0-.028-.049l-5.807-9.78a1.5 1.5 0 0 0-2.58 0l-1.323 2.227-3.97-6.72a1.5 1.5 0 0 0-2.583 0l-5.718 9.676a18.158 18.158 0 0 0-1.306-4.317 6.428 6.428 0 0 0-2.668-2.962 8.262 8.262 0 0 0 3.331-2.548l.369-.475a13.212 13.212 0 0 0 2.783-8.11V5.25Zm4.5 11.224 4.39 7.428-3.612 6.082c-.147.247-.213.51-.213.766H10.5v-2.307c0-.177-.003-.355-.008-.532l6.758-11.437ZM30.932 30.75l-5.807-9.781-5.807 9.78 11.614.001ZM9 32.25H3.75V18.799a4.934 4.934 0 0 1 3.815 2.88A16.654 16.654 0 0 1 9 28.444v3.807Z" fill="#6B6B6B"/></svg>