<svg width="36" height="36" fill="none" xmlns="http://www.w3.org/2000/svg"><path fill-rule="evenodd" clip-rule="evenodd" d="M22.5 6.375a4.125 4.125 0 1 1-8.25 0 4.125 4.125 0 0 1 8.25 0Zm-1.5 0a2.625 2.625 0 1 1-5.25 0 2.625 2.625 0 0 1 5.25 0Z" fill="#6B6B6B"/><path fill-rule="evenodd" clip-rule="evenodd" d="m20.224 19.007-1.093-1.017-.4 1.927a.75.75 0 0 0 .2.678l4.038 4.097c.385.39.614.909.644 1.456l.343 6.249a2.25 2.25 0 0 1-.885 1.913l-.285.218a2.25 2.25 0 0 1-2.38.215l-.116-.058a2.25 2.25 0 0 1-1.215-1.732L18.4 27.49a.75.75 0 0 0-.21-.435l-1.076-1.092-.157 1.112c-.048.34-.173.664-.365.948l-4.045 5.97a2.25 2.25 0 0 1-1.415.942l-.251.051a2.25 2.25 0 0 1-2.54-1.38l-.083-.207a2.25 2.25 0 0 1 .231-2.088l3.976-5.866a.749.749 0 0 0 .112-.264l1.685-7.864a.303.303 0 0 0-.569-.198l-1.602 3.252a2.25 2.25 0 0 1-1.172 1.09l-.15.06a2.25 2.25 0 0 1-2.94-1.259l-.034-.086a2.25 2.25 0 0 1 .075-1.82l2.34-4.75a2.25 2.25 0 0 1 1.339-1.15l5.315-1.685a2.25 2.25 0 0 1 2.042.355l1.07.814 3.008 2.67a.75.75 0 0 0 .403.183l2.073.263a2.26 2.26 0 0 1 1.325 3.822l-.061.062c-.423.429-1 .67-1.603.67h-3.366a2.25 2.25 0 0 1-1.532-.602ZM17.318 12.2a.75.75 0 0 1 .68.118l.672.51-1.408 6.784a2.25 2.25 0 0 0 .6 2.036l4.039 4.097a.75.75 0 0 1 .215.486l.342 6.248a.75.75 0 0 1-.295.638l-.285.217a.75.75 0 0 1-.794.072l-.115-.059a.75.75 0 0 1-.405-.577l-.674-5.465a2.25 2.25 0 0 0-.63-1.304l-2.166-2.197-2.275-1.923.91-4.25a1.803 1.803 0 0 0-3.38-1.176l-1.603 3.251a.75.75 0 0 1-.39.364l-.15.06a.75.75 0 0 1-.98-.419l-.035-.086a.75.75 0 0 1 .025-.607l2.34-4.75a.75.75 0 0 1 .447-.383l5.315-1.685Zm4.67 3.53-2.017-1.79-.484 2.333 1.759 1.635c.139.13.321.201.51.201h3.366c.201 0 .394-.08.535-.223l.06-.062a.759.759 0 0 0-.445-1.281L23.2 16.28a2.25 2.25 0 0 1-1.21-.55Zm-7.525 7.814 1.32 1.116-.31 2.205a.75.75 0 0 1-.122.316l-4.045 5.969a.75.75 0 0 1-.472.314l-.25.05a.75.75 0 0 1-.847-.459l-.082-.207a.75.75 0 0 1 .077-.696l3.975-5.867c.162-.24.277-.508.338-.79l.418-1.951Z" fill="#6B6B6B"/></svg>