<svg width="36" height="36" viewBox="0 0 36 36" fill="none" xmlns="http://www.w3.org/2000/svg">
<path fill-rule="evenodd" clip-rule="evenodd" d="M17.3249 18.431C20.0847 21.1908 24.5592 21.1908 27.3189 18.431C30.0787 15.6712 30.0787 11.1968 27.3189 8.43701C24.5592 5.67725 20.0847 5.67725 17.3249 8.43701C14.5652 11.1968 14.5652 15.6712 17.3249 18.431ZM18.3856 17.3703C20.5596 19.5443 24.0843 19.5443 26.2582 17.3703C28.4323 15.1964 28.4323 11.6716 26.2582 9.49766C24.0843 7.32369 20.5596 7.32369 18.3856 9.49766C16.2116 11.6716 16.2116 15.1964 18.3856 17.3703Z" fill="#6B6B6B"></path>
<path fill-rule="evenodd" clip-rule="evenodd" d="M17.3222 22.7383C21.3209 24.889 26.4134 24.2765 29.789 20.9009C33.9129 16.777 33.9129 10.0908 29.789 5.96694C25.6651 1.84305 18.979 1.84305 14.855 5.96694C11.3908 9.43125 10.8367 14.7038 13.1928 18.7464L2.99989 28.9394C2.4141 29.5251 2.4141 30.4749 2.99989 31.0606L4.93923 33C5.52502 33.5858 6.47476 33.5858 7.06054 33L17.3222 22.7383ZM15.9158 19.8402C19.4538 23.3783 25.1903 23.3783 28.7283 19.8402C32.2664 16.3021 32.2664 10.5657 28.7283 7.0276C25.1903 3.4895 19.4538 3.4895 15.9158 7.0276C12.3776 10.5657 12.3776 16.3021 15.9158 19.8402ZM16.0259 21.9133C15.6174 21.6091 15.2259 21.2717 14.855 20.9009C14.5684 20.6143 14.3018 20.3153 14.0549 20.0056L4.06055 30L5.99989 31.9394L16.0259 21.9133Z" fill="#6B6B6B"></path>
</svg>
