<svg width="36" height="36" fill="none" xmlns="http://www.w3.org/2000/svg"><path fill-rule="evenodd" clip-rule="evenodd" d="M21.75 19.5a.75.75 0 0 1 .75-.75h6a.75.75 0 0 1 .75.75v6a.75.75 0 0 1-.75.75h-6a.75.75 0 0 1-.75-.75v-6Zm6 5.25h-4.5v-4.5h4.5v4.5Z" fill="#6B6B6B"/><path d="M9.75 27a.75.75 0 0 1 1.5 0v1.5a.75.75 0 0 1-1.5 0V27Z" fill="#6B6B6B"/><path fill-rule="evenodd" clip-rule="evenodd" d="M33 2.25a.75.75 0 0 0-.75.75v10.44L18.937 2.79a1.5 1.5 0 0 0-1.874 0l-14.25 11.4a1.5 1.5 0 0 0-.563 1.17v16.89a1.5 1.5 0 0 0 1.5 1.5h28.5a1.5 1.5 0 0 0 1.5-1.5V3a.75.75 0 0 0-.75-.75Zm-27.862 12L18 3.96l12.862 10.29H5.138Zm-1.388 1.5v16.5h3V22.5a.75.75 0 0 1 .75-.75H18a.75.75 0 0 1 .75.75v9.75h13.5v-16.5H3.75Zm4.5 7.5v9h9v-9h-9Z" fill="#6B6B6B"/></svg>