<svg width="36" height="36" fill="none" xmlns="http://www.w3.org/2000/svg"><path fill-rule="evenodd" clip-rule="evenodd" d="M28.5 10.5a3 3 0 1 0 0-6 3 3 0 0 0 0 6Zm0-1.5a1.5 1.5 0 1 0 0-3 1.5 1.5 0 0 0 0 3ZM21.764 18.633 16.382 5.85c-.515-1.224-2.25-1.224-2.765 0L2.748 31.668A1.5 1.5 0 0 0 4.13 33.75H31.869a1.5 1.5 0 0 0 1.38-2.084L26.132 14.84c-.516-1.22-2.246-1.22-2.762 0l-1.605 3.793Zm-10.842-2.514L4.13 32.25h12c0-.193.038-.39.12-.584L20.95 20.56l-1.87-4.442a8.864 8.864 0 0 1-8.157 0Zm7.572-1.388a7.363 7.363 0 0 1-6.988 0L15 6.433l3.494 8.298Zm-.862 17.519 3.959-9.358a8.041 8.041 0 0 0 6.318 0l3.96 9.358H17.631Zm9.693-10.74a6.54 6.54 0 0 1-5.15 0l2.575-6.085 2.575 6.086Z" fill="#6B6B6B"/></svg>