<svg width="36" height="36" viewBox="0 0 36 36" fill="none" xmlns="http://www.w3.org/2000/svg">
<path d="M18 18C17.5858 18 17.25 18.3358 17.25 18.75C17.25 19.1642 17.5858 19.5 18 19.5H21C21.4142 19.5 21.75 19.1642 21.75 18.75C21.75 18.3358 21.4142 18 21 18H18Z" fill="#6B6B6B"></path>
<path fill-rule="evenodd" clip-rule="evenodd" d="M12.6555 25.5C12.3224 26.7939 11.1479 27.75 9.75 27.75C8.35215 27.75 7.17755 26.7939 6.84452 25.5H3.75C2.92157 25.5 2.25 24.8285 2.25 24V20.2321C2.25 18.5761 3.33626 17.1161 4.92245 16.6403L10.048 15.1025L13.5 10.5C14.2082 9.55575 15.3196 9 16.5 9H25.0327C26.7534 9 28.2533 10.1711 28.6707 11.8405L29.5229 15.2491L31.7957 16.4888C33.0004 17.1459 33.75 18.4086 33.75 19.7809V24C33.75 24.8285 33.0784 25.5 32.25 25.5H29.1555C28.8224 26.7939 27.6479 27.75 26.25 27.75C24.8521 27.75 23.6776 26.7939 23.3445 25.5H12.6555ZM14.7 11.4C15.125 10.8334 15.7918 10.5 16.5 10.5H25.0327C26.0651 10.5 26.965 11.2027 27.2155 12.2043L27.9144 15H12L14.7 11.4ZM10.5932 16.5H28.6951C28.7305 16.5234 28.767 16.5454 28.8046 16.5659L31.0774 17.8056C31.8002 18.1999 32.25 18.9575 32.25 19.7809V24H29.1555C28.8224 22.7061 27.6479 21.75 26.25 21.75C24.8521 21.75 23.6776 22.7061 23.3445 24H12.6555C12.3224 22.7061 11.1479 21.75 9.75 21.75C8.35215 21.75 7.17755 22.7061 6.84452 24H3.75V20.2321C3.75 19.2385 4.40175 18.3625 5.35347 18.077L10.4791 16.5393C10.5178 16.5277 10.5558 16.5146 10.5932 16.5ZM9.75 26.25C8.92155 26.25 8.25 25.5784 8.25 24.75C8.25 23.9215 8.92155 23.25 9.75 23.25C10.5785 23.25 11.25 23.9215 11.25 24.75C11.25 25.5784 10.5785 26.25 9.75 26.25ZM24.75 24.75C24.75 25.5784 25.4216 26.25 26.25 26.25C27.0784 26.25 27.75 25.5784 27.75 24.75C27.75 23.9215 27.0784 23.25 26.25 23.25C25.4216 23.25 24.75 23.9215 24.75 24.75Z" fill="#6B6B6B"></path>
</svg>
