<svg width="24" height="24" viewBox="0 0 24 24" fill="none" xmlns="http://www.w3.org/2000/svg">
<g clip-path="url('#clip0_3372_743')">
<path d="M15 24C14.8 24 14.611 23.922 14.47 23.78L12 21.311L9.53 23.781C9.389 23.922 9.2 24 9 24C8.8 24 8.611 23.922 8.47 23.78C8.328 23.638 8.25 23.45 8.25 23.25C8.25 23.05 8.328 22.861 8.47 22.72L11.25 19.94V18H3C1.759 18 0.75 16.991 0.75 15.75V2.25C0.75 1.009 1.759 0 3 0H21C22.241 0 23.25 1.009 23.25 2.25V15.75C23.25 16.991 22.241 18 21 18H12.75V19.939L15.53 22.719C15.672 22.861 15.75 23.049 15.75 23.249C15.75 23.449 15.672 23.638 15.53 23.779C15.388 23.92 15.2 24 15 24ZM3 1.5C2.586 1.5 2.25 1.836 2.25 2.25V15.75C2.25 16.164 2.586 16.5 3 16.5H21C21.414 16.5 21.75 16.164 21.75 15.75V2.25C21.75 1.836 21.414 1.5 21 1.5H3Z" fill="#252525"></path>
<path d="M11.996 12.75C11.727 12.747 11.48 12.602 11.349 12.372L9.044 8.339L8.171 10.086C8.043 10.341 7.786 10.5 7.5 10.5H4.5C4.086 10.5 3.75 10.164 3.75 9.75C3.75 9.336 4.086 9 4.5 9H7.036L8.329 6.415C8.453 6.167 8.702 6.008 8.979 6C9.269 6 9.518 6.145 9.651 6.378L12.016 10.516L13.607 7.864C13.712 7.689 13.887 7.563 14.086 7.518C14.14 7.506 14.195 7.5 14.25 7.5C14.399 7.5 14.542 7.544 14.666 7.626L16.344 8.745L18.915 5.532C19.057 5.353 19.271 5.25 19.5 5.25C19.669 5.25 19.835 5.308 19.968 5.414C20.292 5.673 20.344 6.146 20.086 6.469L17.086 10.219C16.943 10.397 16.729 10.5 16.5 10.5C16.352 10.5 16.208 10.456 16.084 10.374L14.488 9.31L12.643 12.386C12.508 12.611 12.262 12.75 12 12.75H11.996Z" fill="#252525"></path>
</g>
<defs>
<clipPath id="clip0_3372_743">
<rect width="24" height="24" fill="white"></rect>
</clipPath>
</defs>
</svg>
