<svg width="36" height="36" fill="none" xmlns="http://www.w3.org/2000/svg"><path fill-rule="evenodd" clip-rule="evenodd" d="M6.75 19.5a.75.75 0 0 1 .75-.75H12a.75.75 0 0 1 .75.75v3.75A.75.75 0 0 1 12 24H7.5a.75.75 0 0 1-.75-.75V19.5Zm1.5 3v-2.25h3v2.25h-3Z" fill="#6B6B6B"/><path fill-rule="evenodd" clip-rule="evenodd" d="M11.088 3.235c-.554-1.098-2.121-1.098-2.677 0l-6 11.861a1.5 1.5 0 0 0-.161.677V32.25a1.5 1.5 0 0 0 1.5 1.5h28.5a1.5 1.5 0 0 0 1.5-1.5V21.122a1.5 1.5 0 0 0-.077-.475l-4.29-12.871a1.5 1.5 0 0 0-1.424-1.026h-4.693a.74.74 0 0 0-.033 0h-5.217a.74.74 0 0 0-.033 0h-5.116l-1.779-3.515ZM30 32.25h2.25v-10.5h-15v10.5h2.25V27a.75.75 0 0 1 .75-.75h9A.75.75 0 0 1 30 27v5.25Zm-1.71-12h3.67l-4-12h-3.67l4 12Zm-5.58-12 4 12h-3.67l-4-12h3.67Zm-5.25 0 4 12h-4.21v-4.477a1.5 1.5 0 0 0-.162-.677L13.625 8.25h3.834Zm3.54 24h3v-4.5h-3v4.5Zm7.5 0h-3v-4.5h3v4.5ZM12 27.75v4.5H7.5v-4.5H12Zm1.5-.75v5.25h2.25V16.5h-12v15.75H6V27a.75.75 0 0 1 .75-.75h6a.75.75 0 0 1 .75.75Zm1.859-12L9.75 3.912 4.141 15H15.36Z" fill="#6B6B6B"/></svg>