<svg width="24" height="24" fill="none" xmlns="http://www.w3.org/2000/svg"><g clip-path="url('#clip0_2779_712')" fill="#252525"><path d="M20.25 24A2.252 2.252 0 0 1 18 21.75V21H6v.75A2.252 2.252 0 0 1 3.75 24a2.252 2.252 0 0 1-2.25-2.25v-.879A2.258 2.258 0 0 1 0 18.75a4.338 4.338 0 0 1 .417-1.857c.218-.464.508-.879.863-1.234l1.824-1.824 1.643-4.388A3.014 3.014 0 0 1 7.556 7.5h.694a.75.75 0 0 1 0 1.5h-.691c-.624 0-1.189.391-1.407.973L4.832 13.5h7.918a.75.75 0 0 1 0 1.5H4.061l-1.5 1.5H5.25a.75.75 0 0 1 0 1.5H1.602a2.813 2.813 0 0 0-.102.75c0 .414.336.75.75.75h19.5a.75.75 0 0 0 .75-.75c0-.252-.034-.503-.102-.75H18.75a.75.75 0 0 1 0-1.5h2.689l-.97-.97a.744.744 0 0 1 0-1.06.749.749 0 0 1 1.06 0l1.189 1.189a4.388 4.388 0 0 1 .904 1.32c.251.563.378 1.159.378 1.771a2.26 2.26 0 0 1-1.5 2.122v.879A2.252 2.252 0 0 1 20.25 24Zm-.75-2.25a.75.75 0 0 0 1.5 0V21h-1.5v.75Zm-16.5 0a.75.75 0 0 0 1.5 0V21H3v.75Z"/><path d="M17.25 13.5a6.758 6.758 0 0 1-6.75-6.75A6.758 6.758 0 0 1 17.25 0 6.758 6.758 0 0 1 24 6.75a6.758 6.758 0 0 1-6.75 6.75Zm0-12A5.256 5.256 0 0 0 12 6.75 5.256 5.256 0 0 0 17.25 12a5.256 5.256 0 0 0 5.25-5.25 5.256 5.256 0 0 0-5.25-5.25Z"/><path d="M15.75 10.5a.75.75 0 0 1-.75-.75v-6a.75.75 0 0 1 .75-.75h1.5a2.252 2.252 0 0 1 2.25 2.25 2.252 2.252 0 0 1-2.25 2.25h-.75v2.25a.75.75 0 0 1-.75.75Zm1.5-4.5a.75.75 0 0 0 0-1.5h-.75V6h.75Z"/></g><defs><clipPath id="clip0_2779_712"><path fill="#fff" d="M0 0h24v24H0z"/></clipPath></defs></svg>