<svg width="24" height="24" fill="none" xmlns="http://www.w3.org/2000/svg"><path d="M21.19 13.454a.754.754 0 0 1-.742-.646 8.18 8.18 0 0 0-3.239-5.425.75.75 0 0 1 .887-1.209 9.687 9.687 0 0 1 3.837 6.426.744.744 0 0 1-.144.556.746.746 0 0 1-.599.298ZM3.583 13.454a.751.751 0 0 1-.743-.854 9.69 9.69 0 0 1 3.837-6.425.753.753 0 0 1 1.049.161.752.752 0 0 1-.16 1.049 8.185 8.185 0 0 0-3.24 5.425.756.756 0 0 1-.743.644ZM12.389 23.578a9.686 9.686 0 0 1-4.484-1.1.752.752 0 0 1 .698-1.329 8.177 8.177 0 0 0 7.285.142.754.754 0 0 1 1 .354.748.748 0 0 1-.354 1.001 9.697 9.697 0 0 1-4.145.932Z" fill="#252525"/><path d="M22.124 22.327c-.378 0-.741-.112-1.052-.323l-7.942-5.443a2.697 2.697 0 0 1-1.463.008l-.101.536a3.641 3.641 0 0 1-3.057 2.936l-6.333.929a1.86 1.86 0 0 1-1.379-.315 1.86 1.86 0 0 1-.769-1.21 1.88 1.88 0 0 1 1.032-2.011l8.684-4.156c.121-.48.375-.922.725-1.271l-.413-.353A3.654 3.654 0 0 1 9.04 7.542l2.365-5.954A1.864 1.864 0 0 1 13.792.484a1.874 1.874 0 0 1 1.231 1.911l-.744 9.587c.364.351.619.789.744 1.272l.513-.181c.39-.138.797-.208 1.21-.208 1.121 0 2.163.504 2.859 1.384l3.971 5.022c.311.373.461.857.415 1.355a1.864 1.864 0 0 1-1.867 1.701Zm-.206-1.561a.38.38 0 0 0 .448-.024.371.371 0 0 0 .047-.525l-3.984-5.037a2.13 2.13 0 0 0-1.682-.814c-.243 0-.483.041-.712.122l-1.088.383a2.693 2.693 0 0 1-.459.803l7.43 5.092ZM1.71 18.786a.372.372 0 0 0-.051.64.372.372 0 0 0 .279.062l6.354-.931a2.142 2.142 0 0 0 1.799-1.728l.212-1.132a2.71 2.71 0 0 1-.469-.8L1.71 18.786Zm10.676-6.071c-.676 0-1.226.55-1.226 1.226 0 .676.55 1.226 1.226 1.226.676 0 1.226-.55 1.226-1.226 0-.676-.55-1.226-1.226-1.226Zm.771-10.843a.37.37 0 0 0-.35.246l-2.373 5.976a2.15 2.15 0 0 0 .599 2.42l.872.746a2.643 2.643 0 0 1 .926-.007l.697-8.977a.375.375 0 0 0-.371-.404Z" fill="#252525"/></svg>