<svg width="36" height="36" fill="none" xmlns="http://www.w3.org/2000/svg"><path fill-rule="evenodd" clip-rule="evenodd" d="M30.75 2.25a.75.75 0 0 1 .75.75v11.072l.505.452a3 3 0 0 1 .73 4.976 2.993 2.993 0 0 1 1.015 2.25c0 .896-.393 1.7-1.016 2.25a2.993 2.993 0 0 1 1.016 2.25c0 .896-.393 1.7-1.016 2.25a3 3 0 0 1-1.984 5.25H5.25a3 3 0 0 1-1.984-5.25 2.993 2.993 0 0 1-1.016-2.25c0-.896.393-1.7 1.016-2.25a2.993 2.993 0 0 1-1.016-2.25c0-.896.393-1.7 1.016-2.25a3 3 0 0 1 .73-4.976L17 2.89a1.5 1.5 0 0 1 2 0l11 9.841V3a.75.75 0 0 1 .75-.75Zm-22.901 30H13.5v-3H7.849c.255.441.401.954.401 1.5s-.146 1.059-.401 1.5Zm7.151 0h6v-9h-6v9Zm7.5 0h5.651a2.987 2.987 0 0 1-.401-1.5c0-.546.146-1.059.401-1.5H22.5v3Zm8.25 0a1.5 1.5 0 1 0 0-3 1.5 1.5 0 0 0 0 3Zm-22.901-4.5H13.5v-3H7.849c.255.441.401.954.401 1.5s-.146 1.059-.401 1.5Zm-2.599 0a1.5 1.5 0 1 1 0-3 1.5 1.5 0 0 1 0 3Zm0 1.5a1.5 1.5 0 1 0 0 3 1.5 1.5 0 0 0 0-3Zm17.25-1.5h5.651a2.987 2.987 0 0 1-.401-1.5c0-.546.146-1.059.401-1.5H22.5v3Zm8.25 0a1.5 1.5 0 1 1 0-3 1.5 1.5 0 0 1 0 3Zm-1.5-6a1.5 1.5 0 1 0 3 0 1.5 1.5 0 0 0-3 0Zm-6.75 1.5h5.651a2.987 2.987 0 0 1-.401-1.5c0-.546.146-1.059.401-1.5H7.85c.255.441.401.954.401 1.5s-.146 1.059-.401 1.5H13.5a1.5 1.5 0 0 1 1.5-1.5h6a1.5 1.5 0 0 1 1.5 1.5Zm-15.75-1.5a1.5 1.5 0 1 1-3 0 1.5 1.5 0 0 1 3 0Zm1.099-3H28.15a2.987 2.987 0 0 1-.401-1.5c0-.546.146-1.059.401-1.5H7.85c.255.441.401.954.401 1.5s-.146 1.059-.401 1.5Zm-1.298-4.5L18 4.006 29.449 14.25H6.55Zm24.199 1.5a1.5 1.5 0 1 0 0 3 1.5 1.5 0 0 0 0-3Zm-25.5 3a1.5 1.5 0 1 0 0-3 1.5 1.5 0 0 0 0 3Z" fill="#6B6B6B"/></svg>