<svg width="36" height="36" viewBox="0 0 36 36" fill="none" xmlns="http://www.w3.org/2000/svg">
<path fill-rule="evenodd" clip-rule="evenodd" d="M17.7271 9.18769C16.9119 9.51176 16.4926 10.0554 16.3015 10.6227C16.0957 11.2336 16.1479 11.8986 16.3348 12.3767C16.5109 12.8273 16.6168 13.6643 15.9544 14.1964C14.9671 14.9895 13.7793 15.243 12.7579 15.2602C11.7409 15.2773 10.809 15.0624 10.2485 14.8275C9.79365 14.637 9.56805 14.236 9.47873 13.9143C8.9379 11.9673 8.03138 11.546 7.47287 11.5437C6.82392 11.541 6.13746 12.0616 5.92958 12.8374L3.79432 20.8063L29.1499 27.6003C30.3502 27.9219 31.5839 27.2097 31.9055 26.0094L32.199 24.914C32.2847 24.5941 32.1505 24.2558 31.8687 24.0818L26.2799 20.6302C26.1164 20.5292 25.9738 20.3977 25.8599 20.2428L17.7271 9.18769ZM17.2694 7.75661C17.9144 7.51601 18.5668 7.79779 18.9152 8.27149L27.0681 19.354L32.6569 22.8056C33.5023 23.3277 33.9051 24.3425 33.6479 25.3023L33.3545 26.3976C32.8184 28.398 30.7621 29.5852 28.7617 29.0492L3.40609 22.2552C2.60589 22.0408 2.13101 21.2183 2.34543 20.4181L4.48069 12.4492C4.84255 11.0987 6.06628 10.0379 7.47904 10.0437C8.97458 10.0499 10.2757 11.2149 10.9142 13.4781C11.2978 13.621 11.9756 13.7732 12.7327 13.7604C13.5269 13.7471 14.3315 13.5543 14.9693 13.0629C14.969 13.0524 14.968 13.0392 14.9656 13.0237C14.9608 12.9927 14.9515 12.958 14.9377 12.9228C14.6317 12.1399 14.5538 11.1117 14.8801 10.1437C15.2158 9.14734 15.9731 8.24029 17.2694 7.75661Z" fill="#6B6B6B"></path>
<path d="M21.1001 13.0018L22.0217 14.1853L19.0631 16.4894C18.7364 16.744 18.2651 16.6854 18.0106 16.3585C17.7561 16.0318 17.8147 15.5605 18.1415 15.306L21.1001 13.0018Z" fill="#6B6B6B"></path>
<path d="M22.9431 15.3685L23.8648 16.552L20.9062 18.8562C20.5794 19.1107 20.1081 19.0521 19.8537 18.7253C19.5991 18.3985 19.6577 17.9272 19.9845 17.6728L22.9431 15.3685Z" fill="#6B6B6B"></path>
<path d="M5.82555 19.0212C5.93275 18.621 6.34401 18.3836 6.7441 18.4908L9.64188 19.2672C10.042 19.3745 10.2794 19.7857 10.1722 20.1858C10.065 20.586 9.65373 20.8233 9.25368 20.7162L6.35587 19.9397C5.95578 19.8325 5.71834 19.4212 5.82555 19.0212Z" fill="#6B6B6B"></path>
</svg>
