<svg width="36" height="36" viewBox="0 0 36 36" fill="none" xmlns="http://www.w3.org/2000/svg">
<path d="M13.9161 27.1259C13.5715 26.8962 13.1058 26.9893 12.8761 27.3339C12.6463 27.6786 12.7394 28.1442 13.084 28.374C16.0585 30.357 19.9417 30.357 22.9161 28.374C23.2607 28.1442 23.3539 27.6786 23.1241 27.3339C22.8943 26.9893 22.4287 26.8962 22.084 27.1259C19.6135 28.773 16.3867 28.773 13.9161 27.1259Z" fill="#6B6B6B"></path>
<path d="M15.1261 22.916C13.9979 21.2238 11.5022 21.2238 10.3741 22.916C10.1443 23.2606 9.67866 23.3538 9.33404 23.124C8.98941 22.8942 8.89626 22.4286 9.12606 22.0839C10.8479 19.5012 14.6522 19.5012 16.3741 22.0839C16.6039 22.4286 16.5107 22.8942 16.1661 23.124C15.8215 23.3538 15.3558 23.2606 15.1261 22.916Z" fill="#6B6B6B"></path>
<path d="M20.8741 22.916C22.0022 21.2238 24.4979 21.2238 25.6261 22.916C25.8558 23.2606 26.3215 23.3538 26.6661 23.124C27.0107 22.8942 27.1039 22.4286 26.8741 22.0839C25.1522 19.5012 21.3479 19.5012 19.6261 22.0839C19.3963 22.4286 19.4894 22.8942 19.834 23.124C20.1787 23.3538 20.6443 23.2606 20.8741 22.916Z" fill="#6B6B6B"></path>
<path fill-rule="evenodd" clip-rule="evenodd" d="M30 10.9627V7.5C30 4.18329 27.3167 1.5 24 1.5H12C8.68328 1.5 6 4.18329 6 7.5V10.9625L1.87258 15.5573L1.8592 15.574C1.06962 16.561 1.78925 18 3.02985 18H4.83193C4.66796 18.7295 4.56223 19.4814 4.52038 20.2501L4.5 20.25C2.84079 20.25 1.5 21.5908 1.5 23.25C1.5 24.9092 2.84079 26.25 4.5 26.25C4.845 26.25 5.17823 26.1912 5.4888 26.0827C7.49308 31.0186 12.3377 34.5 18 34.5C23.6622 34.5 28.5068 31.0187 30.5111 26.0828C30.8223 26.1917 31.1557 26.25 31.5001 26.25C33.1594 26.25 34.5001 24.9092 34.5001 23.25C34.5001 21.5908 33.1594 20.25 31.5001 20.25C31.4933 20.25 31.4865 20.25 31.4796 20.2501C31.4378 19.4814 31.3321 18.7295 31.168 18H32.9699C34.2104 18 34.93 16.561 34.1405 15.574L34.1271 15.5573L30 10.9627ZM12 3C9.51173 3 7.5 5.01171 7.5 7.5V10.5H28.5V7.5C28.5 5.01171 26.4883 3 24 3H12ZM31.4768 21.7502C31.4719 21.8195 31.4664 21.8882 31.4604 21.9564C31.4015 22.8886 31.2426 23.7939 30.9969 24.6636C31.1537 24.7195 31.3231 24.75 31.5001 24.75C32.3309 24.75 33.0001 24.0808 33.0001 23.25C33.0001 22.4192 32.3309 21.75 31.5001 21.75C31.4923 21.75 31.4846 21.7501 31.4768 21.7502ZM4.5 21.75L4.5232 21.7502C4.52809 21.8195 4.5336 21.8882 4.53956 21.9564C4.59852 22.8885 4.75741 23.7938 5.00307 24.6635C4.84577 24.7194 4.6762 24.75 4.5 24.75C3.66921 24.75 3 24.0808 3 23.25C3 22.4192 3.66921 21.75 4.5 21.75ZM28.9154 12H7.0843L3.04204 16.5H32.9576L28.9154 12ZM29.6257 18H6.37422C6.13045 18.9581 6 19.9636 6 21V21.135C6 21.3612 6.01333 21.593 6.0346 21.8341L6.03544 21.8437L6.03604 21.8532C6.09935 22.8662 6.29634 23.8448 6.60651 24.7753L6.60937 24.7839C6.6659 24.9605 6.72742 25.1378 6.79386 25.304L6.79757 25.3132C8.52727 29.8104 12.8902 33 18 33C23.1098 33 27.4728 29.8104 29.2025 25.3132L29.206 25.304C29.2725 25.1378 29.3342 24.9605 29.3907 24.7839L29.3934 24.7753C29.7036 23.8448 29.9006 22.8662 29.964 21.8532L29.9645 21.8437L29.9654 21.8341C29.9867 21.593 30 21.3612 30 21.135V21C30 19.9636 29.8696 18.9581 29.6257 18Z" fill="#6B6B6B"></path>
</svg>
