<svg width="36" height="36" fill="none" xmlns="http://www.w3.org/2000/svg"><path fill-rule="evenodd" clip-rule="evenodd" d="M20.25 7.5a.75.75 0 0 0 0 1.5h2.238l-.55 1.283a1.5 1.5 0 0 0 .002 1.187l.943 2.175-4.295 6.748-2.49-7.47.442.12a.75.75 0 1 0 .389-1.45l-3.985-1.067a.75.75 0 1 0-.388 1.448l1.806.484.808 2.424-2.653 2.194a6.375 6.375 0 1 0 2.434 5.84l3.415-.04a.746.746 0 0 0 .33-.073.748.748 0 0 0 .312-.275l4.595-7.221.566 1.306a6.375 6.375 0 1 0 1.376-.597l-2.228-5.143.55-1.282a1.5 1.5 0 0 0-1.38-2.091H20.25Zm-2.912 13.887-1.66-4.98-2.084 1.724c.74.92 1.23 2.049 1.367 3.284l2.377-.028Zm-3.887.046a4.852 4.852 0 0 0-1.013-2.345L9.583 21.45h2.412l1.456-.017Zm-2.128-3.369a4.875 4.875 0 1 0 2.11 4.87L12 22.95H9.583c-1.406 0-2.04-1.76-.956-2.656l2.696-2.23Zm13.448-.061 1.916 4.42a.75.75 0 0 0 1.376-.596l-1.916-4.421a4.875 4.875 0 1 1-1.376.597Z" fill="#6B6B6B"/></svg>