<svg width="24" height="24" viewBox="0 0 24 24" fill="none" xmlns="http://www.w3.org/2000/svg">
<path d="M1.75 24C0.785 24 0 23.215 0 22.25V10.75C0 9.785 0.785 9 1.75 9H3V5.905C1.697 5.567 0.75 4.372 0.75 3C0.75 1.346 2.096 0 3.75 0H17.25C18.904 0 20.25 1.346 20.25 3C20.25 4.372 19.303 5.567 18 5.905V9H20.75C21.715 9 22.5 9.785 22.5 10.75V18H23.25C23.664 18 24 18.336 24 18.75C24 19.164 23.664 19.5 23.25 19.5H22.5V22.25C22.5 23.215 21.715 24 20.75 24H1.75ZM1.5 22.25C1.5 22.388 1.612 22.5 1.75 22.5H20.75C20.888 22.5 21 22.388 21 22.25V21H1.5V22.25ZM21 19.5V10.75C21 10.612 20.888 10.5 20.75 10.5H1.75C1.612 10.5 1.5 10.612 1.5 10.75V19.5H21ZM16.5 9V5.25C16.5 4.836 16.836 4.5 17.25 4.5C18.077 4.5 18.75 3.827 18.75 3C18.75 2.173 18.077 1.5 17.25 1.5H3.75C2.923 1.5 2.25 2.173 2.25 3C2.25 3.827 2.923 4.5 3.75 4.5C4.164 4.5 4.5 4.836 4.5 5.25V9H16.5Z" fill="#252525"></path>
<path d="M18 17.625C18.6213 17.625 19.125 17.1213 19.125 16.5C19.125 15.8787 18.6213 15.375 18 15.375C17.3787 15.375 16.875 15.8787 16.875 16.5C16.875 17.1213 17.3787 17.625 18 17.625Z" fill="#252525"></path>
</svg>
