<svg width="24" height="24" fill="none" xmlns="http://www.w3.org/2000/svg"><g clip-path="url('#clip0_2779_710')" fill="#252525"><path d="M21 6c-1.654 0-3-1.346-3-3s1.346-3 3-3 3 1.346 3 3-1.346 3-3 3Zm0-4.5c-.827 0-1.5.673-1.5 1.5s.673 1.5 1.5 1.5 1.5-.673 1.5-1.5-.673-1.5-1.5-1.5ZM17.984 17.997a2.238 2.238 0 0 1-1.856-.998c-.333-.5-.452-1.1-.334-1.689l.75-3.75a2.255 2.255 0 0 1 2.206-1.809h.75v-1.5A2.252 2.252 0 0 1 21.75 6 2.252 2.252 0 0 1 24 8.25V12a2.252 2.252 0 0 1-2.25 2.25h-1.156l-.388 1.942a2.28 2.28 0 0 1-2.222 1.805Zm.766-6.747a.753.753 0 0 0-.736.603l-.75 3.75a.742.742 0 0 0 .112.563.745.745 0 0 0 .61.331.77.77 0 0 0 .752-.607l.507-2.538a.752.752 0 0 1 .735-.603h1.77a.75.75 0 0 0 .75-.75V8.25a.75.75 0 0 0-1.5 0v2.25a.75.75 0 0 1-.75.75h-1.5ZM3 9.75c-1.654 0-3-1.346-3-3s1.346-3 3-3 3 1.346 3 3-1.346 3-3 3Zm0-4.5c-.827 0-1.5.673-1.5 1.5s.673 1.5 1.5 1.5 1.5-.673 1.5-1.5-.673-1.5-1.5-1.5ZM5.999 21.751a2.262 2.262 0 0 1-2.196-1.765l-.009-.037L3.405 18H2.25A2.252 2.252 0 0 1 0 15.75V12a2.252 2.252 0 0 1 2.25-2.25A2.252 2.252 0 0 1 4.5 12v1.5h.75c1.069 0 1.997.761 2.206 1.809l.75 3.75c.118.589 0 1.189-.334 1.689-.333.5-.841.84-1.431.958-.146.03-.294.045-.442.045Zm-.734-2.099a.75.75 0 0 0 1.47-.299l-.75-3.75A.752.752 0 0 0 5.25 15h-1.5a.75.75 0 0 1-.75-.75V12a.75.75 0 0 0-1.5 0v3.75c0 .414.336.75.75.75h1.771c.356 0 .666.254.736.603l.502 2.518c-.001.001.003.015.006.031Z"/><path d="M.749 21a.752.752 0 0 1-.626-1.162.74.74 0 0 1 .475-.322l1.438-.297a.753.753 0 0 1 .886.582.745.745 0 0 1-.108.564.74.74 0 0 1-.475.322L.9 20.984A.694.694 0 0 1 .749 21ZM9.75 24a.75.75 0 0 1 0-1.5h1.5v-3.656l-1.417.293a.752.752 0 0 1-.886-.582.75.75 0 0 1 .582-.886l4.46-.924a.752.752 0 0 1 .887.582.75.75 0 0 1-.581.886l-1.544.32V22.5h1.5a.75.75 0 1 1-.001 1.5h-4.5ZM21.63 16.68a.75.75 0 0 1-.152-1.484l1.588-.329a.751.751 0 0 1 .886.582.75.75 0 0 1-.582.886l-1.587.329a.688.688 0 0 1-.152.016Z"/></g><defs><clipPath id="clip0_2779_710"><path fill="#fff" d="M0 0h24v24H0z"/></clipPath></defs></svg>