<svg width="36" height="36" fill="none" xmlns="http://www.w3.org/2000/svg"><path d="M12.586 6.468a.75.75 0 0 0-1.172-.937l-.168.21a3.415 3.415 0 0 0 0 4.267l.026.033c.126.157.268.302.422.43.72.6.72 1.707 0 2.307l-.174.146a.75.75 0 1 0 .96 1.152l.175-.145a3.001 3.001 0 0 0 0-4.612 1.502 1.502 0 0 1-.211-.215l-.027-.033c-.56-.7-.56-1.693 0-2.392l.169-.21Z" fill="#6B6B6B"/><path fill-rule="evenodd" clip-rule="evenodd" d="M28.5 8.25a3 3 0 1 1-6 0 3 3 0 0 1 6 0Zm-1.5 0a1.5 1.5 0 1 1-3 0 1.5 1.5 0 0 1 3 0Z" fill="#6B6B6B"/><path d="M27.872 24.287a8.25 8.25 0 0 1-7.622 5.093.75.75 0 0 1 0-1.5 6.75 6.75 0 0 0 6.236-4.167.75.75 0 1 1 1.386.574Z" fill="#6B6B6B"/><path fill-rule="evenodd" clip-rule="evenodd" d="M33 18h-3v-1.5a4.5 4.5 0 1 0-9 0V18H3a.723.723 0 0 0-.732.75 15.75 15.75 0 0 0 4.077 9.844L2.47 32.47a.75.75 0 1 0 1.06 1.06l3.876-3.875a15.747 15.747 0 0 0 21.188 0l3.876 3.875a.75.75 0 1 0 1.06-1.06l-3.875-3.876a15.749 15.749 0 0 0 4.077-9.844A.723.723 0 0 0 33 18Zm-.83 1.5H3.83a14.25 14.25 0 0 0 28.34 0Zm-3.67-3V18h-6v-1.5a3 3 0 0 1 6 0Z" fill="#6B6B6B"/><path d="M7.968 6.914a.75.75 0 0 1 .118 1.055l-.169.21c-.56.699-.56 1.693 0 2.392l.027.033a1.5 1.5 0 0 0 .21.215 3.001 3.001 0 0 1 0 4.612l-.174.145a.75.75 0 1 1-.96-1.152l.174-.146c.72-.6.72-1.706 0-2.306a3.005 3.005 0 0 1-.422-.431l-.026-.033a3.415 3.415 0 0 1 0-4.266l.168-.21a.75.75 0 0 1 1.054-.118ZM17.086 7.969a.75.75 0 0 0-1.172-.938l-.168.21a3.415 3.415 0 0 0 0 4.267l.026.033c.126.157.268.302.422.43.72.6.72 1.707 0 2.307l-.174.146a.75.75 0 1 0 .96 1.152l.175-.145a3.001 3.001 0 0 0 0-4.612 1.504 1.504 0 0 1-.212-.215l-.026-.033c-.56-.7-.56-1.693 0-2.392l.169-.21Z" fill="#6B6B6B"/></svg>