<svg width="24" height="24" fill="none" xmlns="http://www.w3.org/2000/svg"><g clip-path="url('#clip0_2779_715')" fill="#252525"><path d="M.722 21.004a.75.75 0 0 1 0-1.5h7.5a.75.75 0 0 1 0 1.5h-7.5Z"/><path d="M19.269 24.017c-.191 0-.383-.025-.57-.073a2.231 2.231 0 0 1-1.374-1.04l-2.353-4v2.85a2.252 2.252 0 0 1-2.25 2.25 2.252 2.252 0 0 1-2.25-2.25v-3.75h-.75a2.24 2.24 0 0 1-2.013-1.244l-1.371-2.74-2.316 3.084a2.262 2.262 0 0 1-1.802.899c-.489 0-.955-.155-1.347-.448a2.235 2.235 0 0 1-.877-1.482 2.236 2.236 0 0 1 .426-1.668l4.5-6a2.236 2.236 0 0 1 2.008-.892 2.23 2.23 0 0 1 1.805 1.234l2.378 4.756h4.609a2.26 2.26 0 0 1 1.929 1.092 105469.687 105469.687 0 0 0 3.555 6.032c.304.518.388 1.124.237 1.706a2.231 2.231 0 0 1-1.039 1.374c-.345.203-.738.31-1.135.31Zm-4.397-7.513c.265 0 .512.142.646.37l3.1 5.272a.749.749 0 1 0 1.294-.758l-3.551-6.025a.75.75 0 0 0-.64-.36h-5.073a.747.747 0 0 1-.671-.413L7.393 9.418a.743.743 0 0 0-.675-.415.736.736 0 0 0-.592.297l-4.504 6.005a.746.746 0 0 0 .598 1.198c.24 0 .459-.11.601-.3l3.044-4.053a.754.754 0 0 1 .666-.297.748.748 0 0 1 .605.41l1.914 3.825a.746.746 0 0 0 .671.415h1.501a.75.75 0 0 1 .75.75v4.5a.75.75 0 0 0 1.5 0v-4.5a.75.75 0 0 1 .75-.75h.65ZM7.472 7.128a3.379 3.379 0 0 1-3.375-3.375A3.379 3.379 0 0 1 7.472.378a3.379 3.379 0 0 1 3.375 3.375 3.379 3.379 0 0 1-3.375 3.375Zm0-5.25a1.877 1.877 0 0 0-1.875 1.875c0 1.034.84 1.875 1.875 1.875a1.877 1.877 0 0 0 1.875-1.875 1.877 1.877 0 0 0-1.875-1.875ZM22.428 6.751a.753.753 0 0 1-.6-.3c-1.463-1.952-.706-2.948-.204-3.607.394-.518.611-.803.133-1.757a.746.746 0 0 1 .67-1.086c.286 0 .543.159.671.415.895 1.79.187 2.72-.281 3.336-.406.533-.573.754.21 1.799.12.16.171.358.142.556a.742.742 0 0 1-.293.494.735.735 0 0 1-.448.15ZM18.678 6.751a.753.753 0 0 1-.6-.3c-1.463-1.952-.706-2.948-.204-3.607.394-.518.611-.803.133-1.757a.746.746 0 0 1 .67-1.086c.286 0 .544.159.671.415.895 1.79.187 2.72-.281 3.336-.406.533-.573.754.21 1.799.12.16.171.358.142.556a.742.742 0 0 1-.293.494.735.735 0 0 1-.448.15ZM14.928 6.751a.753.753 0 0 1-.6-.3c-1.463-1.952-.706-2.948-.204-3.607.394-.518.611-.803.133-1.757a.746.746 0 0 1 .67-1.086c.287 0 .544.159.671.415.895 1.79.187 2.72-.281 3.336-.406.533-.573.754.21 1.799.12.16.171.358.142.556a.742.742 0 0 1-.293.494.735.735 0 0 1-.448.15Z"/></g><defs><clipPath id="clip0_2779_715"><path fill="#fff" d="M0 0h24v24H0z"/></clipPath></defs></svg>