<svg width="36" height="36" fill="none" xmlns="http://www.w3.org/2000/svg"><path d="M33.404 18.128a.936.936 0 0 0-.217-.33 2.426 2.426 0 0 0-.315-.255 4.345 4.345 0 0 0-.953-.443c-.795-.277-1.8-.465-2.91-.548-.127-.007-.262-.007-.397-.014.142-.833.21-1.68.21-2.536 0-1.072-.12-2.055-.353-2.857-.12-.412-.247-.727-.375-.922-.15-.286-.33-.48-.525-.578l-.225-.075a1.503 1.503 0 0 0-.45-.037c-.292.007-.645.075-1.035.18-.817.232-1.747.652-2.7 1.215-.42.254-.817.524-1.2.794-.255-.63-.54-1.245-.877-1.822-.548-.938-1.148-1.732-1.733-2.295a4.128 4.128 0 0 0-.817-.638c-.173-.097-.435-.217-.675-.217-.098 0-.203.015-.368.075-.082.037-.195.082-.3.157a4.36 4.36 0 0 0-.817.683c-.585.608-1.185 1.433-1.725 2.392a16.31 16.31 0 0 0-.788 1.628c-.45-.33-.907-.645-1.38-.915-.922-.525-1.837-.915-2.64-1.117-.697-.18-1.275-.24-1.755.022l-.15.112-.075.09a1.651 1.651 0 0 0-.225.338 4.476 4.476 0 0 0-.352.982c-.203.81-.308 1.83-.3 2.948.015.787.097 1.553.21 2.295-.203.008-.405.015-.63.037-1.08.098-2.048.308-2.813.6-.367.143-.675.3-.915.465-.277.195-.442.39-.517.6l-.053.203a1.803 1.803 0 0 0 0 .45c.045.307.135.645.27 1.012.308.796.81 1.688 1.448 2.573 1.537 2.137 3.592 3.915 5.647 4.875 1.733.803 3.9 1.238 6.113 1.238.42 0 .84-.015 1.252-.045.3-.023.585-.053.855-.09a14 14 0 0 0 .848.09c.42.03.84.044 1.26.044 2.212 0 4.387-.434 6.112-1.237 3.03-1.418 4.935-3.705 5.798-4.942.63-.9 1.095-1.785 1.357-2.543.12-.352.203-.69.233-.982v-.03c.022-.3 0-.533-.06-.638l.007.008Zm-9.472-5.918c.825-.488 1.657-.87 2.34-1.065.255-.067.435-.098.57-.12.045.09.112.248.195.525.187.652.292 1.522.292 2.438 0 1.05-.12 2.092-.352 3.09a12.458 12.458 0 0 1-1.365 3.54c-1.013 1.747-2.768 3.45-4.815 4.665l-.315.18-.068.037c.105-.157.21-.315.308-.473.097-.15.187-.307.285-.472l.067-.12c1.088-1.927 1.785-4.087 1.973-6.082.037-.338.06-.713.06-1.103 0-.352-.015-.712-.045-1.073-.008-.12-.03-.24-.045-.36a8.87 8.87 0 0 0-.172-1.155c-.046-.217-.09-.442-.143-.66-.038-.15-.075-.3-.12-.45-.038-.12-.06-.247-.098-.367.443-.338.93-.668 1.44-.968l.008-.007Zm-6.488-3.495c.188-.195.33-.315.435-.39.098.068.24.18.428.36.48.457 1.005 1.155 1.477 1.965.45.772.833 1.612 1.125 2.505.465 1.38.705 2.76.705 4.095 0 .337-.015.652-.052.953-.165 1.8-.803 3.75-1.785 5.49l-.068.112c-.082.143-.157.277-.247.42a9.611 9.611 0 0 1-1.178 1.552c-.06.06-.12.12-.187.18-.09.083-.165.143-.24.203a3.876 3.876 0 0 1-.24-.203c-.053-.052-.113-.105-.173-.165a9.56 9.56 0 0 1-1.192-1.575c-.09-.134-.165-.277-.255-.427l-.053-.09c-.982-1.747-1.62-3.697-1.792-5.512-.03-.285-.045-.6-.045-.938 0-.96.15-1.995.442-3.06.098-.352.21-.705.338-1.065.292-.81.652-1.598 1.065-2.332.472-.84 1.005-1.583 1.5-2.085l-.008.007Zm-8.707 2.85a3.82 3.82 0 0 1 .18-.547c.127.007.315.03.547.097.668.165 1.47.51 2.258.96.532.308 1.065.668 1.575 1.065-.045.127-.068.255-.113.383l-.135.472c-.06.225-.105.45-.157.675-.03.143-.068.293-.09.435-.045.247-.075.487-.105.727-.015.12-.038.24-.045.36-.03.36-.053.713-.053 1.058 0 .39.023.765.053 1.087.187 2.003.892 4.17 1.98 6.105l.052.098c.098.172.195.338.285.48.105.165.21.33.315.488l-.382-.218c-2.055-1.215-3.81-2.918-4.815-4.665-.593-1.027-1.035-2.235-1.313-3.608a15.007 15.007 0 0 1-.322-2.894c0-.975.082-1.883.255-2.566l.03.008Zm-3.525 9.938c-.563-.78-1.013-1.576-1.26-2.228a4.215 4.215 0 0 1-.165-.57c.105-.06.262-.142.502-.232.623-.24 1.478-.42 2.4-.51.278-.023.533-.038.78-.046.023.098.053.195.083.293l.112.405c.06.21.128.413.195.608.045.127.083.247.128.375.082.21.165.412.255.614.045.098.082.203.127.3.135.293.285.578.443.855 1.132 1.965 3.082 3.863 5.355 5.206.037.022.067.037.105.06v.03l.037.157c.015.038.03.067.045.098-1.485-.136-2.902-.48-4.072-1.028-1.83-.855-3.675-2.453-5.063-4.395l-.007.008Zm26.602-2.213c-.21.623-.622 1.387-1.162 2.168-1.328 1.897-3.218 3.517-5.198 4.447-1.162.54-2.557.877-4.027 1.02l.022-.03v-.247c.038-.023.068-.038.105-.06 2.265-1.343 4.215-3.24 5.348-5.206.165-.277.315-.57.457-.862.045-.09.083-.18.12-.27.098-.21.188-.42.278-.637.045-.113.082-.226.127-.338.075-.202.143-.405.21-.607l.113-.375c.022-.09.06-.18.082-.27.203 0 .405.015.608.03.967.075 1.867.24 2.527.472.248.09.42.165.533.233-.023.12-.06.3-.143.547v-.015Z" fill="#6B6B6B"/></svg>