<svg width="20" height="20" fill="none" xmlns="http://www.w3.org/2000/svg"><path fill-rule="evenodd" clip-rule="evenodd" d="M3.684 3.79a.895.895 0 0 0-.894.871 13.421 13.421 0 0 0 12.549 12.55.895.895 0 0 0 .871-.895v-2.973l-3.203-1.282-.95 1.584a.895.895 0 0 1-1.163.342 10.737 10.737 0 0 1-4.88-4.88.895.895 0 0 1 .341-1.164l1.584-.95L6.657 3.79H3.684ZM1.786 2.785A2.684 2.684 0 0 1 3.684 2h3.58c.365 0 .694.223.83.562l1.79 4.474a.895.895 0 0 1-.371 1.1l-1.498.898a8.947 8.947 0 0 0 2.95 2.95l.9-1.497a.895.895 0 0 1 1.099-.37l4.474 1.79c.34.135.562.464.562.83v3.579a2.684 2.684 0 0 1-2.739 2.682A15.21 15.21 0 0 1 1 4.684c0-.712.283-1.394.786-1.898Z" fill="#252525"/></svg>