<svg width="36" height="36" fill="none" xmlns="http://www.w3.org/2000/svg"><path fill-rule="evenodd" clip-rule="evenodd" d="M12 6v2.25H3a1.5 1.5 0 0 0-1.5 1.5V21a1.5 1.5 0 0 0 .762 1.306 1.516 1.516 0 0 0-.012.194v6.75a1.5 1.5 0 0 0 1.5 1.5h28.5a1.5 1.5 0 0 0 1.5-1.5V22.5c0-.066-.004-.13-.012-.194A1.5 1.5 0 0 0 34.5 21V9.75a1.5 1.5 0 0 0-1.5-1.5h-9V6a1.5 1.5 0 0 0-1.5-1.5h-9A1.5 1.5 0 0 0 12 6Zm10.5 0h-9v2.25h9V6ZM33 9.75V21H21v-.75a1.5 1.5 0 0 0-1.5-1.5h-3a1.5 1.5 0 0 0-1.5 1.5V21H3V9.75h30ZM15 22.5H3.75v6.75h28.5V22.5H21v.75a1.5 1.5 0 0 1-1.5 1.5h-3a1.5 1.5 0 0 1-1.5-1.5v-.75Zm1.5-2.25h3v3h-3v-3Z" fill="#6B6B6B"/></svg>