<svg width="24" height="24" viewBox="0 0 24 24" fill="none" xmlns="http://www.w3.org/2000/svg">
<path d="M12 22.53C9.932 22.53 8.25 20.848 8.25 18.78C8.25 16.712 9.932 15.03 12 15.03C14.068 15.03 15.75 16.712 15.75 18.78C15.75 20.848 14.068 22.53 12 22.53ZM12 16.53C10.759 16.53 9.75 17.539 9.75 18.78C9.75 20.021 10.759 21.03 12 21.03C13.241 21.03 14.25 20.021 14.25 18.78C14.25 17.539 13.241 16.53 12 16.53Z" fill="#252525"></path>
<path d="M17.2998 14.227C17.0998 14.227 16.9108 14.149 16.7698 14.007C15.4978 12.735 13.8018 12.034 11.9968 12.034C10.1918 12.034 8.49685 12.735 7.22385 14.007C7.08185 14.149 6.89385 14.227 6.69385 14.227C6.49385 14.227 6.30485 14.149 6.16385 14.007C6.02185 13.865 5.94385 13.677 5.94385 13.477C5.94385 13.277 6.02185 13.088 6.16385 12.947C7.71985 11.391 9.79085 10.535 11.9968 10.535C14.2028 10.535 16.2748 11.392 17.8298 12.947C17.9718 13.089 18.0498 13.277 18.0498 13.477C18.0498 13.677 17.9718 13.866 17.8298 14.007C17.6878 14.148 17.4998 14.227 17.2998 14.227Z" fill="#252525"></path>
<path d="M20.4849 11.045C20.2849 11.045 20.0959 10.967 19.9549 10.825C17.8329 8.70499 15.0079 7.53699 11.9999 7.53699C8.99189 7.53699 6.16689 8.70499 4.04489 10.826C3.90289 10.968 3.71489 11.046 3.51489 11.046C3.31489 11.046 3.12589 10.968 2.98489 10.826C2.84289 10.684 2.76489 10.496 2.76489 10.296C2.76489 10.096 2.84289 9.90699 2.98489 9.76599C5.38889 7.36099 8.59089 6.03699 11.9999 6.03699C15.4089 6.03699 18.6109 7.36099 21.0149 9.76499C21.1569 9.90599 21.2349 10.095 21.2349 10.295C21.2349 10.495 21.1569 10.684 21.0149 10.825C20.8739 10.967 20.6849 11.045 20.4849 11.045Z" fill="#252525"></path>
<path d="M0.749968 7.462C0.542968 7.462 0.342968 7.375 0.200968 7.223C-0.0810321 6.921 -0.064032 6.445 0.237968 6.163C3.42897 3.19 7.60597 1.552 12 1.552C16.395 1.552 20.571 3.19 23.761 6.163C24.063 6.445 24.08 6.92 23.799 7.223C23.657 7.375 23.457 7.462 23.25 7.462C23.06 7.462 22.878 7.39 22.739 7.261C19.827 4.546 16.013 3.051 12 3.051C7.98697 3.051 4.17297 4.546 1.26097 7.26C1.12197 7.39 0.939968 7.462 0.749968 7.462Z" fill="#252525"></path>
</svg>
