<svg width="24" height="24" fill="none" xmlns="http://www.w3.org/2000/svg"><g clip-path="url('#clip0_3372_743')" fill="#252525"><path d="M15 24a.743.743 0 0 1-.53-.22L12 21.311l-2.47 2.47a.746.746 0 0 1-1.06-.001.744.744 0 0 1 0-1.06l2.78-2.78V18H3a2.252 2.252 0 0 1-2.25-2.25V2.25A2.252 2.252 0 0 1 3 0h18a2.252 2.252 0 0 1 2.25 2.25v13.5A2.252 2.252 0 0 1 21 18h-8.25v1.939l2.78 2.78a.744.744 0 0 1 0 1.06A.75.75 0 0 1 15 24ZM3 1.5a.75.75 0 0 0-.75.75v13.5c0 .414.336.75.75.75h18a.75.75 0 0 0 .75-.75V2.25A.75.75 0 0 0 21 1.5H3Z"/><path d="M11.996 12.75a.754.754 0 0 1-.647-.378L9.044 8.339l-.873 1.747a.747.747 0 0 1-.671.414h-3a.75.75 0 0 1 0-1.5h2.536l1.293-2.585A.75.75 0 0 1 8.979 6a.76.76 0 0 1 .672.378l2.365 4.138 1.591-2.652a.756.756 0 0 1 .643-.364.75.75 0 0 1 .416.126l1.678 1.119 2.571-3.213a.744.744 0 0 1 .585-.282.751.751 0 0 1 .586 1.219l-3 3.75a.75.75 0 0 1-1.002.155L14.488 9.31l-1.845 3.076a.753.753 0 0 1-.643.364h-.004Z"/></g><defs><clipPath id="clip0_3372_743"><path fill="#fff" d="M0 0h24v24H0z"/></clipPath></defs></svg>