<svg width="40" height="40" fill="none" xmlns="http://www.w3.org/2000/svg"><g clip-path="url('#clip0_3611_475')"><rect width="40" height="40" rx="20" fill="url('#paint0_radial_3611_475')"/><rect width="40" height="40" rx="20" fill="url('#paint1_radial_3611_475')"/><path d="M20 9c-2.987 0-3.362.013-4.535.066-1.171.054-1.97.24-2.67.511a5.388 5.388 0 0 0-1.948 1.269 5.402 5.402 0 0 0-1.27 1.948c-.273.7-.458 1.5-.511 2.67C9.014 16.637 9 17.013 9 20c0 2.987.013 3.361.066 4.535.054 1.17.24 1.97.512 2.67a5.39 5.39 0 0 0 1.268 1.948 5.387 5.387 0 0 0 1.948 1.27c.7.272 1.5.457 2.67.51 1.174.054 1.548.067 4.536.067 2.987 0 3.361-.013 4.535-.067 1.17-.053 1.97-.238 2.67-.51a5.383 5.383 0 0 0 1.948-1.27 5.4 5.4 0 0 0 1.27-1.948c.27-.7.456-1.5.51-2.67C30.986 23.36 31 22.987 31 20s-.014-3.362-.067-4.536c-.055-1.17-.24-1.97-.51-2.67a5.4 5.4 0 0 0-1.27-1.948 5.378 5.378 0 0 0-1.948-1.268c-.701-.273-1.501-.458-2.672-.512C23.359 9.013 22.986 9 19.998 9H20Zm-.986 1.982h.987c2.937 0 3.285.01 4.445.064 1.072.049 1.654.228 2.042.378.514.2.88.438 1.264.823.385.385.624.752.823 1.265.151.387.33.97.38 2.042.052 1.16.063 1.508.063 4.443 0 2.936-.011 3.284-.064 4.444-.049 1.073-.228 1.655-.379 2.042-.199.513-.438.879-.823 1.264a3.4 3.4 0 0 1-1.264.822c-.387.152-.97.33-2.042.38-1.16.052-1.508.063-4.445.063-2.938 0-3.286-.011-4.445-.064-1.073-.05-1.655-.228-2.043-.379-.513-.2-.88-.438-1.265-.823a3.41 3.41 0 0 1-.823-1.264c-.15-.387-.33-.97-.379-2.042-.053-1.16-.063-1.508-.063-4.445 0-2.938.01-3.284.063-4.444.05-1.072.229-1.654.38-2.042.198-.514.437-.88.822-1.265a3.413 3.413 0 0 1 1.265-.823c.388-.152.97-.33 2.043-.38 1.015-.045 1.408-.06 3.458-.062v.003Z" fill="#fff"/><path d="M25.849 12.782a1.32 1.32 0 1 0 0 2.642 1.32 1.32 0 0 0 0-2.643Z" fill="#fff"/><path fill-rule="evenodd" clip-rule="evenodd" d="M19.977 14.324a5.65 5.65 0 1 0 0 11.299 5.65 5.65 0 0 0 0-11.299ZM20 23.609a3.61 3.61 0 1 0 0-7.218 3.61 3.61 0 0 0 0 7.218Z" fill="#fff"/><path d="M20 9c-2.987 0-3.362.013-4.535.066-1.171.054-1.97.24-2.67.511a5.388 5.388 0 0 0-1.948 1.269 5.402 5.402 0 0 0-1.27 1.948c-.273.7-.458 1.5-.511 2.67C9.014 16.637 9 17.013 9 20c0 2.987.013 3.361.066 4.535.054 1.17.24 1.97.512 2.67a5.39 5.39 0 0 0 1.268 1.948 5.387 5.387 0 0 0 1.948 1.27c.7.272 1.5.457 2.67.51 1.174.054 1.548.067 4.536.067 2.987 0 3.361-.013 4.535-.067 1.17-.053 1.97-.238 2.67-.51a5.383 5.383 0 0 0 1.948-1.27 5.4 5.4 0 0 0 1.27-1.948c.27-.7.456-1.5.51-2.67C30.986 23.36 31 22.987 31 20s-.014-3.362-.067-4.536c-.055-1.17-.24-1.97-.51-2.67a5.4 5.4 0 0 0-1.27-1.948 5.378 5.378 0 0 0-1.948-1.268c-.701-.273-1.501-.458-2.672-.512C23.359 9.013 22.986 9 19.998 9H20Zm-.986 1.982h.987c2.937 0 3.285.01 4.445.064 1.072.049 1.654.228 2.042.378.514.2.88.438 1.264.823.385.385.624.752.823 1.265.151.387.33.97.38 2.042.052 1.16.063 1.508.063 4.443 0 2.936-.011 3.284-.064 4.444-.049 1.073-.228 1.655-.379 2.042-.199.513-.438.879-.823 1.264a3.4 3.4 0 0 1-1.264.822c-.387.152-.97.33-2.042.38-1.16.052-1.508.063-4.445.063-2.938 0-3.286-.011-4.445-.064-1.073-.05-1.655-.228-2.043-.379-.513-.2-.88-.438-1.265-.823a3.41 3.41 0 0 1-.823-1.264c-.15-.387-.33-.97-.379-2.042-.053-1.16-.063-1.508-.063-4.445 0-2.938.01-3.284.063-4.444.05-1.072.229-1.654.38-2.042.198-.514.437-.88.822-1.265a3.413 3.413 0 0 1 1.265-.823c.388-.152.97-.33 2.043-.38 1.015-.045 1.408-.06 3.458-.062v.003Z" fill="#fff"/><path d="M25.849 12.782a1.32 1.32 0 1 0 0 2.642 1.32 1.32 0 0 0 0-2.643Z" fill="#fff"/><path fill-rule="evenodd" clip-rule="evenodd" d="M19.977 14.324a5.65 5.65 0 1 0 0 11.299 5.65 5.65 0 0 0 0-11.299ZM20 23.609a3.61 3.61 0 1 0 0-7.218 3.61 3.61 0 0 0 0 7.218Z" fill="#fff"/></g><defs><radialGradient id="paint0_radial_3611_475" cx="0" cy="0" r="1" gradientUnits="userSpaceOnUse" gradientTransform="rotate(-115.776 31.146 12.094) scale(54.5473 81.133)"><stop offset=".244" stop-color="#FF1B90"/><stop offset=".437" stop-color="#F80261"/><stop offset=".688" stop-color="#ED00C0"/><stop offset=".777" stop-color="#C500E9"/><stop offset=".893" stop-color="#7017FF"/></radialGradient><radialGradient id="paint1_radial_3611_475" cx="0" cy="0" r="1" gradientUnits="userSpaceOnUse" gradientTransform="matrix(12.71998 -19.91999 20.71966 13.2306 14.5 38.62)"><stop stop-color="#FFD600"/><stop offset=".484" stop-color="#FF6930"/><stop offset=".734" stop-color="#FE3B36"/><stop offset="1" stop-color="#FE3B36" stop-opacity="0"/></radialGradient><clipPath id="clip0_3611_475"><path fill="#fff" d="M0 0h40v40H0z"/></clipPath></defs></svg>