<svg width="26" height="24" fill="none" xmlns="http://www.w3.org/2000/svg"><path d="M2.439 11.537C8.546 8.82 12.618 7.03 14.656 6.164c5.817-2.47 7.026-2.9 7.814-2.914.173-.003.56.041.812.249.212.176.27.413.298.58.028.166.063.545.035.841-.315 3.382-1.68 11.59-2.373 15.378-.294 1.602-.872 2.14-1.432 2.192-1.217.115-2.14-.82-3.319-1.61-1.843-1.233-2.885-2.001-4.675-3.205-2.068-1.392-.727-2.157.452-3.407.308-.327 5.668-5.305 5.772-5.756.013-.057.025-.267-.098-.378-.122-.112-.303-.074-.433-.043-.185.043-3.13 2.03-8.837 5.963-.836.586-1.593.871-2.271.857-.748-.017-2.187-.432-3.257-.787-1.312-.436-2.354-.666-2.263-1.405.047-.385.566-.78 1.558-1.182Z" fill="#DD6A24"/></svg>