<svg width="40" height="40" fill="none" xmlns="http://www.w3.org/2000/svg"><path d="M20 40c11.046 0 20-8.954 20-20S31.046 0 20 0 0 8.954 0 20s8.954 20 20 20Z" fill="url('#paint0_linear_3887_1853')"/><path d="M7.449 20.978c2.337-1.288 4.947-2.362 7.386-3.443 4.195-1.77 8.407-3.508 12.661-5.127.828-.276 2.315-.545 2.461.681-.08 1.736-.408 3.463-.634 5.189-.572 3.796-1.233 7.579-1.877 11.362-.222 1.26-1.801 1.913-2.811 1.107-2.428-1.64-4.874-3.264-7.27-4.942-.786-.798-.058-1.943.643-2.513 2-1.97 4.12-3.645 6.015-5.717.511-1.234-.999-.194-1.497.125-2.737 1.886-5.408 3.887-8.294 5.545-1.474.812-3.192.118-4.666-.335-1.32-.547-3.257-1.098-2.118-1.932Z" fill="#fff"/><defs><linearGradient id="paint0_linear_3887_1853" x1="15.002" y1="1.668" x2="5.002" y2="25" gradientUnits="userSpaceOnUse"><stop stop-color="#37AEE2"/><stop offset="1" stop-color="#1E96C8"/></linearGradient></defs></svg>