<svg width="42" height="42" viewBox="0 0 42 42" fill="none" xmlns="http://www.w3.org/2000/svg">
<path d="M9.43897 20.537C15.5459 17.8205 19.618 16.0295 21.6556 15.1641C27.4732 12.6936 28.6821 12.2644 29.47 12.2501C29.6432 12.2472 30.0307 12.291 30.2817 12.4989C30.4937 12.6745 30.5519 12.9117 30.5798 13.0782C30.6078 13.2447 30.6425 13.6239 30.6148 13.9202C30.2996 17.3022 28.9355 25.5096 28.2415 29.2976C27.9478 30.9004 27.3696 31.4378 26.8099 31.4904C25.5934 31.6047 24.6696 30.6696 23.4914 29.8809C21.6476 28.647 20.6061 27.8788 18.8163 26.6747C16.7481 25.2831 18.0889 24.5183 19.2676 23.2682C19.576 22.9412 24.936 17.9633 25.0398 17.5118C25.0527 17.4553 25.0648 17.2447 24.9423 17.1336C24.8198 17.0225 24.639 17.0605 24.5086 17.0906C24.3237 17.1335 21.3783 19.1213 15.6724 23.0538C14.8363 23.64 14.0791 23.9255 13.4006 23.9106C12.6527 23.8941 11.2139 23.4788 10.1443 23.1238C8.83242 22.6884 7.78972 22.4582 7.88051 21.7188C7.9278 21.3336 8.44727 20.9397 9.43897 20.537Z" fill="#707070"></path>
</svg>
