<svg width="38" height="38" viewBox="0 0 38 38" fill="none" xmlns="http://www.w3.org/2000/svg">
<path d="M28.3049 9.64541C27.6764 9.06765 25.132 7.21762 19.4604 7.19228C19.4604 7.19228 12.775 6.7868 9.51592 9.77722C7.70138 11.5917 7.06275 14.2426 6.99686 17.5371C6.93097 20.8266 6.8448 26.995 12.7902 28.6676H12.7952L12.7902 31.2171C12.7902 31.2171 12.7547 32.2511 13.4339 32.4589C14.255 32.7123 14.7416 31.9266 15.5272 31.0802C15.958 30.6139 16.551 29.9347 17.0021 29.4127C21.0671 29.7522 24.1944 28.9717 24.5491 28.8551C25.3702 28.5865 30.0181 27.9935 30.7733 21.8251C31.5539 15.4793 30.3931 11.46 28.3049 9.64541ZM28.9942 21.3791C28.3556 26.5287 24.5897 26.8531 23.8953 27.0761C23.6013 27.1724 20.8542 27.8567 17.3974 27.6285C17.3974 27.6285 14.8226 30.7356 14.0219 31.5415C13.8951 31.6682 13.7481 31.7188 13.6518 31.6935C13.5149 31.658 13.4744 31.4958 13.4795 31.2576C13.4795 30.913 13.4997 27.0153 13.4997 27.0153C13.4947 27.0153 13.4947 27.0153 13.4997 27.0153C8.46673 25.6214 8.76067 20.3704 8.81649 17.6233C8.87222 14.8762 9.38918 12.6207 10.9249 11.1052C13.6772 8.6115 19.359 8.98144 19.359 8.98144C24.1538 9.00171 26.4498 10.4463 26.9821 10.9278C28.751 12.4483 29.6532 16.0723 28.9942 21.3791Z" fill="#707070"></path>
<path d="M21.7963 17.7198C21.6291 17.7198 21.4871 17.5879 21.477 17.4156C21.4213 16.3259 20.9094 15.7937 19.8652 15.738C19.6878 15.7278 19.5509 15.5758 19.5611 15.3984C19.5712 15.2209 19.7233 15.0841 19.9007 15.0943C21.2793 15.1703 22.0498 15.961 22.1207 17.3801C22.1308 17.5575 21.994 17.7096 21.8166 17.7147C21.8065 17.7198 21.8014 17.7198 21.7963 17.7198Z" fill="#707070"></path>
<path d="M23.4394 18.2673H23.4343C23.2569 18.2622 23.1151 18.1153 23.1201 17.9379C23.1455 16.8431 22.8312 15.9561 22.1621 15.2262C21.4982 14.4963 20.5808 14.101 19.3694 14.0148C19.1919 13.9996 19.0602 13.8476 19.0754 13.6701C19.0906 13.4927 19.2427 13.361 19.4201 13.3762C20.7886 13.4775 21.8682 13.954 22.6385 14.7953C23.4141 15.6418 23.7892 16.7011 23.7638 17.9531C23.7588 18.1305 23.6117 18.2673 23.4394 18.2673Z" fill="#707070"></path>
<path d="M25.1222 18.9258C24.9448 18.9258 24.8028 18.7839 24.8028 18.6065C24.7876 16.6449 24.225 15.1497 23.0795 14.0296C21.9493 12.9247 20.5148 12.362 18.8271 12.3468C18.6497 12.3468 18.5077 12.1999 18.5077 12.0225C18.5077 11.8451 18.6547 11.7031 18.8271 11.7031C20.6872 11.7183 22.2685 12.3418 23.5205 13.5684C24.7775 14.795 25.4212 16.4878 25.4415 18.5963C25.4465 18.7788 25.3046 18.9258 25.1222 18.9258C25.1273 18.9258 25.1273 18.9258 25.1222 18.9258ZM19.9422 21.688C19.9422 21.688 20.3932 21.7286 20.6365 21.4295L21.1079 20.8366C21.336 20.5426 21.8885 20.355 22.4257 20.6541C22.7248 20.8213 23.2671 21.1559 23.6016 21.4042C23.9614 21.6678 24.6914 22.276 24.6964 22.2811C25.0461 22.5751 25.1273 23.0059 24.889 23.4671C24.889 23.4671 24.889 23.4722 24.889 23.4773C24.6457 23.9081 24.3163 24.3136 23.9057 24.6886C23.9006 24.6886 23.9006 24.6937 23.8956 24.6937C23.556 24.9776 23.2215 25.1397 22.897 25.1752C22.8565 25.1854 22.8109 25.1854 22.7501 25.1854C22.6082 25.1854 22.4662 25.1651 22.3244 25.1194L22.3142 25.1042C21.8073 24.9624 20.9659 24.6075 19.5671 23.832C18.6547 23.3303 17.8995 22.8184 17.2558 22.3064C16.9162 22.0378 16.5716 21.7388 16.2168 21.3839C16.2066 21.3738 16.1914 21.3586 16.1813 21.3485C16.1711 21.3383 16.1559 21.3231 16.1458 21.313C16.1357 21.3029 16.1205 21.2877 16.1103 21.2775C16.1002 21.2674 16.085 21.2521 16.0749 21.242C15.7251 20.8872 15.421 20.5426 15.1524 20.203C14.6404 19.5644 14.1286 18.8041 13.6268 17.8917C12.8513 16.4877 12.4964 15.6464 12.3546 15.1446L12.3394 15.1344C12.2937 14.9926 12.2734 14.8506 12.2734 14.7087C12.2734 14.6479 12.2734 14.6023 12.2836 14.5618C12.3242 14.2323 12.4863 13.9028 12.7651 13.5632C12.7651 13.5582 12.7702 13.5582 12.7702 13.5531C13.1452 13.1375 13.5507 12.813 13.9815 12.5698C13.9815 12.5698 13.9866 12.5698 13.9917 12.5698C14.4478 12.3315 14.8787 12.4127 15.1777 12.7624C15.1777 12.7624 15.7911 13.4974 16.0546 13.8572C16.3029 14.1968 16.6374 14.734 16.8047 15.0331C17.1038 15.5703 16.9162 16.1228 16.6222 16.3509L16.0293 16.8223C15.7302 17.0656 15.7707 17.5166 15.7707 17.5166C15.7707 17.5166 16.6476 20.8518 19.9422 21.688Z" fill="#707070"></path>
</svg>
