<svg width="38" height="38" fill="none" xmlns="http://www.w3.org/2000/svg"><path d="M28.305 9.645c-.629-.577-3.173-2.427-8.845-2.453 0 0-6.685-.405-9.944 2.585-1.815 1.815-2.453 4.466-2.52 7.76-.065 3.29-.151 9.458 5.794 11.13h.005l-.005 2.55s-.035 1.034.644 1.242c.821.253 1.308-.532 2.093-1.379a76.115 76.115 0 0 0 1.475-1.667c4.065.34 7.192-.441 7.547-.558.821-.268 5.47-.861 6.224-7.03.78-6.346-.38-10.365-2.468-12.18Zm.69 11.734c-.64 5.15-4.405 5.474-5.1 5.697-.294.096-3.04.78-6.498.552 0 0-2.574 3.108-3.375 3.913-.127.127-.274.178-.37.152-.137-.035-.178-.197-.172-.435 0-.345.02-4.243.02-4.243-.005 0-.005 0 0 0-5.033-1.394-4.74-6.645-4.684-9.392.056-2.747.573-5.002 2.109-6.518 2.752-2.494 8.434-2.124 8.434-2.124 4.795.02 7.09 1.465 7.623 1.947 1.769 1.52 2.671 5.144 2.012 10.451Z" fill="#707070"/><path d="M21.796 17.72a.322.322 0 0 1-.319-.304c-.056-1.09-.568-1.622-1.612-1.678a.323.323 0 0 1 .036-.644c1.378.076 2.149.867 2.22 2.286a.315.315 0 0 1-.304.335c-.01.005-.016.005-.02.005Z" fill="#707070"/><path d="M23.44 18.267h-.006a.322.322 0 0 1-.314-.33c.025-1.094-.289-1.98-.958-2.71-.664-.73-1.581-1.126-2.793-1.212a.319.319 0 0 1-.294-.345.319.319 0 0 1 .345-.294c1.369.101 2.448.578 3.218 1.42.776.846 1.151 1.905 1.126 3.157a.325.325 0 0 1-.325.314Z" fill="#707070"/><path d="M25.122 18.926a.318.318 0 0 1-.32-.32c-.014-1.961-.577-3.456-1.723-4.576-1.13-1.105-2.564-1.668-4.252-1.683a.322.322 0 0 1 0-.644c1.86.015 3.441.639 4.693 1.865 1.258 1.227 1.901 2.92 1.922 5.028a.317.317 0 0 1-.32.33c.005 0 .005 0 0 0Zm-5.18 2.762s.451.04.695-.258l.47-.593c.229-.294.782-.482 1.319-.183.299.167.841.502 1.176.75.36.264 1.09.872 1.094.877.35.294.431.725.193 1.186v.01c-.243.431-.573.837-.983 1.212-.005 0-.005.005-.01.005-.34.284-.675.446-.999.481-.04.01-.086.01-.147.01-.142 0-.284-.02-.426-.066l-.01-.015c-.507-.142-1.348-.496-2.747-1.272a16.296 16.296 0 0 1-2.311-1.526c-.34-.268-.684-.567-1.04-.922l-.035-.035-.035-.036-.036-.035-.035-.036c-.35-.355-.654-.7-.923-1.039a16.016 16.016 0 0 1-1.525-2.311c-.776-1.404-1.13-2.246-1.272-2.747l-.016-.01a1.378 1.378 0 0 1-.066-.426c0-.061 0-.107.01-.147.041-.33.203-.66.482-.999 0-.005.005-.005.005-.01.375-.416.78-.74 1.212-.983h.01c.456-.239.887-.157 1.186.192 0 0 .613.735.877 1.095.248.34.582.877.75 1.176.299.537.111 1.09-.183 1.318l-.593.471c-.299.244-.258.695-.258.695s.877 3.335 4.171 4.171Z" fill="#707070"/></svg>