<svg width="40" height="40" fill="none" xmlns="http://www.w3.org/2000/svg"><path d="M40 20C40 8.954 31.046 0 20 0S0 8.954 0 20s8.954 20 20 20 20-8.954 20-20Z" fill="red"/><path d="M19.992 11.667s-7.813 0-9.774.485c-1.05.28-1.915 1.104-2.208 2.119-.51 1.868-.51 5.737-.51 5.737s0 3.883.51 5.722c.293 1.015 1.142 1.824 2.208 2.104 1.976.5 9.774.5 9.774.5s7.83 0 9.79-.486c1.066-.28 1.915-1.073 2.193-2.103.525-1.854.525-5.723.525-5.723s.015-3.883-.525-5.751c-.278-1.015-1.127-1.824-2.193-2.09-1.96-.514-9.79-.514-9.79-.514Zm-2.486 4.766 6.501 3.575-6.5 3.56v-7.135Z" fill="#fff"/></svg>