<svg width="36" height="36" viewBox="0 0 36 36" fill="none" xmlns="http://www.w3.org/2000/svg">
<path fill-rule="evenodd" clip-rule="evenodd" d="M9 27.75C10.6568 27.75 12 26.4068 12 24.75C12 23.0932 10.6568 21.75 9 21.75C7.34314 21.75 6 23.0932 6 24.75C6 26.4068 7.34314 27.75 9 27.75ZM9 26.25C9.82845 26.25 10.5 25.5784 10.5 24.75C10.5 23.9216 9.82845 23.25 9 23.25C8.17155 23.25 7.5 23.9216 7.5 24.75C7.5 25.5784 8.17155 26.25 9 26.25Z" fill="#6B6B6B"/>
<path fill-rule="evenodd" clip-rule="evenodd" d="M13.5 20.25V27.75H30V24.75C30 22.2647 27.9853 20.25 25.5 20.25H13.5ZM25.5 21.75H15V26.25H28.5V24.75C28.5 23.0932 27.1568 21.75 25.5 21.75Z" fill="#6B6B6B"/>
<path fill-rule="evenodd" clip-rule="evenodd" d="M3 2.25C2.58579 2.25 2.25 2.58579 2.25 3V33.75H3.75V30.75H32.25V33.75H33.75V6C33.75 5.58579 33.4142 5.25 33 5.25C32.5858 5.25 32.25 5.58579 32.25 6V14.25H3.75V3C3.75 2.58579 3.41421 2.25 3 2.25ZM3.75 15.75V29.25H32.25V15.75H3.75Z" fill="#6B6B6B"/>
<path fill-rule="evenodd" clip-rule="evenodd" d="M12 9.75C12 11.4068 10.6568 12.75 9 12.75C7.34314 12.75 6 11.4068 6 9.75C6 8.09317 7.34314 6.75 9 6.75C10.6568 6.75 12 8.09317 12 9.75ZM10.5 9.75C10.5 10.5784 9.82845 11.25 9 11.25C8.17155 11.25 7.5 10.5784 7.5 9.75C7.5 8.92155 8.17155 8.25 9 8.25C9.82845 8.25 10.5 8.92155 10.5 9.75Z" fill="#6B6B6B"/>
<path fill-rule="evenodd" clip-rule="evenodd" d="M13.5 12.75V5.25H25.5C27.9853 5.25 30 7.26472 30 9.75V12.75H13.5ZM15 6.75H25.5C27.1568 6.75 28.5 8.09317 28.5 9.75V11.25H15V6.75Z" fill="#6B6B6B"/>
</svg>
