<svg width="36" height="36" viewBox="0 0 36 36" fill="none" xmlns="http://www.w3.org/2000/svg">
<path d="M14.8766 19.5136C15.0121 19.905 15.3357 20.25 15.7499 20.25C16.1641 20.25 16.5077 19.9108 16.4259 19.5048C16.0803 17.7907 14.5658 16.5 12.7499 16.5C10.934 16.5 9.41951 17.7907 9.07391 19.5048C8.99208 19.9108 9.33566 20.25 9.74988 20.25C10.1641 20.25 10.4877 19.905 10.6232 19.5136C10.9281 18.6326 11.7651 18 12.7499 18C13.7346 18 14.5716 18.6326 14.8766 19.5136Z" fill="#6B6B6B"/>
<path d="M26.9259 19.5048C27.0077 19.9108 26.6641 20.25 26.2499 20.25C25.8357 20.25 25.5121 19.905 25.3766 19.5136C25.0716 18.6326 24.2346 18 23.2499 18C22.2651 18 21.4282 18.6326 21.1232 19.5136C20.9877 19.905 20.6641 20.25 20.2499 20.25C19.8357 20.25 19.4921 19.9108 19.5739 19.5048C19.9195 17.7907 21.434 16.5 23.2499 16.5C25.0658 16.5 26.5803 17.7907 26.9259 19.5048Z" fill="#6B6B6B"/>
<path d="M12.9697 25.7197C13.2625 25.4268 13.7374 25.4268 14.0303 25.7197C16.2227 27.9121 19.7773 27.9121 21.9697 25.7197C22.2625 25.4268 22.7374 25.4268 23.0303 25.7197C23.3232 26.0125 23.3232 26.4874 23.0303 26.7803C20.2522 29.5585 15.7478 29.5585 12.9697 26.7803C12.6768 26.4874 12.6768 26.0125 12.9697 25.7197Z" fill="#6B6B6B"/>
<path fill-rule="evenodd" clip-rule="evenodd" d="M17.9126 7.5003C18.0915 6.33757 18.0371 4.91875 17.355 3.7294C16.8988 2.93404 16.1762 2.2714 15.1279 1.88116C14.0941 1.49633 12.7814 1.38969 11.1447 1.62193C10.7346 1.68011 10.4494 2.05975 10.5075 2.46985C10.5657 2.87996 10.9453 3.16524 11.3554 3.10705C12.8296 2.89787 13.8741 3.015 14.6046 3.28693C15.3206 3.55345 15.7698 3.98054 16.0538 4.4757C16.5701 5.37573 16.5832 6.58954 16.3716 7.5972C10.6761 8.28195 6.07165 12.513 4.83046 18.018C4.72194 18.0061 4.61168 18 4.5 18C2.84314 18 1.5 19.3432 1.5 21C1.5 22.6568 2.84314 24 4.5 24C4.61168 24 4.72194 23.9939 4.83046 23.982C6.18799 30.003 11.5688 34.5 18 34.5C24.4312 34.5 29.812 30.003 31.1695 23.982C31.2781 23.9939 31.3883 24 31.5 24C33.1568 24 34.5 22.6568 34.5 21C34.5 19.3432 33.1568 18 31.5 18C31.3883 18 31.2781 18.0061 31.1695 18.018C29.9759 12.7239 25.6718 8.60805 20.2781 7.6914C20.2172 7.2836 20.2498 6.85206 20.4233 6.54942C20.5223 6.37688 20.6786 6.22222 20.9535 6.11989C21.2429 6.01216 21.698 5.95096 22.3946 6.0498C22.8046 6.10798 23.1843 5.82271 23.2425 5.4126C23.3006 5.00249 23.0154 4.62286 22.6053 4.56467C21.7463 4.4428 21.0229 4.49349 20.4302 4.71413C19.8229 4.94018 19.3934 5.33039 19.1222 5.80311C18.8075 6.35171 18.7263 6.9696 18.7555 7.52078C18.5054 7.50698 18.2535 7.5 18 7.5C17.9709 7.5 17.9417 7.50007 17.9126 7.5003ZM31.4179 19.5022C31.4721 19.994 31.5 20.4937 31.5 21C31.5 21.5063 31.4721 22.006 31.4179 22.4978C31.445 22.4993 31.4724 22.5 31.5 22.5C32.3284 22.5 33 21.8284 33 21C33 20.1716 32.3284 19.5 31.5 19.5C31.4724 19.5 31.445 19.5007 31.4179 19.5022ZM4.58215 22.4978C4.52787 22.006 4.5 21.5063 4.5 21C4.5 20.4937 4.52787 19.994 4.58215 19.5022C4.55495 19.5007 4.52756 19.5 4.5 19.5C3.67157 19.5 3 20.1716 3 21C3 21.8284 3.67157 22.5 4.5 22.5C4.52756 22.5 4.55495 22.4993 4.58215 22.4978ZM30 21C30 27.6275 24.6275 33 18 33C11.3726 33 6 27.6275 6 21C6 14.3726 11.3726 9 18 9C24.6275 9 30 14.3726 30 21Z" fill="#6B6B6B"/>
</svg>
