<svg width="36" height="36" viewBox="0 0 36 36" fill="none" xmlns="http://www.w3.org/2000/svg">
<path fill-rule="evenodd" clip-rule="evenodd" d="M6 15.75C5.58579 15.75 5.25 16.0858 5.25 16.5V21C5.25 21.4142 5.58579 21.75 6 21.75H10.5C10.9142 21.75 11.25 21.4142 11.25 21V16.5C11.25 16.0858 10.9142 15.75 10.5 15.75H6ZM6.75 17.25V20.25H9.75V17.25H6.75Z" fill="#6B6B6B"/>
<path fill-rule="evenodd" clip-rule="evenodd" d="M12.75 16.5C12.75 16.0858 13.0858 15.75 13.5 15.75H18C18.4142 15.75 18.75 16.0858 18.75 16.5V21C18.75 21.4142 18.4142 21.75 18 21.75H13.5C13.0858 21.75 12.75 21.4142 12.75 21V16.5ZM14.25 20.25V17.25H17.25V20.25H14.25Z" fill="#6B6B6B"/>
<path fill-rule="evenodd" clip-rule="evenodd" d="M19.0609 2.99995C18.475 2.41416 17.5253 2.41416 16.9395 2.99995L15.0001 4.93938L13.0606 2.99995C12.4749 2.41416 11.5251 2.41416 10.9394 2.99995L2.68934 11.25C2.40803 11.5312 2.25 11.9128 2.25 12.3106V32.25C2.25 33.0783 2.92157 33.75 3.75 33.75H32.2501C33.0786 33.75 33.7501 33.0783 33.7501 32.25V12.3106C33.7501 11.9128 33.5921 11.5312 33.3109 11.25L25.0609 2.99995C24.475 2.41416 23.5253 2.41416 22.9395 2.99995L21.0002 4.93929L19.0609 2.99995ZM15.75 32.25H20.25V12.75H3.75V32.25H8.25V25.5C8.25 25.0857 8.58577 24.75 9 24.75H15C15.4142 24.75 15.75 25.0857 15.75 25.5V32.25ZM9.75 32.25V26.25H14.25V32.25H9.75ZM22.0609 5.99995L27.3109 11.25C27.5921 11.5312 27.7501 11.9128 27.7501 12.3106V32.25H32.2501V12.3106L24.0001 4.06061L22.0609 5.99995ZM26.2501 12.3106L18.0002 4.06061L16.0607 6.00004L21.3106 11.25C21.592 11.5312 21.75 11.9128 21.75 12.3106V32.25H26.2501V12.3106ZM12 4.06061L4.81063 11.25H19.1894L12 4.06061Z" fill="#6B6B6B"/>
</svg>
