<svg width="37" height="36" viewBox="0 0 37 36" fill="none" xmlns="http://www.w3.org/2000/svg">
<path fill-rule="evenodd" clip-rule="evenodd" d="M19.1035 15.1541C20.3304 17.0271 23 21.2984 23 23C23 25.2092 20.9853 27 18.5 27C16.0147 27 14 25.2092 14 23C14 21.2984 16.6696 17.0271 17.8965 15.1541C18.1845 14.7142 18.8155 14.7142 19.1035 15.1541ZM21.1723 21.8801C21.4315 22.5235 21.5 22.8817 21.5 23C21.5 23.6069 21.2097 24.229 20.6926 24.7008C20.7301 24.5559 20.75 24.405 20.75 24.25C20.75 23.5262 19.7839 21.7114 19.1178 20.5462C18.8409 20.0618 18.1591 20.0618 17.8822 20.5462C17.2162 21.7114 16.25 23.5262 16.25 24.25C16.25 24.405 16.2699 24.5559 16.3074 24.7008C15.7903 24.229 15.5 23.6069 15.5 23C15.5 22.8817 15.5685 22.5235 15.8277 21.8801C16.0675 21.2846 16.4104 20.588 16.807 19.856C17.3516 18.851 17.9701 17.8295 18.5 16.9892C19.0299 17.8295 19.6484 18.851 20.193 19.856C20.5896 20.588 20.9325 21.2846 21.1723 21.8801ZM19.625 24.25C19.625 24.2536 19.6248 24.2522 19.6236 24.2455C19.619 24.2195 19.6003 24.1125 19.5262 23.8996C19.4431 23.6609 19.3194 23.369 19.1659 23.0429C18.9662 22.6189 18.7305 22.1673 18.5 21.7458C18.2695 22.1673 18.0338 22.6189 17.8341 23.0429C17.6806 23.369 17.5569 23.6609 17.4738 23.8996C17.3997 24.1125 17.381 24.2195 17.3764 24.2455C17.3752 24.2522 17.375 24.2536 17.375 24.25C17.375 24.6124 17.7504 25.125 18.5 25.125C19.2495 25.125 19.625 24.6124 19.625 24.25Z" fill="#6B6B6B"/>
<path fill-rule="evenodd" clip-rule="evenodd" d="M2.75 3.75C2.75 2.92157 3.42157 2.25 4.25 2.25H32.75C33.5784 2.25 34.25 2.92157 34.25 3.75V6.75C34.25 7.57845 33.5784 8.25 32.75 8.25V27.75C33.5784 27.75 34.25 28.4216 34.25 29.25V32.25C34.25 33.0784 33.5784 33.75 32.75 33.75H4.25C3.42157 33.75 2.75 33.0784 2.75 32.25V29.25C2.75 28.4216 3.42157 27.75 4.25 27.75V8.25C3.42157 8.25 2.75 7.57845 2.75 6.75V3.75ZM5.75 8.25H31.25V27.75H28.25V20.25C28.25 14.8652 23.8848 10.5 18.5 10.5C13.1152 10.5 8.75 14.8652 8.75 20.25V27.75H5.75V8.25ZM26.75 27.75V20.25C26.75 15.6937 23.0563 12 18.5 12C13.9437 12 10.25 15.6937 10.25 20.25V27.75H26.75ZM32.75 3.75H4.25V6.75H32.75V3.75ZM32.75 32.25V29.25H4.25V32.25H32.75Z" fill="#6B6B6B"/>
</svg>
