<svg width="36" height="36" viewBox="0 0 36 36" fill="none" xmlns="http://www.w3.org/2000/svg">
<path fill-rule="evenodd" clip-rule="evenodd" d="M6.75 19.5C6.75 19.0858 7.08579 18.75 7.5 18.75H12C12.4142 18.75 12.75 19.0858 12.75 19.5V23.25C12.75 23.6642 12.4142 24 12 24H7.5C7.08579 24 6.75 23.6642 6.75 23.25V19.5ZM8.25 22.5V20.25H11.25V22.5H8.25Z" fill="#6B6B6B"/>
<path fill-rule="evenodd" clip-rule="evenodd" d="M11.0885 3.2345C10.5335 2.13725 8.96655 2.13725 8.41147 3.2345L2.4115 15.0961C2.30532 15.306 2.25 15.5379 2.25 15.7732V32.25C2.25 33.0784 2.92157 33.75 3.75 33.75H16.4964H16.5H32.25C33.0784 33.75 33.75 33.0784 33.75 32.25V21.1217C33.75 20.9604 33.724 20.8003 33.673 20.6473L29.3825 7.7756C29.1783 7.16312 28.6051 6.74997 27.9594 6.74997H23.2664C23.2555 6.74973 23.2444 6.74972 23.2334 6.74997H18.0164C18.0055 6.74973 17.9944 6.74972 17.9834 6.74997H12.8668L11.0885 3.2345ZM30 32.25H32.25V21.75H27.7679C27.7558 21.7503 27.7436 21.7503 27.7315 21.75H22.5179C22.5058 21.7503 22.4936 21.7503 22.4815 21.75H17.25V32.25H19.5V27C19.5 26.5857 19.8358 26.25 20.25 26.25H29.25C29.6642 26.25 30 26.5857 30 27V32.25ZM28.2904 20.25H31.9594L27.9594 8.24997H24.2904L28.2904 20.25ZM22.7092 8.24997L26.7093 20.25H23.0404L19.0404 8.24997H22.7092ZM17.4592 8.24997L21.4592 20.25H17.25V15.7732C17.25 15.5379 17.1947 15.306 17.0885 15.0961L13.6255 8.24997H17.4592ZM21 32.25H24V27.75H21V32.25ZM28.5 32.25H25.5V27.75H28.5V32.25ZM12 27.75V32.25H7.5V27.75H12ZM13.5 27V32.25H15.75V16.5H3.75V32.25H6V27C6 26.5857 6.33579 26.25 6.75 26.25H12.75C13.1642 26.25 13.5 26.5857 13.5 27ZM15.3589 15L9.75 3.91156L4.14113 15H15.3589Z" fill="#6B6B6B"/>
</svg>
