<svg fill="#000000" xmlns="http://www.w3.org/2000/svg" width="45px" height="45px" viewBox="0 0 2.925 2.925" enable-background="new 0 0 52 52" xml:space="preserve"><g><path d="M1.401 1.693c0.034 0.034 0.084 0.034 0.118 0l1.271 -1.181c0.023 -0.045 0.017 -0.118 -0.073 -0.118l-2.514 0.006c-0.068 0 -0.124 0.062 -0.073 0.118z"/><path d="M2.813 0.973c0 -0.056 -0.068 -0.09 -0.113 -0.051L1.704 1.839c-0.068 0.062 -0.152 0.096 -0.242 0.096s-0.174 -0.034 -0.242 -0.09L0.231 0.922c-0.045 -0.039 -0.113 -0.011 -0.113 0.051C0.113 0.956 0.113 2.25 0.113 2.25c0 0.124 0.101 0.225 0.225 0.225h2.25c0.124 0 0.225 -0.101 0.225 -0.225z"/></g></svg>