<svg version="1.1" id="Layer_1" xmlns="http://www.w3.org/2000/svg" xmlns:xlink="http://www.w3.org/1999/xlink" x="0px" y="0px" viewBox="0 0 10 10" style="enable-background:new 0 0 512 512;" xml:space="preserve" width="10" height="10"><path style="fill:#F0F0F0;" cx="256" cy="256" r="256" d="M10 5A5 5 0 0 1 5 10A5 5 0 0 1 0 5A5 5 0 0 1 10 5z"/><g><path style="fill:#0052B4;" d="M1.034 1.956c-0.393 0.511 -0.689 1.1 -0.861 1.74h2.601z"/><path style="fill:#0052B4;" d="M9.828 3.696c-0.172 -0.64 -0.469 -1.229 -0.861 -1.74l-1.74 1.74z"/><path style="fill:#0052B4;" d="M0.172 6.304c0.172 0.64 0.469 1.229 0.861 1.74l1.74 -1.74z"/><path style="fill:#0052B4;" d="M8.044 1.034c-0.511 -0.393 -1.1 -0.689 -1.74 -0.861v2.601z"/><path style="fill:#0052B4;" d="M1.956 8.966c0.511 0.393 1.1 0.689 1.74 0.861V7.227z"/><path style="fill:#0052B4;" d="M3.696 0.172c-0.64 0.172 -1.229 0.469 -1.74 0.861l1.74 1.74z"/><path style="fill:#0052B4;" d="M6.304 9.828c0.64 -0.172 1.229 -0.469 1.74 -0.861l-1.74 -1.74z"/><path style="fill:#0052B4;" d="m7.227 6.304 1.74 1.74c0.393 -0.511 0.689 -1.1 0.861 -1.74z"/></g><g><path style="fill:#D80027;" d="M9.958 4.348H5.652V0.042A5.059 5.059 0 0 0 5 0c-0.221 0 -0.439 0.015 -0.652 0.042v4.305H0.042A5.059 5.059 0 0 0 0 5c0 0.221 0.015 0.439 0.042 0.652h4.305v4.306a5.046 5.046 0 0 0 1.304 0V5.652h4.306A5.059 5.059 0 0 0 10 5c0 -0.221 -0.015 -0.439 -0.042 -0.652"/><path style="fill:#D80027;" d="M6.304 6.304 8.536 8.536a5.02 5.02 0 0 0 0.294 -0.321l-1.91 -1.91h-0.615z"/><path style="fill:#D80027;" d="M3.696 6.304h0L1.464 8.536a5.02 5.02 0 0 0 0.321 0.294l1.91 -1.91z"/><path style="fill:#D80027;" d="M3.696 3.696v0L1.464 1.464a5.02 5.02 0 0 0 -0.294 0.321l1.91 1.91z"/><path style="fill:#D80027;" d="M6.304 3.696 8.536 1.464a5 5 0 0 0 -0.321 -0.294l-1.91 1.91z"/></g></svg>