<svg width="45px" height="45px" viewBox="0 0 2.7 2.7" fill="none" xmlns="http://www.w3.org/2000/svg"><path d="M2.33 0.411s0.219 -0.085 0.2 0.122c-0.006 0.085 -0.061 0.384 -0.103 0.706l-0.146 0.956s-0.012 0.14 -0.121 0.164c-0.109 0.024 -0.273 -0.085 -0.304 -0.11 -0.024 -0.018 -0.455 -0.292 -0.607 -0.426 -0.043 -0.037 -0.091 -0.11 0.006 -0.195L1.893 1.02c0.073 -0.073 0.146 -0.244 -0.158 -0.037l-0.85 0.578s-0.097 0.061 -0.279 0.006l-0.395 -0.122s-0.146 -0.091 0.103 -0.183c0.607 -0.286 1.354 -0.578 2.015 -0.852" fill="#000000"/></svg>