<svg width="24" height="24" viewBox="0 0 24 24" fill="none" xmlns="http://www.w3.org/2000/svg">
<g clip-path="url(#clip0_3422_579)">
<path d="M8.677 12.0308C8.88092 12.0308 9.04623 12.1961 9.04623 12.4" stroke="#252525" stroke-width="1.7" stroke-linecap="round" stroke-linejoin="round"/>
<path d="M8.30774 12.4C8.30774 12.1961 8.47305 12.0308 8.67697 12.0308" stroke="#252525" stroke-width="1.7" stroke-linecap="round" stroke-linejoin="round"/>
<path d="M8.67697 12.7691C8.47305 12.7691 8.30774 12.6038 8.30774 12.3999" stroke="#252525" stroke-width="1.7" stroke-linecap="round" stroke-linejoin="round"/>
<path d="M9.04623 12.3999C9.04623 12.6038 8.88092 12.7691 8.677 12.7691" stroke="#252525" stroke-width="1.7" stroke-linecap="round" stroke-linejoin="round"/>
<path d="M15.3231 12.0308C15.527 12.0308 15.6924 12.1961 15.6924 12.4" stroke="#252525" stroke-width="1.7" stroke-linecap="round" stroke-linejoin="round"/>
<path d="M14.9539 12.4C14.9539 12.1961 15.1192 12.0308 15.3231 12.0308" stroke="#252525" stroke-width="1.7" stroke-linecap="round" stroke-linejoin="round"/>
<path d="M15.3231 12.7691C15.1192 12.7691 14.9539 12.6038 14.9539 12.3999" stroke="#252525" stroke-width="1.7" stroke-linecap="round" stroke-linejoin="round"/>
<path d="M15.6924 12.3999C15.6924 12.6038 15.527 12.7691 15.3231 12.7691" stroke="#252525" stroke-width="1.7" stroke-linecap="round" stroke-linejoin="round"/>
<path fill-rule="evenodd" clip-rule="evenodd" d="M20.4923 10.9231H20.4785C19.3439 7.19028 15.9015 4.63867 12 4.63867C8.09858 4.63867 4.65611 7.19028 3.5215 10.9231H3.50771C2.08027 10.9231 0.923096 12.0803 0.923096 13.5077C0.923096 14.9352 2.08027 16.0923 3.50771 16.0923H3.5215C4.65611 19.8251 8.09858 22.3768 12 22.3768C15.9015 22.3768 19.3439 19.8251 20.4785 16.0923H20.4923C21.9198 16.0923 23.0769 14.9352 23.0769 13.5077C23.0769 12.0803 21.9198 10.9231 20.4923 10.9231Z" stroke="#252525" stroke-width="1.3" stroke-linecap="round" stroke-linejoin="round"/>
<path d="M15.3024 17.2C14.4619 18.1397 13.2608 18.6768 12 18.6768C10.7393 18.6768 9.53818 18.1397 8.69763 17.2" stroke="#252525" stroke-width="1.3" stroke-linecap="round" stroke-linejoin="round"/>
<path d="M14.4498 0.953857C16.0962 2.04684 16.8197 4.09799 16.2235 5.98205C15.6273 7.86612 13.8554 9.12758 11.88 9.07441C9.90454 9.02124 8.20312 7.66629 7.70911 5.75287" stroke="#252525" stroke-width="1.3" stroke-linecap="round" stroke-linejoin="round"/>
</g>
<defs>
<clipPath id="clip0_3422_579">
<rect width="24" height="24" fill="white"/>
</clipPath>
</defs>
</svg>
