<svg width="36" height="36" viewBox="0 0 36 36" fill="none" xmlns="http://www.w3.org/2000/svg">
<path d="M23.25 16.5C23.25 17.3284 22.5784 18 21.75 18C20.9216 18 20.25 17.3284 20.25 16.5C20.25 15.6716 20.9216 15 21.75 15C22.5784 15 23.25 15.6716 23.25 16.5Z" fill="#6B6B6B"/>
<path fill-rule="evenodd" clip-rule="evenodd" d="M18.4443 3.17674C18.9657 2.4598 20.0348 2.4598 20.5562 3.17674L20.7976 3.5087C22.3724 5.67403 23.2294 8.27728 23.2499 10.953L33.2283 21.5967C34.0658 22.49 34.4144 23.7358 34.1622 24.934L33.6819 27.2151C33.2183 29.4175 30.9327 30.7182 28.8024 29.992L17.8311 26.2517C16.8176 25.9063 15.7011 26.3228 15.1615 27.2476L11.7102 33.1642C11.1734 34.0845 9.87515 34.1674 9.22557 33.323L2.81902 24.9945C2.7464 24.9001 2.68667 24.7996 2.63964 24.6951C2.36516 24.6226 2.1121 24.4828 1.90799 24.2611C1.64354 23.9739 1.52453 23.6176 1.48255 23.2774C1.40171 22.6225 1.58124 21.8291 1.87367 21.025C2.47102 19.3823 3.68961 17.2993 5.21638 15.2954C6.74644 13.2873 8.62505 11.3071 10.5759 9.89278C12.3497 8.60668 14.303 7.70241 16.1586 7.83066C16.5581 6.28882 17.2449 4.82594 18.1929 3.52243L18.4443 3.17674ZM15.8658 9.31941C14.5819 9.29931 13.0645 9.94123 11.4563 11.1072C9.65712 12.4116 7.87947 14.2752 6.40952 16.2045C4.93627 18.1381 3.81107 20.0864 3.28335 21.5376C3.03917 22.209 2.95173 22.6977 2.96403 23.0028C2.96866 22.9983 2.97332 22.9938 2.97802 22.9894L15.7507 10.9263C15.7553 10.3867 15.794 9.85003 15.8658 9.31941ZM19.5003 4.27512L19.406 4.40468C18.005 6.33115 17.2503 8.65198 17.2503 11.0341C17.2503 11.3782 17.1084 11.7072 16.8582 11.9435L4.00796 24.0799L10.4145 32.4085L13.8659 26.4919C14.7651 24.9504 16.626 24.2561 18.3151 24.832L29.2863 28.5722C30.5646 29.0079 31.9359 28.2275 32.2141 26.9061L32.6943 24.625C32.8457 23.9061 32.6365 23.1586 32.1341 22.6226L22.0892 11.908C21.8715 11.6758 21.7503 11.3694 21.7503 11.0511C21.7503 8.65791 20.9921 6.32635 19.5845 4.39096L19.5003 4.27512Z" fill="#6B6B6B"/>
</svg>
