<svg width="36" height="36" viewBox="0 0 36 36" fill="none" xmlns="http://www.w3.org/2000/svg">
<path fill-rule="evenodd" clip-rule="evenodd" d="M18 11.25C16.8954 11.25 16 12.1454 16 13.25V15.25H14C12.8954 15.25 12 16.1454 12 17.25C12 18.3546 12.8954 19.25 14 19.25H16V21.25C16 22.3546 16.8954 23.25 18 23.25C19.1046 23.25 20 22.3546 20 21.25V19.25H22C23.1046 19.25 24 18.3546 24 17.25C24 16.1454 23.1046 15.25 22 15.25H20V13.25C20 12.1454 19.1046 11.25 18 11.25ZM14 16.375H17.125V13.25C17.125 12.7667 17.5168 12.375 18 12.375C18.4832 12.375 18.875 12.7667 18.875 13.25V16.375H22C22.4833 16.375 22.875 16.7668 22.875 17.25C22.875 17.7332 22.4833 18.125 22 18.125H18.875V21.25C18.875 21.7333 18.4832 22.125 18 22.125C17.5168 22.125 17.125 21.7333 17.125 21.25V18.125H14C13.5167 18.125 13.125 17.7332 13.125 17.25C13.125 16.7668 13.5167 16.375 14 16.375Z" fill="#6B6B6B"/>
<path fill-rule="evenodd" clip-rule="evenodd" d="M18 32.3876L18.0979 32.4854L31.7904 18.7929C35.4032 15.18 35.4032 9.32247 31.7904 5.70963C28.1776 2.09679 22.32 2.09679 18.7071 5.70963L18 6.41676L17.2929 5.70966C13.6801 2.09682 7.8225 2.09681 4.20963 5.70966C0.596791 9.32247 0.596789 15.18 4.20963 18.7929L17.9021 32.4855L18 32.3876ZM16.2322 6.77032L18 8.53812L19.7678 6.77029C22.7948 3.74324 27.7027 3.74324 30.7297 6.7703C33.7567 9.79737 33.7567 14.7051 30.7297 17.7322L18.0979 30.3641L18 30.2662L17.9021 30.3641L5.27029 17.7322C2.24324 14.7052 2.24324 9.79737 5.2703 6.77032C8.29732 3.74327 13.2052 3.74327 16.2322 6.77032Z" fill="#6B6B6B"/>
</svg>
