<svg width="36" height="36" viewBox="0 0 36 36" fill="none" xmlns="http://www.w3.org/2000/svg">
<path d="M33.4042 18.1275C33.3592 18.0075 33.2842 17.895 33.1867 17.7975C33.1042 17.715 32.9992 17.6325 32.8717 17.5425C32.6167 17.3775 32.2942 17.2275 31.9192 17.1C31.1242 16.8225 30.1192 16.635 29.0092 16.5525C28.8817 16.545 28.7467 16.545 28.6117 16.5375C28.7542 15.705 28.8217 14.8575 28.8217 14.0025C28.8217 12.93 28.7017 11.9475 28.4692 11.145C28.3492 10.7325 28.2217 10.4175 28.0942 10.2225C27.9442 9.9375 27.7642 9.7425 27.5692 9.645L27.3442 9.57C27.2017 9.5325 27.0442 9.525 26.8942 9.5325C26.6017 9.54 26.2492 9.6075 25.8592 9.7125C25.0417 9.945 24.1117 10.365 23.1592 10.9275C22.7392 11.1825 22.3417 11.4525 21.9592 11.7225C21.7042 11.0925 21.4192 10.4775 21.0817 9.9C20.5342 8.9625 19.9342 8.1675 19.3492 7.605C19.0642 7.3275 18.7942 7.1175 18.5317 6.9675C18.3592 6.87 18.0967 6.75 17.8567 6.75C17.7592 6.75 17.6542 6.765 17.4892 6.825C17.4067 6.8625 17.2942 6.9075 17.1892 6.9825C16.9417 7.1325 16.6642 7.365 16.3717 7.665C15.7867 8.2725 15.1867 9.0975 14.6467 10.0575C14.3542 10.575 14.0992 11.1225 13.8592 11.685C13.4092 11.355 12.9517 11.04 12.4792 10.77C11.5567 10.245 10.6417 9.855 9.83918 9.6525C9.14168 9.4725 8.56418 9.4125 8.08418 9.675L7.93418 9.7875L7.85918 9.8775C7.77668 9.975 7.70168 10.08 7.63418 10.215C7.4992 10.47 7.3792 10.8075 7.2817 11.1975C7.0792 12.0075 6.9742 13.0275 6.9817 14.145C6.9967 14.9325 7.0792 15.6975 7.1917 16.44C6.9892 16.4475 6.7867 16.455 6.5617 16.4775C5.4817 16.575 4.5142 16.785 3.7492 17.0775C3.3817 17.22 3.0742 17.3775 2.8342 17.5425C2.5567 17.7375 2.3917 17.9325 2.3167 18.1425L2.2642 18.345C2.2417 18.48 2.2492 18.63 2.2642 18.795C2.3092 19.1025 2.3992 19.44 2.5342 19.8075C2.8417 20.6025 3.3442 21.495 3.9817 22.38C5.5192 24.5175 7.57418 26.295 9.62918 27.255C11.3617 28.0575 13.5292 28.4925 15.7417 28.4925C16.1617 28.4925 16.5817 28.4775 16.9942 28.4475C17.2942 28.425 17.5792 28.395 17.8492 28.3575C18.1192 28.395 18.4042 28.425 18.6967 28.4475C19.1167 28.4775 19.5367 28.4925 19.9567 28.4925C22.1692 28.4925 24.3442 28.0575 26.0692 27.255C29.0992 25.8375 31.0042 23.55 31.8667 22.3125C32.4967 21.4125 32.9617 20.5275 33.2242 19.77C33.3442 19.4175 33.4267 19.08 33.4567 18.7875V18.7575C33.4792 18.4575 33.4567 18.225 33.3967 18.12L33.4042 18.1275ZM23.9317 12.21C24.7567 11.7225 25.5892 11.34 26.2717 11.145C26.5267 11.0775 26.7067 11.0475 26.8417 11.025C26.8867 11.115 26.9542 11.2725 27.0367 11.55C27.2242 12.2025 27.3292 13.0725 27.3292 13.9875C27.3292 15.0375 27.2092 16.08 26.9767 17.0775C26.6842 18.375 26.2267 19.56 25.6117 20.6175C24.5992 22.365 22.8442 24.0675 20.7967 25.2825C20.6917 25.3425 20.5867 25.4025 20.4817 25.4625L20.4142 25.5C20.5192 25.3425 20.6242 25.185 20.7217 25.0275C20.8192 24.8775 20.9092 24.72 21.0067 24.555L21.0742 24.435C22.1617 22.5075 22.8592 20.3475 23.0467 18.3525C23.0842 18.015 23.1067 17.64 23.1067 17.25C23.1067 16.8975 23.0917 16.5375 23.0617 16.1775C23.0542 16.0575 23.0317 15.9375 23.0167 15.8175C22.9942 15.5775 22.9642 15.3375 22.9267 15.0975C22.9042 14.955 22.8742 14.805 22.8442 14.6625C22.7992 14.445 22.7542 14.22 22.7017 14.0025C22.6642 13.8525 22.6267 13.7025 22.5817 13.5525C22.5442 13.4325 22.5217 13.305 22.4842 13.185C22.9267 12.8475 23.4142 12.5175 23.9242 12.2175L23.9317 12.21ZM17.4442 8.715C17.6317 8.52 17.7742 8.4 17.8792 8.325C17.9767 8.3925 18.1192 8.505 18.3067 8.685C18.7867 9.1425 19.3117 9.84 19.7842 10.65C20.2342 11.4225 20.6167 12.2625 20.9092 13.155C21.3742 14.535 21.6142 15.915 21.6142 17.25C21.6142 17.5875 21.5992 17.9025 21.5617 18.2025C21.3967 20.0025 20.7592 21.9525 19.7767 23.6925L19.7092 23.805C19.6267 23.9475 19.5517 24.0825 19.4617 24.225C19.0792 24.84 18.6667 25.38 18.2842 25.7775C18.2242 25.8375 18.1642 25.8975 18.0967 25.9575C18.0067 26.04 17.9317 26.1 17.8567 26.16C17.7892 26.1075 17.7067 26.04 17.6167 25.9575C17.5642 25.905 17.5042 25.8525 17.4442 25.7925C17.0542 25.3875 16.6417 24.8475 16.2517 24.2175C16.1617 24.0825 16.0867 23.94 15.9967 23.79L15.9442 23.7C14.9617 21.9525 14.3242 20.0025 14.1517 18.1875C14.1217 17.9025 14.1067 17.5875 14.1067 17.25C14.1067 16.29 14.2567 15.255 14.5492 14.19C14.6467 13.8375 14.7592 13.485 14.8867 13.125C15.1792 12.315 15.5392 11.5275 15.9517 10.7925C16.4242 9.9525 16.9567 9.21 17.4517 8.7075L17.4442 8.715ZM8.73668 11.565C8.80418 11.3025 8.87168 11.1225 8.91668 11.0175C9.04418 11.025 9.23168 11.0475 9.46418 11.115C10.1317 11.28 10.9342 11.625 11.7217 12.075C12.2542 12.3825 12.7867 12.7425 13.2967 13.14C13.2517 13.2675 13.2292 13.395 13.1842 13.5225C13.1392 13.68 13.0942 13.8375 13.0492 13.995C12.9892 14.22 12.9442 14.445 12.8917 14.67C12.8617 14.8125 12.8242 14.9625 12.8017 15.105C12.7567 15.3525 12.7267 15.5925 12.6967 15.8325C12.6817 15.9525 12.6592 16.0725 12.6517 16.1925C12.6217 16.5525 12.5992 16.905 12.5992 17.25C12.5992 17.64 12.6217 18.015 12.6517 18.3375C12.8392 20.34 13.5442 22.5075 14.6317 24.4425L14.6842 24.54C14.7817 24.7125 14.8792 24.8775 14.9692 25.02C15.0742 25.185 15.1792 25.35 15.2842 25.5075L14.9017 25.29C12.8467 24.075 11.0917 22.3725 10.0867 20.625C9.49418 19.5975 9.05168 18.39 8.77418 17.0175C8.57918 16.1025 8.46668 15.1275 8.45168 14.1225C8.45168 13.1475 8.53418 12.24 8.70668 11.5575L8.73668 11.565ZM5.2117 21.5025C4.6492 20.7225 4.1992 19.9275 3.9517 19.275C3.8692 19.0425 3.8167 18.855 3.7867 18.705C3.8917 18.645 4.0492 18.5625 4.2892 18.4725C4.9117 18.2325 5.7667 18.0525 6.6892 17.9625C6.9667 17.94 7.2217 17.925 7.4692 17.9175C7.4917 18.015 7.52168 18.1125 7.55168 18.21C7.58918 18.345 7.62668 18.48 7.66418 18.615C7.72418 18.825 7.79168 19.0275 7.85918 19.2225C7.90418 19.35 7.94168 19.47 7.98668 19.5975C8.06918 19.8075 8.15168 20.01 8.24168 20.2125C8.28668 20.31 8.32418 20.415 8.36918 20.5125C8.50418 20.805 8.65418 21.09 8.81168 21.3675C9.94418 23.3325 11.8942 25.23 14.1667 26.5725C14.2042 26.595 14.2342 26.61 14.2717 26.6325C14.2717 26.64 14.2717 26.655 14.2717 26.6625L14.3092 26.82C14.3242 26.8575 14.3392 26.8875 14.3542 26.9175C12.8692 26.7825 11.4517 26.4375 10.2817 25.89C8.45168 25.035 6.6067 23.4375 5.2192 21.495L5.2117 21.5025ZM31.8142 19.29C31.6042 19.9125 31.1917 20.6775 30.6517 21.4575C29.3242 23.355 27.4342 24.975 25.4542 25.905C24.2917 26.445 22.8967 26.7825 21.4267 26.925L21.4492 26.895V26.6625C21.4492 26.6625 21.4492 26.655 21.4492 26.6475C21.4867 26.625 21.5167 26.61 21.5542 26.5875C23.8192 25.245 25.7692 23.3475 26.9017 21.3825C27.0667 21.105 27.2167 20.8125 27.3592 20.52C27.4042 20.43 27.4417 20.34 27.4792 20.25C27.5767 20.04 27.6667 19.83 27.7567 19.6125C27.8017 19.5 27.8392 19.3875 27.8842 19.275C27.9592 19.0725 28.0267 18.87 28.0942 18.6675C28.1317 18.54 28.1692 18.42 28.2067 18.2925C28.2292 18.2025 28.2667 18.1125 28.2892 18.0225C28.4917 18.0225 28.6942 18.0375 28.8967 18.0525C29.8642 18.1275 30.7642 18.2925 31.4242 18.525C31.6717 18.615 31.8442 18.69 31.9567 18.7575C31.9342 18.8775 31.8967 19.0575 31.8142 19.305V19.29Z" fill="#6B6B6B"/>
</svg>
