<svg width="36" height="36" viewBox="0 0 36 36" fill="none" xmlns="http://www.w3.org/2000/svg">
<path fill-rule="evenodd" clip-rule="evenodd" d="M10.8444 21.4057C10.9929 20.5614 11.7247 19.6576 12.9618 18.4206C13.1093 18.2731 13.3026 18.078 13.5358 17.8426L13.5375 17.841C17.0104 14.3363 29.3281 1.90637 31.5234 4.10162C33.7186 6.29688 21.2886 18.6145 17.784 22.0876C17.5479 22.3215 17.3523 22.5154 17.2044 22.6632C15.9674 23.9002 15.0637 24.6319 14.2194 24.7805C14.617 26.1782 14.3268 27.6624 13.3156 28.6735C12.1124 29.8768 7.20434 31.0093 5.01244 31.4663C4.49768 31.5736 4.05159 31.1275 4.1589 30.6127C4.61585 28.4209 5.74844 23.5128 6.95161 22.3096C7.96271 21.2985 9.44673 21.0082 10.8444 21.4057ZM14.6074 18.8923L14.5181 18.9825C15.3737 19.2352 15.9665 19.6606 16.3443 20.2498C16.5083 20.5057 16.6196 20.7801 16.6963 21.0536L16.7326 21.0176C18.3728 19.3921 21.9063 15.8902 24.9968 12.3897C26.774 10.3767 28.3518 8.42279 29.3346 6.86168C29.6512 6.35891 29.8824 5.93348 30.038 5.58699C29.6915 5.74262 29.2661 5.97376 28.7633 6.2903C27.2022 7.27319 25.2483 8.85104 23.2353 10.6282C19.7349 13.7187 16.2329 17.2522 14.6074 18.8923ZM11.9813 21.898C12.2757 21.4129 12.7103 20.8693 13.2705 20.2616C14.4686 20.398 14.8944 20.7676 15.0814 21.0593C15.2942 21.3913 15.3353 21.7891 15.3718 22.3466C14.7608 22.9106 14.2143 23.3479 13.7271 23.6437C13.5199 23.2962 13.2647 22.9658 12.962 22.6632C12.6593 22.3604 12.3288 22.1052 11.9813 21.898ZM11.9257 23.7484C13.1928 25.0382 13.1118 26.7561 12.2549 27.6129C12.1713 27.6966 11.8695 27.9014 11.2313 28.1731C10.6407 28.4246 9.90558 28.6748 9.10758 28.9119C8.01191 29.2375 6.85211 29.5224 5.88329 29.7419C6.10277 28.7731 6.38775 27.6133 6.7133 26.5177C6.95041 25.7196 7.20059 24.9845 7.45204 24.3939C7.72376 23.7556 7.92858 23.454 8.01228 23.3703C8.86908 22.5134 10.5869 22.4323 11.8767 23.6994C11.8848 23.7076 11.8929 23.7157 11.9011 23.7239C11.9094 23.7321 11.9175 23.7403 11.9257 23.7484ZM30.8181 5.34231C30.8181 5.34231 30.8086 5.34371 30.7929 5.34221C30.8109 5.34083 30.8181 5.34231 30.8181 5.34231ZM30.2828 4.83208C30.2813 4.81639 30.2826 4.80686 30.2826 4.80686C30.2826 4.80686 30.2841 4.81414 30.2828 4.83208Z" fill="#6B6B6B"/>
</svg>
