<svg width="36" height="36" viewBox="0 0 36 36" fill="none" xmlns="http://www.w3.org/2000/svg">
<path fill-rule="evenodd" clip-rule="evenodd" d="M17.25 11.25C16.8358 11.25 16.5 11.5858 16.5 12V16.5C16.5 16.9142 16.8358 17.25 17.25 17.25H21.75C22.1642 17.25 22.5 16.9142 22.5 16.5V12C22.5 11.5858 22.1642 11.25 21.75 11.25H17.25ZM18 12.75V15.75H21V12.75H18Z" fill="#6B6B6B"/>
<path fill-rule="evenodd" clip-rule="evenodd" d="M24 12C24 11.5858 24.3358 11.25 24.75 11.25H29.25C29.6642 11.25 30 11.5858 30 12V16.5C30 16.9142 29.6642 17.25 29.25 17.25H24.75C24.3358 17.25 24 16.9142 24 16.5V12ZM25.5 15.75V12.75H28.5V15.75H25.5Z" fill="#6B6B6B"/>
<path fill-rule="evenodd" clip-rule="evenodd" d="M23.3445 26.25C23.6776 27.5439 24.8521 28.5 26.25 28.5C27.6479 28.5 28.8224 27.5439 29.1555 26.25H30C32.0711 26.25 33.75 24.5711 33.75 22.5V11.25C33.75 9.17895 32.0711 7.5 30 7.5H15C7.9584 7.5 2.25 13.2084 2.25 20.25V22.5C2.25 24.5711 3.92894 26.25 6 26.25H6.84452C7.17755 27.5439 8.35215 28.5 9.75 28.5C11.1479 28.5 12.3224 27.5439 12.6555 26.25H23.3445ZM15 9C14.748 9 14.4979 9.00825 14.25 9.0246V15.75C14.25 16.5785 13.5785 17.25 12.75 17.25H4.15442C3.89083 18.205 3.75 19.2111 3.75 20.25V22.5C3.75 23.7427 4.75736 24.75 6 24.75H6.84452C7.17755 23.4561 8.35215 22.5 9.75 22.5C11.1479 22.5 12.3224 23.4561 12.6555 24.75H23.3445C23.6776 23.4561 24.8521 22.5 26.25 22.5C27.6479 22.5 28.8224 23.4561 29.1555 24.75H30C31.2427 24.75 32.25 23.7427 32.25 22.5V11.25C32.25 10.0073 31.2427 9 30 9H15ZM4.6861 15.75C6.13213 12.4404 9.1245 9.96098 12.75 9.22508V15.75H4.6861ZM8.25 25.5C8.25 26.3284 8.92155 27 9.75 27C10.5785 27 11.25 26.3284 11.25 25.5C11.25 24.6716 10.5785 24 9.75 24C8.92155 24 8.25 24.6716 8.25 25.5ZM24.75 25.5C24.75 26.3284 25.4216 27 26.25 27C27.0784 27 27.75 26.3284 27.75 25.5C27.75 24.6716 27.0784 24 26.25 24C25.4216 24 24.75 24.6716 24.75 25.5Z" fill="#6B6B6B"/>
</svg>
