<svg width="36" height="36" viewBox="0 0 36 36" fill="none" xmlns="http://www.w3.org/2000/svg">
<path fill-rule="evenodd" clip-rule="evenodd" d="M20.25 7.5C19.8358 7.5 19.5 7.83578 19.5 8.25C19.5 8.66422 19.8358 9 20.25 9H22.4876L21.938 10.2825C21.7754 10.6617 21.7763 11.0912 21.9403 11.4698L22.8827 13.6446L18.5882 20.3932L16.0983 12.9236L16.5403 13.0421C16.9405 13.1493 17.3518 12.9119 17.459 12.5117C17.5661 12.1117 17.3288 11.7004 16.9286 11.5932L12.9442 10.5256C12.5441 10.4183 12.1328 10.6558 12.0257 11.0559C11.9184 11.456 12.1559 11.8673 12.556 11.9744L14.3621 12.4584L15.1698 14.8815L12.5174 17.0758C11.4406 16.2445 10.0906 15.75 8.625 15.75C5.10419 15.75 2.25 18.6042 2.25 22.125C2.25 25.6458 5.10419 28.5 8.625 28.5C11.8782 28.5 14.5622 26.0632 14.9515 22.9153L18.3661 22.8752C18.41 22.8757 18.4544 22.8723 18.4988 22.8648C18.5679 22.8533 18.6338 22.8324 18.6952 22.8034C18.8192 22.7449 18.9288 22.6519 19.0079 22.5277L23.603 15.3067L24.1693 16.6135C22.2738 17.7183 21 19.7729 21 22.125C21 25.6458 23.8542 28.5 27.375 28.5C30.8958 28.5 33.75 25.6458 33.75 22.125C33.75 18.6042 30.8958 15.75 27.375 15.75C26.7391 15.75 26.1249 15.8432 25.5454 16.0165L23.3167 10.8733L23.8664 9.59085C24.2906 8.60107 23.5645 7.5 22.4876 7.5H20.25ZM17.3384 21.3871L15.6784 16.4075L13.5944 18.1315C14.3342 19.0508 14.8241 20.1798 14.9609 21.4151L17.3384 21.3871ZM13.4513 21.4329C13.3263 20.5539 12.967 19.7504 12.4385 19.0878L9.58305 21.45H11.9955L13.4513 21.4329ZM11.3229 18.064C10.5503 17.5497 9.62265 17.25 8.625 17.25C5.93261 17.25 3.75 19.4326 3.75 22.125C3.75 24.8174 5.93261 27 8.625 27C11.042 27 13.0483 25.2409 13.4333 22.9332L11.9998 22.9501L9.58305 22.95C8.17747 22.95 7.54387 21.1902 8.62695 20.2943L11.3229 18.064ZM24.7713 18.0028L26.6868 22.4232C26.8515 22.8033 27.2932 22.9778 27.6732 22.8132C28.0533 22.6485 28.2278 22.2068 28.0632 21.8268L26.1474 17.4058C26.5396 17.3041 26.951 17.25 27.375 17.25C30.0674 17.25 32.25 19.4326 32.25 22.125C32.25 24.8174 30.0674 27 27.375 27C24.6826 27 22.5 24.8174 22.5 22.125C22.5 20.39 23.4063 18.8668 24.7713 18.0028Z" fill="#6B6B6B"/>
</svg>
