<svg width="36" height="36" viewBox="0 0 36 36" fill="none" xmlns="http://www.w3.org/2000/svg">
<path fill-rule="evenodd" clip-rule="evenodd" d="M22.5 6.375C22.5 8.6532 20.6532 10.5 18.375 10.5C16.0968 10.5 14.25 8.6532 14.25 6.375C14.25 4.09682 16.0968 2.25 18.375 2.25C20.6532 2.25 22.5 4.09682 22.5 6.375ZM21 6.375C21 7.82475 19.8247 9 18.375 9C16.9253 9 15.75 7.82475 15.75 6.375C15.75 4.92525 16.9253 3.75 18.375 3.75C19.8247 3.75 21 4.92525 21 6.375Z" fill="#6B6B6B"/>
<path fill-rule="evenodd" clip-rule="evenodd" d="M20.2243 19.0068L19.1308 17.9898L18.731 19.9165C18.68 20.1619 18.7552 20.4167 18.9312 20.5953L22.9692 24.6921C23.3543 25.0828 23.5835 25.6007 23.6134 26.1485L23.9555 32.3968C23.9963 33.1417 23.6652 33.8585 23.0714 34.3103L22.786 34.5275C22.0995 35.0498 21.1749 35.1337 20.4056 34.7435L20.29 34.6849C19.622 34.346 19.1664 33.6969 19.0748 32.9534L18.4015 27.4889C18.3813 27.3248 18.3074 27.172 18.1913 27.0542L17.1146 25.9618L16.958 27.0739C16.9102 27.4138 16.7852 27.7382 16.5926 28.0223L12.5478 33.9913C12.2176 34.4785 11.7095 34.817 11.1326 34.9341L10.8818 34.985C9.81242 35.202 8.74142 34.6204 8.34122 33.6052L8.25947 33.3979C7.98692 32.7067 8.07325 31.9255 8.49002 31.3105L12.4655 25.4437C12.5196 25.3639 12.5578 25.2745 12.578 25.1802L14.2631 17.3159C14.309 17.1021 14.1204 16.9115 13.9061 16.955C13.814 16.9737 13.7358 17.0339 13.6943 17.1182L12.092 20.3695C11.8481 20.8643 11.431 21.2523 10.9199 21.4597L10.7693 21.5208C9.60985 21.9913 8.2891 21.4254 7.8301 20.2612L7.79597 20.1747C7.56332 19.5846 7.59055 18.9237 7.87097 18.3547L10.2115 13.6057C10.4823 13.0561 10.9656 12.6407 11.5497 12.4555L16.8647 10.7704C17.5627 10.5491 18.3245 10.6813 18.9072 11.1246L19.9769 11.9386L22.9845 14.6085C23.0975 14.7088 23.2382 14.7727 23.3881 14.7916L25.461 15.0545C26.2133 15.1499 26.8658 15.6216 27.1985 16.2967C27.62 17.1522 27.4608 18.1921 26.7857 18.877L26.7249 18.9386C26.3021 19.3676 25.7249 19.6092 25.1225 19.6092H21.7565C21.188 19.6092 20.6406 19.3939 20.2243 19.0068ZM17.3181 12.2002C17.5507 12.1265 17.8047 12.1705 17.9989 12.3184L18.6698 12.8288L17.2622 19.6117C17.1094 20.3482 17.3348 21.1125 17.8629 21.6483L21.9009 25.745C22.0293 25.8753 22.1057 26.0479 22.1156 26.2306L22.4578 32.4787C22.4714 32.7271 22.361 32.966 22.1631 33.1166L21.8777 33.3338C21.6488 33.5079 21.3407 33.5359 21.0842 33.4058L20.9686 33.3472C20.7459 33.2342 20.594 33.0178 20.5635 32.77L19.8902 27.3055C19.8296 26.8131 19.6079 26.3545 19.2596 26.0012L17.0937 23.8039L14.819 21.8807L15.7298 17.6302C16.0021 16.3594 14.8815 15.2265 13.6079 15.4849C13.0606 15.5959 12.5957 15.9542 12.3488 16.4551L10.7465 19.7064C10.6652 19.8713 10.5262 20.0007 10.3558 20.0698L10.2053 20.1309C9.8188 20.2877 9.37855 20.0991 9.22555 19.711L9.19142 19.6245C9.11387 19.4278 9.12295 19.2075 9.21647 19.0179L11.5569 14.2687C11.6472 14.0856 11.8083 13.9471 12.003 13.8854L17.3181 12.2002ZM21.9887 15.7303L19.9712 13.9393L19.487 16.2727L21.2458 17.9083C21.3845 18.0374 21.567 18.1092 21.7565 18.1092H25.1225C25.3233 18.1092 25.5157 18.0286 25.6567 17.8856L25.7174 17.824C25.9388 17.5995 25.9958 17.2498 25.853 16.9598C25.7404 16.7314 25.5193 16.5739 25.2723 16.5426L23.1993 16.2797C22.7497 16.2227 22.3277 16.0312 21.9887 15.7303ZM14.4627 23.5437L15.7831 24.6601L15.4727 26.8647C15.4567 26.978 15.4151 27.0862 15.3509 27.1809L11.3061 33.1498C11.196 33.3122 11.0267 33.425 10.8344 33.4641L10.5835 33.5149C10.227 33.5873 9.8701 33.3934 9.73667 33.055L9.65492 32.8477C9.5641 32.6173 9.59282 32.3569 9.7318 32.1519L13.7072 26.2852C13.8695 26.0458 13.9841 25.7773 14.0447 25.4944L14.4627 23.5437Z" fill="#6B6B6B"/>
</svg>
